<?xml version="1.0" encoding="utf-8"?>
<!-- Generator: Adobe Illustrator 24.2.3, SVG Export Plug-In . SVG Version: 6.00 Build 0)  -->
<svg version="1.1" id="Layer_1" xmlns="http://www.w3.org/2000/svg" xmlns:xlink="http://www.w3.org/1999/xlink" x="0px" y="0px"
	 viewBox="0 0 1366 768" style="enable-background:new 0 0 1366 768;" xml:space="preserve">
<style type="text/css">
	.st0{display:none;}
	.st1{display:inline;}
	.st2{display:inline;fill:none;stroke:#000000;stroke-width:2;stroke-linecap:round;stroke-linejoin:round;stroke-miterlimit:10;}
	.st3{fill:none;stroke:#000000;stroke-width:2;stroke-linecap:round;stroke-linejoin:round;stroke-miterlimit:10;}
</style>
<g class="st0">
	<path class="st1" d="M532.8,437.9c-18.7,0-37.3,0-56,0c-5.2,0-5,0.4-4.9-4.9c0.1-3.5-1.4-7.8,0.6-10.2c2.1-2.4,6.5-1.3,9.9-1.9
		c12.1-2.3,18.3-5,19.8-17.9c1-15,0.6-30.2,0.3-45.2c-0.4-17.6-0.2-35,0.1-52.6c0.2-9.9,0.3-19.7-0.2-29.6
		c-0.4-9.7-6.2-21.5-19.5-25.8c-3.7-1.2-7.4-1.9-11.2-2.6c-2.6-0.4-4.2-0.8-3.1-4.4c0.9-2.7,0.3-5.9,0.2-8.9c0-2,0.5-3,2.8-3.1
		c5.3,0,10.6-0.6,15.9-1c16.7-1.1,33.5-1.1,50.1-2.7c8.5-0.8,17-0.7,25.5-1.2c4.5-0.3,6.3,1.6,6.3,6.2c0.1,7.8,0,15.6,0,23.5
		c0,0.9-0.4,2.3,0.6,2.7c1,0.5,1.6-0.8,2.4-1.4c12.2-11.3,24.3-23.4,40.2-29.3c3.3-1.3,7-1.6,10.5-2.6c9.2-2.6,18.7-2,28-1.9
		c10.3,0.1,20.1,3.1,28.7,8.1c26.2,14.7,22.4,34.7,28.8,28.5c2.2-2.2,4.7-4.3,6.9-6.5c6.2-6.1,13-11.5,19.7-16.9
		c5.8-4.7,13.2-6.8,20.2-9.1c26.9-8.4,60.8-6.7,79,17.5c12.3,16,14.5,36.7,14.1,56.2c0.1,31.5,0.2,62.9-0.1,94.4
		c-0.1,8.6,1.5,18.9,11.1,21.7c5.4,1.9,10.7,4.3,16.6,4.8c2.2,0.1,2,2.3,2,3.9c-0.2,3.8,1.5,8.6-0.7,11.2c-2.3,2.7-7.2,0.9-11,0.9
		c-36,0-72,0.3-108,0c-1.7,0.1-2.3-0.8-2.3-2.5c0-3.7,0.1-7.3,0-11c0-2,1-2.4,2.7-2.8c9.7-1.6,21.3-1,21.3-14
		c0.2-3.6,0.7-7.1,0.6-10.7c-0.2-19.4,0.1-38.8,0-58.2c0-12.5,0.1-25.1,0-37.6c0-7.2-0.4-14.4-2.2-21.4c-9-37.3-54.2-23.5-68.8,2.5
		c-0.5,0.7-0.9,1.4-0.8,2.3c0.6,10.5-0.7,21.1,0,31.6c0.7,11.1-0.5,22.1-0.1,33.1c0.5,18.4-0.7,36.9,0.9,55.3
		c0.5,10.7,11.9,14.9,20.9,16.8c2.2,0.4,3.1,1.4,2.9,3.7c-0.4,4.1,0.7,8.3-0.7,12.3c-36.5,1.1-73.3,0-109.9,0.4c-1.3,0-2.7,0-4,0
		c-1.4,0-2.2-0.5-2.2-2c0-4,0-8,0-12c0-1.5,1-1.9,2.3-2.1c3.5-0.5,7-0.8,10.4-1.5c7.5-1.5,10.7-5.4,11.5-13
		c0.5-4.8-0.1-9.6,0.1-14.4c0.3-10.1,0.3-20.3-0.1-30.5c0-21.5,0.7-43,0.1-64.4c0.2-16.4-4.8-38.8-24.3-40.7
		c-7.3-0.8-14.7,0-21.7,3.2c-6.6,3-12.2,7.2-17.3,12.2c-5.3,5.1-8.8,11-8.4,19.2c0.7,15.6,0.2,31.3,0.2,46.9c0,18.8,0,37.6,0,56.4
		c0,3.8,0.5,7.5,1.1,11.2c0.9,4.7,3.7,8.2,7.9,10.4c3.8,2,7.7,3.9,12.1,4.5c2.6,0.3,3.8,1.5,3.6,4.3c-0.2,2.6,0,5.3,0,8
		c0,4.3-0.1,4.4-4.5,4.4C570.8,438,551.8,437.9,532.8,437.9z M831,378.9c0-3.7,0-7.3,0-11c0-1.8-0.7-3.2-1.5-4.9
		c-1.7-3.6-4.8-5.1-7.8-6.9c-5.5-3.2-11-6.5-16.6-9.5c-3-1.6-4-1-4,2.1c-0.1,8.2,0,16.3,0,24.5c0,0.8-0.1,1.9,0.4,2.4
		c3,3,5.3,6.7,9.5,8.5c3.9,1.7,7.4,4.2,11.1,6.4c1.8,1.1,3.7,2.2,5.6,3c2.4,1.1,3.3,0.5,3.3-2.2C831.1,387.2,831,383,831,378.9z
		 M549,325c0-3.3-0.1-6.7,0-10c0.2-5.4-2-9.4-6.8-11.9c-6.3-3.3-12.3-6.9-18.3-10.6c-3.2-2-4.6-1.4-4.6,2.3c0,8-0.1,16,0.2,24
		c0.1,3.2,2,6.1,4.6,7.8c7.2,4.6,14.6,8.8,22,13c2,1.1,2.8,0.5,2.9-2.1C549.1,333.3,549,329.1,549,325z M831,306.3L831,306.3
		c0-4.2,0.1-8.3,0-12.5c-0.1-2.6-1.2-3-3.5-1.7c-7.1,4.1-14.2,8.1-21.3,12.3c-2.9,1.7-4.7,4.8-4.8,7.9c-0.4,8.1-0.2,16.3-0.1,24.5
		c0.1,3.1,1.2,3.7,4.1,2.1c7-3.9,13.9-8,20.9-12c0.4-0.2,1-0.5,1.2-0.9c1.2-3.6,4.6-6.3,3.7-10.8C830.6,312.4,831,309.3,831,306.3z
		 M801,251.9L801,251.9c0,4,0,8,0,12c-0.1,3.6,2.3,6.5,4.5,8c6.9,4.7,14.3,8.6,21.7,12.7c3.1,1.7,3.8,1.3,3.8-2.1c0.1-8,0-16,0-24
		c0-1,0.1-2-0.7-2.8c-2.4-2.7-4-6-7.7-7.8c-6.3-3-12.3-6.8-18.5-10.3c-2-1.2-3.2-0.6-3.2,1.8C801,243.6,801,247.8,801,251.9z
		 M673,273c-8.2,4.5-16.2,9.3-24.3,13.9c-1.9,1.1-1.7,2.1,0.1,3.2c7.4,4.3,14.7,8.7,22.2,12.8c2.4,1.3,6,1.4,8.1,0.3
		c7.6-3.9,14.8-8.4,22.1-12.8c2.6-1.6,2.6-2.2-0.1-3.9c-5.5-3.3-11.1-6.3-16.5-9.7C681,274.6,677.6,272.2,673,273z M675.2,412
		c1.5,0,3.1,0.5,4.4-0.3c7.1-4.1,14.3-8.2,21.3-12.5c2.8-1.7,2.8-2.6-0.3-4.4c-6.8-4-13.5-8-20.4-11.9c-3-1.7-6.5-1.8-9.5-0.2
		c-7.4,4-14.6,8.3-21.8,12.5c-2.7,1.6-2.6,1.9,0.1,3.5c6.9,4.1,13.9,8,20.8,12.2C671.6,412,673.3,412,675.2,412z M520,379
		c0,4-0.1,8,0,12c0.1,3.5,0.6,3.8,3.7,2c6.7-3.8,13.5-7.4,20-11.4c3-1.8,5.1-4.7,5.2-8.3c0.2-8.3,0.1-16.6,0-24.9
		c0-3.1-0.9-3.5-3.5-2c-6.2,3.6-12.3,7.4-18.7,10.7c-4.7,2.5-7,6.5-6.8,11.9C520.1,372.3,520,375.7,520,379z M705.1,306.6
		C705.1,306.6,705.1,306.6,705.1,306.6c0-4.5,0-9,0-13.5c0-1.7-0.5-2.5-2.4-1.3c-7,4.2-14.3,8-21.2,12.5c-3.2,2.1-5.5,5.4-5.5,9.6
		c0,7.3,0,14.7,0,22c0,4.5,0.9,5,4.9,2.7c5.7-3.3,11.2-7,17.1-9.9c5.2-2.6,7.3-6.5,7.2-12.1C705.1,313.2,705.1,309.9,705.1,306.6z
		 M549,252.5c0-4.1,0.1-8.3,0-12.5c-0.1-3.5-0.6-3.8-3.7-2c-7,4-14,8-20.9,12.1c-2.8,1.7-4.3,4.4-4.3,7.6c-0.2,8.3-0.1,16.6,0,24.9
		c0,3.1,0.9,3.6,3.5,2c6.2-3.7,12.4-7.3,18.7-10.8c4.6-2.5,7.1-6.5,6.8-11.9C548.9,258.8,549,255.7,549,252.5z M645,270.2
		c0,4.2-0.1,8.3,0,12.5c0.1,2.9,1.1,3.5,3.6,2c6.7-3.9,13.2-7.9,20-11.7c3.8-2.1,5.1-5.5,5.2-9.2c0.3-7.8,0.1-15.6,0.1-23.4
		c0-3.8-0.7-4.2-3.9-2.3c-6.4,3.7-12.7,7.6-19.1,11.1c-4.3,2.4-6,5.9-6,10.6C645,263.2,645,266.7,645,270.2z M674,360.7
		c0-4.1,0.1-8.3,0-12.5c-0.1-2.9-0.8-3.3-3.1-1.9c-6.8,3.9-13.7,7.8-20.4,11.8c-3.6,2.1-5.3,5.4-5.4,9.6c0,7.1-0.1,14.3,0,21.4
		c0,1.6-0.9,3.6,0.8,4.6c1.6,0.9,3-0.7,4.4-1.5c5.7-3.3,11.2-6.9,17-9.8c4.9-2.4,6.8-6.1,6.7-11.2C674,367.7,674,364.2,674,360.7z
		 M674.1,325.4C674.1,325.4,674.1,325.4,674.1,325.4c0-4,0.1-8,0-12c0-3.3-1.2-6.8-3.6-8.4c-7.2-4.8-15-8.8-22.5-13.2
		c-2.2-1.3-3-0.3-3,1.9c0,8.5-0.3,17,0.2,25.4c0.2,3,1.3,6.6,5.1,7.9c6.7,4,13.5,8,20.4,11.8c2.9,1.6,3.2,1.4,3.3-2.1
		C674.2,333.1,674.1,329.2,674.1,325.4z M705.1,379.4C705.1,379.4,705.1,379.4,705.1,379.4c-0.4-7.2,2.2-16.8-5.2-21.3
		c-6.5-3.8-13-7.6-19.6-11.3c-3.7-2.1-4.2-1.8-4.2,2.2c-0.1,7.1,0.1,14.3-0.1,21.4c-0.2,5.5,2.5,9.2,6.8,11.8
		c6.3,3.8,12.7,7.4,19.1,11.1c2.4,1.4,3.2,0.9,3.2-2C705.2,387.3,705.1,383.4,705.1,379.4z M565.6,288.5c2-6.1-0.4-10.1-6.4-12
		c-0.6-0.2-1-0.9-1.6-1.2c-5-3.2-10-3.1-15.1-0.1c-5.9,3.5-11.8,7-17.8,10.4c-3.6,2.1-3.7,3.3-0.3,5.3c6.8,4,13.5,8,20.3,11.9
		c0.9,0.5,1.9,1.3,3.2,1.1c3.9-0.5,7.5-1.1,11.1-3.2C564.2,297.9,567.7,295,565.6,288.5z M565.6,397.2c2.1-6.6-1.2-10.4-7.3-12.6
		c-0.6-0.2-1-0.9-1.6-1.2c-4.5-2.8-9-2.6-13.5,0c-6.4,3.9-13.1,7.5-19.5,11.4c-2.4,1.6-2.4,3.2-0.2,4.4c7,4,13.9,8,20.9,12
		c1.1,0.6,2.1,1.3,3.5,1.4c4.3,0.1,7.9-1.7,11.7-3.5C565,406.5,567.4,403.2,565.6,397.2z M705.6,274.5c0.4-4.6,1.2-9.2-3.8-12.2
		c-0.9-0.6-1.2-2.3-1.8-3.5c-4.3-9.4-10.5-17-20.5-20.9c-3.3-1.3-3.5-1.4-3.5,2.4c-0.1,6.8,0.2,13.6-0.1,20.5
		c-0.3,6.2,2.4,10.4,7.6,13.4c6.4,3.6,12.8,7.3,19.1,11.1C706.8,288.2,705.3,276.4,705.6,274.5z M801.8,303.3c1.2,1,1.8,0.4,2.5,0
		c7.2-4.2,14.5-8.3,21.7-12.6c2.8-1.7,2.8-2.7,0-4.4c-7-4.2-14-8.4-21.3-12.3c-2.5-1.3-5.8-1.3-8.4,0c-4,2-7.7,4.4-11.5,6.6
		c-0.8,0.5-2.1,0.7-1.6,2c1.5,4,0.7,8.2,1.7,12.3c0.3,1,0.4,1.7,1.5,2.2C791.5,299.6,795.5,304.7,801.8,303.3z M784.9,397.9
		c-1.7,5.5,1.4,9,7.1,11.1c0.9,0.3,1.6,1.1,2.5,1.6c3.9,2.1,8.1,2.3,11.8,0.2c6.4-3.6,12.7-7.5,19.2-11c3.2-1.8,3.2-3.2-0.1-5.2
		c-6.3-3.8-12.9-7.2-19-11.2c-3-2-6.1-1.6-9-1.2c-2,0.3-3.8,1.8-5.7,2.8C784.9,389,784.9,389,784.9,397.9z M844.9,342.5
		c0-0.7-0.1-1.4,0-2c1.2-6.2-1.6-8.9-7-11c-4.6-2.7-9-2.6-13.4,0.4c-1.2,0.8-2.6,1.4-3.8,2.2c-5,2.9-9.9,5.6-14.8,8.6
		c-2.4,1.4-2.5,2.9-0.4,4.1c7.2,4.2,14.5,8.2,21.8,12.3c1.7,0.9,8,0.7,9.5-0.2C846.9,350.8,844.7,354.2,844.9,342.5z M506.3,342.5
		c0,1,0.2,2,0,3c-1.4,6.1,2,9.3,7,11.1c3.7,1.4,7.4,2,11.2-0.3c6.6-4,13.4-7.6,20.1-11.5c3-1.7,3-2.1-0.1-4c-6.9-4.1-14-8-20.9-12.1
		c-3.1-1.8-6.4-1.7-9.3-0.4C505.5,332,506.3,333.4,506.3,342.5z M643.6,248.9c1.3-0.6,2.3,1.1,3.7,0.3c7.8-4.6,15.6-9,23.4-13.6
		c1.1-0.7,2.2-1.6,0.1-2.9c-2.5-1.5-5-3-7.9-3.9c-9.5-2.6-19.1-2.2-28.7-1.7c-5.3,0.3-10.8,1.2-15.5,4.4c-3.4,2.3-3.6,2.7,0,4.9
		c6.3,3.8,12.8,7.4,19.1,11.1C639.7,248.8,641.2,250.2,643.6,248.9z M519.4,415c0,0-0.1,0-0.2,0c0,3.3,0.6,6.8-0.1,9.9
		c-0.8,3.8,2.3,5.6,3.3,8.4c0.6,1.6,3.6,0.6,5.6,0.6c3.3,0.1,6.7,0.1,10,0c3.5-0.1,7.9,1.5,10.1-0.6c2.5-2.3,0.7-6.9,0.9-10.5
		c0.3-5-2-8.5-6.4-11c-6.5-3.6-12.8-7.4-19.2-11c-2.8-1.6-3.9-1.1-4,2.1C519.3,407,519.4,411,519.4,415z M706,416.1c0,0-0.1,0-0.2,0
		c0-4.5,0.2-9-0.1-13.4c-0.1-2.8-1-3.3-3.5-1.9c-7.2,4-14.3,8-21.3,12.4c-6.7,4-4.8,11.6-5.1,18.1c-0.1,2.2,0.8,2.8,2.9,2.8
		c7.1-0.1,14.3,0,21.4,0c0.9,0,2.1,0.4,2.6-0.8c1.3-3.1,4.3-5.5,3.2-9.6C705.5,421.2,706,418.6,706,416.1z M831,415
		c0-3.8,0-7.6,0-11.5c0-4.1-0.5-4.5-4.2-2.4c-7,3.9-13.9,7.9-20.9,12c-0.9,0.5-4.5,6.6-4.5,7.7c-0.1,3.5-0.1,7-0.2,10.5
		c-0.1,2.1,0.9,2.9,3,2.8c6.2-0.1,12.3-0.2,18.4,0c4.5,0.5,8.6-3.1,8.4-7.6C831,422.6,831,418.8,831,415z M645.1,414.7
		C645,414.7,645,414.7,645.1,414.7c-0.1,4-0.1,8,0,12c0.1,5.3,2.1,7.3,7.1,7.3c4.5,0,9,0,13.5,0c8.6,0,8.7,0,8.5-8.6
		c-0.1-2.6,0.5-5.1-0.8-7.8c-1.4-3-3.4-4.8-6.3-6.3c-5.9-3.1-11.6-6.8-17.4-10.1c-4.1-2.3-4.4-2-4.5,2.5
		C645,407.4,645.1,411.1,645.1,414.7z M799.1,252.3c0-4.3,0-8.6,0-12.9c0-1.4-0.3-3.1-2.2-2c-7.7,4.3-15.4,8.6-22.8,13.4
		c-1.9,1.2-3.2,4-3.8,6.3c-0.6,2.4,2.1,3.5,3.6,5c2.3,2.4,4.3,5,5.7,8c1.4,2.9,2,6.1,3.7,8.8c3.1-1.2,5.7-3.4,8.6-4.6
		C801.3,270.3,798.7,260.4,799.1,252.3z M780.3,227.2c-4.2-0.7-7.9,0.3-11.7,0.9c-8,1.4-15.7,3.8-22.9,7.6c-1.8,1-1.1,1.5,0,2.2
		c5.4,3.1,11,5.9,16.2,9.3c5.1,3.2,9.7,3,14.6-0.2c6.3-3.8,12.9-7.2,19.1-11.2c1.3-0.8,2-2.2,0.1-3.1
		C790.8,230.2,786.6,225.3,780.3,227.2z M551,251.9c0,3.5,0.1,7,0,10.5c-0.1,4.8,1.9,8.5,5.9,11c2.8,1.7,5.8,3.1,8.5,4.8
		c1.4,0.9,2.3,0.8,3.3-0.5c3.1-4.1,6.4-8.1,10.3-11.5c0.9-0.8,1.5-9,0.8-9.1c-2.4-0.3-3.2,2.3-5,3.3c-2,1.1-3.4,3.1-6.2,1.8
		c-2.9-1.4-2.7-3.9-2.7-6.4c0-3,0-6,0-9c0-1.4-0.1-2.4-1.7-3.2c-3.5-1.8-6.8-4-10.2-6c-2-1.1-3.1-0.6-3,1.8
		C551,243.6,551,247.7,551,251.9z M833,414.9c0,4.1-0.1,8.3,0,12.5c0.2,4.6,2.4,6.7,6.7,6.7c4.8,0,9.6,0,14.4,0c8.1,0,8,0,7.9-8.3
		c0-2.5-0.7-3.9-3.2-4.7c-6.4-2-10.8-6.2-12.7-12.7c-0.4-1.4-0.7-2.4-2-3.1c-2.8-1.5-5.4-3.1-8.2-4.6c-2-1.1-3.1-0.6-3,1.9
		C833,406.5,833,410.7,833,414.9z M518,270.7c0-2.8-0.2-5.7,0-8.5c0.4-6.4-2.2-10.9-7.8-13.8c-2.9-1.5-5.6-3.5-8.5-5.1
		c-3.4-1.9-6.9-3.7-10.4-5.7c-4.9-3-3.2,6.3-3.3,8.7c0,1.9,2.1,1.9,3.2,2.7c8.2,6.2,14.7,13.8,14.6,24.7c-0.2,6.3,3.6,8.9,8.4,11
		c3,1.5,3.5,1.3,3.6-2.1C518.1,278.7,518,274.7,518,270.7z M518,415.1c0-2.7,0-5.3,0-8c0-8.4,0-8.3-7.3-4.5
		c-2.5,1.3-4.8,2.6-5.4,5.8c-1.5,8.1-7,12.4-14.5,14.6c-1.4,0.4-2.8,0.7-2.7,2.3c0,2.8-0.7,5.6,0.6,8.3c0.2,0.4,1.2,0.4,1.8,0.4
		c7.3,0,14.7,0,22,0c1.2,0,1.9-0.2,2.8-1.4c1.9-2.5,3-4.9,2.8-8C517.8,421.4,518,418.3,518,415.1z M537.7,231.2
		c-14.6,1.1-29.2,1.5-43.8,2.3c-0.9,0.1-2.2,0-2.4,1.1c-0.2,0.9,0.9,1.3,1.5,1.8c0.8,0.6,1.7,1,2.6,1.4c5.3,3,10.7,5.8,15.8,9.1
		c8.8,5.6,13.7,0.2,21.3-3.9c4.1-2.4,8.3-4.7,12.4-7.1c2.3-1.4,2.2-2.1-0.2-3.6C542.6,230.9,540.2,231,537.7,231.2z M564.6,434
		c3,0,6,0.1,9,0c1.4,0,3.9,0.6,4-0.6c0.3-2.8,4-3.7,3.3-6.9c-0.4-2.1-0.1-4.2-2.7-5.4c-5.4-2.4-9.2-6.4-10.8-12.2
		c-0.4-1.4-1-2.3-2.8-1.1c-3,2-6.3,3.6-9.3,5.5c-6.1,4.1-4,12-4.3,18.2c0,1.9,0.7,2.6,2.6,2.6C557.3,433.9,560.9,434,564.6,434z
		 M786,434C786,434,786,434,786,434c3.8,0,7.7,0,11.5,0c1.2,0,2.5,0,2.5-1.6c0.2-7,1.5-14.1-4.7-19.1c-2.5-2.2-5.9-3.5-8.9-5.2
		c-1.6-0.9-2.3-0.5-2.4,1.4c-0.4,7.2-4.2,11.9-11.1,14.1c-6.7,2.4-1.4,10.8,4.1,10.4C780,434,783,434,786,434z M565.9,369.8
		c0-1.3,0-2.7,0-4c-0.1-4.1,1-8.9-0.6-12.3c-1.7-3.6-6.9-4.6-10.4-6.9c-3.3-2.1-3.8-1.8-3.9,2.2c-0.1,8-0.1,15.9,0,23.9
		c0.1,7.6,7.1,9.5,12.4,13c1.4,1,2.6,1,2.5-1.5C565.8,379.4,565.9,374.6,565.9,369.8z M565.9,316C565.9,316,565.9,316,565.9,316
		c0-5,0-10,0-14.9c0-1.8-0.5-2.5-2.3-1.2c-5.4,3.9-12.3,4.9-12.5,12.8c-0.3,8.3-0.1,16.6-0.1,24.9c0,2.5,0.9,3,2.9,1.9
		c3.3-1.8,6.5-3.8,9.8-5.7c1.5-0.9,2.3-1.9,2.3-3.9C565.8,325.3,565.9,320.6,565.9,316z M800,324.6C800,324.6,800,324.6,800,324.6
		c-0.2-8.9,1.9-16.8-7.5-21.7c-1.7-0.9-3.5-1.8-5.1-2.9c-2.1-1.3-2.5-0.4-2.5,1.6c0,6.5,0,13,0,19.4c0,3.8-1.3,8.2,0.6,11.3
		c2,3.4,7,4,10.2,6.6c2.7,1,4.1,1.5,4.3-1.9C800.1,332.9,800,328.7,800,324.6z M784.9,368.8c0,3.2,0,6.3,0,9.5c0,8.3,0,8.3,7.4,4
		c0.4-0.2,0.9-0.5,1.3-0.6c3.7-1.2,5-4.8,5.2-7.6c0.6-8.8,0.2-17.6,0.2-26.5c0-1.9-1.1-2.3-2.7-1.5c-3,1.6-5.9,3.4-9,5
		c-1.8,0.9-2.7,2-2.6,4.2C785,359.8,784.9,364.3,784.9,368.8z M645.1,343c0,4.1-0.1,8.3,0,12.5c0.1,2.6,0.9,3.1,2.9,2
		c7.3-4.2,14.5-8.4,21.7-12.6c3-1.8,3-2-0.2-4c-7-4.2-14.1-8.4-21.1-12.6c-2.4-1.4-3.2-1-3.3,1.8C645,334.4,645.1,338.7,645.1,343z
		 M643,266.6c-0.1-7.2,1.2-12.5-5.7-16.9c-6.7-4.2-13.5-8.1-20.3-12c-2.4-1.4-3.3-0.9-3.5,1.9c-0.3,3.8-0.2,7.6-0.3,11.4
		c0,1.5,0.7,2,2.1,2.1c1.2,0.1,2.3,0.5,3.4,0.7c7.2,1.1,13,4.4,17.4,10.4c2.4,3.2,4.5,6.5,5.8,10.3c0.2,0.6,0.1,1.4,1,1.4
		c0.1,0,0.2-0.9,0.2-1.4C643,271.9,643,269.2,643,266.6z M705.1,342.6c0-4.3,0-8.7,0-13c0-1.9-0.3-2.9-2.5-1.7
		c-7.4,4.3-14.8,8.6-22.2,12.9c-2,1.2-2,2.8,0.2,4c7.1,4.1,14.2,8.2,21.4,12.1c2.7,1.5,3,1.2,3.1-1.9
		C705.2,351,705.1,346.8,705.1,342.6z M844.9,314.2c0-4.8,0-9.6,0-14.5c0-1.5,0-3-1.7-3.7c-2.7-1.1-5-3-7.7-4.3
		c-2.4-1.2-2.5-0.1-2.5,1.7c0,7.5,0.2,15,0,22.4c-0.2,9,3.8,10.9,10,14.1c1.2,0.6,2.1,0.6,2-1.2
		C844.8,323.9,844.9,319.1,844.9,314.2z M844.9,371.6c0-4.5,0-9,0-13.5c0-3.5-0.1-3.5-3.1-2.2c-6.2,2.7-9.2,7.2-8.9,14.1
		c0.3,6.1,0,12.3,0.1,18.4c0,1.8-0.9,4.2,0.6,5.1c2,1.2,3.5-1.3,5.2-2c2.7-1.4,6.4-2.3,6.1-6.1C844.8,381,844.9,376.3,844.9,371.6z
		 M518,379.1c0-4,0-8,0-12c0-1.1,0.1-2.2-0.7-3.3c-2.3-3.2-4.6-6.1-8.4-7.7c-2.1-0.9-2.6-0.7-2.6,1.5c0,7.8,0,15.6,0,23.4
		c0,8.1,0.7,9.1,8.2,12.4c1.9,1.1,3.7,0.8,3.5-1.9C517.9,387.4,518,383.2,518,379.1z M506.3,313.5
		C506.3,313.5,506.3,313.5,506.3,313.5c0,4.8,0,9.7,0,14.5c0,1-0.1,2,1.6,1.5c4.6-1.3,10.7-8,10.1-13.4c-0.6-6.1-0.1-12.3-0.1-18.5
		c0-3.1,0.5-8.6-4.2-5.5c-1.4,0.8-2.7,2-4.2,2.6c-2.6,1-3.5,2.7-3.4,5.4C506.4,304.5,506.3,309,506.3,313.5z M612,245.3
		c0-1.5,0-3,0-4.5c-0.1-4-0.9-4.6-4.3-2.7c-6.6,3.7-13.1,7.4-19.5,11.4c-4.1,2.5-6.4,6.2-6.2,11.2c0.1,1.9,0.2,2.9,2.5,1.4
		c6.1-3.9,12.5-7.3,19.9-8.1C612,253.2,612,253.1,612,245.3z M737,249.5c0-2.6,0-4.4,0-6.3c0.1-2-1.1-1.9-2.1-1.1
		c-7.6,5.6-14.2,12.4-21.3,18.6c-2.1,1.8-5.2,3-6.2,5.3c-1.2,2.7-0.2,6.6-0.3,9.8c0.1,0.8-0.3,1.9,0.5,2.2c1,0.4,1.2-0.7,1.7-1.4
		c5.6-8.5,13.1-14.9,22.4-18.8C736,256,738.2,253.6,737,249.5z M720.3,434C720.3,434,720.3,434,720.3,434c2.5,0,5,0,7.5,0
		c0.8,0,1.9-0.1,2-1c0.2-2.3,0.5-4.7,0-6.9c-0.4-1.7-2.7-1.5-4.2-2c-6.1-1.7-11.8-4-16-9.1c-0.3-0.4-0.5-1.4-1.3-0.9
		c-0.3,0.1-0.2,0.9-0.2,1.4c0,4-0.2,8,0,11.9c0.2,4.5,2.5,6.5,6.9,6.6C716.6,434,718.5,434,720.3,434z M739,247
		C739,247,739,247,739,247c0,0.7,0,1.3,0,2c0,5.6,0,5.8,5.8,4.8c7-1.3,13.8-0.6,20.5,1.9c0.7,0.3,2,0.9,2.2,0.6
		c1.2-1.3-1.1-1.2-1.1-2.1c0.1-2.9-2.2-3.7-4.1-4.8c-2.7-1.6-5.3-3.2-8-4.7c-3.5-2-7-4.1-10.7-6C737.8,235.7,739.1,243.8,739,247z
		 M833,269.5c0,3.5-0.1,7,0,10.5c0.1,1.8-0.9,4,0.8,5.1c1.8,1.2,3.1-1.1,4.5-1.8c2.1-1.4,6.2-2,5.5-5.3c-1.6-7.9-3.9-15.6-7.4-23
		c-0.9-1.9-1.7-1.3-2.7-0.2c-1,1-0.7,2.1-0.7,3.3C833,261.9,833,265.7,833,269.5z M630.6,434L630.6,434c1.7,0,3.3,0,5,0
		c4.4,0,7.2-2.7,7.4-7c0.1-2.2,0.1-4.3,0-6.5c0-0.9,0.6-2.1-0.6-2.6c-0.8-0.3-1.4,0.7-1.9,1.3c-2.5,3-5.9,4.1-9.6,4.7
		c-2.4,0.4-4.8,1.4-7.3,1.1c-1.8-0.2-2.8,0.6-2.7,2.6c0.5,2.2-1.3,6.6,2.3,6.4C625.7,433.9,628.2,434,630.6,434z M829.9,249
		c0.4-0.1,1.5,0.2,1.8-0.6c0.5-0.9-0.5-1.4-1-2.1c-2.4-3.7-5.9-6.2-9.2-9c-3.2-2.6-7-4.3-10.8-6c-2-0.9-6.2,0.5-6.5,2.1
		c-0.4,2.4,1.9,2.8,3.3,3.6c5.9,3.5,11.8,7.1,17.8,10.5C826.6,248.4,827.9,249.3,829.9,249z M566,342.9c-0.4-2.5,1-6-0.7-7
		c-1.7-1-4.3,1.6-6.4,2.8c-7.2,4.2-7.2,4.4,0.2,8.3c2.1,1.1,4.1,2.8,6.5,3.3C565.8,347.8,565.9,345.3,566,342.9z M864,428.3
		c0.3,2.2-1.1,6.3,2.5,5.6c2.7-0.5,6.3,1.7,8-1.6c0.9-1.7,0.5-4.3,0-6.3c-0.5-1.9-3-0.6-4.4-1.5c-0.3-0.2-0.6-0.3-0.9-0.4
		C864,422.9,864,422.9,864,428.3z M784.8,342.6c0.5,2.4-1.2,5.7,0.9,6.9c1.8,1.1,3.8-1.9,5.9-2.8c2-0.9,5.1-1.7,5.1-3.9
		c0-2.2-3.2-3-5.2-4c-2-1-4.4-3.8-5.8-3C783.6,337,785.3,340.3,784.8,342.6z M565.9,236c-0.3-2.1,1.1-6.2-2.2-5.9
		c-1.9,0.1-4-0.6-5.8,0.7c-1.5,1.1-4.3,1.5-4.6,3.2c-0.3,2.2,2.6,2.4,4.2,3.4c1,0.6,1.9,1.2,2.9,1.8
		C565.9,242.2,565.9,242.2,565.9,236z M480.6,434.1c1.7-0.4,4.3,0.9,5-0.9c1-2.5,1-5.7,0-8.2c-0.7-1.7-2.8,0.5-4.4,0.1
		c-1.1-0.2-2.3,0-3.5,0.1c-0.7,0-1.4,0.3-1.6,1c-0.5,2.3-0.8,4.7,0,6.9C476.8,434.9,479.1,433.6,480.6,434.1z M590.7,429.2
		c-0.4-1.3,0.9-3.3-1.3-4.1c-1.8-0.6-3.8-1.1-5.6-1.7c-0.7-0.2-1.2-0.3-1.6,0.5c-1.1,2.3,1.8,9.4,4,10.1
		C589.5,435,590.7,433.7,590.7,429.2z M486.8,242.4c0-0.3-0.1-1.3-0.2-2.2c-0.4-3.4-1.1-3.8-3.9-2.2c-2.7,1.5-5.3,3.2-7.9,4.8
		c-0.4,0.2-0.7,0.6-1,1c3.2,0.6,6.4,1.2,9.4,2.2C486.8,247.1,486.8,247,486.8,242.4z M845,397.2c-0.1-6.3-0.1-6.3-5.6-3.3
		c-0.3,0.1-0.7,0.1-0.9,0.3c-1,1-3.2,1.1-3.3,2.7c-0.1,2.1,2.3,2,3.5,3c0.6,0.5,1.4,0.9,2.1,1.2c1.2,0.5,2.2,2.1,3.4,1.6
		c1.6-0.7,0.6-2.6,0.8-4C845,398.2,845,397.7,845,397.2z M844.9,290c-0.1-7.8-0.1-7.8-6.8-4c-0.6,0.3-1.1,0.7-1.7,1
		c-4,2.2,2.5,4.1,4.1,5.3C845,294.7,845,294.7,844.9,290z M760.1,429.5c0,4.4,0.6,5.1,4.2,4.5c2.6-0.5,2-3.4,3.5-4.8
		c0.7-0.7,0.5-2.5-0.1-3.8c-0.1-0.2-0.5-0.4-0.8-0.5C762.7,423.6,760.1,425.5,760.1,429.5z M506.3,288.4c0.3,1.6-0.8,4.1,0.7,5
		c1.5,0.8,3-1.3,4.6-2c4.8-2.3,4.5-3.3-0.1-5.9c-1.5-0.8-3.1-2.8-4.6-1.8C505.6,284.4,506.5,286.7,506.3,288.4z M506.3,397
		c0,2.1,0,3.7,0,5.3c3-0.4,5.3-2.5,7.8-4c2.2-1.7-0.7-3.4-2.3-4c-1.8-0.6-3.2-3.4-5.1-2.1C505.5,393.1,506.5,395.6,506.3,397z
		 M479.5,234.1c-1.6,0.1-2.7,0.1-3.9,0.2c-1.4,0.1-2.7,0.3-2.8,2.1c0,1.3-0.4,3,0.3,3.8c1,1.1,2.2-0.4,3.2-0.9
		c1.1-0.6,2.5-0.9,3.4-1.7c1.1-1,3.7-1.1,3.3-3.1C482.9,233.5,480.5,234.2,479.5,234.1z M793.3,227.1c-0.3,0.1-1,0.2-1.6,0.3
		c1.8,1.6,3.7,3.4,6.2,3.6c1,0.1,2.1,0.1,2.1-1.4c0-1-0.5-1.4-1.5-1.6C796.8,227.8,795.2,227.4,793.3,227.1z M607.6,235.9
		c0.4-0.2,0.4-0.5-0.2-0.6c-0.3-0.1-0.7-0.1-0.9,0c-1.2,0.6-2.4,1.1-3.5,1.8c-1.6,0.9-3.7,1.4-4.3,3.5c2,0.3,3.1-1.5,4.6-2.3
		C604.7,237.6,606.4,237.2,607.6,235.9z M803.6,231c0.5-0.2,1.4-0.1,1.2-1c-0.2-1-1.2-0.9-2-0.9c-0.6,0-1.5,0-1.2,1
		C801.8,231.1,802.7,231,803.6,231z"/>
	<path class="st1" d="M1167.1,194.1c-0.3,16.8,0.8,33.1,0.8,49.4c0,4.4-0.1,4.4-4.2,4.4c-3.3,0-6.7-0.1-10,0.1
		c-2.8,0.2-4-0.9-4.9-3.6c-4.5-14.4-9.8-28.5-16.8-41.9c-15-30.5-40.7-54.4-76.6-51.4c-11.8,0.8-23,3.9-32.5,11.2
		c-10,7.7-17.7,17.1-23.2,28.7c-3.5,7.6-7.2,15-9.1,23.1c-3.5,15.4-7.2,30.8-7.7,46.8c-1,23.4-1.6,47.3,3.2,70.4
		c5,24.7,13.3,49.8,33.1,66.7c6.4,5.6,13.3,10.3,21.2,12.8c30.8,10.9,67.2,4.3,91.1-18.4c11.4-10.4,20.6-22.6,28.5-35.7
		c2.7-4.5,2.9-4.7,7-1.8c3.5,2.5,7.6,3.8,11,6.5c1.9,1.6,1.7,2.6,0.9,4.5c-5,11.2-12,21.1-19.1,31c-4.3,6-9.4,11.5-14.8,16.3
		c-12,10.8-26.6,18.8-41.7,24.7c-17.2,6.6-35.1,8.1-53.3,8.2c-47-0.1-95-21-121.8-60.6c-35.2-51.2-36.2-124.2-6.5-178.1
		c6.5-12.5,15.5-23.1,25-33.1c17.2-17.7,40.2-29.2,63.4-36.9c40-11,84.1-7.9,121.3,11.1c4.9,2.4,3.7,2.6,8.5-1.4
		c3.7-5.2,8.9-9.1,15.7-7.9c3.2,0.5,7.4-1.3,9.7,0.7c2.5,2.1,0.8,6.3,0.9,9.5C1166.6,164.3,1166.8,179.5,1167.1,194.1z M984.2,342.3
		c-0.1-0.6-0.8-1-1.7-1.5c-6.4-4.2-13.3-7.7-19.9-11.6c-3.7-2.1-7.7-2.8-11.5,0c-1,0.8-2.3,1.2-3.5,1.9c-5.5,3.2-11.1,6.3-16.6,9.7
		c-2.7,1.6-2.6,2.5,0.1,4.1c5.9,3.5,11.9,6.8,17.9,10.3c6.1,3.6,9.2,3.6,15.4,0.2c3.1-1.8,6.3-3.5,9.4-5.2s6.2-3.6,9.2-5.6
		C983.5,344.1,984.8,344.1,984.2,342.3z M957.2,219.3c-1.9-0.5-3.8-0.2-5.6,0.9c-6.7,4-13.5,7.9-20.3,11.9c-2.9,1.8-3,2.2-0.3,3.9
		c7.1,4.4,14.2,8.8,21.5,12.7c2.3,1.2,5.7,1.4,8.2,0.1c6.4-3.3,12.6-7,18.8-10.7c3.8-2.2,3.7-5.8-0.1-8c-5.7-3.3-11.4-6.5-17-9.8
		C960.8,219.3,959.2,218.6,957.2,219.3z M956,378.9c0-4,0-8,0-12c0-3.5-2.3-6.3-4.7-7.9c-6.6-4.5-13.8-8.2-20.8-12
		c-3.1-1.7-3.5-1.4-3.5,2.2c-0.1,7.8,0,15.6,0,23.4c0.2,4.4,3.1,8.2,7.1,10.1c6.3,3.4,12.5,7.2,18.8,10.6c2.6,1.4,3.1,1,3.2-2
		C956.1,387.2,956,383,956,378.9z M956,270.6c0-3.8-0.1-7.6,0-11.5c0.1-4.1-2.2-7.1-5.2-9c-6.7-4.4-13.8-8.2-20.8-12.1
		c-2.8-1.6-3-1.4-3.1,1.8c-0.1,8.1-0.4,16.3,0.1,24.4c0.2,3.7,1.5,7.7,5.8,9.3c6.2,3.2,12.1,7.2,18.3,10.5c4.4,2.5,4.7,2.3,4.8-3
		C956,277.6,956,274.1,956,270.6z M927,324.4c0,4.3,0.1,8.7,0,13c0,2.4,0.6,3,2.8,1.7c7.2-4.2,14.8-7.9,21.7-12.6
		c2.5-1.7,4.5-5.1,4.5-8.8c-0.1-7.5,0-15,0-22.5c0-4.4-0.4-4.6-4.5-2.3c-5.9,3.3-11.5,7.1-17.5,10
		C924.6,307.2,927.4,316.1,927,324.4z M958,379.2c0,4.2,0,8.3,0,12.5c0,2.5,1.1,2.8,3.1,1.8c7.4-3.8,14.5-8.4,21.8-12.4
		c0.7-0.4,1.6-0.8,1.8-1.5c1-2.9,2.6-5.4,2.4-8.8c-0.4-5.5-0.2-11-0.1-16.5c0-2-0.5-3.9-0.9-5.8c-0.6-2.4-1.9-2.3-3.5-1.4
		c-6,3.4-11.8,7-17.9,10.3c-4.9,2.6-6.8,6.5-6.7,11.9C958.1,372.5,958,375.9,958,379.2z M988.5,412c1.5-0.1,3.1,0.3,4.7-0.7
		c6.2-3.7,12.5-7.2,18.8-10.8c2-1.1,2-1.9,0.5-3.7c-5.4-6.5-12.6-10.5-20-14.2c-2.6-1.3-5.9-1.5-8.6,0.1
		c-7.3,4.1-14.5,8.3-21.7,12.6c-2.7,1.6-2.7,1.9,0.2,3.6c6.9,4.1,13.9,8.1,20.8,12.2C984.8,412.1,986.6,412,988.5,412z M956,197.9
		c0-3.5,0-7,0-10.5c0-5.2-0.3-5.4-4.7-3.1c-3.2,1.7-6.2,3.7-9.4,5.3c-6.3,2.9-10.3,7.9-13.3,14c-0.8,1.7-1.6,3.1-1.6,5
		c0.1,6.3,0,12.6,0,18.9c0,4,0.7,4.4,4.3,2.3c5.9-3.3,11.5-6.9,17.4-10.1C958.4,214.5,955.5,207.1,956,197.9z M904.4,288.4
		c-0.8,3.5,0.8,5.5,3.8,7c4.5,2.3,8.7,5.2,13.3,7.4c2.6,1.2,5.9,1.4,8.5,0.1c7.2-3.8,14.1-8.3,21.4-12c2.3-1.2,2.3-3.5,0-4.7
		c-7.3-3.7-14.1-8.3-21.3-12.1c-2.6-1.3-6-1.2-8.4-0.1c-4.8,2.1-9.1,5.2-13.8,7.7C905.1,283.2,903.5,285.1,904.4,288.4z M958,198
		c0.4,6.4-2,16.2,4.4,20c6.2,3.6,12.5,7.1,18.7,10.9c1.6,0.9,1.7,0.4,2-1c0.8-3.9,1.7-7.7,2.8-11.5c1.2-4.2,1.2-8.5,0.9-12.8
		c-0.2-2.9-1.4-5.9-3.8-7.4c-7.2-4.5-14.7-8.7-22.1-12.9c-2.2-1.2-3-0.8-3,1.8C957.9,189.4,958,193.7,958,198z M988,194.7
		c5-0.2,5.2-0.1,6.5-2.7c2.9-5.9,6.2-11.7,10.1-17c1-1.4,1-2.1-0.6-3c-3.3-1.8-6.6-3.7-9.7-5.8c-3.7-2.4-7.6-2-11-0.2
		c-7.4,3.9-14.6,8.2-21.8,12.4c-1.8,1-2,1.8,0.2,3c7,3.9,14,7.9,20.9,12C984.3,194.5,985.9,195.4,988,194.7z M1019,416.7
		c0-3.7,0.1-7.3,0-11c-0.2-4.2-2.6-5.6-6.2-3.7c-2.8,1.5-5.5,3-8.1,4.7c-5,3.4-11.5,4.9-14.5,11c-0.9,1.8-1.9,10.5-0.8,11.7
		c0.4,0.5,1.1,0.8,1.7,1c5.9,2.2,11.7,4.4,17.8,6c3,0.8,5.4-0.5,6.4-2.4c1.9-3.5,5-6.8,3.7-11.5C1018.6,420.8,1019,418.7,1019,416.7
		z M1021,417.3c0.3,5.8-1.6,13.7,3.8,17.6c6.5,4.7,13.4,8.2,22,7.2c2.7-0.3,3.3-1.1,3.3-3.5c-0.1-5.8-0.2-11.6,0-17.5
		c0.1-2.7-1.2-3.6-3.2-4.1C1017.2,408.8,1021.3,396.5,1021,417.3z M958,306.4L958,306.4c0,4,0,8,0,12c0,2,2.5,7.2,3.8,8
		c6.4,3.7,12.8,7.4,19.1,11.1c1.6,0.9,2.1,0.2,2-1.3c-1.7-10.5-3.5-20.9-4-31.6c-0.1-1.4-0.2-2.7-1.5-3.5
		c-5.5-3.1-11.1-6.2-16.7-9.4c-2-1.1-2.8-0.4-2.8,1.6C958,297.7,958,302.1,958,306.4z M958,269.9c0,4.3-0.1,8.6,0,13
		c0.1,2.7,1.1,3.4,3.3,2c4.8-2.8,9.5-5.7,14.5-8.4c2.1-1.1,3.1-2.9,3-5.7c-0.3-9.6,1.2-19.2,2.1-28.8c0.1-1.8-0.3-2.6-2.2-1.4
		c-4.6,2.8-9.3,5.6-14.1,8.1c-4.8,2.5-6.8,6.4-6.6,11.6C958.1,263.6,958,266.7,958,269.9z M925,324.3c0-3.6,0-7.3,0-11
		c0-1.1,0.3-2.4-0.6-3.3c-2.5-2.6-3.9-6.2-7.7-7.8c-3.3-1.4-6.3-3.5-9.4-5.3c-0.9-0.5-1.8-1.4-2.7-1c-0.9,0.5-0.5,1.8-0.4,2.7
		c0.7,10.2,1.8,20.4,3.7,30.5c0.3,1.7,1.1,2.8,2.4,3.5C927.3,342.8,924.9,343.6,925,324.3z M1018.6,154.2c1.4-4.3-1.1-7.8-2.8-11.4
		c-0.6-1.3-2.4-2.3-4.2-1.6c-6.8,2.4-13.8,4.4-20.4,7.6c-5.4,1.8-0.7,13.1,2.8,15.1c3.5,2.1,7.1,4.1,10.6,6.3c1.6,1,2.7,0.9,3.9-0.4
		c2-2,3.7-4.4,6-5.9C1018.5,161.6,1019.6,158.5,1018.6,154.2z M925,252.6C925,252.6,925,252.6,925,252.6c0-4.3,0-8.6,0-13
		c0-2.1-0.7-3.1-3-2.2c-9.4,3.5-12.3,6.9-14,16.8c-1.6,7.9-2.9,16-3.2,24.1c-0.1,2.4,0.9,2.4,2.5,1.5c3.4-2,6.7-4.1,10.2-6
		C927.2,268.6,924.6,261.9,925,252.6z M1146,197.9c-0.2,19.4-1.1,17.4,15.7,26.8c1.5,0.9,2.2,1,2.1-1.3c-0.3-8.4-0.7-16.9-0.5-25.4
		c0.1-5.1-1.4-8.3-6.3-10.1c-2.9-1.1-5.6-2.9-8.1-4.6c-2.5-1.8-2.9-0.4-2.9,1.6C1146,189.2,1146,193.6,1146,197.9z M1052,429.8
		L1052,429.8c0,3.3,0,6.6,0,10c0,1,0,2.2,1.4,2.1c4.6-0.2,9.3,1.2,13.7-1c3.2-1.6,6.2-3.7,9.3-5.5c1.3-0.8,1.9-1.9,2.8-3.1
		c2.3-3.3,1.7-6.9,1.8-10.4c0.1-2.3-0.8-2.7-3-2.4c-7.8,1-15.6,0.3-23.2-1.1c-2.6-0.5-2.8,0.4-2.8,2.4
		C1052.1,423.8,1052,426.8,1052,429.8z M1144,162.6c0-3.3,0-6.6,0-10c0-1.1,0.2-3.1-0.3-3.3c-1.4-0.6-2.2,1-3.1,1.8
		c-0.5,0.4-0.9,0.9-1.4,1.4c-2.3,2.1-5,2.3-7.3,0.7c-3.6-2.5-7.8-3.6-11.7-5.5c-6.1-2.9-6.2-2.7-6.2,4.2c-0.5,5.2,1.5,9.6,5.7,12.4
		c6.8,4.6,14.1,8.3,21.3,12.3c2.1,1.1,3,0.4,3-2C1143.9,170.5,1144,166.6,1144,162.6z M1083,424.8c-1.6,3.6,1.4,6.5,3.4,9.3
		c1.6,2.3,4.7,3.7,7.9,2.7c5.7-1.8,11.3-3.8,16.5-6.6c0.9-0.5,1.7-0.9,2.1-2c1.1-2.8-1.7-17.4-6.6-14.9c-6.8,2.6-13.9,4.2-21,5.5
		c-2.1,0.4-2.4,1.2-2.3,2.9C1083,422.6,1083,423.4,1083,424.8z M1145.9,162C1146,162,1146,162,1145.9,162c0,4.2,0,8.3,0.1,12.5
		c0.1,2.6,0.8,3,2.9,1.9c4-2.2,8-4.5,12-6.8c1.4-0.8,2.1-1.9,2-3.7c-0.2-5,0-10-0.3-15c-0.5-7.9-0.6-7.9-8.7-7.9c-5.8,0-7.9,2.2-8,8
		C1145.9,154.7,1145.9,158.4,1145.9,162z M1146,387.5c0,1.6,0,2.6,0,3.6c0.1,3.2,0.6,3.5,3.4,2c3.5-1.9,6.7-4.3,10.3-5.9
		c3-1.3,4.8-3.5,6.2-6c2.3-4,4.5-8.1,6.6-12.2c2.4-4.6,2.3-4.6-2-7.2c-1.4-0.9-2.8-1.7-4.1-2.8c-1.7-1.4-2.7-1.4-3.9,0.7
		c-3.8,7-8.6,13.4-13.5,19.5C1146.8,382,1145.4,384.6,1146,387.5z M1112.1,152.2c0-1.9-0.2-3.1,0-4.2c0.5-2.9-1.1-4.1-3.6-4.8
		c-3.5-1-7-2-10.3-3.4c-4.2-1.8-7.6-0.5-11,1.9c-1.8,1.3-1.9,3.3-3.2,4.9c-1.8,2.3-1.5,3.5,1.2,4.4c7.8,2.5,14.5,6.9,21,11.8
		c1.8,1.4,2.8,0.9,3.8-0.9C1111.8,158.6,1112.7,155.2,1112.1,152.2z M1050,141.8L1050,141.8c0-1.5-0.1-3,0-4.5
		c0.1-1.7-0.7-2.3-2.4-2.3c-8.6,0-16.7,1.9-23.8,7c-3.2,3.8-4.4,8.6-4,13.5c0.4,3.4,0.3,3.6,3.2,1.8c6.7-4.1,13.8-7,21.6-8.4
		C1050.3,148.1,1050,147.4,1050,141.8z M987.1,423.3c0.2-4.1-0.6-8-4.1-10.3c-6.3-4-13-7.6-19.5-11.3c-5.3-3-5.4-2.9-5.4,3.3
		c0,1.2,0.1,2.3,0,3.5c-0.2,2.2,0.7,3.5,2.6,4.8c6.8,5,14,9.2,21.5,13.1C986.9,429.1,987,429,987.1,423.3z M1114.2,422.8
		c0.1,5.6,0.2,5.7,4.3,3.5c7.4-3.8,14.2-8.4,20.6-13.7c2.9-2.5,5.6-4.3,5-8.8c-0.5-4.3-0.6-4.8-4.6-2.5c-6.2,3.4-12,7.4-18.3,10.6
		C1116.1,414.5,1114.5,418.7,1114.2,422.8z M987,155.1c0-4,0-4-3.5-2.4c-8,3.7-15.2,8.7-22.3,13.7c-2.8,2-3.5,4.6-3.2,7.8
		c0.3,3.1,0.7,3.4,3.5,1.8c6.9-3.9,13.7-7.9,20.5-11.8C985.5,162.2,987.1,159.1,987,155.1z M1163.8,234.3c1.6-5.1-1.2-7.3-5.2-9.2
		c-3.9-1.7-7.3-4.5-11.2-6.1c-2.4-0.5-3.3,0.6-2.4,3c1.9,5.1,3.7,10.3,5.7,15.3c1,2.4,0.2,5.9,4,6.6c3.1,0.6,5.2-1.7,7.6-3
		C1165.2,239.4,1163.4,236.5,1163.8,234.3z M1114.1,165c-0.5,0-0.9,0-1.2,0c-1,0.1-2.7-0.1-2.8,0.3c-0.5,1.3,1,1.9,1.8,2.7
		c4.7,4.7,9.3,9.5,13.1,14.9c1.1,1.6,1.6,4,3.5,4.6c2,0.6,3.3-1.6,5.1-2.4c1.7-0.7,3.2-1.6,4.7-2.7c3.5-2.5,3.6-3.4,0.1-5.4
		c-6.1-3.5-12.2-7.1-18.4-10.6C1118.1,165.4,1116.2,164.4,1114.1,165z M1059.6,135c-7.6,0-7.6,0-7.6,7.1c0,4.9-0.3,5.4,5,5.1
		c7.3-0.3,14.6,0.7,21.8,1.9c1.1,0.2,2.9,0.5,2-1.2c-1-1.8-1.2-4.5-2.9-5.4C1071.9,139.2,1066.8,133.6,1059.6,135z M1144,197.9
		c0-4.2-0.1-8.3,0-12.5c0.2-5.4-6.2-0.3-8.3,0.7c-1.9,1.2-4.5,2.1-5.4,3.9c-1,1.9,1.7,3.6,2.6,5.5c2.5,5.4,5.3,10.7,7.9,16.1
		c0.5,1.1,1.2,1.5,2.3,1.2s0.9-1.3,0.9-2C1144,206.5,1144,202.2,1144,197.9z M978.8,295.8c-0.9-4.8-0.6-9.9-0.6-15.1
		c0.1-1.2-0.2-3.4-1.9-2.4c-5,2.9-9.9,5.8-14.8,8.7c-1.7,1-1.3,2,0.2,2.9c4.7,2.7,9.3,5.4,14,8.2c0.9,0.5,1.9,1.3,2.7,1
		C979.5,298.6,978.5,297.2,978.8,295.8z M1163,180.4C1162.9,180.4,1162.9,180.4,1163,180.4c-0.1-2.5,0-5-0.1-7.4
		c0-1.3-0.3-2.4-2-1.4c-3.9,2.3-7.9,4.5-11.8,6.9c-1.5,0.9-1.3,2.3,0.2,3.1c3.9,2.3,7.9,4.5,11.9,6.8c1.2,0.7,1.8,0.4,1.8-1
		C1163,185.1,1163,182.7,1163,180.4z M925,359.5c0-3.2,0-6.3,0-9.5c0-4.6-1.1-5.1-5.2-2.9c-2.6,1.9-5.8,2.3-4.2,6.4
		c2.1,5.6,5.2,10.7,7.7,16.1c0.2,0.5,0.9,1.4,1.2,1.4c1-0.3,0.5-1.3,0.5-2C925,365.8,925,362.6,925,359.5z M1112.9,412
		c2.8,0,4.3,0,5.9-0.9c6.6-3.9,13.3-7.6,19.9-11.5c1.2-0.7,3.6-1.9,1.5-3.7c-1.2-1.1-2.6-3.6-5.2-1.5c-5.2,4.3-10.3,8.8-16.2,12.2
		c-2.3,1.3-4.6,2.5-6.9,3.8c-1.1,0.6-1.5,1.6,0.1,1.5C1112.7,412,1113.3,412,1112.9,412z M934.3,385.2c-0.2,0.1-0.8,0.2-0.8,0.3
		c0.1,0.6,0.2,1.3,0.5,1.8c3.6,4.3,7.2,8.6,10.9,12.8c1.3,1.4,7.2-0.1,7.9-1.9c0.2-0.5,0.1-1.4-0.2-1.9c-0.7-0.9-1.6-1.7-2.6-2.2
		c-4.6-2.4-9.2-5-13.6-7.9C935.9,385.8,935.1,385.5,934.3,385.2z M989.3,359.9c-0.6,4.5-0.1,9.2-0.2,13.7c0,0.6,0,1.4,0.3,1.9
		c2.9,4.1,6.4,7.5,11.2,9.4c0.3,0.1,0.7,0.3,0.9,0.2c0.6-0.4,0.3-0.8,0-1.2c-4.9-7.1-8.2-15-11.2-23C990,360.5,990,360,989.3,359.9z
		 M925,220.6c0-2.8,0-5.6,0-8.4c0-0.4,0.1-1-0.5-1.2c-0.6-0.1-0.8,0.5-1,0.9c-2.7,4.6-4.5,9.6-6.7,14.3c-0.2,0.4-0.4,0.9-0.3,1.3
		c0.1,0.5,6.2,3.4,6.8,3.4c1.4,0,1.6-0.9,1.6-1.9C925,226.2,925,223.4,925,220.6z M911.2,335.7c-1.2-0.5-1.3,0.2-1.2,0.8
		c0.3,1.6,0.7,3.2,1.2,4.8c1.9,7.2,3,7.6,9.1,3.6c0.4-0.3,0.8-0.5,1.2-0.9c0.8-0.9,0.8-2-0.1-2.6
		C917.9,339.4,914.5,337.5,911.2,335.7z M1082.3,140.1c4.1,0.1,4.3,0,5.2-0.7c0.4-0.4,1.4-0.4,0.9-1.3c-0.2-0.4-0.7-0.8-1.2-0.8
		c-5.1-0.7-10.2-1.4-15.3-2.1c-0.4-0.1-0.9,0.1-1.3,0.2c0.3,0.4,0.6,0.9,0.9,1.1C1075.1,137.9,1077.7,141.9,1082.3,140.1z M922,234
		c-0.6-2-2.5-2.1-3.8-3c-1.6-1-3.1-1.4-3.7,1c-0.7,2.8-2.5,5.3-2.2,8.4c2.6-1.3,5.1-2.6,7.7-3.9C920.8,236,921.6,235,922,234z
		 M941.6,187.8c1.6-1.8,14.5-6.4,10.9-9.4c-0.9-0.5-1.9-1.9-3-1c-3.2,2.8-6.5,5.6-8.8,9.3C940.3,187.4,940.4,187.8,941.6,187.8z
		 M1074.6,441c4-0.7,8.1-1.4,12.2-2.1c0.9-0.2,0.9-0.8,0.4-1.4c-0.8-0.8-1.6-1.6-3-1.5c-3.6,0.5-7.2,0.5-10.2,3
		c-0.5,0.4-1.4,0.7-1.3,1.3C1072.8,441.6,1073.9,440.7,1074.6,441z M956,405.3c-0.2-1.7,0.8-5.7-1.5-5.2c-2,0.3-4,1.2-5,2.7
		c-0.8,1.4,1.4,2.2,2.2,3.4c0.1,0.1,0.2,0.2,0.3,0.4c1.1,0.9,2,3,3.3,2.5C956.7,408.5,955.8,406.3,956,405.3z M1159,391
		c-0.3-0.4-0.3-0.8-1-0.4c-3.1,1.8-6.2,3.5-9.2,5.3c-1.1,0.7-0.8,1.8,0.2,2.4c1.4,0.9,2.7,2.2,4.4,0
		C1155.2,395.9,1157.5,393.8,1159,391z M1019.1,436.9c-1.1-0.6-1.9-1.3-3-0.5c-0.5,0.4-1.5,0.7-1.5,1.1c0,0.7,0.9,0.6,1.5,0.7
		c4,0.9,8,1.7,11.9,2.5c0.3,0.1,0.9,0.1,0.9-0.1c0.2-0.6-0.4-0.6-0.7-0.8C1025.5,437.8,1022.9,435,1019.1,436.9z M1144,390
		c-0.1-1,0.5-2.6-0.4-3.1c-1.2-0.6-1.8,1.1-2.6,1.8c-0.4,0.3-0.7,0.7-1.1,1c-2,2.2-1.9,2.4,0.8,3.6
		C1143.6,394.7,1144,394.3,1144,390z M956,174c-0.4-0.7,0.6-2.5-1-2.1c-1.5,0.4-2.9,1.9-3.2,3.4c-0.2,0.8,1.5,1.8,2.8,1.7
		C956.8,176.8,955.7,175,956,174z M1146,402.8c0.2,0.9-0.5,2,0.7,2.5c0.5,0.2,3.9-3.2,3.7-3.6c-0.6-0.9-1.6-1.5-2.7-1.6
		C1145.4,399.9,1146.2,401.6,1146,402.8z M1022.2,140.9c1.2-0.8,2.9-1.3,3.8-2.6c-0.4-0.1-0.8-0.4-1.2-0.4c-2,0.4-4.2,0.6-6.1,1.4
		C1019.7,140.3,1020.9,140.4,1022.2,140.9z"/>
	<path class="st1" d="M191.2,181.4c-0.2,20.6,0.2,41.2,0.7,61.8c0.1,4.7,0.1,4.7-4.5,4.7c-4.5,0-9-0.1-13.5-0.1
		c-10.4-31.5-23.9-68.6-53.4-87c-12.2-6.9-25.1-10.6-39.4-9.4c-15.2,0.9-24.3,3.7-36.3,13.2C22.2,180.6,12.4,216,8.8,242.4
		c-1.3,10.6-2.8,21.3-2.5,32c0,14.1,0.3,28.2,1.6,42.3c1.4,12.4,3.3,24.7,7.8,36.4c2.9,7.5,5.1,15.2,9.1,22.3
		c6.7,12,15.3,22.3,27.1,29.3c8.7,5.1,17.8,8.7,28.2,9.8c5.4,0.5,10.8,1.2,16.2,1.5c5.4,0.3,10.5-1.2,15.7-1.9
		c25.9-3.6,46.7-21.9,61.5-42.6c4.1-5.9,8.2-11.6,12-17.7c0.8-1.2,1.4-1.5,2.7-0.8c4.9,2.8,9.3,6.4,14.6,8.5c1.3,0.5,1.2,1.8,0.6,3
		c-8.4,17.8-19.4,34.1-33.6,47.8c-4.8,4.7-10.8,8.3-16.3,12.2c-12.6,9-26.8,14.5-41.6,18.1c-14.9,3.7-30.2,3.5-45.6,3.3
		c-27-1-53-8.6-75.7-23.5c-6.9-4.4-12.9-9.9-19.5-14.7c-6.8-5-11.7-11.6-16.5-18.1c-39.4-54.5-40.2-134.4-4.2-190.9
		c3.3-5.3,7.5-9.9,10.9-15.1c1.9-2.9,5-5.6,7.8-8.1c5-4.5,9.2-9.9,14.9-13.7c9-5.9,18.3-11.2,27.9-16.2c10.2-5.4,21.2-7.9,32.2-10.6
		c17.3-4.3,35-4.8,52.7-3.5c7.7,0.6,15.3,1.6,22.7,3.6c8.2,2.3,16.7,4,24.4,7.7c4.3,2,8.7,4,12.9,6.3c1.9,1,3.3,0.9,4.9-0.6
		c2.6-2.6,5.5-4.9,8-7.5c1.5-1.6,3.1-2.2,5.3-2.1c3.7,0.1,7.3,0,11,0.1c3.8,0.1,3.8,0.1,3.9,3.8c0.3,12.8,0.5,25.6,0.8,38.4
		C191,181.4,191.1,181.4,191.2,181.4z M-44,270c0,4.1-0.1,8.3,0,12.5c0.1,3.4,0.9,3.8,3.8,2.2c7.1-4,14.2-8.1,21.3-12.2
		c1.6-0.9,4.9-6.6,4.9-8.4c0-8,0.1-15.9,0-23.9c0-3.4-0.7-3.9-3.8-2.2c-6.2,3.4-12.3,6.9-18.4,10.4C-46.4,254.2-43.6,260.1-44,270z
		 M-44,306.5c0,3.8,0,7.7,0,11.5c0,1.1,0,2.2,0.7,3.3c2.2,3.2,4.5,6.1,8.1,8c5.8,3.1,11.4,6.5,17.2,9.6c4.1,2.6,4-2.1,3.9-4.9
		c0-5.8-0.3-11.7,0-17.5c0.3-6.3-2.1-10.8-7.7-13.8c-6.2-3.4-12.3-7-18.4-10.5c-2.6-1.5-3.6-1.1-3.7,1.8
		C-44.1,298.2-44,302.3-44,306.5z M-14,361c0-4.3,0-8.6,0-13c0-2.1-0.9-2.7-2.8-2c-6.9,3.2-13.1,7.6-19.8,11.1
		c-5.1,2.9-8,6.9-7.5,13c0.2,2.6,0.3,5.4,0,8c-0.6,4.9,1.3,8.5,4.4,12.1c1.5,1.8,2.5,1.6,4,0.7c4.9-2.8,9.8-5.5,14.5-8.4
		c4.7-3,7.8-6.9,7.3-13C-14.2,366.7-14,363.8-14,361z M17,380c-0.1-6,0.9-12.7-2.8-18.8c-0.6-1-0.9-1.9-2-2.6c-7-4-13.9-8-21-12
		c-2.8-1.6-3.4-1.2-3.4,2c-0.1,8,0,16,0,24c0,3.4,1.7,6.6,3.9,8c7,4.6,14.5,8.5,21.8,12.4c2.9,1.6,3.4,1.2,3.5-2
		C17.1,387.7,17,384.2,17,380z M-14.1,216.4L-14.1,216.4c0-3.7-0.1-7.3,0-11c0.1-4.3-2.2-7.4-5.4-9.7c-4.3-3-9.1-5.4-13.6-8.1
		c-1.7-1-2.8-0.5-3.8,0.8c-1.8,2.3-3.6,4.7-5.4,7.1c-1,1.3-1.8,2.7-1.7,4.5c0.1,3.3,0,6.7,0,10c0,1.3,0.8,2.3,1.3,3.4
		c1.7,3.9,5,5.8,8.4,7.7c5.2,2.9,10.2,6,15.4,8.8c3.8,2.1,4.7,1.6,4.8-2.6C-14.1,223.7-14.1,220.1-14.1,216.4z M-43.7,357.5
		c1.5,1.2,2.9,0,4.1-0.6c7-3.9,14-7.9,20.9-11.9c2.4-1.4,2.3-2.9-0.3-4.4c-7.1-4.1-14.2-8.3-21.3-12.2c-2.5-1.4-5.7-1.4-8.1-0.2
		c-5,2.4-9.7,5.5-14.5,8.3c-0.8,0.5-1.9,0.6-2.1,1.9c-0.4,2,2.4,11.5,4.4,12.3C-55,352.9-50.8,358.8-43.7,357.5z M-13,216
		c0,3.6,0,7.3,0,11c0,4.5,0.9,5.1,4.8,3c4.9-2.7,9.6-5.8,14.5-8.4c2.3-1.2,3.3-3,3.8-5.4c0.9-4.9,2.2-9.7,4.3-14.2
		c2.4-5.2,2.9-10.4,2.7-15.9c-0.2-4-0.7-4.4-4.3-2.4c-5.7,3.3-11.3,6.8-17,9.9c-2.8,1.5-4.5,3.6-6.5,6c-2.5,2.9-2,5.5-2.2,8.4
		C-13.1,210.7-13,213.4-13,216z M-13.5,382c-1.6,0.2-3.2-0.3-4.8,0.7c-5.6,3.5-11.3,6.8-17,10c-1.1,0.6-1.4,0.8-0.5,2
		c4.3,5.6,9.8,9.9,14.9,14.6c3.5,3.3,8.1,4,12.4,1.7c6.8-3.6,13.4-7.6,20.2-11.4c2.6-1.8,3.4-2.8,0.6-4.7c-0.8-0.6-1.7-1.1-2.5-1.6
		C4,390.1-1.8,387-7.4,383.7C-9.4,382.5-11.2,381.7-13.5,382z M-45.4,248.9c2,0.2,3.7,0.6,5.5-0.5c6.9-4.1,14-7.9,20.9-12
		c2.8-1.6,2.6-2.8-0.2-4.5c-5.9-3.5-11.9-7.1-17.8-10.5c-7-4-16.8-2.1-21.8,4.2c-1.8,3.1-2.8,6.7-4,10.1c-1.4,4.1-1.4,4.1,2.6,6.5
		c3.2,1.9,6.5,3.8,9.8,5.6C-48.8,248.8-47.2,250.2-45.4,248.9z M2.2,287.5c2.7-7.1-4.1-9.3-9.5-12.4c-3.7-2.2-8.6-2.3-12.4-0.1
		c-6.2,3.6-12.5,7.2-18.7,10.8c-3.6,2.1-3.6,3.2,0,5.3c5.9,3.5,12.1,6.6,17.8,10.5c3.1,2.1,6.4,1.1,9.4,2.1c1.4,0.4,2.9-1.2,4.2-2.2
		c0.8-0.6,1.7-1.1,2.6-1.4c5-2,8.6-4.8,6.6-10.9C2.2,289,2.2,288.8,2.2,287.5z M19,414.5C19,414.5,18.9,414.5,19,414.5
		c0,4-0.1,8,0,12c0,4.1,1.6,6.2,5.6,7.6c6.9,2.3,13.9,4.1,21.1,5.4c1.9,0.4,2.4,0,2.3-1.7c0-5.8,0.3-11.7-0.1-17.5
		c-0.2-2.9-1.6-5.9-4.6-7.5c-6.9-3.9-13.6-7.9-20.5-11.8c-3.2-1.8-3.7-1.4-3.8,2C18.9,406.8,19,410.7,19,414.5z M-14,194.9
		c1.8,0,3.6,0.3,5.3-0.7c6.6-4,13.4-7.8,20-11.7c3.6-2.2,3.6-3.2,0.2-5.3c-6.4-3.7-12.8-7.4-19.2-11.1c-2.7-1.6-5-1.2-7.3,0.6
		c-6.3,5-11.8,10.8-17.4,16.4c-1.6,1.6-1,2.5,0.5,3.4c4.1,2.4,8.3,4.6,12.4,7.2C-17.8,194.6-16.1,195.3-14,194.9z M187,180.1
		C187,180.1,187,180.1,187,180.1c-0.1-0.8-0.2-1.7,0-2.5c1-5.5-1.1-8.8-6.3-11.1c-4.2-1.9-8.2-2.4-12.1-0.3
		c-6.8,3.6-13.3,7.8-20.1,11.6c-2,1.1-1.8,2.1-0.7,3.4c0.6,0.7,1.3,1.4,2.2,1.9c4.4,2.5,8.7,5.3,13.3,7.6c2.8,1.4,5.1,3.8,8.2,4.4
		c5.7,1.1,10.2-1.8,14.3-5c2.7-2.1,0.6-5.6,1.1-8.4C187.1,181.1,187,180.6,187,180.1z M-46,306.5c0-4.3-0.1-8.6,0-13
		c0-2.5-0.8-2.9-2.9-1.7c-6.4,3.7-12.8,7.5-19.2,11c-2.2,1.2-3.1,2.4-2.9,4.9c0.7,8.8,2.3,17.3,4.1,25.9c0.4,1.9,1.3,2,2.8,1
		c4-2.5,8.1-5,12.3-7.1c4.3-2.2,5.9-5.6,5.8-10.1C-46,313.8-46,310.1-46,306.5z M19,161.9C19,161.9,19,161.9,19,161.9
		c0,4.2,0.1,8.3,0,12.5c0,2.3,0.9,3.4,2.9,2.1c3.9-2.5,8.4-4,11.6-7.5c3.8-4.2,8.1-7.8,12.8-11c1.2-0.8,1.8-1.9,1.8-3.3
		c0-4.8,0-9.7,0-14.5c0-1.4-0.3-2.1-2-1.6c-8.4,1.9-16.6,4.7-24.6,7.7c-1.8,0.7-2.5,1.8-2.4,3.7C19.1,153.9,19,157.9,19,161.9z
		 M-46,270.4L-46,270.4c0-3.5,0-7,0-10.5c0.1-5.2-1.9-9-6.8-11.3c-3.4-1.6-6.6-3.7-9.8-5.7c-1.5-1-2-1.1-2.7,0.8
		c-3,8.7-4.1,17.7-5.5,26.7c-0.3,1.7,0.8,2.5,1.9,3.1c6.5,3.8,13.1,7.6,19.6,11.4c2.3,1.3,3.1,0.9,3.2-2
		C-45.9,278.7-46,274.6-46,270.4z M50,429.2c0,2.8,0.1,5.6,0,8.5c-0.1,2.1,0.9,3,2.8,3.2c6.2,0.7,12.5,1.9,17.8-3
		c0.8-0.8,1.9-1.3,2.9-1.8c1.8-0.9,2.8-2.4,3.9-4.1c2.5-3.9,1.2-8,1.5-12.1c0.1-1.2-0.8-1.7-1.9-1.8c-6.6-0.7-12.8-3-18.9-5.6
		c-2-0.9-3.6-0.2-4.3,1.3c-1.4,3.2-5.1,5.6-3.9,10C50.4,425.4,50,427.3,50,429.2z M142,160.6c0-3.5-0.2-7,0.1-10.5
		c0.1-2.4-0.8-3.8-2.9-4.5c-7.7-2.6-15.3-5.4-23.1-7.4c-1.9-0.5-3.2-0.1-3.1,2.4c0.1,2,0.2,4,0,6c-0.6,4.1,0.4,7,4.9,8
		c1.1,0.2,2,1.1,3,1.7c7.2,4.2,13.3,9.8,19.1,15.8c0.4,0.4,1.1,1.2,1.5,1.1c1.1-0.2,0.6-1.3,0.6-2C142,167.5,142,164.1,142,160.6z
		 M-13,324.5c0,4.2-0.1,8.3,0,12.5c0.1,2.9,1.2,3.4,3.8,2c4.6-2.5,9.1-5.3,13.7-7.8c1.7-0.9,1.5-2,1.2-3.2
		c-1.6-8.8-2.7-17.7-2.8-26.7c0-2.9-0.4-3.1-2.7-1.8c-2,1.1-3.9,2.4-5.9,3.5C-15.2,308.1-12.6,315.5-13,324.5z M111,429.2L111,429.2
		c0-2.7-0.1-5.3,0-8c0-1.7-0.6-2.5-2.3-2.3c-2.2,0.2-4.3,0.2-6.5,0.5c-4.8,0.6-9.6,0.6-14.4,0.1c-6.9-0.8-6.9-0.9-6.8,6.3
		c0,3.2,3.3,8.6,6.4,10.3c1.7,1,3.5,1.8,5.1,3c4.1,3.2,8.8,1.4,13.3,0.8c5.2-1,5.2-1,5.2-6.2C111,432.2,111,430.7,111,429.2z
		 M144,161.6c0,3.8,0,7.6,0,11.5c0.1,4.3,0.8,4.8,4.5,2.7c6.7-3.8,13.3-7.8,20-11.7c6.2-3.9,4.7-12,4.8-18c0.1-1.7-0.7-2-2-0.8
		c-2.6,2.3-5.2,4.6-7.9,6.9c-2.4,2.1-5.2,2.7-7.7,0.9c-2.9-2.1-6.3-2.9-9.4-4.5c-1.9-1-2.3-0.2-2.3,1.5C144,154,144,157.8,144,161.6
		z M112.8,427.3c0,3.1,0,5.8,0,8.4c0,1.7,0.4,2.2,2.4,1.8c8.5-1.9,16.2-5.7,24-9.3c1.8-0.8,3.1-2.1,2.9-4.6c-0.3-4.1,0-8.3-0.1-12.5
		c-0.1-3.5-0.2-3.6-3.2-2.1c-5.3,2.7-10.6,5.4-16.4,6.9c-3,0.8-6.9,0.6-8.8,2.7C111.6,420.8,113.1,424.7,112.8,427.3z M3.9,251.6
		c0.2-6.2,0.3-6.3-1.7-7.5c-3.7-2.1-7.4-4.2-11.1-6.3c-2.5-1.4-3.2-1-3.3,1.9c-0.1,8.3-0.3,16.6,0.1,24.9c0.1,2.9,1.5,6,4.2,7.8
		c2.3,1.6,4.8,2.8,7.2,4.2c2.2,1.4,3,0.8,3.2-1.7C3.2,266.8,2.5,258.4,3.9,251.6z M17,414.9c0-4.1-0.1-8.3,0-12.5
		c0-2.4-1.1-3.1-3-2.1c-7.6,4.2-15.2,8.5-22.6,13c-2.2,1.3-1.9,3.6,0.4,5.1c7,4.4,14.1,8.5,21.8,11.5c2.6,1,3.3,0.7,3.4-2.1
		C17.1,423.5,17,419.2,17,414.9z M174.2,382c-4,0-4-0.1-6.2,3c-1.1,1.5-2.4,2.8-3.6,4.1c-3.1,3.4-6.8,6.3-10.3,9.4
		c-2.5,2.2-2.4,2.7,0.2,4.3c3.2,1.9,6.7,3.5,9.8,5.5c1.9,1.3,3,1,4.6-0.5c5.9-5.8,11.1-12.2,15.9-18.9c0.9-1.2,1-2-0.2-2.8
		C181.3,384.2,178.4,381.6,174.2,382z M17,162.7c0-4.1,0-8.3,0-12.4c0-1.7-0.7-2-2.1-1.3c-7.6,3.9-15.5,7.5-22.6,12.4
		c-1.4,0.9-1.6,1.8,0.2,2.9c7,3.9,13.9,8,21,11.9c3,1.6,3.4,1.3,3.4-1.9C17.1,170.4,17,166.6,17,162.7z M175,216.1L175,216.1
		c0,4.1,0.1,8.3,0,12.5c-0.1,2.6,1.5,2.9,3.1,2.2c2.8-1.3,5.4-3,8.1-4.6c1-0.6,1.6-1.5,1.6-2.9c-0.3-9.8-0.5-19.6-0.7-29.4
		c0-1.7-0.7-1.8-2.1-1.1c-6.4,3.2-10.6,7.6-9.9,15.4C175.2,210.8,175,213.5,175,216.1z M-71.7,290.2c0,3.4-0.1,6.2,0,9.1
		c0.2,2.8,0.8,3.1,3.4,1.7c6.3-3.5,12.5-7.3,18.8-10.8c2.2-1.2,2.1-2.2,0.1-3.4c-6.2-3.6-12.5-7.2-18.7-10.9c-2-1.2-2.8-1.1-3,1.5
		C-71.4,281.9-72,286.3-71.7,290.2z M50,146.4c0,2.2,0,4.3,0,6.5c0,1.7,0.4,2.6,2.3,1.6c1.8-0.9,3.6-1.7,5.4-2.4
		c6-2.3,12.2-4,18.7-4.3c1.9-0.1,2.2-0.4,1.4-2.6c-1.2-3.5-4.3-4.2-6.7-5.9c-3.6-2.6-7.5-3.8-12-3.2C50,137.3,50,137.2,50,146.4z
		 M186.8,384.9c1.1,0,1.2-1,1.6-1.6c3.1-4.5,5.7-9.3,8.1-14.2c2.3-4.7,2.3-4.6-2-7.2c-1.4-0.9-2.9-1.7-4.1-2.8
		c-1.7-1.4-2.7-1.4-3.9,0.7c-2.7,4.8-5.6,9.4-9.1,13.6c-0.5,0.6-1,1.5-1.1,2.2C176.4,377.9,184.3,385,186.8,384.9z M173,216
		c0-4,0.1-8,0-12c-0.1-3.1-1.3-6.2-3.9-7.9c-5.2-3.4-10.7-6.3-16.1-9.5c-0.5-0.3-0.9-0.6-1.3-0.1c-0.4,0.5,0.2,0.8,0.4,1.1
		c7.7,12.9,13.9,26.7,19.4,40.7c0.2,0.6,0.7,1.6,0.8,1.6c1.1-0.3,0.5-1.3,0.6-1.9C173,224,173,220,173,216z M111,144.4
		c0-1.8,0-3.7,0-5.5c0-1.2-0.5-1.7-1.7-1.9c-7.4-1.7-14.7-2.4-21,3.2c-0.4,0.3-0.8,0.6-1.3,0.8c-2.2,0.5-2.7,2.3-3.7,4.1
		c-1.1,2.1-0.4,2.2,1.3,2.2c6.7,0.1,13.2,0.8,19.7,2.5C111,151.4,111,151.4,111,144.4z M144,415.7L144,415.7c0,2.5,0,5,0,7.5
		c0,1.6,0.6,2.3,2.1,1.3c5.6-3.7,11.6-6.9,16.6-11.6c1.7-1.6,1.6-2.6-0.4-3.7c-3.7-2.1-7.4-4.2-11-6.4c-1.1-0.7-1.7-0.3-2.6,0.2
		C141.8,406.5,144.5,409.4,144,415.7z M186.9,158.9c0-4.5-0.4-9-0.7-13.4c-0.1-1.6-0.4-2.7-2.2-2.4c-3,0.4-7.6-1.7-8.6,1.2
		c-1.3,4-1.3,9.2,0,13.3c1.4,4.3,5.1,7.7,9.8,9.4c1.3,0.5,1.8,0.4,1.7-1.1C186.9,163.6,186.9,161.2,186.9,158.9z M48.7,412
		c1.2,0,2.1,0,2.9,0c0.8,0,1.8-0.1,2-1.1c0.2-1-1-1.2-1.6-1.5c-6-3.3-11.1-7.8-15.8-12.7c-1.8-1.9-3.4-4.9-5.8-5.2
		c-2.4-0.4-4.6,2.2-6.9,3.5c-3.1,1.7-3.2,2.3-0.1,4.1c6.6,4,13.4,7.8,20,11.7C45.1,411.8,46.8,413,48.7,412z M12,354.8
		c-2.1-6.8-4.2-13.6-5.2-20.7c-0.2-1.1-1.1-1.3-1.9-0.8c-4.6,2.6-9.1,5.2-13.6,7.9c-1.7,1-1.6,2.3,0.2,3.4
		c6.3,3.6,12.5,7.2,18.8,10.8C11.1,355.8,11.8,356.1,12,354.8z M7.2,223.5c-5.5,2.7-10.6,6-16,8.9c-1.6,0.9-1.4,2.2,0,3.1
		c3.9,2.4,7.9,4.6,11.8,6.9c1.2,0.7,1.8,0.4,2-1c1-5.5,2-11,3-16.5C8,224.5,8.4,223.3,7.2,223.5z M-45.9,372.3
		c0.3-6.7-0.6-12.5-7.5-15.4c-1.5-0.6-2.7-1.9-4.2-2.6c-0.6-0.3-1.4-1.2-2.1-0.6c-0.7,0.6-0.2,1.6,0.2,2.3
		c3.3,6.5,6.4,13.1,9.9,19.6c0.7,1.3,1.6,4,2.9,3.6c1.9-0.6,0.5-3.1,0.8-4.8C-45.8,373.6-45.9,372.9-45.9,372.3z M19.7,374.9
		c-1,0.2-0.7,1-0.7,1.6c0,3.1-0.2,6.3,0,9.4c0.2,2.7-1.5,6.6,1,7.7c2.5,1.1,5.1-2,7.7-3.5c1.2-0.7,1.5-1.2,0.6-2.2
		C24.7,384.1,22.9,379,19.7,374.9z M79.8,442c0,0,0-0.1,0-0.1c3.5,0,7,0,10.5,0c0.4,0,1,0.1,1.1-0.5c0-0.2-0.2-0.7-0.5-0.8
		c-7.7-6.4-13.7-5.7-21.4,0.3c-0.4,0.3-0.9,0.4-0.7,1c0.1,0.1,0.6,0.1,0.9,0.1C73.1,442,76.5,442,79.8,442z M80.9,135
		C80.9,135,80.9,135,80.9,135c-3.9-0.1-7.9,0-11.8,0.3c1,1.9,3.1,2.3,4.6,3.4c3.4,2.5,7.4,2.3,11.1,1.2c2.3-0.7,4.3-2.3,6.4-3.6
		c0.4-0.2,1.1-0.3,0.9-1c-0.1-0.2-0.8-0.4-1.2-0.4C87.5,135,84.2,135,80.9,135z M-46,207.4c0-1,0.1-2,0-3c0-0.5,0.4-1.4-0.6-1.5
		c-0.3,0-0.7,0.6-0.9,1c-3.6,5.1-6.5,10.7-9.1,16.3c-0.2,0.4-0.3,1,0.2,1.3C-50.5,218.9-45.5,216.2-46,207.4z M187.8,234.4
		c0.1-6.8,0.1-6.8-5.7-3.4c-0.4,0.2-0.9,0.5-1.3,0.7c-3.5,2-3.5,3.2,0,5.3c0.6,0.3,1.1,0.7,1.7,0.9c1.9,0.5,3.2,2.4,5.3,2.5
		C187.8,238.4,187.8,236.4,187.8,234.4z M182.8,244C182.8,244,182.8,244,182.8,244c1.2,0,2.3,0,3.5,0c0.4,0,1,0.2,1.1-0.5
		c0-0.3-0.1-0.7-0.4-0.8c-3.2-1.9-6.5-3.8-9.8-5.4c-1.2-0.6-2.2,0.2-2.1,1.8C175.3,243.8,178.5,244.1,182.8,244z M22.9,181.9
		c0.5-0.2,0.9-0.2,1.1-0.4c0.7-0.4,3.9-6.1,3.7-6c-2.1,0.3-3.5,2.1-5.5,2.9c-0.8,0.5-1.6,1.6-0.7,2.4
		C21.9,181.3,22.5,181.6,22.9,181.9z M19,185.2c0,1.6,0,2.5,0,3.3c0,0.5,0.5,1,0.9,0.5c0.8-1.2,3.6-5.3,1.1-5.9
		c-0.6-0.2-1.4-0.3-1.7,0.5C19,184.3,19,185.1,19,185.2z"/>
	<path class="st1" d="M421.9,303.3c-0.3,10.1-0.5,20.3-0.8,30.4c0,2.3-0.5,4.6,0.6,6.9c1.1,2.2-0.9,4.1-0.9,6.2
		c-0.4,11.4-0.8,22.9-0.3,34.3c0.1,7.4-1.6,15.3,0.4,22.7c1.3,6.9,9,14,15.9,14.5c5.8,0.4,11.6,1,17.4,0.5c1.4-0.1,1.7,0,1.7,1.2
		c0,4.3,0,8.7,0,13c0.2,2.6-5,3.7-6.9,4.5c-28.1,9.7-80.7,16.2-92.9-19.2c-1.5-3.4-1.6-3.5-4.1-0.9c-5.9,6-12.4,11.1-19.1,16
		c-14.7,9.9-33.3,11.8-50.7,11.7c-28.6-0.1-55.6-20-56.1-50c-0.8-13.8,2.3-26.9,10.1-38.3c5-7.2,12-12.6,20-16.6
		c22.4-11.5,46.9-17.1,70.6-24.9c7.9-2.5,15.8-4.9,23.3-8.4c1.9-0.9,4.9-1.4,2.9-4.8c1.8-6.7,0.9-13.6,0.7-20.3
		c0.4-23.1-7-46-35.1-42.4c-5.8,0.7-11.2,3-16.2,6c-1.4,0.9-2,1.7-1.8,3.9c0.7,7.9,4,15.1,5.5,22.7c0.6,2.9-0.2,5.2-0.4,7.6
		c-1.2,11.2-7,19.5-20.2,22.9c-10.4,2.7-21.1,2.6-31.5-1.1c-10.8-3.9-16-12.1-18-23c-1-5.4-1.2-10.9,1.2-15.8
		c2.3-4.6,5.4-8.7,9.1-12.4c28.8-26.3,74.3-29.9,111.3-25.6c5.6,0.6,11.4,1.1,16.7,2.7c26.5,6.9,43.4,24.9,46.4,52.5
		C421.9,287.6,421.6,295.5,421.9,303.3z M296.9,380.4c-0.9,13.3,4.3,25.7,17,29.3c9.1,2.9,18.4,1.6,26.6-3.7
		c4.3-2.9,12.4-7.8,12.6-13.6c0-15.1,1-30.2,0.2-45.3c0.7-6.3,0.5-12.7,0.7-19c0.1-2.4-0.8-3-2.9-2.2c-3.8,1.5-7.5,3.5-11.3,4.8
		c-13.3,4.6-32.7,14-38.1,27.7C299,365.5,295.7,372.5,296.9,380.4z M363,252.2c0,3.7,0,7.3,0,11c-0.1,4.3,2.2,7.5,5.4,9.5
		c6.3,4.1,13,7.6,19.5,11.4c4.5,2.6,5,2.3,5-3.1c0-6.5,0-13,0-19.5c0.1-5.9-2.2-10.2-7.6-12.8c-6-3.5-11.8-7.1-17.8-10.5
		c-4-2.3-4.5-1.9-4.5,2.9C363,244.9,363,248.5,363,252.2z M393,378.9c0-3.5,0-7,0-10.5c0.1-4.6-2.6-8-6-10.3
		c-6.4-4.3-13.3-7.8-20-11.6c-3.2-1.8-4-1.4-4,2.2c-0.1,7.6,0,15.3-0.1,23c-0.1,4.3,2.3,7.4,5.5,9.5c6.7,4.4,13.7,8.4,20.7,12.4
		c2.5,1.5,3.8,0.5,3.9-2.6C393,386.9,393,382.9,393,378.9z M392,307C392.1,307,392.1,307,392,307c0-4.3,0.1-8.7,0-13
		c-0.1-3.3-0.4-3.5-3.4-1.8c-7,4-14.1,7.8-20.8,12.2c-2.5,1.6-4.5,4.7-4.7,7.6c-0.5,8.5-0.2,17-0.1,25.5c0,2.6,1.2,3,3.5,1.6
		c6.7-3.9,13.3-7.8,20-11.6c3.8-2.1,5.5-5.2,5.5-9.5C392,314.3,392,310.6,392,307z M269,270.5c0,3.7,0,7.3,0,11
		c0.1,4.7,0.2,4.9,4.3,2.7c6.5-3.6,12.8-7.4,19.2-11c4.3-2.4,6.5-5.9,6.5-10.8c0-2.6-1-4.9-1.4-7.3c-0.6-4.1-3.9-8.4,0.9-12.4
		c1.1-0.9,1-3.7-0.2-5.1c-1.3-1.5-2.8,0.1-4,0.7c-5.6,3.1-11.1,6.4-16.7,9.4c-6.6,3.6-9.6,8.8-8.8,16.3
		C269.2,266.2,269,268.4,269,270.5z M417.1,342.8c0.7-2.6-0.7-3.9-2.8-5.1c-4.7-2.6-9.5-5.2-14.1-8.1c-4.6-3-9-2.5-13.5,0.1
		c-6.2,3.6-12.5,7.2-18.7,10.8c-2.7,1.6-2.8,2.9-0.1,4.5c6,3.6,12.1,7,18.2,10.6c5,3,9.9,2.9,14.8,0c4.4-2.6,8.8-5.1,13.2-7.6
		C416.2,346.8,417.4,345.2,417.1,342.8z M394,415.5c0.7,5.3-1.9,11.9,2.9,17.5c0.8,0.9,1.4,2.1,2.4,2.7c1.2,0.8,2.7,1.2,3.9,2.1
		c5.7,4.5,12.1,3.5,18.5,2.5c2-0.3,2.4-1.2,2.4-3c-0.1-5.5,0-11,0-16.5c0-0.8,0.1-2-0.4-2.4c-2.5-2.1-3.6-5.5-7-7.1
		c-6.2-2.9-11.9-7-18-10.2c-4.1-2.2-4.5-2-4.6,2.5C394,407.4,394,411,394,415.5z M269,415c0,4-0.1,8,0,12c0.1,3.6,2.3,6.3,4.8,8.3
		c6.1,5.1,13.4,6.5,21.3,5.8c2.8-0.3,3.8-1.2,3.8-3.9c-0.1-5.3-0.1-10.6-0.2-15.9c0-1-0.1-1.9-0.7-2.8c-2.9-4.5-2.8-4.6-7.7-7.5
		c-5.6-3.4-11.3-6.7-17-9.8c-3.7-2-4.2-1.7-4.2,2.5C269,407.4,269,411.2,269,415z M269,379.1c0,3.8,0,7.6,0,11.5
		c0.1,3.9,0.9,4.4,4.4,2.4c5.4-3,10.8-6.2,16.2-9.1c2.4-1.3,3.5-2.8,3.5-5.8c0-6.5,0.9-12.9,3.9-18.7c1.8-3.4,2.1-6.9,2-10.6
		c0-5.2-4-2.5-6.5-0.8c-5.2,3-10.4,6.2-15.7,9.1C266.6,362.5,269.4,369.5,269,379.1z M267,379.5c0-3.7,0-7.3,0-11
		c0-4.8-1.8-8.5-5.9-10.9c-3.8-2.2-7.7-4.3-11.5-6.6c-1.5-0.9-2.4-0.5-3.5,0.5c-4.8,4.7-9.4,9.5-8.1,17.1c0.2,1.1,0.1,2.3,0,3.5
		c-0.1,3.9,1.7,7.1,4.8,9c6.9,4.4,14.1,8.3,21.3,12.4c2,1.1,2.8,0.6,2.9-2C267.1,387.5,267,383.5,267,379.5z M417.9,319.4
		c0-4.3-0.1-8.4,0-12.6c0.1-2.5-1-3.7-3.1-4.9c-5.5-2.9-10.8-6.2-16.2-9.3c-3.7-2.2-4.6-1.8-4.6,2.4c-0.1,7.7-0.1,15.3,0,23
		c0,3.7,2.3,6.8,4.7,8.6c5,3.7,10.7,6.4,16.1,9.4c1.4,0.8,2.1,0.8,2.4-1.2C418.2,329.6,417.3,324.4,417.9,319.4z M394.4,378.5
		c-0.1,0-0.1,0-0.2,0c0,4.3-0.1,8.6,0,12.9c0.1,2.5,1.6,3.3,3.7,2.1c5.5-3.1,11-6.4,16.5-9.6c1.2-0.7,1.8-1.8,1.8-3.3
		c0.2-9.8,0.5-19.5,0.8-29.3c0.1-2.1-0.5-2.7-2.6-1.4c-3.9,2.4-7.8,4.9-11.9,6.9C392.2,361.9,394.7,369,394.4,378.5z M392.2,415.1
		C392.1,415.1,392.1,415.1,392.2,415.1c-0.1-4,0-8-0.1-12c-0.1-3.7-0.7-4-4-2.1c-4.1,2.4-8.4,4.5-12.3,7.1c-3.9,2.6-9,3.7-11,9.2
		c-1.4,3.7-2.5,5.8,0,8.6c4,4.4,8,8.7,14.1,10.6c4,1.2,7.7,1.1,10-2c1.7-2.4,3.7-4.9,3.4-8.4C392,422.5,392.2,418.8,392.2,415.1z
		 M361.7,411.9c2,0.4,3.9,0.1,5.7-1c6.9-4,13.9-8,20.8-12c2.4-1.4,2.4-2.5,0-3.9c-7.4-4.1-14.7-8.7-22.2-12.5
		c-5.8-2.4-9.3-0.4-8.8,5.5c0.6,6.5-1.5,11.3-6.6,15c-1.6,1.5-3.5,2.7-0.3,4.1c2.3,1.1,4.5,2.7,6.8,4
		C358.6,412,359.9,412.6,361.7,411.9z M267,270.1c0-3.2-0.2-6.3,0-9.5c0.6-6.2-3.2-10.8-8.3-12.8c-1.8-0.7-3-0.5-4,0.4
		c-5.2,4.8-10.9,9.2-13.5,16.3c-1.9,5.1-1.5,6.5,3.2,9.2c6.4,3.7,12.8,7.3,19.2,11c2.6,1.5,3.3,1.1,3.4-2.2
		C267.1,278.4,267,274.2,267,270.1z M267,415.3c0-4.2,0.1-8.3,0-12.5c-0.1-3-0.7-3.5-3.1-2.1c-7.3,4.1-14.6,8.2-21.8,12.5
		c-4.1,2.5-4.4,6.6-1.4,10c4.9,5.4,10.8,9.3,17.2,12.4c1.7,0.8,2.9,0.8,4.5-0.2C269,431.3,266.6,421.8,267,415.3z M237.4,382
		c-5.3,0-7.2,1-7.3,4.2c-0.3,7.1-0.4,14.3,2.1,21.1c2.3,7,6.9,5.1,12.3,2.4c6.1-3.6,12.1-7.2,18.2-10.7c3.1-1.8,3.2-2.2,0.1-4
		c-6.8-4-13.6-8-20.4-11.9C240.7,382.2,239,381.7,237.4,382z M300,429.2c0,2.5,0.1,5,0,7.5c-0.2,2.5,0.6,3.8,3.3,3.3
		c7.2-1,13.9-4.2,20.7-6.8c9.1-3.6,5.3-9.2,6.1-16.7c0.1-2.1-0.8-2.5-2.7-2.2c-6,0.9-11.9,0.6-17.5-2c-2.4-1.1-5-0.1-5.7,1.4
		c-1.6,3.1-5.1,5.7-4.2,10C300.3,425.5,300,427.4,300,429.2z M357.8,289.5c0,4.1,0,7.8,0,11.4c0,1.5,0.6,3.1,2,2.8
		c3-0.8,6.2-0.1,9.1-2c6.1-4.1,12.7-7.5,19.1-11.2c2.7-1.6,2.7-2.3,0-3.8c-5.1-3-10.3-5.8-15.3-8.9c-3.7-2.3-7.2-4.5-11.9-4.4
		c-2.5,0.1-4,0.7-3.5,3.1C358.1,281,357.6,285.5,357.8,289.5z M269.2,357.6c2.2,0.8,3.4-0.3,4.6-1c6.9-3.8,13.4-8.1,20.4-11.7
		c2.4-1.2,2.3-2.8-0.3-4.3c-3.4-2-7-3.6-10.3-5.7c-1.8-1.1-3.3-1-5.1-0.3c-9.1,3.5-18.2,7-26.4,12.3c-2.1,1.4-2.4,2.5-0.2,3.4
		C257.9,352.8,262.3,359,269.2,357.6z M394.4,270.2C394.3,270.2,394.3,270.2,394.4,270.2c-0.1,4.3-0.2,8.6,0,12.9
		c0.1,2.6,1.1,3,3.3,1.8c5.2-3,10.4-6.1,15.8-8.9c2.3-1.2,3-2.5,2.2-5c-2.4-7-4.9-14-9.8-19.8c-2.8-3.4-2.7-3.6-6.4-1.2
		c-3,1.9-4.6,5-4.9,8.3C394,262.2,394.4,266.2,394.4,270.2z M331.4,227.1C331.4,227,331.4,227,331.4,227.1
		c-8.5,0.3-17.7-1.7-24.8,4.1c-1.2,1-3.7,1-3.4,3.1c0.3,1.9,2.6,2.3,4.1,3.4c0.8,0.6,1.5-0.2,2.3-0.4c11.6-2.5,24.8-4.4,34.5,4.3
		c1.1,1,2.1,0.9,3,0.3c3.5-2,7.1-4.1,10.5-6.3c1-0.7,2.2-1.5,0.1-2.8c-5.2-3.3-10.3-6.5-16.9-5.9
		C337.8,227.3,334.6,227.1,331.4,227.1z M302.3,277.2c-0.7-1,0.7-3.6-0.9-3.5c-2.5,0.1-5.3-1.4-7.7,1c-1.2,1.2-3.1,1.9-4.6,2.8
		c-5.2,3.1-10.4,6.1-15.6,9.2c-2,1.2-2.1,2.4,0,3.6c4.1,2.4,8.3,4.6,12.3,7.1c1.3,0.8,2.1,0.2,3.2-0.2
		C297.5,293.4,301.5,286.6,302.3,277.2z M299,412c2.2-0.2,4.8,0.8,5.9-1.3c0.8-1.7-1.3-2.3-2.3-3.2c-4.8-4.2-7.7-9.4-8.6-15.7
		c-0.2-1.8-0.9-3.6-0.9-5.4c0-2.8-1.6-1.8-2.7-1.2c-5.2,3-10.5,6-15.6,9.2c-3.8,2.4-3.7,3.4,0.2,5.6c6,3.4,11.9,6.9,17.8,10.4
		C294.9,411.6,297,412.4,299,412z M361,325.1C361,325.1,361,325.1,361,325.1c0-3-0.3-6,0.1-9c0.4-3.5-1-6.3-2.2-9.3
		c-0.5-1.2-1.1-1.5-2-0.2c-1.8,2.5-4.5,3.7-7.4,4.7c-5,1.7-9.9,3.7-14.9,5.6c-4.3,1.6-2.5,3.5-0.6,6.3c1.5,4.1,2.3,4.3,6.3,2.8
		c3.7-1.4,7.2-3.5,11.2-4c4.1-0.5,5.5,0.5,6.2,4.5c0.4,3.6,0.1,7.3,0.2,11c0,1.2,0.3,2.4,1.9,2.3c1.5-0.1,1.2-1.3,1.2-2.2
		C361,333.5,361,329.3,361,325.1z M425.9,429C425.9,429,425.9,429,425.9,429c-0.1,2.3-0.1,4.6-0.1,7c0.1,3.8,0.1,4,4,2.9
		c5.7-1.6,11.4-3.4,17-5.3c6.2-2.1,4.8-1.3,5.1-7.2c0.2-2.9-0.9-3.5-3.7-3.7c-6.9-0.4-14,0-20.4-3.3c-1.7-0.9-2,0.3-2,1.6
		C425.9,423.7,425.9,426.4,425.9,429z M393,249c1.1,0,1.8-0.1,2.5,0c2.4,0.2,4.9-0.9,5.5-2.5c0.7-1.7-1.9-3.2-3.5-4.2
		c-6.3-4.4-13.2-7.6-20.4-10.1c-2.4-0.8-5.3-2.5-8.1-0.7c-1.1,0.7-2.6,0.8-2.8,2.5c-0.2,1.7,1.4,2.2,2.4,2.8
		c6.1,3.6,12.2,7,18.3,10.6C388.9,248.6,391,249.5,393,249z M417.9,292.1c0.5-4.7-0.7-9.2-0.9-13.9c-0.1-2-1.2-1.8-2.2-1.2
		c-5.5,3.2-11,6.5-16.5,9.7c-2,1.2-2,2.2,0.1,3.4c3.8,2.1,7.5,4.7,11.4,6.7c2.5,1.2,5.3,4.6,7.1,3.5
		C419.4,299,417.5,295,417.9,292.1z M300,333c0.1,3.9-0.7,9.1,4.7,5.6c5.5-3.2,11-6.5,16.6-9.6c3.2-1.8,6-3.8,7.5-7.3
		c0.4-0.8,1.7-1.4,0.7-2.5c-0.8-0.8-1.9-0.4-2.8-0.1c-7.9,2.4-15.8,4.9-23.7,7.2C299,327.4,300.2,329.9,300,333z M239.9,277.2
		c0.5,6.4,3.4,11.8,8,16c3.8,3.5,4.5,3.3,9,0.6c1.8-1.1,3.8-2,5.6-3.1c2.9-1.8,2.9-2.8,0.1-4.5c-6.4-3.7-12.8-7.4-19.2-11.1
		C240.3,273.4,239.9,273.7,239.9,277.2z M267.5,249c4.6-0.1,4.5-0.2,8.9-2.7c5.7-3.3,11.4-6.4,17.1-9.7c1.1-0.6,2.8-1.2,2.3-2.9
		c-0.5-1.8-2.3-2.2-4-2.1c-9.7,2-18.9,6.1-27.6,10.7c-1.7,0.9-5.2,1.2-4.4,3.4C260.7,248,264.8,249.5,267.5,249z M418.4,409.4
		c-0.2-2.4-1.2-4.2-1.5-6.2c-1-5.3-0.9-10.5-1-15.9c0-0.6,0.6-2.5-1.2-1.5c-5.6,3.1-11.1,6.3-16.5,9.5c-1.5,0.9-1.4,2.2,0,3.1
		c2.3,1.5,4.8,2.9,7.2,4.3c3.8,2.2,7.7,4.3,11.5,6.5C417.7,409.9,418.3,410.3,418.4,409.4z M361,252.2c0-4.3,0.1-8.6,0-12.9
		c-0.1-2.4-0.9-2.9-3-1.7c-3.1,1.8-6.2,3.6-9.3,5.5c-1.2,0.7-1.5,1.5-0.4,2.6c6.3,6.6,7.5,16.1,8.8,24.7c0,0.4-0.1,1.1,0.6,0.9
		c0.3,0,0.8-0.3,0.8-0.5c0.6-2.8,3-4.9,2.6-8.2C360.7,259.3,361,255.7,361,252.2z M346.5,407.4c-0.3,0.1-0.8,0.2-1.2,0.5
		c-3.7,2.4-7.6,4.6-12,5.6c-1.1,0.2-1.3,1.4-1.3,2.4c0,3.5,0,7,0,10.4c-0.1,1.6,1,1.9,2.2,0.9c7.1-4,11.9-11,18.7-15.3
		c0.5-0.3,0.7-0.6,0-0.9C350.7,410,349,408.2,346.5,407.4z M357.3,364.4c-0.3,4.6-0.1,9.8-0.2,14.5c0,0.5,0,1,0.6,1.1
		c0.3,0.1,0.9-0.2,0.9-0.3c-0.1-2.4,2.5-3.7,2.5-6.2c-0.1-8.5,0-17,0-25.5c0-1.2-0.2-2.6-1.5-2.6c-2.4,0.2-2.2,3.6-2.2,5.5
		C357.3,355.3,357.3,359.6,357.3,364.4z M333.7,328.6c0.3-0.8,0-1.1-0.7-1c-3.2,0.8-6.6-0.4-9.6,2.3c-2.5,2.2-5.9,3.5-8.8,5.2
		c-3.4,2-6.8,4-10.2,6.1c-0.8,0.5-2,1.3-1.1,2.3c0.8,0.9,1.9,2,3.4,1.1c7.6-6.4,16-11.7,25.5-15.2
		C332.8,329.2,333.3,328.8,333.7,328.6z M298.8,333.8c0-5.9,0-5.9-5.4-4.1c-1.1,0.4-2.2,0.8-3.3,1.1c-1.7,0.5-4.6,0.7-4.7,2
		c-0.2,2.1,3,1.9,4.3,3.2c0.6,0.5,1.3,1,2,1.3c1.8,1,3.8,3.1,5.6,2.3C299.6,338.6,298.6,335.7,298.8,333.8z M275.3,300
		c2.5-0.1,5.8,0.3,8.3-1.4c-3.8-2.5-7.8-4.6-11.6-7c-1.7-1-2.5-0.1-2.9,1.3C267.3,298.5,269.8,300.2,275.3,300z M267,295.4
		c0-4.9,0-4.9-4.2-2.7c-0.6,0.3-1.3,0.4-1.7,0.9c-1.5,1.8-5.4,1.8-5.1,3.9c0.2,1.5,4,1.5,6.2,2C266.7,300.7,267,300.4,267,295.4z
		 M400.1,441c0,0,1,0,2,0c0.4,0,1,0.2,1.1-0.5c0-0.2-0.4-0.4-0.6-0.6c-4.2-4.2-12.3-5-16-1.2c0.4,0.2,0.8,0.6,1.3,0.7
		C391.6,440,395.3,440.9,400.1,441z M276.2,441c0.7-0.1,1.4-0.1,2-0.2c-0.1-0.2-0.1-0.5-0.2-0.7c-2.1-2.8-11.9-5.4-14.6-2.4
		C267.2,439.5,272,440.3,276.2,441z M236,371.9c0-1.5,0-2.7,0-3.9c0-0.4,0.1-1-0.5-1.1c-0.2,0-0.6,0.3-0.7,0.6
		c-1.7,3.8-3.2,7.6-3.8,11.7c-0.1,0.5,0.2,0.9,0.3,1.4c0.7-0.3,2.1-0.6,2.1-0.9C233.8,376.8,237.3,374.9,236,371.9z M356.3,228
		c-0.4,0.1-1,0.2-1.7,0.3c0.5,0.4,0.9,1.1,1.4,1.2c1.5,0.2,2.2,2.6,4.2,1.6c0.5-0.3,0.8-0.9,0.5-1.2
		C359.8,228.2,358.1,228.4,356.3,228z M304.9,238.8c-0.6-1.1-1.6-1.8-2.8-1.7c-1.5,0.1-1.1,1.4-1.1,2.3c0,0.9,0.2,1.8,1.4,1.4
		C303.3,240.4,304.7,240.3,304.9,238.8z M302.5,345.8c-2,0.3-1.5,1.8-1.5,3c0,0.5-0.2,1.6,0.6,1.5c1.6-0.4,1.9-2,2.2-3.4
		C304,346.2,303.1,345.9,302.5,345.8z M303.7,229c-1.3,0.1-2.7,0-3.4,1.5c1.7,0.6,3.8,0.9,4.7-1C305.3,228.9,304.1,229.2,303.7,229z
		 M365.7,229.7c-0.3-0.7-2.8-0.9-2.5,0.5c0.3,0.9,1.1,1,1.9,0.8C365.4,230.9,366.1,230.8,365.7,229.7z"/>
	<path class="st1" d="M1315,444.9c-26-0.1-48.6-6.5-70.4-20.9c-16.3-10-26.9-25.6-34.9-42.7c-3.5-7.4-5-15.3-7.3-23
		c-1.5-5.1-1.2-10.9-1.6-16.3c-6.2-79.4,56.6-125.7,131.7-118.6c35.3,1.8,70.6,18.7,89.5,49.3c24.1,40.7,20.7,97.3-9.5,134
		c-11.7,13.2-26.8,22.8-43,29.5C1352.2,443.5,1333.6,445.4,1315,444.9z M1275.1,340.3c0.4,22.8,1.4,45.4,11.4,66.3
		c4.1,8.7,9.6,15.5,18.2,19.4c13.3,6,30.7,3.3,40.7-9.1c4.3-5.4,7.2-11.5,9.6-17.9c2.7-7.3,3.9-15,5.3-22.7
		c2.3-12.7,2.2-25.6,2.7-38.4c0.5-12.6-0.6-25-1.7-37.5c-2.1-20.2-5.3-43.3-23-56.1c-11.2-8.1-32.4-7.7-43.6,4.3
		c-4.7,5.1-8.2,10.8-10.9,17.2C1275,289.5,1275.4,315.6,1275.1,340.3z M1426,325c-0.4-9.2,2.2-16.5-7.3-22
		c-6.5-3.8-13.1-7.5-19.5-11.3c-1.7-1-2.5-0.3-3,1c-0.3,0.7-0.2,1.6-0.2,2.5c0,7.5-0.1,15,0,22.5c0,3.8,1.9,7,5,9
		c6.9,4.4,14.1,8.4,21.2,12.4c2.6,1.4,3.6,0.8,3.7-2.1C1426.1,333,1426,329,1426,325z M1269,379c0-4-0.1-8,0-12
		c0.1-3.6-2.2-6.4-4.5-8c-6.8-4.6-14-8.4-21.2-12.3c-3-1.7-3.9-1.2-3.9,2.1c-0.1,8.1,0,16.2,0.1,24.3c0,1.1,3.5,7.2,4.4,7.7
		c6.8,3.9,13.6,7.9,20.4,11.7c4.4,2.3,4.7,2.1,4.7-2.7C1269,386.3,1269,382.7,1269,379z M1394.5,328.1c-1,0.3-1.8-1-3.1-0.2
		c-7.4,4.5-15.1,8.7-22.5,13.1c-2.5,1.5-2.4,2,0.2,3.5c6.9,4.1,13.9,8.1,20.8,12.1c3.4,2,7.2,1.8,10.3,0.2c7-3.6,13.7-7.8,20.4-11.9
		c3.2-1.9,3.2-2.6-0.1-4.6c-5.9-3.5-11.9-6.9-17.9-10.3C1400.1,328.7,1397.8,326.4,1394.5,328.1z M1238,324.7
		c-0.4-9.4,2.2-16.5-7.6-21.9c-5.6-3.1-11.3-6.1-16.6-9.6c-2.4-1.6-2.3-0.5-3.2,1.3c-3.4,7.1-2.5,14.6-2.7,22
		c-0.1,5.1,2.4,8.8,6.4,11.2c6.4,3.7,12.8,7.3,19.1,11.2c3.1,1.9,4.3,1.2,4.4-2.6C1238.1,332.4,1238,328.5,1238,324.7z
		 M1240.6,303.9c0.9,0.2,1.5-0.5,2.2-0.9c7.1-4.1,14.2-8.1,21.3-12.3c2.9-1.7,2.7-3-0.5-4.8c-5.5-3.2-11.3-6.1-16.6-9.6
		c-5.3-3.5-10.3-4.1-15.7-0.4c-2.8,1.9-6,3.4-9,5.1c-3.8,2.2-14.4,6.5-6.8,11c5.1,3,10.2,6,15.3,8.9
		C1234.8,303.2,1236.6,303.7,1240.6,303.9z M1425.3,360.8C1425.2,360.8,1425.2,360.8,1425.3,360.8c-0.1-4.1,0-8.3-0.1-12.5
		c-0.1-2.8-0.8-3.2-3.2-1.8c-7.3,4.1-14.7,8-21.6,12.6c-2.4,1.6-4.4,4.6-4.3,8.2c0.1,7.8,0,15.6,0,23.4c0,3.8,0.5,4.2,4,2.3
		c6.3-3.5,12.4-7.4,18.8-10.7C1427.2,378.1,1425,368.5,1425.3,360.8z M1240,324.3c0,4,0,8,0,12c0,4.2,0.2,4.3,3.6,2.4
		c6.9-3.8,13.8-7.6,20.5-11.9c2.7-1.7,4.6-4.9,4.8-8.1c0.4-8.1,0.2-16.3,0.1-24.5c0-3.1-0.8-3.5-3.6-2c-6.4,3.6-12.7,7.6-19.2,11
		c-4.5,2.3-6.1,5.9-6.1,10.5C1240,317.3,1240,320.8,1240,324.3z M1394,270.2c-0.4-6.8,2.2-16.4-5-20.4c-6.9-3.8-13.6-7.9-20.3-11.8
		c-3.1-1.8-3.6-1.6-3.6,2c-0.1,8-0.2,16,0.1,23.9c0.2,3.7,1.7,7.1,5.4,9.1c6.7,3.8,13.2,7.8,19.9,11.6c2.5,1.4,3.5,0.9,3.6-2
		C1394.1,278.6,1394,274.4,1394,270.2z M1394,379c0-4,0.1-8,0-12c-0.1-3.1-1.3-6.3-3.9-7.9c-6.6-4.2-13.6-7.9-20.4-11.9
		c-1.7-1-2.8-1.6-2.9,1.4c-0.4,7.9-1.3,15.9-1.7,23.8c-0.2,4.1,1.8,7.4,5.5,9.5c6.6,3.6,13.1,7.5,19.7,11.1c3.3,1.8,3.6,1.5,3.7-2.1
		C1394.1,387,1394,383,1394,379z M1394,306.3c0-3.8,0.1-7.6,0-11.5c-0.1-3.6-0.9-4-4-2.3c-6.1,3.5-12.1,7.3-18.4,10.5
		c-4.1,2.1-5.9,5.2-5.5,9.4c0.8,8.3,1,16.6,0.9,24.9c0,1.9,0.3,2.2,2.2,1.1c6.3-3.4,12.6-7,18.7-10.9c1.3-0.8,3.7-1,3.9-2.5
		c0.6-3.3,3-6.1,2.3-9.8C1393.6,312.3,1394,309.3,1394,306.3z M1269,270.2c0-3.1-0.1-6.3,0-9.5c0.3-5.5-2.5-9-6.8-11.9
		c-2.5-1.6-5.3-2.6-7.6-4.5c-0.8-0.7-2.1-1.2-3.5-0.2c-3.5,2.5-7.2,4.6-10.5,7.4c-1,0.9-1.5,1.7-1.5,2.9c-0.1,6.1-0.9,13.7,4.6,17.7
		c7.1,4.4,14.3,8.5,21.6,12.5c2.6,1.4,3.5,0.9,3.6-2.1C1269.1,278.5,1269,274.4,1269,270.2z M1238,360.8
		C1238,360.8,1238,360.8,1238,360.8c0-4.1-0.1-8.3,0-12.5c0.1-2.5-1.2-2.8-3.2-2.3c-7.5,3.7-14.6,8.2-21.8,12.4
		c-2.6,1.6-5.1,4.7-4.5,7.3c1.7,7.6,4.8,14.7,8.5,21.6c0.9,1.7,1.9,1.8,3.6,0.7c3-1.9,6.3-3.4,9.4-5.3c5.3-3.1,8.6-7.5,8-14.1
		C1237.8,366.2,1238,363.5,1238,360.8z M1238.8,382c-0.9,0.1-2.4-0.2-3.5,0.4c-4.6,2.4-9.2,5.1-13.7,7.7c-2,1.1-1.6,2.7-0.5,4.1
		c3.5,4.6,6.9,9.3,10.6,13.7c4.3,5.1,7.8,5.6,13.8,2.2c6-3.4,12-6.8,18-10.2c3.4-2,3.5-3.7,0.1-5.6c-6.7-3.9-13.5-7.5-20.1-11.5
		C1242,381.9,1240.6,382.1,1238.8,382z M1271,414.8c0,4.1-0.1,8.3,0,12.5c0.1,4,2.9,7.6,6.6,8.5c5.9,1.5,11.9,2.8,17.8,4
		c4.4,0.9,4.7,0.4,4.8-4.2c0-1.7-0.1-3.3,0-5c0-1.6-0.7-2.7-2.1-3.7c-6.4-4.8-12.1-10.4-15-18.1c-1.7-4.4-5.1-6.5-9-8.4
		c-2.1-1-3.1-0.6-3.1,1.9C1271,406.5,1271,410.7,1271,414.8z M1364,412c1.2-0.4,2.4,0.6,4.1-0.3c7.3-4.4,14.8-8.5,22.2-12.8
		c2.3-1.4,2.2-2.5-0.2-3.9c-7.4-4.2-14.8-8.6-22.3-12.6c-2.9-1.3-4.3-0.5-5,2.8c-1.5,6.6-3,13.2-5.8,19.4c-2,4.6-1.8,5.2,2.9,7
		C1361.2,412.2,1362.6,411.9,1364,412z M1207.5,328.1c-3.1-1.2-3.2,0.7-3.2,3.2c-0.1,7.8,0.4,15.5,1.8,23.2c0.9,4.7,5.4,3.2,8.3,1.4
		c5.8-4,12.2-7,18.2-10.7c3.1-1.9,3.3-3,0.4-4.7c-6.9-4-13.9-7.9-20.8-11.9C1210.6,327.7,1209.2,327.1,1207.5,328.1z M1394,410.9
		c0-3.4,0.1-5.8,0-8.1c-0.1-3.1-0.6-3.5-3.5-1.9c-6.9,3.8-13.8,7.6-20.6,11.7c-3.2,1.9-5,4.9-4.9,8.8c0,2.7,0,5.3,0,8
		c0.1,4.1,0.1,4.1,3.8,2.7c5.9-2.2,11.4-5.2,16.9-8.3C1391.3,420.7,1396.4,417.5,1394,410.9z M1271.9,347.5
		c0.3-5.6-1.1-11.2-0.7-16.9c0.1-1.9-0.7-2.4-2.5-2.9c-1.7-0.4-2.8,0.2-4,1c-6.9,4.1-13.9,7.9-20.8,11.9c-2.5,1.6-2.4,2.6,0.2,4.2
		c5,3,10.1,5.9,15.2,8.9c2,1.1,4.3,1.9,5.9,3.4c2.1,1.9,4.1,0.1,6,0.1c1.5,0,0.5-2.4,0.6-3.7
		C1272.1,351.5,1271.9,349.5,1271.9,347.5z M1269,415.3c0-4.1,0.1-8.3,0-12.5c-0.1-3.2-0.4-3.3-3.5-1.9c-0.3,0.1-0.7,0.1-0.9,0.3
		c-6.8,3.9-13.6,7.9-20.4,11.9c-3,1.8-3,3.3-0.3,5.5c6.1,4.8,12.8,8.7,19.9,11.9c3.5,1.6,5.1,0.7,5.2-3.2
		C1269.1,423.2,1269,419.2,1269,415.3z M1325.5,227c-10.6,0-11.4,0.2-18.6,5c-1.2,0.8-2.3,1.7-1.8,3.1c0.5,1.3,1.9,1.5,3.3,1.2
		c11.9-1.8,24.2-1.9,33.9,6.4c1,0.8,2,1.8,3.5,0.9c4.2-2.5,8.5-5,12.7-7.6c1.9-1.2,1.9-2.6,0-3.7c-1.6-0.9-3.3-1.6-5-2
		C1344.2,228.5,1335,226.8,1325.5,227z M1363.6,274c-1.6-0.6-3-1.2-2.4,1.2c2.1,8.5,3.3,17.1,3.9,25.9c0.2,2.9,0.8,3.2,3.3,1.8
		c7.1-4,14.2-8.1,21.2-12.2c2.7-1.6,2.7-2.8-0.2-4.5c-6.5-3.8-13-7.5-19.5-11.2C1367.9,273.8,1365.8,272.3,1363.6,274z M1363,425.3
		c0.3-3.2,0.1-7-2.9-10.4c-1.5-1.7-3.1-3.2-5-3.7c-2.1-0.5-2.2,2.1-3.1,3.3c-3.8,5.5-8.5,10.1-14,13.9c-1.1,0.7-3.3,0.7-2.6,2.9
		c0.5,1.5,0.8,3.1,2.5,4.1c3.7,2.1,7.2,4.6,11.8,2.7c1.5-0.6,3.2-0.7,4.8-1.1C1363,434.9,1363,434.9,1363,425.3z M1427.5,303.3
		c2.9,1.5,2.8-0.5,2.4-2.2c-2.3-7.7-5.1-15.4-9.1-22.4c-0.5-0.9-0.9-3.2-3.2-1.9c-5.8,3.4-11.6,6.8-17.4,10.1
		c-1.9,1.1-1.8,1.8-0.1,3.2c2.7,2.2,5.8,3.8,8.8,5.2C1415.1,298,1419.8,304.3,1427.5,303.3z M1269.6,249.2c3.9-0.3,3.9-0.3,6.7-1.9
		c6.9-4,14.1-7.6,20.8-12c0.6-0.4,1.4-1.5,0.5-2c-2.7-1.5-4.9-4.1-8.7-3.6c-7.1,1.1-13.7,3.6-20.4,6c-4.1,1.4-7.9,3.3-11.7,5.3
		c-0.6,0.3-2.5,0.9-0.8,1.8C1260.4,245.3,1264,249.4,1269.6,249.2z M1396,269.9c0,4.3-0.1,8.7,0,13c0.1,2.7,1,3.3,3.4,2
		c5.7-3.2,11.3-6.6,17-10c1.3-0.8,1.2-1.5,0.4-2.7c-4.1-6.5-9.1-12.2-14.7-17.4c-1-0.9-2.7-2.2-3.4-1.5c-1.2,1.1-2.9,2.3-2.8,4.7
		C1396.2,261.9,1396,265.9,1396,269.9z M1298,237c-7.8,4.4-15.6,9.2-23.4,13.7c-0.9,0.5-1.2,1.3-1.7,2c-2.4,3-1.9,6.4-1.9,9.8
		c0,6.6,0,13.3,0,19.9c0,1.3-0.1,3,1.6,3c1.1,0,2.5-0.6,2.5-2.5c2.7-14.9,7.7-29.3,19.7-39.4c1.5-1.3,2.7-2.9,4.6-3.8
		c0.6-0.3,0.6-1.1,0.5-1.8C1299.8,237.1,1299.1,237.1,1298,237z M1363,252.2c0-4,0.1-8,0-12c-0.1-3.8-0.6-4.1-4-2.2
		c-3.5,1.9-6.8,4-10.3,5.9c-1.9,1-2.6,1.9-0.8,3.9c5.2,5.7,8.8,12.3,11.1,19.7c0.5,1.7,1.2,1.6,2.4,0.6c1.2-1.1,1.7-2.3,1.7-3.9
		C1362.9,260.2,1363,256.2,1363,252.2z M1238,260.5c0-1.1,0.1-2.1,0-3.1c-0.1-0.9,0.6-2.1-0.6-2.6c-0.8-0.3-1.3,0.8-1.9,1.3
		c-7.2,6.7-13,14.5-17.9,22.9c-0.3,0.5-1,1.1-0.1,1.7c0.7,0.5,1.2-0.1,1.8-0.4c3.7-2.1,7.3-4.3,11.1-6.3
		C1235.9,271.1,1238.7,266.8,1238,260.5z M1311.6,440.9c6.2,1.9,10.8-3.5,16.4-6c0.9-0.4,1.1-1.2,0.9-2c-0.3-1.1-1.3-0.8-2-0.8
		c-0.8,0-1.7,0.1-2.5,0.3c-5.3,1.2-10.6-0.1-15.8-0.8c-2.1-0.3-4.3-2.6-6-1.2c-1.5,1.3-0.5,4.1-0.5,6.2c0,4,0.1,4.1,4.2,4.2
		C1307.7,441,1309.2,440.9,1311.6,440.9z M1421.9,382.8c-6.4,3.7-12.9,7.3-19.3,11.1c-5.1,3-5.1,3.6,0.1,6.5
		c2.1,1.2,4.3,3.3,6.4,3.2c2.7-0.1,3.6-3.6,5.1-5.7C1415.1,397.2,1425.3,381.5,1421.9,382.8z M1427.1,324.5
		C1427.1,324.5,1427.1,324.5,1427.1,324.5c0,4,0,8,0,12c0,1.4,0.1,2.8,1.6,3.4c1.5,0.5,5.2-2.4,5.2-4c0.4-9.2-0.4-18.2-2.3-27.2
		c-0.2-1-0.2-2.2-1.2-3c-0.4,0.9-0.6,2-1.2,2.6c-2,1.7-2.2,3.9-2.1,6.3C1427.2,317.8,1427.1,321.2,1427.1,324.5z M1396,407.5
		c0,2.4,0,4.4,0,6.4c0,0.6,0.1,1.5,0.5,1.8c0.8,0.6,1.5-0.3,2.1-0.8c2.1-1.9,4.1-3.9,6.2-5.7c3.3-3,3.4-3.9-0.7-5.9
		c-2.4-1.2-4.8-4.5-7.3-2.8C1394.7,401.8,1396.4,405.4,1396,407.5z M1433,350.2c0-2.5-2-4.5-4.1-4.5c-2.4-0.1-1.9,1.8-1.9,3.2
		c0,6.8,0,13.7,0,20.5c0,0.5-0.3,1.4,0.5,1.6c0.6,0.1,0.5-0.7,0.7-1.1C1430.7,363.3,1431.8,356.5,1433,350.2z M1271,378.9
		c0,4.3,0,8.6,0,13c0,0.9-0.2,2.1,1.4,2.1c2.3,0.1,4.1-1.9,3.7-4.2c-0.8-4.9-1.6-9.8-2.7-14.6c-0.7-3.1-0.2-6.3-0.9-9.4
		c-0.1-0.4-0.4-1-0.8-1.1c-1.2-0.3-0.7,0.8-0.7,1.2C1271,370.2,1271,374.5,1271,378.9z M1327.6,441.1c3.8,0.2,7.5-1.2,11.3-1.1
		c0.4,0,1,0.1,1.2-0.5c0.1-0.5-0.3-0.9-0.7-1.2c-4.1-2.5-8.2-3.1-12.6-0.6c-1.5,0.9-3.2,1.5-4.1,3.2
		C1324.4,440.9,1326,441,1327.6,441.1z M1393.4,248.8c0.2-1-0.6-1.4-1.3-1.8c-4.9-3-9.8-6-15.1-8.5c-1.2-0.6-2.5-0.9-3.7-1.4
		c-0.3-0.1-0.7-0.1-0.9,0.1c-0.6,0.5,0.1,0.9,0.4,1c6.3,3.7,12.7,7.4,19,11.1C1392.8,249.9,1393,249.2,1393.4,248.8z M1271,305.7
		c0.1,0,0.1,0,0.2,0c0.1,4.6-0.3,9.3,0.2,13.9c0.1-0.7,0.3-1.5,0.3-2.2c0.1-8,0.8-15.9,1.7-23.8c0.1-1,0.1-2.3-1.2-2.2
		c-1.1,0-1.3,1.3-1.3,2.4C1271,297.7,1271,301.7,1271,305.7z M1306.9,227.1c-2.1,0.3-5.8-0.2-4.8,3.2c0.5,1.6,1.7,1.3,2.7,0.7
		c1.4-0.8,2.8-1.6,4.2-2.6c0.4-0.3,1.4-0.4,1.1-1.2c-0.1-0.2-0.9-0.1-1.4-0.1C1308.3,227,1307.8,227.1,1306.9,227.1z M1279,399.2
		c-0.7-1.1-0.8-2.9-1.4-4.6c-0.1-0.2-0.6-0.4-0.8-0.3c-1.3,0.7-2.9,1.2-3.6,2.4c-0.7,1.3,1.1,1.7,1.9,2.2c0.8,0.5,1.7,0.9,2.5,1.4
		C1278.4,400.7,1278.9,400.8,1279,399.2z M1433.9,342.3c-0.2-0.7,0.4-2.3-1.1-2.1c-1.1,0.1-2.7,0.8-2.7,2.4
		c-0.1,1.3,0.8,2.2,2.1,2.2C1434,345,1433.6,343.5,1433.9,342.3z M1205,318.9c0.1,0.6,0.2,1.6,0.3,2.5c1.5-0.5,1.2-1.8,1.2-2.9
		c0.1-0.8,0-1.6,0-2.4c0-0.3-0.1-0.8-0.3-0.8C1204.8,315,1205.2,317.8,1205,318.9z M1297.8,228.1c-0.8,0.2-2.5-0.2-2.4,0.9
		c0.2,1.5,1.8,1.9,3.3,2c1,0.1,1.4-0.7,1.3-1.6C1299.9,227.9,1298.9,228.1,1297.8,228.1z"/>
	<path class="st2" d="M673,344c-8.8,5.2-17.6,10.4-26.5,15.4c-2.6,1.5-3.5,3.3-3.5,6.1c0,9-0.5,18,0.2,27c0.5,5.8-0.6,11.3-0.3,17
		c0.6,9.3-11,13.4-19.4,13.5c-4.2,0.2-4.5,0.5-4.5,4.5c-0.1,8.5-0.1,8.5,8.5,8.5c3.7,0,7.3,0.1,11,0c4.2-0.1,5.4-1.4,5.5-5.5
		c0-3.8,0-7.7,0-11.5c0-1.3,0.2-2.6-1-3.5"/>
	<path class="st2" d="M-47.5,290c-6.5,3.8-13,7.6-19.5,11.5c-0.8,0.5-2.2,1.4-2.5,1.3c-4.7-0.6-3.7,2.7-3.5,5.1
		c1.1,13.6,3.6,27.1,8.2,39.9c7.1,19.3,17.6,38.5,32,53.4c5.4,5.3,10.5,11.5,18.3,13.6c0.7,0.2,1.1,0.6,1.5,1.1
		c5.5,7.3,14,9.9,21.6,13.9c4.7,2.5,10,3.6,14.9,5.6c10.1,4.1,20.8,6.1,31.5,7.3c27.2,2.8,56.1,1.1,81-10.9
		c29-12.7,50.5-37.2,64.1-65.4c1.1-2.2,1.2-3.3-1.1-4.6c-3.3-1.8-6.2-4.4-9.6-5.8c-2.1-0.8-2.1-2.4-2.9-3.7"/>
	<path class="st2" d="M1144.5,146c0.7,2.1,0.5,4.3,0.5,6.5c0,21,0,42,0,63"/>
	<path class="st2" d="M1145,216c-3.2,1.5-3.8,2.4-2.4,5.5c1.9,4.2,3.4,8.6,4.9,13c0.8,2.3,1.8,4.6,2.5,7c1.4,4.5,1.4,4.6,6,4.5
		c0.3,0,0.7,0.1,1,0c7.5-1.5,9.1-1,9-9.5c-0.8-30.7-1.2-61.4-1.9-92c-0.2-3-1.2-3.8-4.1-3.5c-11.5-0.3-11.5-0.3-20,8
		c-3.9,3.8-3.7,3.4-9,1.1c-18.8-8.6-38.7-15.3-59.5-16.6c-11.7-0.6-23.4-1.1-35,0.7c-3.1,0.5-7.6-0.5-8.8,4.8
		c-0.3,1.3-3.4,2.1-5.3,3.1"/>
	<path class="st2" d="M297,230c1.6-2.1,4.2-3,6.5-2.9c6.2,0.2,11.9-2.5,18-2.2c5.8,0.3,11.7,0.1,17.5,0.1c4.1,0,8,0.5,12,1.2
		c3,0.5,6.3,0.3,9.5,0.7c22,2.4,45,12.8,53.6,34.5c4.5,10.5,5.8,21.4,5.9,32.5c0.1,22-0.6,44-1,66c-0.6,11.8-1,23.7-0.9,35.5
		c0,15.3,6.5,24.5,22.5,25c3.5,0.2,7,0.5,10.5,0.5c2.2,0,3.1,0.8,3,3c-0.1,2.8,0.9,6.1-0.3,8.4c-1.4,2.8-5.3,2.7-8.2,3.7
		c-11.2,4-22.5,7-34.5,6.9c-6.7-0.1-13.4,0.3-20-1c-9.5-1.9-18.6-4.6-25.5-12c-2.6-2.8-4.6-5.6-5-9.5c-0.1-0.8-0.2-1.7-0.5-2.5
		c-1.9-5.1-4.7-5.7-9-2c-15.5,14.5-29.4,23.5-51,26.2c-24.3,2.8-44.7-0.2-61.9-18.8c-1.4-1.5-2.9-3.8-2.6-6.4"/>
	<path class="st2" d="M1163.5,355.5c-2.3,0.6-2.4,3-3.4,4.5c-9.5,15.3-20.7,28.9-35.1,40c-24.5,18.9-58.4,23-87,11.9
		c-7.2-2.7-14-6.4-19.5-11.9c-2.4-2.4-4.9-4.7-7.4-7.1c-6.8-6.4-11-14.6-15.1-22.9c-2.2-4.5-3.5-9.3-6.2-13.7
		c-1.9-3.1-2.2-7.6-3-11.4c-3.6-15.5-5.5-31.5-6.2-47.5c-0.3-5.5-0.7-11-0.5-16.5c0.5-12.5,1-25.1,2.5-37.5
		c1.3-11.2,4.7-21.9,6.6-33c0.2-1.3-0.2-2.9,0.9-4"/>
	<path class="st2" d="M993.5,196.5c2.5-1.7,3.2-4.5,4.5-7c7.6-14.9,18-27.3,33.5-34.5c25.8-11.8,57.6-6.5,78.1,13.4
		c12.1,11.4,20.4,25.3,27.4,40.1c1.3,2.6,2.2,5.5,4.5,7.5"/>
	<path class="st2" d="M707,325c-0.3,12,0.6,24-0.5,36c-0.2,2,0.4,4,0.4,6c0,9.7-0.2,19.3,0.1,29c0.1,4.3,0,8.9,1.5,13
		c2,5.4,6.1,8.9,11.4,11.1c3,1.2,5.9,2.6,9,2.9c3,0.3,3,1.9,3,4.1c0.1,9,0.1,9-9,9c-3.3,0-6.7-0.1-10,0c-2.4,0.1-4.5-0.4-6.5-1.5"/>
	<path class="st2" d="M1370.5,235c3.1-0.9,5.5,0.9,8,2.1c5,2.4,9.6,5.4,14.6,7.9c2.7,1.3,2.9,4.9,6.4,5.8c3.4,0.8,5.5,4.3,8,6.8
		c11.4,11.2,18.9,24.9,23.4,40c7.1,23.6,7,50-1.1,73.4c-4.2,10.2-7.6,20.8-14.8,29.6c-16.7,20.8-41.5,35.2-67.6,40.1
		c-8.5,1.7-17.4,3.5-26.4,2c-2.5-0.4-5.3,0.3-8,0.3c-12.5,0.1-24.6-2.2-36.5-5.5c-1.4-0.4-2.9-0.7-3.9-1.5c-1.8-1.6-3.4-3.2-6.1-2
		c-0.5,0.2-1-0.1-1.5-0.4c-8-4.4-16.5-8.1-23.3-14.2c-4.3-3.9-9.4-7-13.1-11.4c-3.9-4.7-7.5-9.7-10.5-15c-2.7-4.6-5.2-9.4-7.3-14.4
		c-1.7-4.1-2.9-8.4-4.4-12.6c-1-2.9-0.1-4.6,2.5-5.8"/>
	<path class="st2" d="M356,304c-0.7,2.6-2.9,4.1-5,4.9c-13.1,4.9-26.5,9.2-40,13.1c-9.5,2.7-18.8,6-28.1,9.2
		c-24.9,8.4-47.2,17.5-53.3,45.8c-2.5,11-2.7,22.1,1.4,33c0.8,2.2,1.7,4.4,3.6,6c1.1,0.9,1.8-0.3,2.5-1"/>
	<path class="st2" d="M301,243c-1.1-1.7-1-3.6-1-5.5c0-6.3-3.7-9.2-10-7.5c-18.7,4.9-51.6,18.8-52,41.5"/>
	<path class="st2" d="M1364.5,306c3-1.7,6.1-3.2,9-5c6.2-4,13.2-6.8,19.1-11.4c0.5-0.4,2.6-1.6,2.5,1.4c-0.2,10.5-0.1,21-0.1,31.5
		c0,1.3-0.5,3.1,2,2.5c9,7.1,19.8,11.2,29,18"/>
	<path class="st2" d="M393.5,361.5c0,7.5-0.1,15,0,22.5c0.2,17.2-1.6,34.4,0,51.5"/>
	<path class="st2" d="M927,235c9.3,5.7,19.4,10.1,28,17c2.5-0.6,2,1.2,2,2.5c0,11.2,0,22.3,0,33.5"/>
	<path class="st2" d="M956.5,289c1,11.5,0.2,23,0.6,34.5c0.1,2-1.4,1-2,1.6c-8.7,6.8-18.9,10.9-28,16.9"/>
	<path class="st2" d="M677,306.2c-2.1,0.2-2.1,1.7-2,3.2c0.3,10.3,0.1,20.7,0.3,31c0.1,8.5-0.1,17-0.3,25.5c-0.1,4-1.1,8.5,0.3,11.9
		c1.6,3.8,6.7,4.9,10.2,7.1c6.4,3.9,13,7.4,19.5,11.1"/>
	<path class="st2" d="M336,329.5c-7.3,3.6-14.8,6.7-21.5,11.5c-16.3,11.1-21.4,29.7-19,48.5c2.5,23.6,29.3,29.7,47,18
		c4.5-2.7,7.8-6.9,11.6-10.4c1.2-1.1,0.9-2.3,0.9-3.5c0-5.2,0-10.3,0-15.5c0-9.8,0.9-19.7,0.5-29.5c0-0.2-0.5-0.4-0.5-0.5
		c3.4-6.4,0.2-13,0.8-19.5c0.5-4.8-1.7-6.2-5.8-4.4c-3.3,1.5-7.1,2-10,4.4c-1.1,0.9-2.3,0.3-3.5,0.5"/>
	<path class="st2" d="M364,306.2c-3.1,1.2-4.4-1.8-6.6-2.5c-3.1-1-1.3-3-1.3-4.2c0-11.2-0.1-22.4-1.6-33.5
		c-2.4-19.2-15-31-34.5-28.9c-6.4,0.5-12.3,2.9-18,5.9c-3.1,1.6-3.4,3.2-3.1,7c0.4,5.3,2.5,10.2,3.1,15.5"/>
	<path class="st2" d="M363.5,342.5c-1.6,0.2-1.5,1.3-1.5,2.5c0,10.7,0,21.3,0,32c0,1.3,0.2,1.9,1.5,2.6c9.4,5.4,18.7,10.9,28,16.4"
		/>
	<path class="st2" d="M1364.5,344.5c0.9-2.3,0.4-4.7,0.5-7c0.5-10.2,0.1-20.4-1-30.5c-1.5-14.2-2.5-28.6-8-42
		c-6.3-16.9-21.5-30.5-40.5-27.6c-3.5,0.5-6.9,1.7-10.5,1.1"/>
	<path class="st2" d="M1301,233c0-2.2,0-4.3,0-6.5"/>
	<path class="st2" d="M643.5,288c-0.3-1-0.9-2-1-3c-0.6-8.6-4.5-15.8-10.1-21.9c-6.2-6.8-14.6-8.9-23.4-8
		c-15.6,1.6-27.6,9.5-37.2,21.8c-3,3.8-3.9,7.5-3.9,12.1c0.1,37.2,0.1,74.3,0.1,111.5c0,10.2,4.8,17,14.5,20.5c1.5,0.5,3,1,4.5,1.5
		c5.5,1.7,5.5,1.7,5.5,7.5c0,7.5,0.3,5.9-7,5.9c-3.4,0-4.1-1.3-4-4.9c0.1-3.2,0-6.3,0-9.5"/>
	<path class="st2" d="M831.5,252.5c3.9-3.1,3.7-2.9,1-7c-5.1-8-13.5-11.7-21-16.5c-23-6.6-47.7-5.4-69,5.9
		c-11.9,6.9-22,16.2-31.9,25.7c-3.7,3.7-5.8,3.5-8.5-2.1c-2.1-4.4-4.5-8.6-7.5-12.5c-3.2-4.1-7.4-6.6-11.6-9.4"/>
	<path class="st2" d="M673,230.8c-16.9-8.1-41.1-7.9-58-0.2"/>
	<path class="st2" d="M608.5,232.5c-5,1.9-10.2,3.4-13,8.5c-0.3,0.5-0.9,0.8-1.4,1.1c-7.7,4.7-13.8,11.6-21,17c-1.3,1-2.2,2-4.1,1
		c-1.7-1-0.9-2.4-0.9-3.5c-0.1-8,0-16-0.1-24c0-3.7-0.8-4.2-4.5-4.6c-3.6-0.4-6.8,1-10,2.1"/>
	<path class="st2" d="M546,229.8c-4.5-1.6-9-0.4-13.5-0.2c-10,0.4-20,1.4-30,1.5c-5.1,0-10.3-0.2-15,2.5"/>
	<path class="st2" d="M614,235c9,5.3,18.3,10.2,27.1,15.9c2.1,1.4,3.1,2.4,3,5.1c-0.3,6-0.1,12-0.1,18c0,1.6,0.3,3.2-1,4.5"/>
	<path class="st2" d="M173,235c-0.6,3.4,0.8,6.5,2,9.5c0.4,0.9,1.2,1.6,2.5,1.5c3.3-0.1,6.7-0.1,10,0c2.2,0,2.5-1.2,2.5-3
		c-0.1-6,0.3-12-0.1-18c-1.1-17.5-0.8-35-1-52.5c-0.1-9.5-0.7-19-0.9-28.5c-0.1-2.2-0.8-3.1-3-3c-3,0.1-6,0.1-9,0c-2,0-3.5,0.7-5,2
		c-2.9,2.4-6,4.7-8.4,7.6c-1.7,1.9-3.5,2-5.5,0.9c-18.9-9.9-39.5-16.6-61-17.8c-5.3-0.2-10.7-0.5-16-0.6c-32.2-0.4-64,9.6-90.5,27.9
		c-24.8,17.2-47.2,48.4-55.1,77.5c-0.3,1.3-0.5,1.3,1,2.2c5.8,3.6,11.9,6.6,17.6,10.3"/>
	<path class="st2" d="M1253.5,241.5c0.2,2.8,2.9,2.9,4.6,3.9c3.2,2,6.3,4.3,9.6,5.8c2.6,1.2,2.4,2.5,2.4,4.3c0,21.3,0,42.7,0,64
		c0,2.2-0.3,4.4,1.9,6.1c1,0.7,1.1,2.4,1.2,3.9c0.1,7.7,0.7,15.3,0.9,23c0.1,2.5,0.2,5-0.6,7.5c-0.9,2.8,1.2,5.5,1.3,8.5
		c0.4,11,2.9,21.7,6.6,31.9c4.4,13.4,14.8,27.2,29.8,29.6c4.5,0.6,8.9,1.4,13.5,0.5c2.1-0.4,4.3-1.3,6.5-0.1"/>
	<path class="st2" d="M487,248c1.1-4.3,0.2-8.7,0.5-13c0.2-2.4-2.1-2.8-3.5-2.9c-3.5-0.2-7,0-10.5,0.5c-1.5,0.2-2.7,1.4-2.5,3.4
		c0.2,2.7-0.6,5.6,0.2,7.9c1.1,3.3,4.8,1.9,7.4,2.5c14.8,2.7,26.3,15.9,26,31.1c0,10,0.1,20,0,30c-0.2,30.2-0.5,60.3,0.1,90.5
		c0.1,4.4-0.3,9.1-1.8,12.9c-4,10-15.6,11.6-25.2,12.5c-2.5,0.3-3.6,0.7-3.6,3.6c0.1,9-0.1,9,9.1,9c9.7,0,19.3,0,29,0
		c1.7,0,3.4,0.2,5-0.7c1.1-0.6,2.1-1.5,2-2.8c-1.5-17.2,0.4-34.3,0-51.5c-0.1-4,0-8,0-12c0-2.7-0.9-5.9,0.2-7.9
		c1.2-2.1,4.4-3.2,6.8-4.6c7.3-4.2,14.7-8.4,22-12.5"/>
	<path class="st2" d="M1363.5,272.5c1.1-12.6,0.2-25.3,0.5-38c0-1.5-0.9-2.1-2-2.8c-4.2-2.9-9.2-3.9-14-4.6
		c-46.8-6.9-101.3,2.2-128.4,44.9c-5.7,8.8-10.2,18.3-13.1,28.4c-0.5,1.7-0.5,3.3-0.5,5c0,4.2-2.3,7.9-2.6,12
		c-0.2,1.9-0.7,3.7,0.1,5.5c0.2,0.5,0.5,1,0.5,1.5c-2,13.5-2,21.1,0,32c0.4,2,1.8,3.1,3,4.5"/>
	<path class="st2" d="M1303,239c-1.3,3.2-4.8,3.8-7.1,5.9c-10,9.1-14.9,20.8-18,33.6c-0.7,3-0.4,6.5-2.9,9c-0.1,0.1-0.5,0.9-0.5,0.9
		c2.8,4.7,0.1,9.4-0.2,14c-0.4,5.7,0.1,11.4-0.8,17c-0.2,1.5-0.3,2.9-1.6,4"/>
	<path class="st2" d="M238.5,273c-3.6,25.1,27,33.3,47,27.1c15.1-4,18.2-14.4,18.9-25.6c0.1-1.7-0.8-3.7-2.4-5"/>
	<path class="st2" d="M954.5,181c-3.9,3-8.3,5-12.5,7.5c-0.8,0.5-1.7,1.4-2.5,0.9c-2.2-1.3-3.3,0.3-4.5,1.6c-3.4,3.6-6.2,7.6-8.5,12
		c-13.3,21.6-21.3,46.2-23.4,71.5c-2.9,34.4,3,70.1,20.8,100c11.1,20.5,27.8,37,48,48.6c18.5,10.9,38.8,17.2,60.1,19.6
		c9.7,1.1,19.4,0.9,29,1.2c0.7,0,1.3,0.1,2,0c9.3-1.8,18.8-1.8,28-4.3c19.4-5.4,36.8-14.5,51.9-27.8c7.3-6.4,14.7-13,18.6-22.4
		c5.4-4.6,8.2-10.9,11.6-17c0.9-1.7,1.6-3.4,2.4-5.1c2-4,1.9-4-2.4-6.5c-2.8-1.7-5.3-3.9-8.5-5c-1.2-0.5-1.6-2.1-2-3.4"/>
	<path class="st2" d="M769.5,434.5c-3.1,1.8-7.3,2.5-10.4,0.9c-2.3-1.3-1-4.2-1-6.4c-0.2-6-0.1-5.9,6.4-6c6.1-0.2,11.6-1.5,15.5-6.9
		c2.5-3.4,2.7-7.4,2.8-11c0.4-16.7,0.2-33.3,0.2-50c0-18.7,0.2-37.3-0.1-56c-0.1-8.7-1-17.3-4.4-25.5c-12.3-31.3-51.8-18.4-66.6,2.9
		c-2.8,3.7-5.1,7.4-5.4,12.1"/>
	<path class="st2" d="M550,231c0,13,0,26,0,39"/>
	<path class="st2" d="M330.5,317c1.5,2.4-0.9,5,0.4,7.5c0.4,0.9-1,0.1-1.4,0.5c-9.5,6.6-20.1,11.3-29.5,18"/>
	<path class="st2" d="M956,169.5c1.4,1.1,1,2.6,1,4c0,13.3,0,26.7,0,40c0,1.6,0.1,3.1-2,3.2"/>
	<path class="st2" d="M989,357.5c-0.8,0.9-1.1,1.8-1,3c0.1,1.8,0,3.7,0,5.5c0,4.3,0,8.7,0,13c4.6,2,8.8,4.9,13,7.5
		c1.3,0.9,2.4-0.7,3.5,0"/>
	<path class="st2" d="M1396.5,250.5c-2,1.2-1.5,3.2-1.5,5c0,10.8,0,21.7,0,32.5"/>
	<path class="st2" d="M801,228c-0.3,2.8-0.9,5.7-1,8.5c-0.1,10.8,0,21.7,0,32.5c0,0.6-0.1,1.1,0.5,1.5"/>
	<path class="st2" d="M-35.5,185c6.7,4,13.3,8.1,20,11.9c1.7,1,2,2,2,3.6c0.1,21.2,0.3,42.3,0.5,63.5c0,2.4,0.5,5-2,6.8"/>
	<path class="st2" d="M801.5,342.5c-1.2,0.2-1.5,0.9-1.5,2c0,11.3,0,22.7,0,34c0,1,0.7,0.3,1,0.5"/>
	<path class="st2" d="M675.5,234c-1.1,5.5-0.5,11-0.4,16.5c0,6.7-0.7,13.4,0.4,20"/>
	<path class="st2" d="M-14.5,342.5c1.2,0.2,1.5,0.9,1.5,2c0,11.3,0,22.7,0,34c0,1-0.7,0.3-1,0.5"/>
	<path class="st2" d="M836,251c3.5,3.3,4.4,7.9,5.9,12c4.4,12.1,5.3,24.7,5.1,37.5c-0.4,34-0.4,68,0,102c0.1,6.3,5.8,14.7,11.5,16.5
		c5.4,1.7,10.8,4.1,16.5,4.5c3.2,3.1,0.9,7,1.4,10.5c0.4,2.6-1.9,2-3.4,2c-12,0-24,0-36,0c-1.9,0-3.6-0.2-5-1.5"/>
	<path class="st2" d="M846,353.5c-5.3,0.9-9.1,4.6-13.5,7.3c-1.4,0.8-0.5,2.5-0.5,3.7c-0.1,22.2,0,44.3,0,66.5
		c0.1,4.8-3.6,5.2-7.5,5c-16.2,0-32.3,0-48.5,0c-6.1,0-7-0.9-7-7c0-1.9,0.2-3.7-0.5-5.5"/>
	<path class="st2" d="M362,228c0,12.8,0,25.7,0,38.5c0,1.3-0.6,2.8,0.5,4"/>
	<path class="st2" d="M249,349c4.9,4.4,11.1,6.9,16.6,10.3c2.2,1.4,2.4,2.7,2.4,4.7c0,22,0,44,0,66c0,1.6-0.5,3.5,2,3.8"/>
	<path class="st2" d="M986,345c-3-0.4-5.3,1.9-7.4,3.2c-6.3,3.9-12.8,7.4-19.2,11.2c-2.3,1.4-2.4,2.7-2.4,4.7c0,14,0,28,0,42
		c0,2.1,0.2,4.1-1,6"/>
	<path class="st2" d="M925,208.5c1.4,1.1,1,2.6,1,4c0,18.8,0,37.7,0,56.5c0,0.6,0.1,1.1-0.5,1.5"/>
	<path class="st2" d="M1363.5,344.5c3.8-0.1,7,1.8,9.9,3.6c6.3,3.9,12.8,7.5,19.2,11.2c2.3,1.4,2.4,2.7,2.4,4.7c0,16,0,32,0,48
		c0,1.9-0.6,3.9,1,5.5"/>
	<path class="st2" d="M-43,252.2c-0.5,1.2-2-1.1-1.9,0.2c0.2,12-0.7,24,0.4,36"/>
	<path class="st2" d="M174,198c0,12,0,24,0,36"/>
	<path class="st2" d="M489,235c9.2,5.8,19.3,10.3,28,17c0.6,0.4,2.1-1,2,1c-0.3,11.8,0.7,23.7-0.5,35.5"/>
	<path class="st2" d="M521.5,290c8.3,5,16.5,10.3,25.1,14.8c3,1.6,3.5,3.3,3.5,6.2c-0.1,22.7,0,45.3,0,68"/>
	<path class="st2" d="M-43.5,288.5c-2.1,0.7-1.3,3-1.3,4c0,10.3-0.7,20.7,0.2,31c0.1,1.5,1.2,0.7,1.6,1.2"/>
	<path class="st2" d="M517.5,288.5c0.7,0,1,0.3,1,1c0,11.3-0.1,22.7,0.1,34c0,1.6-1.2,0.7-1.6,1.2"/>
	<path class="st2" d="M1270,361.5c0,23.8,0,47.7,0,71.5"/>
	<path class="st2" d="M705.5,288.5c1,0,1.5,0.2,1.5,1.5c-0.1,10.3,0,20.7,0,31c0,1.6,0.3,3.4-2,3.8"/>
	<path class="st2" d="M644,289.5c-1.3,1.7-1,3.6-1,5.5c0,7.5,0,15,0,22.5c0,4.2,0.8,8.3,0.2,12.5c-0.6,4.1-0.1,8.3-0.1,12.5
		s0,8.3,0,12.5c0,1.9-0.1,3.8,1,5.5"/>
	<path class="st2" d="M831.5,289c0.8,11.5,0.8,23,0.1,34.5c-0.1,1.6-1.2,0.7-1.6,1.2"/>
	<path class="st2" d="M1426.5,304.5c0,12.7,0,25.3,0,38"/>
	<path class="st2" d="M1238.5,304.5c0.7,8.2,0.5,16.3,0.5,24.5c0,4.5,0.2,9-0.5,13.5"/>
	<path class="st2" d="M924,306.2c2.9,0.6,1.8,3.5,1.8,4.8c0.1,9.7,0,19.3-0.1,29c-0.1,9.3,0.1,18.7,0.2,28c0,1.9,0.6,3.9-1,5.5"/>
	<path class="st2" d="M800.5,304.5c0,12.7,0,25.3,0,38"/>
	<path class="st2" d="M268.5,253c-0.7,11.8-0.9,23.7,0,35.5"/>
	<path class="st2" d="M-13.5,304.5c0,12.7,0,25.3,0,38"/>
	<path class="st2" d="M19,372.5c-1.5,1.6-1,3.6-1,5.5c0,18.2,0,36.3,0,54.5"/>
	<path class="st2" d="M362.5,304.5c-0.8,12.7-0.8,25.3,0,38"/>
	<path class="st2" d="M393.5,289c-0.9,12.5-0.6,25,0,37.5"/>
	<path class="st2" d="M393.5,253c0,11.7,0,23.3,0,35"/>
	<path class="st2" d="M830.5,251.8c1.5,2.4,1.5,5.1,1.5,7.8c0,9.5,0,19,0,28.5"/>
	<path class="st2" d="M17.5,146c1,5.5,0.4,11,0.5,16.5c0.1,5.8,0,11.7,0,17.5"/>
	<path class="st2" d="M1365,345.5c-0.7,10-1.2,20-2.1,30c-0.2,1.7,0.3,2.5,1.1,3.5"/>
	<path class="st2" d="M392,398c-10.8,6.2-21.7,12.5-32.5,18.8"/>
	<path class="st2" d="M-66,241c-3.4,6.6-4,13.9-5.4,21c-2.5,12.5-2.1,25.3-2.1,38c0,1.2,0.3,2.1,1,3"/>
	<path class="st2" d="M987.5,149.5c0.2,0.7,0.5,1.3,0.5,2c0,3.5,0,7,0,10.5c4.2,0.8,7,4,10.5,6c3.1,1.8,6.3,3.4,9.5,5"/>
	<path class="st2" d="M173,378.5c-2.2,0.4-3.7,1.9-5,3.5c-12.8,14.9-28.5,28-48,32.5c-8.9,1.9-17.8,3.8-27,3.5
		c-37.9-0.7-64.6-22.4-77-58c-6.7-16.3-9.2-33.6-10.8-51c-0.9-9.9-2.1-20.1-1.3-30c1.1-18.9,2.4-38,6.4-56.5
		c1.4-7.7,4.3-15.1,6.9-22.5c2.8-8,7.2-15.1,11.9-22c25.3-38.8,82.7-37.9,111-3c14.2,15.9,22.5,35.4,30,55c0.7,2,1.5,3.7,3.5,4.5"/>
	<path class="st2" d="M1028,136.5c-1.7-0.9-3.3-0.4-5,0c-15.1,3-29.4,8.4-43,15.6c-13,6.9-24.6,15.5-34.5,26.4c-1.6,1.7-3.3,3.4-5,5
		c-1.6,1.5-2.8,3.3-3,5.5"/>
	<path class="st2" d="M519,434.5c1.6,1.5,3.5,1.5,5.5,1.5c17,0,34,0,51,0c2,0,3.9,0,5.5-1.5"/>
	<path class="st2" d="M708,411.5c-1.5,1.6-1,3.6-1,5.5c-0.1,4.3,0,8.7,0,13c-0.1,4.8-1.2,6-6,6c-17.2,0.1-34.3,0-51.5,0
		c-2,0-3.9,0-5.5-1.5"/>
	<path class="st2" d="M1270.5,324.5c-3.3,0.4-5.3,3.1-8,4.5c-7.6,4.2-15,8.6-22.5,13"/>
	<path class="st2" d="M674,271c-9.8,5.7-19.7,11.4-29.5,17c-1.2,0.7-1.2,0.5,0,1.1c9.6,4.8,18.7,10.6,28,16"/>
	<path class="st2" d="M799,235c-9.1,5.7-18.8,10.1-27.6,16.4c-1.5,1.1-3,1.4-2.4,3.6c0.4,1.5-0.4,2.7-1,4"/>
	<path class="st2" d="M1427.5,342.5c-1.2,0.2-1.5,0.9-1.5,2c0,8.8,0,17.7,0,26.5c0,1,0.5,1.8,1,2.5"/>
	<path class="st2" d="M1021,403.5c-1.5,1.4-1,3.3-1,5c0,6,0,12,0,18c0,3,0.2,6-0.5,9"/>
	<path class="st2" d="M1363,379.5c-3,2.3-2.2,6-2.9,9c-3.5,15.5-10.5,31.6-25.1,39.4c-2.2,1.2-4.2,2.1-2.5,5.1"/>
	<path class="st2" d="M704.5,398c-8.8,6-18.5,10.6-27.5,16.2c-1.5,0.9-2,1.7-2,3.3c0.1,6,0,12,0,18"/>
	<path class="st2" d="M1365,271c9,5.4,18.2,10.2,27.1,15.9c1.2,0.8,2.8,1.6,4.4,1.6"/>
	<path class="st2" d="M143.5,146c-1,8-0.2,16-0.5,24c-0.1,1.9,0.6,3.9-1,5.5"/>
	<path class="st2" d="M646,326c8.9,5,17.9,9.9,26.6,15.4c1,0.6,2.1,2.7,3.9,1.1"/>
	<path class="st2" d="M986.5,163c-9.8,5.4-19.5,10.9-29,16.8"/>
	<path class="st2" d="M645,398c9.8,4.8,19,10.6,28.5,16"/>
	<path class="st2" d="M958,398c9.8,4.7,19,10.7,28.5,16"/>
	<path class="st2" d="M1394,396c-9.8-4.7-18.9-10.9-28.5-16"/>
	<path class="st2" d="M986.5,380c-9.5,5.3-18.7,11.3-28.5,16"/>
	<path class="st2" d="M673.5,380c-9.5,5.4-18.7,11.2-28.5,16"/>
	<path class="st2" d="M267,398c-9.5,5.3-19,10.7-28.5,16"/>
	<path class="st2" d="M267,396c-9.5-5.2-19.1-10.5-28.5-16"/>
	<path class="st2" d="M521,326c8.8,5.2,17.7,10.3,26.5,15.5c1.7,1,3.3,1,5,0c4-2.4,8-4.6,12-7.1c0.9-0.6,1.7-0.3,2.5-0.5"/>
	<path class="st2" d="M19,398c9.3,5.3,18.7,10.7,28,16"/>
	<path class="st2" d="M674,235c-9.3,5.3-18.7,10.7-28,16"/>
	<path class="st2" d="M549,235c-9.6,4.9-18.6,10.7-28,16"/>
	<path class="st2" d="M1394,398c-9.3,5.3-18.7,10.7-28,16"/>
	<path class="st2" d="M1300,235c-9.3,5.3-18.7,10.7-28,16"/>
	<path class="st2" d="M548,380c-9.3,5.3-18.7,10.7-28,16"/>
	<path class="st2" d="M678,344c9.2,5.8,18.9,10.9,28,17"/>
	<path class="st2" d="M548.5,271c-9.2,5.3-18.3,10.7-27.5,16"/>
	<path class="st2" d="M1425,381c-1,0.2-1.9-0.2-3,0.5c-8.1,4.9-16.3,9.7-24.5,14.5"/>
	<path class="st2" d="M959,181c9.2,5.3,18.3,10.7,27.5,16"/>
	<path class="st2" d="M365,344c8.7,5.9,18.2,10.3,27,16"/>
	<path class="st2" d="M1142.5,398c-8.6,6-18.1,10.5-27,16"/>
	<path class="st2" d="M927,271c9,5.3,18,10.7,27,16"/>
	<path class="st2" d="M266,287c-7-4-14.1-7.9-21-12c-2.7-1.6-5.5-2.7-8.5-3.5"/>
	<path class="st2" d="M829.5,251c-8.9-5.5-18.4-10-27-16"/>
	<path class="st2" d="M1267.5,396c-8.7-5.9-18.1-10.6-27-16"/>
	<path class="st2" d="M297.5,235c-8.6,6-18.1,10.5-27,16"/>
	<path class="st2" d="M829.5,396c-9-5.3-18-10.7-27-16"/>
	<path class="st2" d="M1393,326c-8.5,4.9-17.3,9.5-25.5,15c-0.3,0.2-1,0-1.5,0"/>
	<path class="st2" d="M829.5,398c-8.6,6-18.1,10.5-27,16"/>
	<path class="st2" d="M15.5,396c-8.7-5.8-18.1-10.5-27-16"/>
	<path class="st2" d="M15.5,398c-8.7,5.8-18.1,10.5-27,16"/>
	<path class="st2" d="M297.5,414c-8.9-5.5-18.4-10-27-16"/>
	<path class="st2" d="M1051,417c0,8.8,0,17.7,0,26.5"/>
	<path class="st2" d="M1014.5,400c-8.3,4.8-16.6,9.7-25,14.4c-1.3,0.7-1.5,1.3-1.5,2.6c0.1,2.8,0,5.7,0,8.5c0,1.6-0.2,3.1-1,4.5"/>
	<path class="st2" d="M953.5,218c-8.9,5-17.3,10.7-26.5,15"/>
	<path class="st2" d="M927,344c8.2,3.6,15.5,9,23.5,13.1c1,0.5,2.4,0.6,3,1.9"/>
	<path class="st2" d="M15,181c-6.6,4.4-13.4,8.4-20.5,12c-2.1,1.1-4,2.6-6,4"/>
	<path class="st2" d="M548,414c-8.8-5-17.7-10-26.5-15"/>
	<path class="st2" d="M-15.5,235c-7.7,5.1-15.8,9.7-24,14c-0.9,0.5-1.7,1.3-2.5,2"/>
	<path class="st2" d="M1236.5,344c-8.7,5-17.3,10-26,15"/>
	<path class="st2" d="M1266.5,359c-8.7-5-17.3-10-26-15"/>
	<path class="st2" d="M-41.5,218c8.7,5,17.3,10,26,15"/>
	<path class="st2" d="M1266.5,399c-8.7,5-17.3,10-26,15"/>
	<path class="st2" d="M55,411.5c-0.3,0.3-0.6,0.9-1,1c-4.7,1.4-5.4,4.6-5.1,9c0.4,6.6,0.1,13.3,0.1,20"/>
	<path class="st2" d="M365.5,236c8.7,5,17.3,10,26,15"/>
	<path class="st2" d="M1141.5,178c-8.7-5-17.3-10-26-15"/>
	<path class="st2" d="M959,326c7.3,4.2,14.7,8.3,22,12.6c1.3,0.8,2.2,1.3,3.5,0.4"/>
	<path class="st2" d="M803,344c8.5,5,17,10,25.5,15"/>
	<path class="st2" d="M1424,344c-8.5,5-17,10-25.5,15"/>
	<path class="st2" d="M297,344c-8.5,5-17,10-25.5,15"/>
	<path class="st2" d="M299.5,416c0,8.5,0,17,0,25.5"/>
	<path class="st2" d="M-42,326c8.5,5,17,10,25.5,15"/>
	<path class="st2" d="M391,326c-8.5,5-17,10-25.5,15"/>
	<path class="st2" d="M704,326c-8.5,5-17,10-25.5,15"/>
	<path class="st2" d="M829,326c-8.2,5.5-17.1,9.8-25.5,15"/>
	<path class="st2" d="M1210,326c8.5,5,17,10,25.5,15"/>
	<path class="st2" d="M172,163c-8.5,5-17,10-25.5,15"/>
	<path class="st2" d="M-16.5,272c-8.5,5-17,10-25.5,15"/>
	<path class="st2" d="M390.5,290c-8.5,5-17,10-25.5,15"/>
	<path class="st2" d="M-16,344c-8.5,5-17,10-25.5,15"/>
	<path class="st2" d="M296.5,272c-8.5,5-17,10-25.5,15"/>
	<path class="st2" d="M365,272c8.5,5,17,10,25.5,15"/>
	<path class="st2" d="M1267,290c-8.5,5-17,10-25.5,15"/>
	<path class="st2" d="M954,290c-8.5,5-17,10-25.5,15"/>
	<path class="st2" d="M803.5,272c8.5,5,17,10,25.5,15"/>
	<path class="st2" d="M1241.5,272c8.4,5.2,17.3,9.5,25.5,15"/>
	<path class="st2" d="M703.5,290c-8.3,5-16.7,10-25,15"/>
	<path class="st2" d="M828.5,290c-8,5.6-16.9,9.7-25,15"/>
	<path class="st2" d="M-47,287c-7.5-4.3-15-8.7-22.5-13c-0.7-0.4-1.7-0.4-2.5-0.5"/>
	<path class="st2" d="M678.5,272c8.3,5,16.7,10,25,15"/>
	<path class="st2" d="M-41.5,290c5.1,4,11.1,6.5,16.5,10c2.8,1.8,5.6,3.4,8.5,5"/>
	<path class="st2" d="M420.5,411c-0.8,0-1.4,0.7-2.5,0.1c-7.5-4.2-15.2-8.3-22.5-13.1"/>
	<path class="st2" d="M1398.5,290c8,5.5,16.8,9.7,25,15"/>
	<path class="st2" d="M-9.5,164c8.2,5.2,17,9.4,25,15"/>
	<path class="st2" d="M983,231c-8.2-4.7-16.3-9.3-24.5-14"/>
	<path class="st2" d="M-11,344c6.9,4.8,14.8,7.9,21.5,12.9c0.6,0.5,1.9,0.1,2.9,0.1"/>
	<path class="st2" d="M1370,236c0.3,2.4,2.3,3,4,4c6.3,3.7,12.7,7.3,19,11"/>
	<path class="st2" d="M743,237c8,4.7,16,9.3,24,14"/>
	<path class="st2" d="M425.5,417c-1,8-0.3,16-0.5,24"/>
	<path class="st2" d="M294,383c-5.2,1.2-9.2,4.9-14,7.1c-3.4,1.6-6.4,3.9-9.5,5.9"/>
	<path class="st2" d="M954.5,396c-6.3-4.6-13.5-7.7-20-12c-1.4-0.9-2.4,0.2-3.5,0"/>
	<path class="st2" d="M172.5,197c-6.2-3.7-12.3-7.4-18.5-11c-1.5-0.9-3.2-1.8-5-0.5"/>
	<path class="st2" d="M418,347.5c-2.4-0.1-4.1,1.5-6,2.6c-5.8,3.2-11.4,6.6-17,9.9"/>
	<path class="st2" d="M187.5,355.5c-3.6,3.4-5.4,8.1-8.4,12.1c-1.7,2.3-4.1,4.2-5,7c-0.5,1.4-1.8,3.5,0.9,4.5"/>
	<path class="st2" d="M1212.5,291c7.3,5.3,15.7,8.8,23,14"/>
	<path class="st2" d="M111.5,417c1.4,7.6-0.4,15.4,1,23"/>
	<path class="st2" d="M982,239c-0.8-1.2-1.8-0.3-2.5,0.1c-6.9,3.9-13.7,7.9-20.5,11.9"/>
	<path class="st2" d="M396.5,290c6,3.7,12,7.4,18,10.9c1.3,0.7,2.8,1.5,4.5,1.1"/>
	<path class="st2" d="M958,289c6.7,3.8,13.4,7.6,20,11.5c0.7,0.4,1.3,0.4,2,0.5"/>
	<path class="st2" d="M-15.5,380c-7.3,4.3-14.7,8.7-22,13"/>
	<path class="st2" d="M417,384c-6.3,2.4-11.6,6.5-17.5,9.5c-1.5,0.8-2.8,2.1-4.5,2.5"/>
	<path class="st2" d="M1420,274.5c-4.1,0.9-7.3,3.8-10.9,5.7c-3.8,2-7.7,4-11.1,6.8"/>
	<path class="st2" d="M396,326c7.2,4.2,14.1,9.1,22,12"/>
	<path class="st2" d="M979,277c-3.9-0.4-6.3,2.7-9.4,4.1c-4.8,2.2-8.8,6-14.1,7.4"/>
	<path class="st2" d="M7.5,331.5c-6.3,1.8-11.3,6.1-17,9c-1.3,0.6-2.4,1.6-3.5,2.5"/>
	<path class="st2" d="M550,415c0,6.8,0,13.7,0,20.5"/>
	<path class="st2" d="M9,222c-2.5-0.4-4.1,1.6-6,2.6c-4.9,2.6-9.7,5.6-14.5,8.4"/>
	<path class="st2" d="M-62,352.5c1.1,0.6,2.1-0.8,3.6,0.4c3.7,2.8,7.8,4.9,11.9,7.1c1.2,0.6,1.5,1.3,1.5,2.5c0,5.7,0,11.3-0.1,17
		c0,0.7-0.6,1.3-1,2"/>
	<path class="st2" d="M142,406.5c2.2,4.5,0.5,9.3,1,14c0.2,2.2-0.2,4.5,1,6.5"/>
	<path class="st2" d="M417,275c-6.9,3.9-13.9,7.5-20.5,12"/>
	<path class="st2" d="M1235.5,272c-5.5,3.3-11,6.7-16.5,10c-1.2,0.7-2.7,0.6-4,0"/>
	<path class="st2" d="M49,137c0,4.7,0.1,9.3,0,14c0,2.3,0.2,4.4,1,6.5"/>
	<path class="st2" d="M800.5,416c0,6.5,0,13,0,19.5"/>
	<path class="st2" d="M1238.5,343.5c0.3,11.5-0.6,23.1,0.5,34.5c0.1,0.9-0.2,1.2-1,1"/>
	<path class="st2" d="M173.5,142c0.7,3,0.4,6,0.5,9c0.1,3.5,0.3,7,0.5,10.5"/>
	<path class="st2" d="M903.5,294c4.4,1.4,8,4.4,11.9,6.6c2.5,1.4,5.3,2.6,7.6,4.4"/>
	<path class="st2" d="M1353.5,409.5c3.9,0.9,6.5,4,10,5.5c1.2,0.5,0.4,1.4,0.4,2c0.1,3.8,0,7.7,0.1,11.5c0,2.2-0.2,4.4,0.5,6.5"/>
	<path class="st2" d="M-47,326c-6.3,3.7-12.7,7.3-19,11"/>
	<path class="st2" d="M922.5,272c-5.5,3.3-11,6.7-16.5,10c-0.5,0.3-1.3,0-2,0"/>
	<path class="st2" d="M1164,169.5c-4.8,0.9-8.3,4.3-12.5,6.5c-2.1,1.1-4,2.5-6,3.7"/>
	<path class="st2" d="M1236.5,380c-6.2,3.7-12.3,7.3-18.5,11"/>
	<path class="st2" d="M1165,227c-5.7-1.6-10.2-5.7-15.5-8c-1.1-0.5-2-1.3-3-2"/>
	<path class="st2" d="M1113.5,143.5c-1,6-0.4,12,0,18"/>
	<path class="st2" d="M331,413c0,4,0,8,0,12c0,2,0,3.9,1.5,5.5"/>
	<path class="st2" d="M-46,200.5c2.1,4.4,0.8,9,0.9,13.5c0,1.9,1,2.1,2.1,2.8"/>
	<path class="st2" d="M737,239.5c1.5,1.4,0.9,3.3,1,5c0.1,4.2-0.3,8.4,0.5,12.5"/>
	<path class="st2" d="M-12,235c6,2.9,11.2,7.2,17.5,9.5"/>
	<path class="st2" d="M1147,181c5,3,10,6,15,9c0.5,0.3,1.3,0,2,0"/>
	<path class="st2" d="M1238,253.5c0.9,5.6,0.3,11.3,0.5,17"/>
	<path class="st2" d="M112.5,136.5c-0.9,3.6-0.4,7.3-0.5,11c-0.1,1.9,0.1,3.8-1,5.5"/>
	<path class="st2" d="M567,298c-2-0.4-3.1,1.1-4.6,1.9c-4.1,2-8,4.5-11.9,6.9"/>
	<path class="st2" d="M784,334c6,1.9,10.9,5.6,16,9"/>
	<path class="st2" d="M706.5,263.5c0.3,5.3-0.6,10.7,0.5,16"/>
	<path class="st2" d="M797.5,272c-5.3,2.9-10.1,6.7-16,8.5"/>
	<path class="st2" d="M551,235c4.3,2.3,8.7,4.6,13,7.1c1,0.6,1.9,1,3,0.9"/>
	<path class="st2" d="M151,401c3,3.1,7,4.7,10.6,6.9c1.9,1.1,3.8,1.8,4.4,4.1"/>
	<path class="st2" d="M80.5,417.5c-1,4.6-0.6,9.4-0.3,14c0.1,1.6-0.1,1.7-1.2,2.3c-3.7,2.2-7.3,4.5-11,6.7c-0.9,0.6-2,1.1-1.5,2.5"
		/>
	<path class="st2" d="M1082,418c0,4.3,0.2,8.7-0.1,13c-0.2,2.3,1.2,2.8,2.6,3.5"/>
	<path class="st2" d="M567.5,405.5c-5.2,2.8-10.3,5.7-15.5,8.5"/>
	<path class="st2" d="M1021,143.2c-0.5,0.4-1.6,0-1.5,1.2c0.3,5-0.6,10,0.5,15"/>
	<path class="st2" d="M1051,134c0,5.2,0,10.3,0,15.5"/>
	<path class="st2" d="M299,327c1.1,5.1,0.2,10.3,0.5,15.5"/>
	<path class="st2" d="M361,235c-5.1,2.9-10.4,5.4-15,9"/>
	<path class="st2" d="M552,344c4.2,2.3,8.4,4.6,12.5,7.1c0.8,0.5,1.5,1.1,2.5,0.9"/>
	<path class="st2" d="M1161,389.5c-2.7-1.8-4.6,0.8-6.4,1.7c-2.9,1.5-5.6,3.4-8.6,4.8"/>
	<path class="st2" d="M798.5,414c-5-2.8-10-5.7-15-8.5"/>
	<path class="st2" d="M1068.5,134c0,0.5-0.2,1.2,0,1.5c3.9,3.4,9,5,13.1,8.2c0.4,0.3,1.9-0.7,2.9-1.1"/>
	<path class="st2" d="M566.5,280c-4.7-3.5-10.1-5.8-15-9"/>
	<path class="st2" d="M271.5,290c3.6,2.7,7.5,4.9,11.5,7c1,0.5,2.7,0.6,2.5,2.5"/>
	<path class="st2" d="M552,380c4.2,2.3,8.4,4.6,12.5,7.1c0.8,0.5,1.5,1.1,2.5,0.9"/>
	<path class="st2" d="M1360.5,236c-4.9,3.2-10.4,5.4-15,9"/>
	<path class="st2" d="M1113.5,416c0,4.8,0,9.7,0,14.5"/>
	<path class="st2" d="M612,233.5c1.2,7,0.2,14,0.5,21"/>
	<path class="st2" d="M798.5,380c-3.5,2-7.1,3.9-10.5,6.1c-1.3,0.9-2.5,1.5-4,1.4"/>
	<path class="st2" d="M236,364.5c1.9,2.6,0.7,5.7,1,8.5c0.2,2,0,4,0,6"/>
	<path class="st2" d="M283,332c2.1,4.1,6.9,4.3,10,7c1,0.9,2.6,0.9,3.5,2"/>
	<path class="st2" d="M486,235c-4.9,1.8-8.7,6.3-14,7"/>
	<path class="st2" d="M908.5,334c1.7-0.4,3.4,0.2,4.4,1.1c2.9,2.6,6.7,3.5,9.6,5.9"/>
	<path class="st2" d="M798,344c-3.6,1.8-6.8,4.3-10.4,6.1c-1.3,0.6-2.3,0.8-3.6,0.9"/>
	<path class="st2" d="M3.5,297c-5,2.1-9.5,5.1-14,8"/>
	<path class="st2" d="M609,236c-3,1.8-6,3.6-9,5.5c-1.6,1-3,0.3-4.5,0"/>
	<path class="st2" d="M-10.5,272c3.7,2.2,7.4,4.3,11,6.5c0.9,0.6,1.7,0.3,2.5,0.5"/>
	<path class="st2" d="M784,298c5.2,0.9,9.1,4.5,13.5,7"/>
	<path class="st2" d="M863.5,421.5c-1,4.5-0.3,9-0.5,13.5"/>
	<path class="st2" d="M1302,428.5c-1.5,1.4-0.9,3.3-1,5c-0.1,2.8,0.2,5.7-0.5,8.5"/>
	<path class="st2" d="M1142.5,181c-4.3,2.7-8.7,5.3-13,8"/>
	<path class="st2" d="M833,398c2.7,1.4,5.6,2.5,8,4.4c1.3,1,3,1.9,5,1.6"/>
	<path class="st2" d="M923.5,235c-3.2,2.6-7.2,4.1-10.5,6.6c-1.2,0.9-1.7-0.6-2.5-0.1"/>
	<path class="st2" d="M267,289c-4.3,2.7-8.7,5.3-13,8"/>
	<path class="st2" d="M833,289c4.4,2.2,8.1,5.6,13,7"/>
	<path class="st2" d="M846,390c-1.8-0.2-3.1,0.6-4.5,1.5c-2.7,1.6-5.6,3-8.5,4.5"/>
	<path class="st2" d="M94.5,134c0.5,1.4-0.5,1.9-1.5,2.5c-3.2,1.8-6.3,3.7-9.5,5.5"/>
	<path class="st2" d="M189,226.5c-4.8,1-8.3,4.4-12.5,6.5"/>
	<path class="st2" d="M845,281.5c-5.5,0.9-8.9,6.3-14.5,7"/>
	<path class="st2" d="M1144,384.5c1.3,1.3,1,2.9,1,4.5c0,4.7,0.1,9.3,0,14c0,1.9,0,3.7,1.3,5.2"/>
	<path class="st2" d="M189,242c-4.6-1.6-8.5-4.3-12.5-7"/>
	<path class="st2" d="M487,423c0,4,0,8,0,12"/>
	<path class="st2" d="M66.5,134.5c2.6,4.1,7.6,4.5,11,7.5"/>
	<path class="st2" d="M83.5,435c3.2,1.8,6.4,3.6,9.5,5.5c0.7,0.4,2,0.5,1.5,2"/>
	<path class="st2" d="M1081,434c-3,1.7-6,3.3-9,5c-1,0.6-1.9,1.5-1.5,3"/>
	<path class="st2" d="M269.5,288.5c-2,2-1.4,4.6-1.5,7c0,1.8,0,3.7,0,5.5"/>
	<path class="st2" d="M-46.5,217c-4,1.9-7.2,5.5-12,6"/>
	<path class="st2" d="M834,326c4.1,1.8,7.3,5.3,12,6"/>
	<path class="st2" d="M1021,434c3.2,1.3,5.7,3.9,9,5.1c1,0.4,1.9,1.5,1.5,2.9"/>
	<path class="st2" d="M516.5,398c-3.8,2-7,5.2-11.5,6"/>
	<path class="st2" d="M188,169c-4.4-0.9-7.6-4-11.5-6"/>
	<path class="st2" d="M188,191c-3.8-0.3-5.8,3.1-9,4.1c-0.9,0.3-1.7,1.3-2.5,1.9"/>
	<path class="st2" d="M187.5,387c-3.7-2.3-7.3-4.7-11-7"/>
	<path class="st2" d="M16.5,179.5c2.1,0.5,1.3,2.2,1.5,3.5c0.4,2.8-0.9,5.9,1,8.5"/>
	<path class="st2" d="M30,174.5c-1.7,0.1-3.6-0.5-5,1c-1.7,1.8-4,2.4-6,3.5"/>
	<path class="st2" d="M505.5,390c4,1.3,7.4,3.9,11,6"/>
	<path class="st2" d="M1207,313.5c1.1,3.3,0.4,6.7,0.4,10c0,1.6,1.2,0.7,1.6,1.2"/>
	<path class="st2" d="M1408.5,405c-3.3-3-7.7-4-11-7"/>
	<path class="st2" d="M1329.5,435c-2.5,1.9-5.6,2.8-8.1,4.9c-1,0.8-0.7,1.4-0.9,2.1"/>
	<path class="st2" d="M271.5,435c2.5,1.9,5.5,3.1,8.1,4.9c1.1,0.8,0.7,1.4,0.9,2.1"/>
	<path class="st2" d="M516,326c-3.5,1.9-6.4,4.8-10.5,5.5"/>
	<path class="st2" d="M923.5,344c-3.5,2-7,4-10.5,6"/>
	<path class="st2" d="M29.5,390c-3.3,2.3-6.8,4.4-10.5,6"/>
	<path class="st2" d="M580.5,254c1.3,3.4-0.6,7.2,1.5,10.5"/>
	<path class="st2" d="M516,287c-3.5-1.9-6.5-4.7-10.5-5.5"/>
	<path class="st2" d="M789.5,226c-0.2,1.6,0.6,2.4,2,3c2.4,1.2,4.7,2.6,7,4"/>
	<path class="st2" d="M396.5,435c2.5,1.9,5.6,2.8,8.1,4.9c1,0.8,0.7,1.4,0.9,2.1"/>
	<path class="st2" d="M515.5,290c-3.3,1.9-6.2,4.5-10,5.5"/>
	<path class="st2" d="M1271,398c2.3,1.2,4.7,2.3,7,3.5c1.1,0.6,2,0.8,3,0"/>
	<path class="st2" d="M1312.5,226c0.5,1.8-1.1,2.3-2,2.9c-2.2,1.4-4.6,2.3-6.5,4.1"/>
	<path class="st2" d="M505.5,354c4,0.3,6.5,3.6,10,5"/>
	<path class="st2" d="M347,406c2.5,1.7,4.9,3.6,7.5,4.9c1.3,0.6,0.8,1.4,1,2.1"/>
	<path class="st2" d="M352.5,227c0.2,0.7-0.4,1.5,1,2.1c2.3,1,4.4,2.6,6.5,3.9"/>
	<path class="st2" d="M1343,440.5c-1.8-3.5-6.1-3.8-8.5-6.5"/>
	<path class="st2" d="M923.5,233c-3-1.5-5.5-4-9-4.5"/>
	<path class="st2" d="M298.5,342.5c2.5,0.3,1.3,2.2,1.5,3.5c0.3,2.2-0.7,4.5,1,6.5"/>
	<path class="st2" d="M392,434c-2.4,2-6,2.3-7.5,5.5"/>
	<path class="st2" d="M258,246c2.7,1.7,5.3,3.3,8,5"/>
	<path class="st2" d="M1293,228c1.2,3.3,4.4,3.8,7,5"/>
	<path class="st2" d="M1082.5,141.5c-0.7,3.3-0.5,6.7-0.5,10"/>
	<path class="st2" d="M1278.5,392.5c-2.5,1.2-5,2.3-7.5,3.5"/>
	<path class="st2" d="M953.5,399c-2,1.9-5.5,1.8-6.5,5"/>
	<path class="st2" d="M307.5,228c0.5,1.8-1.1,2.6-2,2.9c-1.6,0.4-2.5,1.7-4,2.1"/>
	<path class="st2" d="M301,235c2.5,1,4.9,2.3,6,5"/>
	<path class="st2" d="M402.5,247c-2.3,1.3-4.7,2.7-7,4"/>
	<path class="st2" d="M1090.5,137c-0.2,0.7,0.4,1.6-1,2.1c-1.5,0.6-2.7,1.9-4,2.9"/>
	<path class="st2" d="M267,434c-2,1.3-4.9,1.5-5.5,4.5"/>
	<path class="st2" d="M1146,398c2,1,4,2,6,3"/>
	<path class="st2" d="M235.5,380c-1.8,0.8-3.3,2.3-5.5,2"/>
	<path class="st2" d="M807,229c-0.3,2.6-3.1,2.5-4.5,4"/>
	<path class="st2" d="M1429,344c1.5,1.6,3.4,2.3,5.5,2.5"/>
	<path class="st2" d="M1137,392c1.4,1.9,3.8,2.4,5.5,4"/>
	<path class="st2" d="M1435,339c-2.2-0.3-3.8,0.8-5.5,2"/>
	<path class="st2" d="M1016.5,435c-1,1.5-4,0.8-4,3.5"/>
	<path class="st2" d="M306.5,411c-1.7,1-3.3,2-5,3"/>
	<path class="st2" d="M362,343c-1.5-0.4-3-1.1-4.5,0"/>
	<path class="st2" d="M1274,288.5c-1.8,0-3.7,0-5.5,0"/>
	<path class="st2" d="M19,181c1.3,0.4,2.6,0.9,3.5,2"/>
	<path class="st2" d="M1204.5,324.5c0.8,0.2,1.7,0.3,2.5,0.5"/>
	<path class="st2" d="M1112.5,414.8c0.7,0.7,1.3,0.7,2,0"/>
	<path class="st2" d="M267.5,251.8c0.7,0.7,1.3,0.7,2,0"/>
	<path class="st2" d="M799.5,414.8c0.7,0.7,1.3,0.7,2,0"/>
	<path class="st2" d="M392.5,251.8c0.7,0.7,1.3,0.7,2,0"/>
	<path class="st2" d="M298.5,414.8c0.7,0.7,1.3,0.7,2,0"/>
</g>
<g id="sPetZI.tif">
	<g>
		<path d="M61.8,446.8c-10.6-2-21.3-3.1-31.7-5.9c-55.6-14.8-96.1-60.4-104.2-117.5c-6.3-44.6-0.5-86.8,25.1-124.8
			c26.6-39.5,65-59.6,111.7-64.8c33-3.7,64.2,2.5,93.7,17.6c0.6,0.3,1.2,0.4,2.1,0.7c4.1-3.6,8.1-7.3,12.3-11c5.7,0,11.5,0,17.2,0
			c0.8,3.6,2.9,100.6,2.3,107.9c-5.7,0-11.4,0-17.4,0c-3.3-9.1-6.4-18.5-10.3-27.6c-8.7-20.8-18.9-40.8-37.5-54.9
			c-33.2-25-78.6-15.8-99.6,19.9c-12.1,20.7-17,43.4-19.2,66.9c-3,32.6-2.7,65,6.6,96.8c4.7,16,11.1,31.3,23,43.6
			c29.4,30.3,80.9,31.4,114.8,2.7c14.1-12,24.9-26.6,34.5-43c5.7,3.5,11.3,6.9,17.3,10.6c-5.6,12.7-12.7,24.4-21.4,35
			c-23,28-52.7,43.4-88.7,47c-1.3,0.1-2.5,0.6-3.8,0.9C79.8,446.8,70.8,446.8,61.8,446.8z"/>
		<path d="M1037.2,446.8c-10.6-2-21.3-3.1-31.7-5.9c-55.6-14.8-96.1-60.4-104.2-117.5c-6.3-44.6-0.5-86.8,25.1-124.8
			c26.6-39.5,65-59.6,111.7-64.8c33-3.7,64.2,2.5,93.7,17.6c0.6,0.3,1.2,0.4,2.1,0.7c4.1-3.6,8.1-7.3,12.3-11c5.7,0,11.5,0,18.5,0
			c0,36,0,71.7,0,107.9c-4.7,0-10.4,0-16.4,0c-3.3-9.1-6.4-18.5-10.3-27.6c-8.7-20.8-18.9-40.8-37.5-54.9
			c-33.2-25-78.6-15.8-99.6,19.9c-12.2,20.8-17.1,43.7-19.2,67.4c-2.9,32.4-2.6,64.7,6.7,96.3c4.7,16,11.1,31.3,23,43.6
			c29.4,30.3,80.9,31.4,114.8,2.7c14.1-12,24.9-26.6,34.5-43c5.7,3.5,11.3,6.9,17.3,10.6c-5.6,12.7-12.7,24.4-21.4,35
			c-23,28-52.7,43.4-88.7,47c-1.3,0.1-2.5,0.6-3.8,0.9C1055.2,446.8,1046.2,446.8,1037.2,446.8z"/>
		<path d="M1435.9,343.2c-1.9,10.2-3,20.6-6.6,30.4c-14.8,41.5-45.8,63-87.9,70.1c-29.3,4.9-58.2,2.9-85.2-10.9
			c-37.1-19-55.3-50.3-57.4-91.3c-1.4-27.1,4-52.5,21-74.5c18.8-24.5,44.5-36.8,74.5-40.7c31.9-4.2,62.8-1.4,91.2,15.1
			c30,17.4,45.1,44.4,49.4,78.1c0.2,1.6-0.4,3.4,1,4.7C1435.9,330.5,1435.9,336.9,1435.9,343.2z M1273.2,340.6c0,2.2-0.1,4.3,0,6.5
			c0.6,20,1.7,39.9,10,58.5c6.3,14.1,16,23.9,32.7,24.3c17.4,0.5,27.9-8.9,34.6-23.7c1.9-4.2,3.4-8.6,4.6-13.1
			c7.4-30.1,7.1-60.5,4.3-91.1c-1.4-14.9-3.3-29.7-11.1-43c-10.4-17.7-30.5-24-47.6-14.8c-11.3,6.1-16.9,16.7-20.6,28.3
			C1273,294.7,1273.3,317.7,1273.2,340.6z"/>
		<path d="M470.7,438.4c0-5.2,0-10,0-15.1c5.3-0.8,10.5-1.4,15.6-2.5c9.2-2.1,13.3-6.7,14.5-16c0.3-2.6,0.5-5.3,0.5-7.9
			c0-36.5,0-73.1,0-109.6c0-26.2-7-34.5-33.4-39.1c0-4.9,0-10,0-15.6c16.2-0.8,32.4-1.6,48.6-2.4c16.1-0.8,32.2-1.7,48-2.5
			c3.2,1.6,3.6,4,3.5,6.9c-0.1,8.5,0,16.9,0,26.8c5.6-5.1,10.3-9.3,14.9-13.6c23.7-22.2,51.7-27.5,82.4-19.9
			c17,4.2,29.3,15.1,36.9,31c0.6,1.3,0.7,2.9,2.5,3.7c3-0.7,4.7-3.4,6.7-5.3c14.3-13.4,28.9-26.1,49-30.1
			c21.5-4.2,42.6-4.5,61.4,8.7c16.5,11.6,23.6,29,24.2,48.2c1.1,33.2,0.6,66.4,0.8,99.6c0,5.6,0.4,11.3,0.3,16.9
			c-0.2,10.3,5.1,16.4,14.7,19.2c4.6,1.3,9.3,2.5,14.3,3.8c0,4.6,0,9.6,0,14.9c-40.2,0-80.3,0-120.9,0c0-4.9,0-10,0-15.2
			c4.8-0.7,9.6-1.2,14.3-2.3c5.2-1.2,8.4-4.5,9-10c0.3-3,0.8-5.9,0.8-8.9c0-34.4,0-68.8,0-103.1c0-5.5-0.7-10.9-1.9-16.3
			c-4.5-19.8-19.1-28.5-38.5-22.7c-13.1,3.9-23.1,12.1-30.5,23.6c-1.2,1.9-1,3.8-1,5.8c0,35.4,0,70.8,0,106.1
			c0,17.8,3.7,22.5,21.2,27c1,0.2,1.9,0.5,3,0.9c0,5,0,10,0,15.2c-38.7,0-77.2,0-116,0c0-5.1,0-10,0-15.3c4.2-0.6,8.3-0.9,12.3-1.7
			c7.5-1.5,11.2-5.3,11.4-12.9c0.5-13.8,0.5-27.5,0.5-41.3c0-24.9-0.2-49.8-0.4-74.7c0-3.3-0.7-6.6-1.4-9.8
			c-4.9-20.6-19.7-28.8-40-22.3c-12.5,4-22,12-29.1,23.1c-1.3,2-1,4.1-1,6.3c0,35,0,70.1,0,105.1c0,18.1,3.9,23.1,21.3,27.6
			c1,0.2,1.9,0.5,3,0.8c0,5,0,9.9,0,15.2C551.9,438.4,511.5,438.4,470.7,438.4z"/>
		<path d="M453.5,435.4c-24.9,10.6-50.7,14.5-77.3,5.7c-9.8-3.3-16.4-10.5-20.5-19.9c-0.7-1.6-1.4-3.3-2.4-5.4
			c-3.9,3.5-7.3,6.9-11,9.9c-23,19.2-49.6,24.2-78.2,17.6c-23-5.3-36.7-22.5-39.2-46.4c-2.4-23.3,9.3-44.9,30.1-55.6
			c22.5-11.5,47-17.4,70.9-24.9c9-2.8,18-5.6,26.6-10.2c-0.2-12.9,0.8-25.7-1.2-38.4c-1.7-11.1-5.9-21.2-17.4-25.4
			c-12.6-4.5-24.5-1.8-35.7,6.3c1.8,6.7,4,13.3,5.3,20.1c4.2,21.6-6.7,35.3-28.7,36.3c-4.5,0.2-9,0-13.4-0.5
			c-12.5-1.5-21.7-7.6-25.4-20c-3.8-12.8-0.5-23.9,9.3-33c14.1-13.1,31.4-19.5,49.9-23.5c25-5.4,50-4.9,74.8,0.4
			c33.2,7.1,50.2,28.7,50,62.8c-0.2,33.9-1,67.7-1.5,101.6c0,1.5,0,3,0,4.5c0.5,14.4,7.5,21.6,21.9,22.2c4.1,0.2,8.3,0,13,0
			C453.5,425,453.5,429.9,453.5,435.4z M352,326.5c-9.9,3.2-19.1,7.2-28.3,11.6c-20.7,9.9-30,26.1-28.2,48.9
			c1.2,15.7,10.8,24.9,26.4,25c12.8,0.1,21.8-6.6,30-16.3C352,373.1,352,350,352,326.5z"/>
		<path class="st3" d="M185.2,353.6c0.3,1.2,0.7,2.3,1,3.5"/>
		<path class="st3" d="M1160.6,353.6c0.3,1.2,0.7,2.3,1,3.5"/>
	</g>
</g>
</svg>
