<?xml version="1.0" encoding="utf-8"?>
<!-- Generator: Adobe Illustrator 24.2.3, SVG Export Plug-In . SVG Version: 6.00 Build 0)  -->
<svg version="1.1" id="Layer_1" xmlns="http://www.w3.org/2000/svg" xmlns:xlink="http://www.w3.org/1999/xlink" x="0px" y="0px"
	 viewBox="0 0 1366 768" style="enable-background:new 0 0 1366 768;" xml:space="preserve">
<style type="text/css">
	.st0{fill:#021C43;}
	.st1{fill:#9F9F9F;}
	.st2{fill:#A0A0A0;}
	.st3{fill:#3CAEE1;}
	.st4{fill:#C5C5C5;}
	.st5{fill:#C3C3C3;}
	.st6{fill:#C3C4C4;}
	.st7{fill:#A3A3A3;}
	.st8{fill:#A5A5A5;}
	.st9{fill:#C9CACA;}
	.st10{fill:#FBFBFB;}
	.st11{fill:#51B5E5;}
	.st12{fill:#5EBAE7;}
	.st13{fill:#48B2E4;}
	.st14{fill:#CDCDCE;}
	.st15{fill:#CCCDCD;}
	.st16{fill:#54B6E6;}
	.st17{fill:#5BB9E6;}
	.st18{fill:#5DBAE7;}
	.st19{fill:#60BAE7;}
	.st20{fill:#4AB3E5;}
	.st21{fill:#49B2E4;}
	.st22{fill:#4CB3E5;}
	.st23{fill:#C6C9CA;}
	.st24{fill:#F2F2F2;}
	.st25{fill:#46B1E4;}
	.st26{fill:#57B7E6;}
	.st27{fill:#5AB8E6;}
	.st28{fill:#5DB9E7;}
	.st29{fill:#52B6E6;}
	.st30{fill:#AFAFAF;}
	.st31{fill:#49B3E5;}
	.st32{fill:#ABABAB;}
	.st33{fill:#70B5D5;}
	.st34{fill:#DCDCDC;}
	.st35{fill:#64BCE8;}
	.st36{fill:#66BDE8;}
	.st37{fill:#67BDE8;}
	.st38{fill:#65BCE8;}
	.st39{fill:#BFBFBF;}
	.st40{fill:#BDC0C1;}
	.st41{fill:#434343;}
	.st42{fill:#C8C9C9;}
	.st43{fill:#C3C3C4;}
	.st44{fill:#4CACD7;}
	.st45{fill:#C7C7C8;}
	.st46{fill:#F1F2F2;}
	.st47{fill:#D6D6D6;}
	.st48{fill:#DADADA;}
	.st49{fill:#C5C5C6;}
	.st50{fill:#BCBFBF;}
	.st51{fill:#C4C4C4;}
	.st52{fill:#C4C4C5;}
	.st53{fill:#4AADDA;}
	.st54{fill:#B8B9B9;}
	.st55{fill:#303030;}
	.st56{fill:#ECEEEE;}
	.st57{fill:#C5C6C7;}
	.st58{fill:#F3F4F4;}
	.st59{fill:#CDCECE;}
	.st60{fill:#D8D9D9;}
	.st61{fill:#C5C6C6;}
	.st62{fill:#F4F4F4;}
	.st63{fill:#EBECEC;}
	.st64{fill:#F0F0F0;}
	.st65{fill:#C4C5C5;}
	.st66{fill:#F8F9F9;}
	.st67{fill:#CFD0D0;}
	.st68{fill:#C6C7C7;}
	.st69{fill:#FAFAFA;}
	.st70{fill:#CBCDCD;}
	.st71{fill:#CCCDCE;}
	.st72{fill:#CCCCCC;}
	.st73{fill:#C2C3C3;}
	.st74{fill:#F9F9F9;}
	.st75{fill:#DADBDB;}
	.st76{fill:#DBDBDB;}
	.st77{fill:#C6C6C7;}
	.st78{fill:#6FB2D0;}
	.st79{fill:#EEEEEE;}
	.st80{fill:#D9DADA;}
	.st81{fill:#D6D6D7;}
</style>
<g>
	<path class="st0" d="M641.2,417.2c3.2-0.1,6.3,0,9.5-0.3c2.4-0.2,3.4,0.7,3.3,3c0,0.5,0,1,0,1.5c0.1,1,0.2,2,0.2,2.9
		c0.9-0.6,1.9-1.2,2.8-1.9c1.2-0.9,2.2-2,3.5-2.8c5.9-4,12.3-4.8,19.1-2.6c3.4,1.1,6.2,3.2,8,6.4c1.2,2.2,2.2,2,3.7,0.4
		c1.1-1.2,2.5-2.2,3.8-3.3c4.3-3.5,9.4-4.9,14.9-4.7c8,0.3,13.5,4.9,15,12.8c0.5,2.8,0.7,5.6,0.8,8.4c0.1,7.5,0,15,0.1,22.5
		c0.1,5,0.1,5.1,4.9,6.6c2.1,0.6,2.5,1.8,2.4,3.6c-0.1,2.3-1.8,1.9-3.3,2c-8.3,0-16.7,0-25,0c-1.5,0-3.1,0.2-3.3-2
		c-0.2-1.9,0.4-3.4,2.6-3.4c3.5-0.1,3.9-2.4,3.9-5.1c0-8.7,0.1-17.3-0.1-26c-0.1-3.7-0.6-7.7-4.8-9.1c-4.3-1.4-8.2,0.2-11.4,3.4
		c-1.5,1.5-2,3.3-1.9,5.4c0.1,8.3,0.1,16.7,0,25c0,3.2,0.6,5.6,4.1,6.3c1.6,0.3,2,1.3,2.1,2.9c0,1.9-0.6,2.7-2.6,2.7
		c-8.3-0.1-16.7,0-25,0c-1.6,0-2.5-0.4-2.5-2.2c0-1.6,0-3.1,2.1-3.2c3.4-0.1,4-2.2,4-5c-0.1-8.8,0-17.7-0.1-26.5
		c0-3.4-0.6-6.9-4.1-8.5c-3.6-1.6-7.2-0.6-10.3,1.7c-2.4,1.8-3.8,3.9-3.7,7.1c0.2,8.2,0.1,16.3,0,24.5c0,3.1,0.6,5.7,4.1,6.5
		c2.2,0.5,2.3,2.1,2.2,3.8c-0.2,2.3-2,1.8-3.4,1.8c-8.3,0-16.7,0-25,0c-1.6,0-3,0.1-3.1-2.1c-0.1-2.1,0.8-2.8,2.8-3.3
		c4.5-1,4.9-1.5,5-6c0.1-9.7,0.1-19.3,0-29c-0.1-4.8-1.5-6.5-5.9-8.1c-0.9-0.3-1.7-0.8-2.6-1.3c-0.3-2.7,0.6-4.1,3.8-4
		C634.9,418.1,638.1,417.5,641.2,417.2z"/>
	<path class="st0" d="M665.8,281.9c1.2-17.4,4.4-34.4,10.3-50.9c0.7,0.3,1.3,0.6,2,0.9c2.6,9.6,5.4,19.1,7.5,28.8
		c1.3,6,1.6,12.2,2.4,18.3c0,10.9,0,21.8,0.1,32.7c0,0.8,1.1,1.7,1.7,2.5c0.3,0.3,0.7,0.6,1,0.9c1,1.4,1.9,2.7,2.9,4.1l0.1,0.1
		c0.3,1.6,0.9,2.3,2.3,0.7c0.9-1,1.9-2,2.8-2.9l0,0c0.4,1,0.7,1.9,1.1,2.9c0.3,0.4,0.6,0.8,0.9,1.2c0.4,2.3,0.7,4.6,1.1,6.8
		c0,0.7,0,1.3,0,2c-0.4,6.3-0.9,12.6-1.3,19c-1.8,0-3.6,0-5.4,0.1c-0.3-1.5-0.7-2.9-0.9-4.4c-0.7-5.2-1.1-5.7-6.3-7.1
		c-3-0.8-3.4-0.6-4.1,2.3c-0.5,2.1-1,4.2-1.5,6.2c-3.8-0.2-7.6-0.5-11.4-0.7c-0.5-2.2-1.1-4.5-1.6-6.7c-0.4-1.6-1.3-2-2.9-1.6
		c-5.1,1.3-6.6,2.9-7.3,8.2c-0.2,1.3-0.4,2.6-0.6,3.9c-0.3,0.2-0.6,0.4-0.9,0.7c-1.6-0.2-3.1-0.5-4.7-0.7c-0.4-1.4-0.7-2.8-1.1-4.2
		c-0.1-4-0.1-8-0.2-12c0-1.4,0-2.7,0-4.1c0.4-2.6,0.8-5.2,1.2-7.8c0.7-1.7,1.3-3.3,2-5c2.4,0,2.4,2,3,3.6c0.4,1.2,1.1,1.6,1.8,0.2
		c0.3-0.1,0.4-0.4,0.4-0.7c1-1.4,2-2.7,3-4.1c0.6-0.7,1.3-1.3,1.9-2c0.3-0.5,0.9-1.1,0.9-1.6C666,301.7,665.9,291.8,665.8,281.9z"/>
	<path class="st0" d="M557.2,409c0.1,3.8,0.2,7.6,0.1,11.5c0,0.9-0.7,2.5-1.3,2.6c-1.5,0.3-3.2,0.8-4.1-1.6c-1.4-3.7-2.8-7.5-4.6-11
		c-3-5.8-7.2-10.4-14-11.8c-7.4-1.5-14.1,1.2-18,7.7c-1.6,2.7-2.8,5.7-3.6,8.7c-2.9,11.3-2.9,22.7,0.3,34
		c3.3,11.6,10.8,16.7,22.6,16c7.4-0.5,12.6-4.7,17-10.1c0.8-1,1.6-2.1,2.3-3.3c1-1.6,1.6-3.1,4.1-1.6c2.4,1.5,2.2,2.7,1,4.8
		c-7.2,13.4-18.9,19.4-33.7,18.7c-3.3-0.1-6.6-0.8-9.8-1.7c-12.2-3.5-20.5-11.2-24.6-23.3c-3.8-11.5-3.4-23,1.6-34
		c8.9-19.4,30-25.5,47.4-20.8c2.4,0.6,4.7,1.8,7,2.5c0.9,0.3,2-0.2,3-0.3c2.1-0.9,4.3-2,6.7-0.9c0.1,2.2,0.2,4.5,0.4,6.7
		c0,0.4,0,0.7,0,1.1C557.1,405,557.1,407,557.2,409z"/>
	<path class="st0" d="M806.8,395.3c0.1,8.3,0.3,16.6,0.4,25c0,1.3,0.5,2.8-1.5,3c-1.6,0.1-3.1,0.2-3.9-2c-1.8-4.6-3.8-9.2-6.2-13.5
		c-3-5.1-7.5-8.5-13.5-9.2c-6.9-0.8-12.4,1.5-16.3,7.3c-3.5,5.1-5.1,10.9-5.4,16.9c-0.3,7.3,0.2,14.6,0.8,21.9
		c0.2,2.9,1.6,5.7,2.7,8.5c5.8,15,24.9,14.6,33,6.9c2.8-2.7,5.2-6,7.7-9.1c0.9-1.1,1.4-2.3,3.1-1c1.4,1.1,3.4,1.6,2.1,4.1
		c-4.7,9-11.3,15.7-21.3,18.2c-13.2,3.4-25.5,1.3-36.3-7.3c-7.7-6.1-11.4-14.5-12.9-24c-1.8-11.9,0.8-22.8,7.1-32.8l0.1,0.1
		c0.3-0.4,0.5-0.8,0.8-1.2c0,0,0,0,0,0c0.3-0.4,0.6-0.7,0.9-1.1c0.3-0.3,0.6-0.7,0.9-1c1.8-1.6,3.5-3.2,5.3-4.8
		c1.6-1,3.3-2.1,4.9-3.1c1.7-0.7,3.3-1.4,5-2.1c2.3-0.6,4.7-1.2,7-1.8c5.7,0,11.3,0,17,0c2.9,1.1,5.9,2,8.6,3.4
		c2.1,1.1,3.3,0.3,4.5-1.2C803,395.2,804.9,395.2,806.8,395.3z"/>
	<path class="st0" d="M616,445.9c0,4.5,0,9,0,13.5c0,5.1,0.9,6,5.9,6.6c1.2,0.1,2.8-0.5,3,1.6c0.2,1.8-0.3,3.2-2.2,3.9
		c-5.5,1.9-11.1,2.7-16.7,1c-2.2-0.7-4.6-2.4-5.8-4.3c-1.6-2.6-2.3-1.6-3.9-0.2c-5,4.5-11,6-17.6,5.2c-6.6-0.7-11.5-4.8-12.6-10.3
		c-1.5-7.2,1.1-13.8,7.4-16.9c4.3-2.1,8.9-3.5,13.4-5.2c1.6-0.6,3.2-0.9,4.7-1.6c2.2-0.9,4.4-2.1,6.5-3.1c-0.1-4.3,1-8.7-1.6-12.6
		c-1.9-2.9-7.5-3.5-10.4-1.3c-0.5,0.4-0.8,1.3-0.8,2c0,0.8,0.5,1.6,0.6,2.4c1.1,4.9,0.2,7.6-3.2,9.5c-3.5,2-9.4,1.5-12.2-1.1
		c-2.9-2.6-3.6-6.9-1.2-9.9c1.8-2.3,4.2-4.3,6.8-5.6c8.7-4.2,18-4.5,27.3-2.4c7.1,1.6,12.4,6.8,12.4,15.3
		C616,436.9,616,441.4,616,445.9C616,445.9,616,445.9,616,445.9z M598.2,452.2c0,0,0.1,0,0.1,0c0-0.7,0-1.3,0-2
		c0.1-8.2,0-8.2-7.4-4.3c-4.8,2.5-7,6.4-6.6,11.7c0.3,4.3,2.7,6.5,6.6,6.4c4.3-0.1,7.1-2.7,7.3-6.9
		C598.2,455.5,598.2,453.9,598.2,452.2z"/>
	<path class="st0" d="M876.5,441c-0.4,15.6-5.2,25-16.4,29.4c-9.7,3.8-19.8,4.4-29.6-0.3c-10.4-4.9-16.1-15.4-15.2-28
		c0.9-11.5,6.6-19.7,17.5-23.9c7.7-3,15.7-3.1,23.6-1C868.3,420.5,876.9,430.6,876.5,441z M834.3,445.9c0.8,4.6,1.3,10.2,2.8,15.6
		c1.6,5.7,5.9,8,11,6.8c4.1-1,5.9-4.1,7-7.7c2.2-7.6,2.6-15.4,1.5-23.2c-0.5-3.9-1.2-8-2.8-11.5c-3.1-6.5-11.3-6.8-15.3-0.8
		c-1.1,1.6-2,3.5-2.3,5.4C835.3,435.3,834.9,440.1,834.3,445.9z"/>
	<path class="st1" d="M665.8,281.9c0.1,9.9,0.2,19.8,0.2,29.7c0,0.5-0.6,1.1-0.9,1.6c-0.1-2.5-0.2-4.9-0.3-7.4
		c0-1.2-0.5-1.9-1.8-1.6c-5.7,0.7-11.3,1.3-16.8,2.9c-1.8,0.5-3.5,1.3-5.3,2c0,0,0,0,0,0c-2.4,0.6-4.8,1.2-7.1,1.8
		c-0.7,0.3-1.4,0.7-2.1,1c-1.3,0.4-2.5,0.8-3.8,1.2c-0.4,0.3-0.7,0.6-1.1,0.9c0,0,0,0,0,0c-0.6,0.1-1.2,0.1-1.8,0.2
		c-2.4,1.3-4.7,2.6-7.1,3.9c-1,0.3-1.9,0.7-2.9,1c-1.7,1-3.4,2-5.1,3c-1.4,1-2.7,2-4.1,2.9c-2.6,2-5.3,4-7.9,6.1l0,0
		c-0.7,0.3-1.4,0.6-2,0.9c-1,1-2,2-3.1,3c-0.6,0.7-1.3,1.4-1.9,2.1c-2.4,2-4.8,3.9-7.1,5.9c-1,1.3-1.9,2.7-2.9,4
		c-0.3,0.1-0.6,0.1-0.9,0.1c-2,0-3,1-3.1,3l0,0c-0.3,0.3-0.7,0.7-1,1c0,0,0,0,0,0c-0.3,0.4-0.7,0.7-1,1.1c0,0,0,0,0,0
		c-0.3,0.1-0.6,0.2-0.9,0.4c-0.6,0.3-1.1,0.7-1.6,1.1c0.1-0.6,0.1-1.4,0.4-1.9c1.3-2.6,2.6-5.2,4-7.8c3.9-4.3,7.4-8.9,11.7-12.8
		c7.5-6.8,15.6-12.8,24.4-17.8c13-7.3,26.7-12.4,41.2-15.3c1.6-0.3,3.2-0.7,4.9-0.9c5.6-0.7,5.5-0.7,5.8-6.4
		C665,287.7,665.5,284.8,665.8,281.9z"/>
	<path class="st2" d="M689.8,314.2c-0.6-0.8-1.6-1.7-1.7-2.5c-0.1-10.9-0.1-21.8-0.1-32.7c0.4,1.7,1,3.4,1,5.1
		c0.2,3.2,0.2,6.3,0,9.5c-0.2,2.7,1,3.2,3.5,3.3c12.8,0.8,24.9,4.7,36.7,9.6c16.1,6.8,30,16.8,42.2,29.3c1.9,2,3.7,4,5.6,6
		c-0.4,1.1-0.9,2.2-1.3,3.3c-2.6-2.1-5.2-4.1-7.7-6.2c-1.1-1.3-2.1-2.6-3.2-3.8c-1.3-1-2.6-2.1-3.9-3.1c-12.1-9.5-25.4-16.8-39.9-22
		c-2-0.6-4.1-1.3-6.1-1.9c-4.6-1-9.2-2-13.9-3c-0.7,0-1.4,0-2.1,0c-1.6-0.3-3.3-0.7-4.9-1c-0.9-0.3-1.8-0.8-2.7-0.8
		c-0.7,0-1.4,0.6-2.1,0.9c0.2,0.6,0.5,1.3,0.7,1.9c0,1.3,0,2.6,0,3.8C689.9,311.3,689.9,312.8,689.8,314.2z"/>
	<path class="st3" d="M671.2,345.3c3.8,0.2,7.6,0.5,11.4,0.7c-0.2,2.7-0.4,5.3-0.6,8c-0.2,1.4-0.5,2.7-0.7,4.1
		c-0.1,2.3-0.2,4.6-0.3,6.8c-0.3,2.4-0.5,4.8-0.8,7.1c0,1.9,0,3.9,0,5.8c-0.3,1.4-0.6,2.7-0.9,4.1c-0.4,6.6-0.8,13.3-1.3,19.9
		c-0.6,0.7-1.3,1.4-1.9,2.1c-0.7-9.7-1.4-19.3-2.1-29c-0.3-2-0.6-4-0.9-6c-0.3-3.7-0.6-7.4-0.9-11.1c-0.1-1.3-0.1-2.7-0.2-4
		C671.6,351.1,671.4,348.2,671.2,345.3z"/>
	<path class="st4" d="M557.1,403c0-0.4,0-0.7,0-1.1c8.7,0,17.3,0,26,0.1c2.3,0,4.1-0.5,5.7-2.3c2.6-2.8,5.5-5.3,8.1-8.2
		c1.8-2.1,3.9-2.7,6.6-2.7c13.7,0.1,27.3,0.1,41,0c1.5,0,3.1-0.6,4.6-0.9c1.7-1.6,3.3-3.3,5-4.9c1.1-0.7,2.7-1.1,3.2-2.1
		c1.5-2.9,3.8-3.3,6.6-3.1c2,0.1,4-0.1,5.9,0.1c0.7,0,1.3,0.6,2,0.9c-0.6,0.7-1.1,1.7-1.8,1.9c-1.1,0.3-2.3,0.3-3.4,0.1
		c-3.7-0.7-6.2,1-8.6,3.6c-2.1,2.3-4.5,4.3-6.8,6.4c-15.2,0-30.3,0-45.5,0c-1.5,0-3,0.7-4.5,1c-3.7,3.8-7.4,7.6-11,11.5
		c-1.5,1.6-3.2,1.5-5,1.5c-9,0-18,0-26.9,0.1C557.7,404.4,557.4,403.7,557.1,403z M569.4,404C569.4,404,569.4,404,569.4,404
		c3,0,6,0,9,0c0.3,0,0.6-0.2,0.9-0.3c-0.3-0.2-0.6-0.6-0.9-0.6c-5.8,0-11.6,0-17.4,0c-0.4,0-0.9,0.3-1.3,0.5
		c0.4,0.2,0.9,0.5,1.3,0.5C563.8,404,566.6,404,569.4,404z"/>
	<path class="st5" d="M748.8,404.9c-0.3,0.3-0.6,0.7-0.9,1c-0.3,0.4-0.6,0.7-0.9,1.1l0,0c-0.3,0-0.7,0-1,0c-1.5-0.3-3-1-4.6-1
		c-26.3-0.1-52.5,0-78.8,0c-1,0-2,0-3,0c-0.3,0-0.6,0.2-0.9,0.3c0.3,0.2,0.6,0.6,1,0.6c1.3,0.1,2.7,0,4,0c27.4,0,54.9,0,82.3,0
		c0.1,0.4,0.2,0.8,0.2,1.2l-0.1-0.1c-28.2,0-56.4,0-84.7-0.2c-2.1,0-3.2,1.1-4.7,2.1c-2.6,1.7-4.7,1.2-6.4-1.2c-1.3-2-0.8-4.4,1.3-6
		c2-1.5,4.1-1.1,5.4,0.4c1.6,1.8,3.3,1.8,5.3,1.8c4.5,0,9,0,13.4-0.1c0.7,0,1.5,0,2.2,0c3.2,0,6.3,0,9.5,0c3,0,6.3,0.8,8.9-0.2
		c3.1-1.1,5.6,0.3,8.4,0.2C719.5,404.9,734.2,405,748.8,404.9z"/>
	<path class="st6" d="M641.2,417.2c-3.2,0.3-6.4,0.9-9.6,0.8c-3.1-0.1-4,1.3-3.8,4c-0.3-0.4-0.7-1-1-1c-4.5,0.2-7.8-4.1-12.5-3.1
		c-3.6,0.8-6.4-0.6-8.6-3.5c-0.5-0.7-1.2-1.2-1.7-1.8c-5-5-5-5,0.8-9.7c0.4-0.3,0.7-0.7,1.1-1c0,0,0,0,0,0c0.3-0.3,0.7-0.7,1-1l0,0
		c0.7,0.4,1.4,0.7,2.1,1.1c0,0,0,0,0,0c-0.3,0.3-0.7,0.7-1,1c0,0,0,0,0,0c-0.3,0.4-0.7,0.7-1,1.1c-2.9,3.6-2.8,3.5,0.6,7.2
		c3.7,4,8,3.4,12.4,1.8c2.6-1.6,5.3-1.5,8-0.1c1.7,4,1.7,4,5.8,4C636.3,417,638.8,417.1,641.2,417.2z"/>
	<path class="st7" d="M576.9,343.8c-1.3,2.6-2.7,5.1-4,7.8c-0.3,0.6-0.3,1.3-0.4,1.9c0.5-0.4,1.1-0.8,1.6-1.1
		c0.3-0.2,0.6-0.2,0.9-0.4c-1.7,2.6-3.4,5.3-5.1,7.9c-0.6,1.1-1.2,2.1-1.8,3.2c-1.4,2.3-2.8,4.5-4.3,6.8c-1,1.7-1.9,3.4-2.9,5.1
		c-1.3,3-2.6,5.9-3.8,8.9c-0.4,1-0.8,2.1-1.2,3.1c-0.8,2.1-1.8,4.2-2.3,6.4c-0.1,0.4,2,1.3,3.1,1.9c-2.4-1.1-4.5,0-6.7,0.9
		c3.4-12.1,7.8-23.8,14.3-34.6C568.1,355.4,572.7,349.7,576.9,343.8z"/>
	<path class="st8" d="M775.8,345.1c0.4-1.1,0.9-2.2,1.3-3.3c1.8,2.1,3.9,4,5.5,6.3c6.1,8.4,12,17,15.4,26.9c-0.3,0.7-0.6,1.3-1,2
		c-0.9-1.4-1.9-2.7-2.8-4.1c-0.1-0.3-0.2-0.6-0.2-1c-0.7-1-1.4-2-2.1-2.9c-1-2-2-3.9-3-5.9c-0.7-0.7-1.3-1.4-2-2.1
		c-0.5-1-0.8-2.1-1.4-3C782.3,353.7,779,349.4,775.8,345.1z"/>
	<path class="st9" d="M609,402c-0.7-0.4-1.4-0.7-2.1-1.1c2.2-3.7,5.2-5.3,9.7-5.1c6.1,0.4,12.2,0.1,18.3,0.1c0.4,0,0.7,0,1.1,0
		c0.3,1.3,0.7,2.7,1,4c-0.3,0.3-0.7,0.7-1,1c-0.8-1.9-2.4-2-4.1-2c-4.6,0-9.3,0.2-13.9-0.1C614.4,398.7,611.5,399.5,609,402z"/>
	<path class="st10" d="M671.4,391.4c-0.5,0.1-1,0.4-1.6,0.4c-0.9,0.1-2.4-0.3-2.5,0c-1.5,3.4-4.7,2.1-7.2,2.6
		c-0.8,0.2-2.3-2.1-2.2,0.7c-1-0.1-2.1-0.3-3.1-0.4c0.5-0.5,1-1,1.5-1.5c3-2.8,5.6-6,10.1-6.6c0.7-0.1,1.2-1.4,1.9-2.2
		c0.5,0.9,3.3-1.7,2.5,1.7C670.2,387.6,671.1,389.4,671.4,391.4z"/>
	<path class="st11" d="M790.1,498.6c0-0.5,0-1,0-1.5c0.2-1.9,0-5.3,0.7-5.5c2.6-0.7,5.5-0.4,8.3-0.4c0.2,0,0.5,0.7,0.6,1.1
		c0,0.2-0.4,0.6-0.6,0.6c-1.5,0.1-3,0.2-4.5,0.1c-1.9-0.1-2.6,0.6-2.6,2.6c0,2.1,1.1,2.3,2.8,2.5c1.6,0.1,3.6-1,4.8,1.1
		c-1.5,0.3-3,0.8-4.5,0.8c-1.9,0-3.1,0.3-3,2.7c0.1,2.2,1.2,2.3,2.9,2.3c1.9,0.1,3.7,0.5,5.6,0.8c-1.4,2.5-3.8,0.7-5.7,1.2
		c-0.8,0.2-1.7,0-2.5,0c-1.8,0.1-2.3-0.8-2.2-2.5C790.2,502.6,790.1,500.6,790.1,498.6z"/>
	<path class="st12" d="M579.8,498.9c0,0.7,0.1,1.4,0,2c-0.4,1.9,1.2,4.3-1.1,5.8c-0.3-1.7-0.4-3.4-1-5c-0.2-0.7-1.2-1.4-1.9-1.6
		c-1.1-0.3-2.3,0-3.5-0.1c-2.3-0.2-3.5,0.5-3.2,3c0.1,1,0,2-0.1,3c0,0.3-0.5,0.7-0.6,0.7c-0.4-0.1-1.1-0.4-1.1-0.7
		c-0.1-4.6-0.1-9.3-0.1-13.9c0-0.3,0.7-0.8,1-0.8c0.3,0,0.6,0.6,0.8,0.9c0.1,0.3,0.1,0.7,0.1,1c0.4,4.8,0.4,4.8,5,4.7
		c3.2-0.1,3.1-0.1,3.8-5c0.1-0.6,0.7-1.1,1.1-1.7c0.3,0.5,0.8,1.1,0.8,1.6C579.9,494.9,579.8,496.9,579.8,498.9
		C579.8,498.9,579.8,498.9,579.8,498.9z"/>
	<path class="st13" d="M515,498.6c0-0.2,0-0.3,0-0.5c0-7.6,1.2-7.6,8.5-7.1c0.5,0.1,0.8,0.7,1.2,1.1c-0.4,0.3-0.7,0.7-1.1,0.7
		c-1.5,0.1-3,0.1-4.5,0.1c-1.9-0.1-2.2,0.9-2.2,2.5c0,1.5,0.3,2.4,2.1,2.6c1.7,0.3,4.8-1.1,4.7,1.1c-0.1,1.6-3.1,0.7-4.6,0.8
		c-1.8,0-2.2,0.8-2.3,2.4c-0.1,1.9,0.6,2.8,2.6,2.6c1.3-0.1,2.7-0.1,4,0.1c0.5,0.1,0.9,0.7,1.3,1c-0.5,0.3-1,0.8-1.5,0.8
		C515,507,515,506.7,515,498.6z"/>
	<path class="st13" d="M685,499c0-0.5,0-1,0-1.5c0.2-2.1,0.4-4.2,0.6-6.2c2.8-0.1,5.6-0.2,8.4-0.2c0.2,0,0.7,0.8,0.6,1
		c-0.1,0.3-0.7,0.7-1,0.7c-1.5,0.1-3,0.2-4.5,0.1c-1.8-0.1-2.2,0.9-2.2,2.5c0,1.5,0.2,2.6,2.1,2.5c1.3-0.1,2.7,0,4,0.1
		c0.3,0,0.8,0.6,0.8,0.9c0,0.3-0.6,0.8-0.9,0.8c-1.1,0.1-2.3,0.2-3.5,0.1c-2.1-0.2-2.5,0.9-2.5,2.7c0,1.7,0.6,2.3,2.3,2.4
		c1.9,0.1,3.7,0.5,5.5,0.8c-1.5,2.4-3.8,1-5.7,1.1c-4,0.2-4.1,0-4.1-3.9C685,501.7,685,500.4,685,499z"/>
	<path class="st14" d="M636,396c-0.4,0-0.7,0-1.1,0c0.5-0.7,1-1.3,1.4-2c0.8-1.2,0.3-1.8-1-1.9c-1-0.1-2,0-3,0
		c-10.5,0-20.9,0-31.4,0c1.5-0.4,3-1,4.5-1c15.2-0.1,30.3,0,45.5,0c-2,0.3-4,0.7-6.1,1c-1.5,0.2-2.4,0.6-1.2,2.1
		c1.9,2.3,1.5,4.5,0.2,6.9c-0.3-0.3-0.7-0.7-1-1c1.2-1.9,1.4-3.6-0.6-5.1c-1.8-1.4-3.5-1.3-5.2,0.3C636.9,395.5,636.4,395.7,636,396
		z"/>
	<path class="st15" d="M673,369c0.3,2,0.6,4,0.9,6c-0.3-0.7-0.5-1.4-0.9-2.1c-0.2-0.5-0.6-1.3-0.9-1.3c-4.6,0.2-9.1,0.5-13.7,0.8
		c-0.4,0-0.8,0.5-1.2,0.8c-0.1-0.4-0.2-0.8-0.3-1.2c0.1-1.7,0.2-3.3,0.2-5c2.1,0.4,4.1,0.8,6.2,1.1C666.5,368.4,669.8,368.7,673,369
		z"/>
	<path class="st16" d="M548.5,507c-4.5,0.1-7.6-2.2-8.8-5.7c-1-2.8,0.1-6.5,2.5-8.4c3-2.3,6.3-2.6,9.2-0.6c0.5,0.3,0.5,1.2,0.8,1.8
		c-0.6,0-1.2,0.1-1.7,0c-1.6-0.3-3.2-1.1-4.7-0.8c-3.2,0.6-5.2,4.2-4.3,7.2c0.9,3.1,4.3,5.1,7.4,4.3c0.9-0.3,1.7-1.1,2.6-1.4
		c0.3-0.1,0.8,0.4,1.1,0.7c0.1,0.1,0,0.7-0.1,0.8C550.8,505.8,549.2,506.6,548.5,507z"/>
	<path class="st17" d="M660.9,494c0.9,2.5,1.9,4.9,2.8,7.4c0.2,0.5,0.5,0.9,0.7,1.3c0.4-0.4,1.1-0.8,1.3-1.4c1.1-2.8,2-5.6,3.2-8.3
		c0.3-0.8,1.1-1.3,1.7-1.9c0,0.8,0.3,1.7,0.1,2.4c-1.4,3.9-2.9,7.7-4.4,11.5c-0.3,0.7-0.9,1.2-1.4,1.8c-0.7-0.6-1.7-1.1-2-1.9
		c-1.1-2.9-2.1-5.9-3.1-8.8C660.3,495.4,660.6,494.7,660.9,494z"/>
	<path class="st18" d="M738.7,491.1c1.7,0,3.3,0,5,0c0.3,0,0.9,0.5,0.9,0.9c0,0.3-0.4,0.8-0.8,0.9c-1.2,0.4-3.1,0.2-3.6,1
		c-0.6,1.2-0.3,2.9-0.3,4.4c0,2.3,0,4.6-0.1,7c0,0.5-0.6,1-0.9,1.5c-0.3-0.4-1-0.9-1-1.3c-0.1-2.8-0.2-5.6,0-8.4
		c0.1-2.5-0.1-4.3-3.3-3.9c-0.6,0.1-1.4-0.5-2.1-0.8c0.7-0.4,1.5-1,2.2-1.2C736,490.8,737.3,491,738.7,491.1
		C738.7,491,738.7,491,738.7,491.1z"/>
	<path class="st19" d="M640.9,505.2c-2.1-2.9-4.2-5.8-6.3-8.7c-0.3-0.4-0.7-0.6-1.1-0.9c-0.2,0.5-0.6,1-0.6,1.5
		c-0.1,2.5,0.1,4.9-0.1,7.4c0,0.8-0.6,1.6-0.9,2.4c0-3.6,0.3-7.2-0.1-10.8c-0.2-2.2,1.6-2.2,2.3-3.3c2.1,3,4.2,5.9,6.3,8.9
		c0.3,0.4,0.8,0.5,1.2,0.8c0.1-0.4,0.4-0.9,0.4-1.3c0-2.5-0.1-5,0.1-7.5c0-0.8,0.6-1.6,0.9-2.5c0,3-0.2,6,0,8.9
		C643.2,502.2,642.6,503.9,640.9,505.2z"/>
	<path class="st11" d="M849.1,491c0.8,0,1.7-0.1,2.5,0c1,0.2,2.1,0.5,3.1,0.8c-0.9,0.4-1.8,1.1-2.7,1.2c-1.9,0.1-2.2,1-2.1,2.6
		c0,3.1,0.1,6.3-0.1,9.4c0,0.6-0.7,1.2-1.1,1.7c-0.3-0.5-0.7-1-0.8-1.6c-0.1-3-0.2-6,0-9c0.1-2.3-0.5-3.4-3-3.2
		c-0.6,0-1.2-0.7-1.8-1c0.7-0.3,1.3-0.8,2-0.9C846.5,490.9,847.8,491,849.1,491z"/>
	<path class="st20" d="M495.2,491c0.8,0,1.7-0.1,2.5,0c1,0.2,2.1,0.5,3.1,0.8c-0.9,0.4-1.8,1.1-2.7,1.2c-1.9,0.1-2.1,1.1-2.1,2.6
		c0,3.3,0,6.6-0.1,10c0,0.4-0.7,0.8-1.1,1.2c-0.3-0.4-0.7-0.7-0.7-1.1c-0.1-3.2-0.2-6.3,0-9.5c0.1-2.3-0.5-3.4-3-3.2
		c-0.6,0.1-1.2-0.7-1.8-1c0.7-0.3,1.3-0.8,2-0.9C492.5,490.9,493.9,491,495.2,491z"/>
	<path class="st21" d="M825,502c0.8,0.2,1.9,1.4,1.9-0.7c0-3,0-6,0.1-8.9c0-0.4,0.4-0.8,0.7-1.1c0.4,0.4,1.1,0.8,1.1,1.2
		c0.1,4.1,0.1,8.3,0,12.4c0,0.7-0.5,1.7-1,1.9c-0.6,0.2-1.6-0.3-2.1-0.8c-0.8-0.8-1.2-1.9-1.8-2.9C824.3,502.7,824.6,502.4,825,502z
		"/>
	<path class="st22" d="M770.8,494.7c0.4-1.1,0.5-2.3,1.2-3.2c1-1.2,2.7-0.6,2.8,1c0.1,4.3,0.1,8.6,0,13c0,0.4-0.8,0.8-1.2,1.2
		c-0.2-0.4-0.6-0.8-0.6-1.2c-0.1-3.2-0.1-6.3-0.1-9.5c0-0.1-0.2-0.3-0.2-0.3c-0.3,0-0.5,0.1-0.8,0.2
		C771.5,495.5,771.2,495.1,770.8,494.7z"/>
	<path class="st13" d="M819.1,496c-0.3-0.4-0.7-0.7-1-1.1c-0.3,0.3-0.9,0.6-0.9,0.9c-0.1,3.2,0,6.3-0.1,9.5c0,0.5-0.6,0.9-0.9,1.4
		c-0.3-0.5-0.9-1-0.9-1.5c-0.1-4-0.1-8,0-12c0-0.7,0.6-2,0.9-2c0.9,0.1,1.9,0.4,2.5,1c0.7,0.7,1,1.7,1.5,2.5c0,0.4-0.1,0.8-0.1,1.1
		l0,0C819.7,496,819.4,496,819.1,496z"/>
	<path class="st23" d="M652,374.9c-1.3-2.2-4.1-4.1-1.9-7.2c1-1.5,2.2-3.1,3,0.2c0,0.1,0.7,0.1,0.8,0c0.2-0.2,0.2-0.6,0.2-0.9
		c0.3,1.3,0.6,2.7,0.9,4c-0.1,1.4-0.1,2.7-0.2,4.1C653.9,375.1,653,375,652,374.9z"/>
	<path class="st24" d="M628,413c-2.7-1.4-5.3-1.6-8,0.1c0-1,0-2,0-2.9c0-1.4,0.5-2.2,2-2.1c0.2,0,0.3,0,0.5,0
		C627.8,407.5,627.9,407.7,628,413z"/>
	<path class="st25" d="M615,499.3c0,2,0.1,4,0,6c0,0.5-0.5,1-0.8,1.5c-0.4-0.4-1-0.9-1-1.3c-0.1-4.3-0.1-8.6,0-12.9
		c0-0.4,0.7-0.8,1-1.3c0.3,0.5,0.8,1,0.8,1.5C615.1,495,615,497.1,615,499.3z"/>
	<path class="st26" d="M871.9,499.1c-2.2-0.3-3.9-1.5-3.7-3.8c0.2-1.3,1.5-2.9,2.7-3.7c1.9-1.2,4.1-1,5.9,0.6
		c0.3,0.3,0.4,0.8,0.5,1.3c-0.4,0.1-0.9,0.3-1.3,0.4c-0.3,0-0.6-0.2-0.9-0.4c-2-1.1-3.8-0.5-4.7,1.2c-1.1,2.2,1.3,2.5,2.5,3.4
		C872.6,498.5,872.3,498.8,871.9,499.1z"/>
	<path class="st27" d="M718,500c2,2.2,1.5,4.2-0.5,5.9c-1.7,1.6-4.9,1.6-6.9,0.1c-0.5-0.4-0.7-1.2-1.1-1.9c0.7,0,1.4-0.2,2,0
		c4,1.4,4.8,0.9,5.4-3.1C717.3,500.7,717.7,500.3,718,500z"/>
	<path class="st28" d="M770.8,494.7c0.3,0.4,0.7,0.8,1,1.2c-1.2,2.9-2.3,5.7-3.6,8.6c-0.4,0.8-1,1.5-1.5,2.3
		c-0.6-0.9-1.2-1.7-1.8-2.6c-0.2-0.2-0.1-0.6-0.1-1c0.4-0.4,0.7-0.8,1.1-1.2c0.6-0.2,1.5-0.2,1.7-0.6
		C768.8,499.2,769.8,497,770.8,494.7z"/>
	<path class="st12" d="M710.9,498c-1.9-3.2-1.9-4.1,0.1-5.8c2.1-1.8,5.5-1.7,7.3,0.1c0.2,0.2,0.4,0.7,0.3,0.9
		c-0.3,0.3-0.8,0.7-1.1,0.7c-1-0.2-1.9-0.8-2.8-0.7c-2.2,0.2-3.9,1.1-2.7,3.9C711.6,497.4,711.3,497.7,710.9,498z"/>
	<path class="st29" d="M876.9,500c1.8,2.2,1.7,4.2-0.7,5.9c-2.4,1.6-5.5,1.5-7.3-0.4c-0.3-0.3-0.3-0.8-0.4-1.2
		c0.5-0.1,1-0.3,1.4-0.2c0.6,0.1,1.2,0.7,1.8,0.8c2.8,0.5,3.6-0.2,4.2-3.7C876.2,500.8,876.6,500.4,876.9,500z"/>
	<path class="st21" d="M762,496.1c-0.6,0.1-1.7,0.2-1.7,0.3c-0.1,3-0.1,6-0.1,9c0,0.4-0.4,0.8-0.6,1.3c-0.2-0.4-0.6-0.8-0.6-1.2
		c-0.1-4.2-0.1-8.3,0-12.5c0-0.6,0.6-1.7,1.1-1.8c0.5-0.1,1.5,0.5,1.9,1c0.5,0.8,0.7,1.8,1,2.8C762.6,495.4,762.3,495.7,762,496.1z"
		/>
	<path class="st30" d="M797,377c0.3-0.7,0.6-1.3,1-2c1.7,4,3.3,8,5,12c-0.3,0.3-0.7,0.7-1,1c-0.3,0-0.7-0.1-1-0.1
		C799.7,384.3,798.3,380.7,797,377z"/>
	<path class="st31" d="M634.2,492.8c-0.7,1.1-2.5,1.1-2.3,3.3c0.4,3.6,0.1,7.2,0.1,10.8c-0.3-0.3-0.9-0.6-0.9-0.9
		c-0.1-4.3-0.1-8.7,0-13c0-0.6,0.7-1.2,1.1-1.9C632.8,491.6,633.5,492.2,634.2,492.8z"/>
	<path class="st25" d="M640.9,505.2c1.7-1.3,2.3-2.9,2.2-5.1c-0.2-3,0-5.9,0-8.9c0.4,0.6,1,1.2,1,1.9c0.1,3.8,0.1,7.6,0,11.4
		c0,0.8-0.6,1.6-1,2.4C642.3,506.3,641.6,505.7,640.9,505.2z"/>
	<path class="st32" d="M802,388c0.3-0.3,0.7-0.7,1-1c1.3,2.7,2.6,5.5,3.8,8.2c-1.9,0-3.8,0-5.7,0c0.8-1.3,2.7-2.3,0.8-4.1
		C801.9,390.1,802,389.1,802,388z"/>
	<path class="st33" d="M654.8,375.1c0.1-1.4,0.1-2.7,0.2-4.1c0.6,0.3,1.2,0.6,1.8,1c0.1,0.4,0.2,0.8,0.3,1.2c0,0.7-0.1,1.3-0.2,2
		c-0.3,1.5-0.6,3.1-0.8,4.6C653.9,378.7,655.4,376.6,654.8,375.1z"/>
	<path class="st34" d="M643,400c0.3,0.3,0.7,0.7,1,1c-3.1,2.9-4.9,2.9-8,0c0.3-0.3,0.7-0.7,1-1C639,401.3,641,401.3,643,400z"/>
	<path class="st35" d="M825,502c-0.3,0.3-0.7,0.7-1,1c-0.7-1-1.3-1.9-2-2.9c-0.3-0.4-0.6-0.8-0.9-1.1c-0.4-0.6-0.7-1.2-1.1-1.8
		c0-0.4,0-0.8,0.1-1.2l0,0c0.3,0,0.7,0,1,0l0,0c0.3,0.3,0.6,0.6,0.8,1C822.9,498.7,823.9,500.3,825,502z"/>
	<path class="st36" d="M766,502c-0.4,0.4-0.7,0.8-1.1,1.2c-0.9-2.1-1.8-4.2-2.7-6.3c0.3-0.4,0.7-0.8,1-1.2
		C764.1,497.9,765,499.9,766,502z"/>
	<path class="st37" d="M876.9,500c-0.3,0.4-0.6,0.7-1,1.1c-1.3-0.7-2.7-1.4-4-2.1c0.3-0.3,0.7-0.6,1-0.9
		C874.3,498.8,875.6,499.4,876.9,500z"/>
	<path class="st38" d="M710.9,498c0.4-0.3,0.7-0.7,1.1-1c1.4,0.6,2.7,1.3,4.1,1.9c-0.4,0.3-0.7,0.6-1.1,1
		C713.7,499.3,712.3,498.7,710.9,498z"/>
	<path class="st38" d="M660.9,494c-0.3,0.7-0.7,1.4-1,2.1c-0.4-0.9-0.9-1.7-1.2-2.6c-0.2-0.7,0-1.6,0.1-2.4c0.6,0.6,1.2,1.3,1.8,1.9
		C660.9,493.3,660.9,493.7,660.9,494z"/>
	<path class="st39" d="M557.1,403c0.3,0.7,0.6,1.4,0.9,2.1c-0.3,1.3-0.6,2.6-0.9,4C557.1,407,557.1,405,557.1,403z"/>
	<path class="st40" d="M678.1,405c-0.7,0-1.5,0-2.2,0c0-0.3,0.1-0.6,0.1-0.9c0.6-0.7,1.3-1.4,1.9-2.1C678,402.9,678,404,678.1,405z"
		/>
	<path class="st38" d="M715,499.9c0.4-0.3,0.7-0.6,1.1-1c0.6,0.3,1.3,0.7,1.9,1c-0.4,0.4-0.7,0.7-1.1,1.1
		C716.3,500.7,715.7,500.3,715,499.9z"/>
	<path class="st41" d="M678.1,232c-0.7-0.3-1.3-0.6-2-0.9c0.4-0.5,0.8-1,1.2-1.5C677.6,230.3,677.8,231.2,678.1,232z"/>
	<path class="st25" d="M763.1,495.8c-0.3,0.4-0.7,0.8-1,1.2c-0.2-0.3-0.2-0.6-0.2-0.9c0.3-0.3,0.6-0.7,0.9-1
		C763,495.2,763.1,495.5,763.1,495.8z"/>
	<path class="st37" d="M821,496c-0.3,0-0.7,0-1,0c0-0.4,0.1-0.8,0.1-1.1C820.4,495.2,820.7,495.6,821,496z"/>
	<path class="st9" d="M607,404.1c0.3-0.4,0.7-0.7,1-1.1C607.7,403.4,607.4,403.7,607,404.1z"/>
	<path class="st37" d="M820,496c0,0.4,0,0.8-0.1,1.2c-0.3-0.4-0.6-0.8-0.9-1.2C819.4,496,819.7,496,820,496z"/>
	<path class="st37" d="M821.8,497c-0.3-0.3-0.6-0.6-0.8-1C821.3,496.3,821.6,496.6,821.8,497z"/>
	<path class="st9" d="M607,401c-0.3,0.3-0.7,0.7-1,1C606.3,401.6,606.6,401.3,607,401z"/>
	<path class="st9" d="M606,402c-0.4,0.3-0.7,0.7-1.1,1C605.3,402.6,605.6,402.3,606,402z"/>
	<path class="st9" d="M608,403c0.3-0.3,0.7-0.7,1-1C608.7,402.4,608.4,402.7,608,403z"/>
	<path class="st37" d="M821,499c0.3,0.4,0.6,0.8,0.9,1.1C821.6,499.8,821.3,499.4,821,499z"/>
	<path class="st5" d="M635,381c-6.7,0-13.3-0.2-20,0c-2.6,0.1-4.4-0.7-6.1-2.6c-2.5-2.7-5.1-5.3-7.7-7.8c-1.2-1.2-1.2-2.2,0-3.3
		c2.4-2.3,4.5-4.9,7.2-7c1.3-1,3.3-1.2,5-1.3c3.1-0.2,6.3,0.5,8.8-2.3c0.6-0.7,3-0.5,4,0.1c1.6,1,3.5,2.3,2.6,4.8
		c-0.3,0.8-0.5,1.6-0.7,2.4c-2.9,1.5-5.6,1.8-8-0.9c-6-2.5-12.4-0.5-15.1,4.8c-0.2,0.5,0.1,1.6,0.5,2c2.3,2.4,4.6,4.8,7,7
		c0.7,0.6,1.7,1.1,2.6,1.1c6.3,0.1,12.6,0,18.9,0c0.4,0,0.8-0.5,1.1-0.8c0.3,0.3,0.7,0.7,1,1c0,0.6,0,1.3,0,1.9
		C635.7,380.3,635.3,380.7,635,381z"/>
	<path class="st42" d="M591,337.1c0.6-0.7,1.3-1.4,1.9-2.1c1.4,1.6,3,3.1,4.3,4.8c2.1,2.7,4.8,3.4,8.2,3.4c13.2-0.2,26.5,0,39.8-0.1
		c2.6,0,4.9,0.3,6.9,2c0.4,1.4,0.7,2.8,1.1,4.2c-0.1,0.3-0.2,0.7-0.3,1c-4-3.6-8.9-3.3-13.9-3.3c-11.6,0.1-23.2,0-34.8,0.1
		c-2.7,0-4.7-0.6-6.5-2.7C595.6,341.8,593.3,339.5,591,337.1z"/>
	<path class="st43" d="M600,387c-0.7,0.3-1.6,1-2.2,0.9c-2.9-0.5-4.7,1.2-6.3,3.2c-1.9,2.4-4.3,3.3-7.4,3.1c-3.8-0.3-7.6-0.3-11.4,0
		c-3.1,0.2-5.5-0.7-7.3-3.2c-2.4-3.2-5.4-4.7-9.4-4c0.4-1,0.8-2.1,1.2-3.1c3.9-0.4,7.1,0.9,9.4,4.1c1.8,2.5,4.2,3.4,7.3,3.1
		c3.3-0.3,6.6,0,9.9-0.1c3.5-0.1,7.6-3.7,8.2-7.2c0.7-4,2.8-5.6,5.9-4.8c2.4,0.7,3.5,3.6,2.6,7C600.3,386.4,600.1,386.7,600,387z"/>
	<path class="st5" d="M581,346.9c1-1.3,1.9-2.7,2.9-4c3.6,1.2,6.4,3.6,9,6.3c1,1,2.8,1.4,4.3,1.7c2.8,0.7,4.3,2.7,3.8,5.4
		c-0.4,2.6-3,4.5-5.5,3.5c-1.4-0.6-2.9-2.3-3.3-3.8C590.1,349,588.1,347.2,581,346.9z"/>
	<path class="st44" d="M652.9,350.2c0.1-0.3,0.2-0.7,0.3-1c1.6,0.2,3.1,0.5,4.7,0.7l0.3,0.3c0,2-0.1,4-0.1,6
		c-0.3,3.6-0.7,7.2-1,10.8c-0.1,1.7-0.2,3.3-0.2,5c-0.6-0.3-1.2-0.6-1.8-1c-0.3-1.3-0.6-2.7-0.9-4
		C653.7,361.4,653.3,355.8,652.9,350.2z"/>
	<path class="st45" d="M568.1,363.1c0.6-1.1,1.2-2.1,1.8-3.2c1.7,0.9,3.5,1.6,5.2,2.6c3.3,1.9,4.2,4.8,3.9,8.4c-0.3,3.3-1.3,6.2-5,7
		c-0.7-0.3-1.4-0.7-2.1-1c1-0.8,2.1-1.6,3-2.5c3-3.1,2.7-6.7-0.5-9.4C572.7,363.5,570.6,362.7,568.1,363.1z"/>
	<path class="st46" d="M620,363c2.4,2.8,5.1,2.4,8,0.9c0,0.2,0,0.3,0,0.5c-0.1,4.5-0.1,4.5-3.5,4.5c-3.9,0-4.3-0.3-4.5-4.5
		C620,364,620,363.5,620,363z"/>
	<path class="st9" d="M572,377c0.7,0.3,1.4,0.7,2.1,1c-3.5,1.8-6.8,1.8-9.8-1.2c-0.9-0.8-2.2-1.3-3.3-1.9c1-1.7,1.9-3.4,2.9-5.1
		C564.3,375.2,566,376.7,572,377z"/>
	<path class="st47" d="M635,381c0.3-0.3,0.7-0.7,1-1c3.7,3.7,4.3,3.7,8,0c0.3,0.3,0.7,0.7,1,1c-0.6,0.8-1.1,1.7-1.8,2.3
		c-2.5,2.3-3.8,2.3-6.4,0C636.1,382.7,635.6,381.8,635,381z"/>
	<path class="st48" d="M636,378c-0.3-0.3-0.7-0.7-1-1c3.6-4.4,6.4-4.4,9.9,0c-0.3,0.3-0.7,0.7-1,1C640.1,375.2,640,375.1,636,378z"
		/>
	<path class="st7" d="M577,350c0-2,1-3,3.1-3C579,348,578,349,577,350z"/>
	<path class="st49" d="M644,378c0.3-0.3,0.7-0.7,1-1c0,1.3,0,2.6,0,3.9c-0.3-0.3-0.7-0.7-1-1C644,379.3,644,378.7,644,378z"/>
	<path class="st7" d="M575.1,352.1c0.3-0.4,0.7-0.7,1-1.1C575.7,351.4,575.4,351.7,575.1,352.1z"/>
	<path class="st7" d="M576,351c0.3-0.3,0.7-0.7,1-1C576.7,350.3,576.3,350.7,576,351z"/>
	<path class="st50" d="M615.1,319.1c2.1,5.2,5.9,8,11,8c6.7,0,13.3,0.1,20-0.1c2.3-0.1,4.2,0.6,5.9,2c0,1.4,0,2.7,0,4.1
		c-2.4-2.6-5.4-3.2-8.9-3.1c-6.3,0.2-12.5-0.1-18.8,0.1c-2.7,0.1-4.7-0.7-6.5-2.7c-1.2-1.4-2.4-2.8-3.9-3.8c-1.1-0.8-2.6-1-3.9-1.5
		C611.7,321,613.4,320.1,615.1,319.1z"/>
	<path class="st51" d="M641,309.1c-0.1,0.2-0.1,0.3-0.2,0.5c-1.1,1.7-2.3,3.3-3.4,5c2.1,0.2,4.2,0.4,6.3,0.5c3.8,0.1,7.6,0,11.3,0
		c0,0.4,0.1,0.8,0.1,1.2c-0.7,1.7-1.3,3.3-2,5c0.3-2.8-1.3-3.2-3.6-3.1c-10.5,0.1-21,0-31.4,0c2.4-1.3,4.7-2.6,7.1-3.9
		c0.6,0.3,1.3,0.6,1.9,0.9c1.3,0,2.7,0,4,0c0.3-0.3,0.7-0.6,1-0.9c0.3-0.3,0.7-0.6,1-1c0.8-0.5,2.4-0.7,0.9-2.2
		C636.3,310.2,638.7,309.7,641,309.1z"/>
	<path class="st50" d="M702,328c1.1-0.3,2.2-0.9,3.2-0.9c6.7-0.1,13.5-0.1,20.2,0c1.3,0,2.7,0.9,3.8,1.7c1.3,0.9,2.5,2.1,3.7,3.2
		c0.3,0.7,0.7,1.3,1,2c-0.7,1.3-1.3,2.7-2,4c-0.3,0.3-0.6,0.6-1,1c-0.2-6.7-2.5-8.9-9.3-8.9c-6.6,0-13.1,0-19.7,0
		C702,329.3,702,328.7,702,328z"/>
	<path class="st52" d="M699,315c2.2,0,4.3,0,6.5,0c4.7,0,7.4-2,9.4-6.9c2,0.6,4.1,1.3,6.1,1.9c-2-0.3-3.6,0.7-4.6,2.2
		c-3,4.4-6.9,6.9-12.4,5.8c-2.6-0.5-3,1.1-3.1,3.1c-0.3-0.4-0.6-0.8-0.9-1.2c-0.4-1-0.7-1.9-1.1-2.9l0,0c0.1-0.3,0.1-0.6,0.1-1
		C699,315.8,699,315.4,699,315z"/>
	<path class="st53" d="M695.1,349.8c-0.1-0.3,0-0.6,0.2-0.8c1.8,0,3.6,0,5.4-0.1c0.2,0.3,0.3,0.6,0.2,0.9c-0.3,2.7-0.5,5.4-0.8,8.1
		c-0.1,2.7-0.2,5.3-0.2,8c-0.3,1.6-0.6,3.3-1,4.9c-0.3-0.8-0.6-1.6-0.9-2.4c-0.3-0.8-0.6-1.7-0.9-2.5c-0.4-2.7-0.7-5.3-1.1-8
		c-0.1-1.4-0.1-2.7-0.2-4.1c0-0.3,0-0.6-0.1-0.9C695.6,352,695.3,350.9,695.1,349.8z"/>
	<path class="st54" d="M655.1,316.2c0-0.4-0.1-0.8-0.1-1.2c2.8,0.1,5.5,0.1,8.3,0.2c-1,1.4-2,2.7-3,4.1c-0.3-0.2-0.6-0.5-0.9-0.7
		c0.2,0.5,0.3,0.9,0.5,1.4c-0.7,1.4-1.4,1-1.8-0.2C657.5,318.2,657.5,316.2,655.1,316.2z"/>
	<path class="st5" d="M699,315c0,0.4,0,0.7,0,1.1c-2.9-0.2-2.9,1.9-2.9,3.9c-1.3,1.6-1.9,0.9-2.3-0.7c0.2-0.2,0.5-0.3,0.7-0.5
		c-0.1-0.1-0.2-0.2-0.3-0.3c-0.2,0.2-0.3,0.5-0.5,0.7c-1-1.4-1.9-2.7-2.9-4.1C693.6,315.1,696.3,315.1,699,315z"/>
	<path class="st55" d="M696.1,320c0-2-0.1-4.1,2.9-3.9c0.1,0.3,0,0.6-0.1,1C697.9,318.1,697,319,696.1,320z"/>
	<path class="st55" d="M698.9,317.1c0.4,1,0.7,1.9,1.1,2.9C699.6,319,699.3,318.1,698.9,317.1z"/>
	<path class="st56" d="M659.9,319.9c-0.2-0.5-0.3-0.9-0.5-1.4c0.3,0.2,0.6,0.5,0.9,0.7C660.3,319.6,660.1,319.8,659.9,319.9z"/>
	<path class="st44" d="M658.8,349.2c0.2,0.2,0.3,0.4,0.2,0.7c-0.3,0.1-0.5,0.2-0.8,0.3c0,0-0.3-0.3-0.3-0.3
		C658.2,349.7,658.5,349.4,658.8,349.2z"/>
	<path class="st57" d="M772.1,391.9c2.8,0,5.6-0.2,8.4,0c2.6,0.2,4.8-0.2,6.6-2.4c0.8-0.9,2.6-1.4,3.9-1.5c3.3-0.2,6.6-0.1,9.9-0.1
		c0.3,0,0.7,0,1,0.1c0,1,0,2,0,3c-3.3,0-6.6,0-9.9-0.1c-1.7,0-3.3,0.1-4.1,2c-5.7,0-11.3,0-17,0
		C771.4,392.7,771.7,392.3,772.1,391.9z"/>
	<path class="st58" d="M788,393c0.7-1.9,2.3-2.1,4.1-2c3.3,0.1,6.6,0.1,9.9,0.1c1.9,1.8,0,2.9-0.8,4.1c-1.2,1.6-2.4,2.3-4.5,1.2
		C793.8,395,790.9,394.1,788,393z"/>
	<path class="st59" d="M753,394c2,1,3.2,3.6,6,3c-1.6,1-3.3,2.1-4.9,3.1c-1.4-1.7-2.7-3.4-4.1-5.1C751,394.7,752,394.3,753,394z"/>
	<path class="st60" d="M772.1,391.9c-0.4,0.4-0.7,0.8-1.1,1.2c-2.3,0.6-4.7,1.2-7,1.8C767.9,390.3,767.9,390.3,772.1,391.9z"/>
	<path class="st40" d="M747,407c0.3-0.4,0.6-0.7,0.9-1.1C747.6,406.3,747.3,406.7,747,407z"/>
	<path class="st40" d="M746,407c0.3,0,0.7,0,1,0c-0.3,0.4-0.5,0.8-0.8,1.2C746.2,407.8,746.1,407.4,746,407L746,407z"/>
	<path class="st5" d="M605.9,325c1.2,1.7,2.5,3.4,2.2,5.8c-0.5,3.2-3.3,4.8-6.1,3.2c-1.4-0.8-2.6-1.9-4-2.9
		C600.7,329,603.3,327,605.9,325z"/>
	<path class="st61" d="M663.2,304.2c-0.6,0.9-1.3,2.5-1.9,2.5c-4.6,0-8.5,3.3-13.3,2.4c-2.2-0.4-4.6,0-6.9,0c1.8-0.7,3.5-1.5,5.3-2
		C651.8,305.5,657.5,304.8,663.2,304.2z"/>
	<path class="st62" d="M633,313c-0.3,0.3-0.7,0.6-1,1c-0.3,0.3-0.7,0.6-1,0.9c-1.3,0-2.7,0-4,0c0-0.4,0-0.7-0.1-1.1l0,0
		c0.4-0.3,0.7-0.6,1.1-0.9c1.3-0.4,2.5-0.8,3.8-1.2C632.2,312.3,632.6,312.7,633,313z"/>
	<path class="st63" d="M633,313c-0.4-0.4-0.8-0.8-1.2-1.2c0.7-0.3,1.4-0.7,2.1-1C635.5,312.3,633.8,312.5,633,313z"/>
	<path class="st5" d="M598,331c-0.7,0.3-1.4,0.6-2,0.9C596.7,331.7,597.3,331.4,598,331z"/>
	<path class="st64" d="M626.9,313.9c0,0.4,0,0.7,0.1,1.1c-0.6-0.3-1.3-0.6-1.9-0.9C625.7,314,626.3,314,626.9,313.9z"/>
	<path class="st64" d="M628,313.1c-0.4,0.3-0.7,0.6-1.1,0.9C627.3,313.7,627.6,313.4,628,313.1z"/>
	<path class="st65" d="M768,338.9c-0.3,0-0.7,0.1-1,0.1c-7.8-1.4-13.5,1.7-18.4,7.7c-3.3,4.1-7,8.8-11.5,10.7
		c-4.4,1.9-10.1,0.5-15.3,0.6c-7.2,0-14.5,0-21.7,0c0.3-2.7,0.5-5.4,0.8-8.1c0,0.8,0.1,1.7,0.1,2.5c-0.2,2,0.8,2.6,2.6,2.6
		c10-0.1,20,0.1,30-0.1c1.4,0,3.1-1.1,4.2-2.2c3.9-3.7,7.7-7.4,11.3-11.3c3.5-3.7,7.3-6.2,12.6-5.4c0.9,0.1,2-0.6,3-0.9
		C765.9,336.4,767,337.6,768,338.9z"/>
	<path class="st66" d="M694,304.1c1.6,0.3,3.3,0.7,4.9,1c0,1.2,0.4,2.5,0,3.4c-0.5,1-1.6,2.3-2.6,2.3c-1.3,0.1-3.2-0.4-3.8-1.4
		C691.2,307.5,692,305.5,694,304.1z"/>
	<path class="st67" d="M694,304.1c-2.1,1.4-2.9,3.4-1.6,5.4c0.6,0.9,2.5,1.5,3.8,1.4c1-0.1,2.1-1.3,2.6-2.3c0.4-1,0.1-2.3,0-3.4
		c0.7,0,1.4,0,2.1,0c0,1.2,0.1,2.3-0.1,3.4c-0.9,4.3-5.3,5.8-8.7,3.2c-0.8-0.6-1.5-1.2-2.3-1.8c0-1.3,0-2.6,0-3.8
		c0.3-0.5,0.6-0.9,0.9-1.4c-0.5-0.2-1.1-0.4-1.6-0.5c0.7-0.3,1.4-0.9,2.1-0.9C692.3,303.3,693.2,303.8,694,304.1z"/>
	<path class="st68" d="M753,394c-1,0.3-2,0.7-3,1c-4.1-3.9-8.2-7.7-12.1-11.7c-1.6-1.7-3.3-2.3-5.7-2.3c-16.1,0.1-32.2,0-48.3,0.1
		c-1.6,0-3.2,0.6-4.7,1c0.3-1.4,0.6-2.7,0.9-4.1c5.6,0,11.2,0,16.8,0c0.5,0.5,1.1,1.1,1.6,1.6c0.2-0.9,0.5-1.7,0.7-2.6
		c1.7,0.3,3.5,1,5.2,1c9.8,0.1,19.6,0.1,29.4,0c2.5,0,4.4,0.7,6.1,2.5c3.9,4.3,8,8.4,12,12.6C752.3,393.3,752.7,393.7,753,394
		L753,394z"/>
	<path class="st69" d="M696.8,377.9c-5.6,0-11.2,0-16.8,0c0-1.9,0-3.9,0-5.8c5.6,0,11.2,0,16.9,0C696.9,374,696.9,376,696.8,377.9z"
		/>
	<path class="st70" d="M696.9,372.1c-5.6,0-11.2,0-16.9,0c0.3-2.4,0.5-4.8,0.8-7.1c0,2.1,0.6,3.3,3.1,3.2c4.3-0.2,8.6-0.1,12.9-0.2
		C696.9,369.3,696.9,370.7,696.9,372.1z"/>
	<path class="st71" d="M696,358c-4.9,0-9.9,0.1-14.8,0.1c0.2-1.4,0.5-2.7,0.7-4.1c4.6,0,9.3,0,13.9-0.1
		C695.9,355.3,696,356.7,696,358z"/>
	<path class="st72" d="M672.1,358c-2.7,0-5.3-0.1-8,0.1c-2.3,0.2-4.2-0.5-5.9-1.9c0-2,0.1-4,0.1-6c0.3-0.1,0.5-0.2,0.8-0.3
		c-0.3,2.9,0.9,4.3,4,4.2c2.9-0.1,5.9-0.1,8.9-0.1C671.9,355.3,672,356.6,672.1,358z"/>
	<path class="st39" d="M569.4,404c-2.8,0-5.6,0-8.5,0c-0.4,0-0.9-0.3-1.3-0.5c0.4-0.2,0.9-0.5,1.3-0.5c5.8,0,11.6,0,17.4,0
		c0.3,0,0.6,0.4,0.9,0.6c-0.3,0.1-0.6,0.3-0.9,0.3C575.4,404,572.4,404,569.4,404C569.4,404,569.4,404,569.4,404z"/>
	<path class="st40" d="M746,407c-27.4,0-54.9,0-82.3,0c-1.3,0-2.7,0-4,0c-0.3,0-0.6-0.4-1-0.6c0.3-0.1,0.6-0.3,0.9-0.3c1,0,2,0,3,0
		c26.3,0,52.5,0,78.8,0C743,406,744.5,406.7,746,407L746,407z"/>
	<path class="st73" d="M699.9,366c0.5,0.8-0.9,2.7,1.8,2.4c2.5-0.3,5.2,0.5,7.8,0.5c12.8,0.1,25.6,0,38.4,0.1c2.5,0,4.4-0.6,6.1-2.5
		c2.3-2.6,4.9-5,7.4-7.4c2.1-2.1,3.8-4.7,7.4-4.2c0.7,0.1,1.6-1,2.4-1.5c3.2-1.9,4.7-1.6,6.8,1.2c1.5,2,1.2,4-0.8,5.7
		c-2.1,1.8-4.2,1.9-6.3-0.6c-1.8-2.1-3.6-1.7-5.2-0.5c-2.8,2.3-5.3,5-7.8,7.6c-0.2,0.2,0.2,1.3,0.5,1.8c0.2,0.3,1,0.4,1.4,0.3
		c5.1-1.6,10.1,0.6,15.2,0.1c2.5-0.2,4.4-0.8,6.1-2.6c1.8-1.9,3.8-3.6,5.8-5.4c0.7,0.7,1.3,1.4,2,2.1c-1.4,1.3-3,2.5-4.3,3.9
		c-0.9,1-0.4,1.8,0.9,1.9c2.1,0.1,4.2,0.1,6.4,0.1c0.7,1,1.4,2,2.1,2.9c-7.7,0-15.3,0-23,0c-0.5,0-0.9,0.2-1.4,0.3
		c0.2,0.4,0.2,1,0.5,1.3c3.4,4.5,7.2,5.6,12.9,3.5c0.3,0.3,0.7,0.7,1,1c0,0.6,0,1.3,0,1.9c-0.3,0.3-0.7,0.7-1,1c-0.2,0-0.3,0-0.5,0
		c-6.5,1.1-11.6-0.9-15.4-6.4c-1.6-2.3-3.8-2.7-6.5-2.7c-17.9,0.1-35.8,0.1-53.7,0.1c-1.3,0-2.8,0.4-3.9-0.1c-2.5-1-2.9,0.8-3.7,2.2
		c-0.1-1.1-0.2-2.1-0.2-3.2C699.2,369.3,699.6,367.6,699.9,366z"/>
	<path class="st74" d="M783,377c-5.7,2.1-9.6,1.1-12.9-3.5c-0.3-0.4-0.3-0.9-0.5-1.3c0.5-0.1,0.9-0.3,1.4-0.3c7.7,0,15.3,0,23,0
		c0.1,0.3,0.1,0.6,0.2,1c-1.1,0.4-2.2,0.8-3.3,1.1C788,374,784.6,373.1,783,377z"/>
	<path class="st64" d="M791.9,369c-2.1,0-4.2,0-6.4-0.1c-1.3-0.1-1.8-0.9-0.9-1.9c1.3-1.4,2.8-2.6,4.3-3.9
		C789.9,365.1,790.9,367,791.9,369z"/>
	<path class="st10" d="M643,400c-2,1.4-4,1.3-6,0c-0.3-1.3-0.7-2.7-1-4c0.4-0.3,0.9-0.5,1.2-0.8c1.6-1.6,3.3-1.8,5.2-0.3
		C644.3,396.4,644.2,398.1,643,400z"/>
	<path class="st10" d="M644,378c0,0.6,0,1.3,0,1.9c-3.7,3.7-4.3,3.7-8,0c0-0.6,0-1.3,0-1.9C640,375.1,640.1,375.2,644,378z"/>
	<path class="st75" d="M731.1,338.9c0.3-0.3,0.6-0.6,1-1c3.7,3.7,4.3,3.7,7.9,0c0.3,0.3,0.7,0.7,1,1C737,344,734.9,344,731.1,338.9z
		"/>
	<path class="st76" d="M734,334c-0.3-0.7-0.7-1.3-1-2c2.4,0.4,5.4-1.4,7,2c-0.3,0.3-0.6,0.7-0.9,1l-0.1,0
		C737.3,334.7,735.7,334.3,734,334z"/>
	<path class="st77" d="M741,339c-0.3-0.3-0.7-0.7-1-1c-0.3-1-0.6-2-0.9-3l0.1,0l0.5,0l0.5,0C740.4,336.3,740.7,337.6,741,339z"/>
	<path class="st51" d="M740.1,335l-0.5,0l-0.5,0c0.3-0.3,0.6-0.7,0.9-1C740,334.3,740.1,334.7,740.1,335z"/>
	<path class="st71" d="M695.1,349.8c0.2,1.1,0.5,2.1,0.7,3.2C695.6,352,695.3,350.9,695.1,349.8z"/>
	<path class="st64" d="M631,315c0.3-0.3,0.7-0.6,1-0.9C631.7,314.3,631.3,314.6,631,315z"/>
	<path class="st78" d="M698.9,370.9c0.1,1.1,0.2,2.1,0.2,3.2c0,0.9,0,1.9,0,2.8c-0.2,0.9-0.5,1.7-0.7,2.6c-0.5-0.5-1.1-1.1-1.6-1.6
		c0-1.9,0.1-3.9,0.1-5.8c0-1.4,0-2.8,0-4.2c0.1-0.6,0.2-1.3,0.2-1.9c0.3,0.8,0.6,1.7,0.9,2.5C698.3,369.3,698.6,370.1,698.9,370.9z"
		/>
	<path class="st79" d="M693.7,319.2c0.2-0.2,0.3-0.5,0.5-0.7c0.1,0.1,0.2,0.2,0.3,0.3C694.3,319,694,319.1,693.7,319.2L693.7,319.2z
		"/>
	<path class="st80" d="M783,377c1.6-3.9,4.9-3,8-3c0.7,1,1.3,2,2,3c-0.3,0.3-0.7,0.7-1,1c-3.9-2.9-4-2.9-7.9,0
		C783.7,377.7,783.4,377.4,783,377z"/>
	<path class="st81" d="M783,381c0.3-0.3,0.7-0.7,1-1c3.2,4.2,4.8,4.2,8,0c0.3,0.3,0.7,0.7,1,1c-0.6,0.8-1.1,1.7-1.8,2.3
		c-2.5,2.3-3.8,2.3-6.4,0C784.1,382.7,783.6,381.8,783,381z"/>
	<path class="st61" d="M793,381c-0.3-0.3-0.7-0.7-1-1c0-0.6,0-1.3,0-1.9c0.3-0.3,0.7-0.7,1-1C792.9,378.4,793,379.7,793,381z"/>
	<path class="st59" d="M753,394c-0.3-0.3-0.7-0.7-1-1C752.3,393.3,752.7,393.7,753,394z"/>
</g>
</svg>
