<?xml version="1.0" encoding="utf-8"?>
<!-- Generator: Adobe Illustrator 24.2.3, SVG Export Plug-In . SVG Version: 6.00 Build 0)  -->
<svg version="1.1" id="Layer_1" xmlns="http://www.w3.org/2000/svg" xmlns:xlink="http://www.w3.org/1999/xlink" x="0px" y="0px"
	 viewBox="0 0 1366 768" style="enable-background:new 0 0 1366 768;" xml:space="preserve">
<style type="text/css">
	.st0{fill:#021C43;}
	.st1{fill:#031D44;}
	.st2{fill:#031D43;}
	.st3{fill:#041D44;}
	.st4{fill:#FAFAFB;}
</style>
<g>
	<g>
		<path class="st0" d="M599,249c3.7-3.2,7.4-6.4,11-9.6c18-15.7,39-19.3,61.7-14.2c11.8,2.6,21.1,9.5,27.5,20c1.2,2,2.4,3.9,4.1,6.7
			c6-5.1,11.7-10,17.6-14.6c15.6-12.1,33.4-16.1,52.7-13.2c22.5,3.3,36.3,17.8,39.1,40.3c0.8,6.3,1.1,12.6,1.1,18.9
			c0.1,23,0,46,0.1,68.9c0.1,13.3,2.4,16.2,15,19.8c8.2,2.3,8.2,2.3,7.1,12.5c-30.8,0-61.7,0-92.4,0c-1.8-1.3-1-3.1-1.2-4.7
			c-0.6-4.8,0.9-6.9,6.4-7.3c9.8-0.9,12.1-3.6,12.2-13.4c0.2-27.3,0-54.6,0-81.9c0-0.7-0.1-1.3-0.1-2c-1.7-23.5-18.5-32.5-39.2-21.1
			c-3.8,2.1-7.3,4.6-10.3,7.8c-4,4.3-6.1,8.9-6,15.1c0.4,24.3,0.1,48.6,0.2,72.9c0,2.3,0.1,4.7,0.2,7c0.3,7.6,4.1,12.2,11.3,14.6
			c8,2.7,8,3,7,12.5c-7.9,1.2-74.3,1.5-88.9,0.4c-1.8-2.2-0.8-4.9-0.9-7.4c-0.2-2.9,1.4-4.2,4.3-4.1c0.7,0,1.3,0,2-0.2
			c10.1-1.7,12.2-3.9,12.4-14.5c0.2-10,0.1-20,0.1-30c0-15.7-0.1-31.3,0-47c0-6-0.6-12-2.7-17.7c-3.8-10.4-12.5-15.6-23.6-14
			c-7.1,1-13.4,3.8-19,8.2c-6.8,5.4-10.9,11.6-10.6,21.1c0.7,24,0.3,48,0.2,71.9c-0.1,14.6,3.8,19,15.4,21.8c7.4,1.8,2.6,7.4,4,10.8
			c-1.9,1.6-3.6,1.4-5.2,1.4c-27.6,0-55.3,0-82.9,0c-6.9,0-8.1-1.6-7.1-8.2c0.4-2.3,1.3-3.6,3.7-3.8c2-0.1,4-0.2,6-0.5
			c10.2-1.8,14-5.9,14-16.1c0.2-30.6,0.2-61.3,0-91.9c-0.1-11.6-6.4-18.6-18.2-21.7c-2.9-0.8-6.9,0.3-7.7-4.5
			c-1.1-6.4,0.3-8.5,6.8-8.9c21.6-1.2,43.2-2.1,64.8-3.4c4.9-0.3,6.7,1.6,6.5,6.2c-0.2,5.3,0,10.6,0,15.8
			C597.7,248.2,598.4,248.6,599,249z"/>
		<path class="st0" d="M300.8,320.5c16.3,9.1,15.5,6,6.4,20.9c-19.8,32.5-49.4,48.3-87.1,49.4c-17.5,0.5-34.5-1.7-51-7.9
			c-31.2-11.7-52.9-33-64-64.3c-11-31-10.8-62.3,1.8-92.7c17.5-42.3,50.5-64.9,95.1-71c24.9-3.4,49.2,0,72.1,10.7
			c4,1.9,7.3,2.7,10.4-1.2c0.8-1,1.9-1.9,3-2.7c4.5-3.3,9.9-2.8,14.3-1.3c3.3,1.1,1.8,6,1.9,9.1c0.5,22,0.9,44,1.2,65.9
			c0,2.4,1.2,5.5-2.7,6.5c-5.1,1.3-10.8-0.1-12.2-3.5c-2.5-6.1-4.6-12.5-7.1-18.6c-4.9-11.7-10.9-22.9-19.6-32.3
			c-14.6-15.7-32.4-21.4-53.4-17.2c-14.3,2.9-24.6,11.2-32.2,23.3c-7.4,11.7-11.5,24.7-13.6,38.3c-4.5,28.2-4.7,56.3,2.8,84.2
			c0.9,3.2,2,6.3,3.1,9.5c18.3,52.5,75.3,50.7,102.3,28.8c8.6-7,15.9-15.1,22.2-24.2C296.4,327.2,298.3,324.1,300.8,320.5z"/>
		<path class="st0" d="M1056.7,320.4c15.2,9.4,16,5.1,6.1,21.2c-19.7,32-48.9,47.8-86.2,49.2c-17.8,0.6-35.2-1.7-51.9-8
			c-30.8-11.6-52.4-32.6-63.5-63.5c-11.7-32.7-11.1-65.5,3.2-97.3c18.2-40.2,50.7-61.3,93.6-67.2c25-3.4,49.2,0.1,72.1,10.9
			c4.2,2,7.2,2.1,10.4-1.5c2.2-2.5,4.8-4.3,8.5-4.5c9.5-0.7,10.2-0.4,10.5,9.1c0.5,22,0.9,44,1.1,65.9c0,2.6,1.7,6.2-2.9,7.3
			c-6.2,1.4-10.9-0.1-12.4-4.7c-3-9.2-6.6-18.1-10.9-26.8c-4.8-9.6-10.7-18.4-18.3-26c-21.6-21.7-65.2-23.3-84.4,11.9
			c-8.6,15.8-12.3,32.9-13.9,50.6c-2.1,23.4-1.5,46.6,4.8,69.3c0.9,3.2,2,6.3,3.2,9.4c16.3,42.7,64.9,56.5,101.6,29
			c9.1-6.9,16.5-15.4,23-24.8C1052.3,327,1054.3,324,1056.7,320.4z"/>
		<path class="st0" d="M432,368.3c-3.4,0.4-4.7,2.6-6.4,4.1c-17.2,15-37.2,19.9-59.5,16.4c-16.6-2.6-30.3-14.6-33.4-29
			c-4.1-19,2.5-36.7,17.6-46.4c5.9-3.8,12.3-6.6,18.9-8.8c16.1-5.2,32.3-10.2,48.4-15.3c3.2-1,6.3-2.1,9.4-3.4
			c1.8-0.7,3.6-1.6,3.6-4.2c-0.1-10.6,1.1-21.4-2.4-31.7c-4.8-14.3-26.4-19.6-37.5-9.5c-1.9,1.7-1.4,3.3-0.9,5.3
			c1.3,4.8,2.8,9.6,3.5,14.5c1.4,11.5-5.1,20.2-16.5,22.4c-6.2,1.2-12.6,1.3-18.9,0.2c-17.9-3.2-25-22.8-13.2-36.7
			c5-5.9,11.5-10.1,18.5-13.2c20.9-9.4,42.9-11.6,65.4-9.4c8.6,0.8,17.1,1.8,25.4,5c17.7,6.8,27.2,19.7,28.7,38.3
			c1.3,15.6,0.1,31.3,0,46.9c-0.1,12.3-0.6,24.6-0.5,36.9c0.1,13.6,4.1,17.7,17.6,19c1.3,0.1,2.7,0.1,4,0.3c2.5,0.2,5.9-0.6,5.9,3.5
			c0,3.7,1.4,7.8-4.1,9.8c-17,6.4-34.2,8.1-51.9,4.3C442.9,385.2,435.8,378.2,432,368.3z M430.4,299.3c-9.7,3.1-17.9,6.5-25.7,10.9
			c-13.3,7.4-18.9,18.9-18.1,33.8c0.8,16.2,12.5,24.5,28,19.8c5.2-1.6,9.4-4.8,13.1-8.6c1.7-1.7,2.6-3.6,2.6-6.2
			C430.4,332.8,430.4,316.6,430.4,299.3z"/>
		<path class="st0" d="M1179,222.8c12.4,0.1,24.5,1.7,36.3,5.6c43.7,14.5,58.8,52.3,54.3,88.1c-5.1,40.6-34,67.7-74.8,72.3
			c-17.8,2-35.2,1.5-52.3-4c-34.2-11-55.1-39.7-56.3-75.5c-1.6-47.5,29.6-79.1,72.8-85C1165.7,223.4,1172.3,222.6,1179,222.8z
			 M1144.7,306.8c0,6.7-0.3,13.3,0.1,20c0.7,12.1,2.9,23.8,8.6,34.6c5.2,9.8,13.2,15.5,24.8,15.5c11.6,0,19.5-5.6,24.8-15.5
			c2.7-5,4.5-10.4,5.6-15.9c5.2-25.5,4.8-50.9,0.4-76.4c-1.1-6.6-3.2-12.8-6.4-18.8c-10.1-19.4-38.6-19-48.5-0.8
			c-2.5,4.7-4.7,9.5-6,14.7C1144.6,278.2,1144.3,292.5,1144.7,306.8z"/>
		<path class="st1" d="M649.3,484.2c-2.8,6.9-5.6,13.8-8.3,20.8c-4.9,12.4-9.7,24.8-14.5,37.2c-1.1,2.9-2.3,5.5-6.2,5.2
			c-3.6-0.2-4-3.1-4.8-5.5c-6.3-16.8-12.4-33.7-18.6-50.5c-0.9-2.4-1.8-4.9-4.1-7.4c-0.2,2-0.6,4-0.6,6c0,12.7,0.1,25.3,0,38
			c-0.1,7.6,1.4,14,10.3,15.7c1.5,0.3,3.3,1,2.9,3.2c-0.3,1.8-1.9,1.6-3.2,1.6c-9,0-18,0-27,0c-1.5,0-2.6-0.5-2.7-2.2
			c0-1,0.5-2,1.7-2.1c11.2-1.4,11-9.8,11-18c0-12.3-0.1-24.7,0.1-37c0.1-7-1.4-12.6-9.3-14.3c-1.5-0.3-3.5-0.6-2.9-3
			c0.6-2.2,2.7-1.5,4.2-1.6c8.7-0.1,17.3,0.2,26-0.2c4.6-0.2,6.3,2,7.7,5.9c4.5,12.9,9.4,25.6,14.2,38.4c0.7,1.8,1.6,3.4,3.1,6.7
			c5.9-15.5,11.7-29.6,16.5-44.1c1.8-5.5,4.1-7.3,9.7-6.9c7.3,0.5,14.7,0.1,22,0.2c1.5,0,3.6-0.7,4.2,1.5c0.7,2.3-1.3,2.8-2.8,3
			c-6.5,0.9-7.5,5.1-7.4,10.8c0.2,15.3,0.3,30.7,0,46c-0.1,6.3,0.6,11.3,8.1,12.3c1.3,0.2,2.5,1,2.4,2.6c-0.2,1.7-1.5,1.9-2.9,1.9
			c-12,0-24,0-36,0c-1.3,0-2.8-0.2-2.8-1.9c0-1.6,1.3-2,2.6-2.5c9.1-3.4,9.2-3.4,9.2-13.2c0-15.5,0-31,0-46.5
			C650.4,484.5,649.8,484.4,649.3,484.2z"/>
		<path class="st2" d="M255.6,548.7c-0.5-3.4,0.7-3.9,1.9-4.3c8.9-2.9,9-2.9,9-12.3c0-14.7,0-29.3,0-44c0-9.4-0.1-9.4-8.6-12.9
			c-1.2-0.5-2.5-0.9-2.7-2.4c0.2-1.7,1.2-2.2,2.7-2.2c11.7,0,23.3-0.1,35-0.1c1.5,0,3.6-0.4,3.9,1.9s-1.7,2.6-3.2,2.8
			c-5.8,0.8-7.7,4.2-7.2,9.8c0.5,6.2-2.5,14.1,1.2,18.4c3.8,4.4,11.9,1.4,18.1,1.5c13.8,0.3,13.8,0.1,13.8-13.3c0-1.7-0.1-3.3,0-5
			c0.4-5.6-0.8-9.9-7.3-11c-1.5-0.3-3.5-0.8-3.4-2.9c0.1-2.3,2.1-2.1,3.7-2.1c11.7,0,23.3,0,35,0.1c1.3,0,2.7,0.1,2.9,1.9
			c0.2,1.7-1.1,2-2.4,2.5c-8.9,3.6-8.9,3.6-8.9,12.5c0,14.7,0.2,29.3-0.1,44c-0.1,6.7,0.6,12.1,8.8,12.8c1.4,0.1,2.7,0.7,2.7,2.3
			c0,1.7-1.3,2.1-2.7,2.1c-12,0-24,0-36,0c-1.3,0-2.7,0-2.9-1.8c-0.2-1.7,1-2,2.3-2.5c8.2-3.1,8.2-3.1,8.3-11.7
			c0-5.3-0.2-10.7,0.1-16c0.2-4.1-1.1-6.1-5.6-5.9c-7.3,0.3-14.7,0.3-22,0c-4.5-0.2-5.8,1.8-5.6,5.9c0.2,4.7,0.3,9.3,0,14
			c-0.4,6.7-0.3,12.9,8.6,13.9c0.7,0.1,1.7,1.1,1.9,1.9c0.2,0.8-0.1,2.1-1.5,2.1C282,549,268.7,548.7,255.6,548.7z"/>
		<path class="st1" d="M1056.4,550.8c-25,0-42.3-16.6-42.2-40.6c0-24.8,17.3-41.8,42.3-41.8c24.8,0,42.3,16.9,42.2,40.7
			C1098.6,534.2,1081.6,550.8,1056.4,550.8z M1036.3,510.2c-0.1,8.4,0.6,16.6,4.3,24.3c3.3,6.9,8.3,11,16.4,10.8
			c7.6-0.2,12.7-4.2,15.3-10.9c6.4-16.1,6.2-32.5,0.4-48.7c-2.5-7-7.6-11.6-15.7-11.7c-8.5-0.1-13.5,4.4-16.7,11.7
			C1036.7,493.6,1036.1,501.8,1036.3,510.2z"/>
		<path class="st1" d="M1190.3,492.1c0,13.6-0.1,27.1,0,40.7c0,5.7,3,9.2,8.7,10.6c1.8,0.4,4.4,0.9,4.2,3.4c-0.2,2.8-2.9,2-4.8,2
			c-8.3,0.1-16.6,0-24.9,0c-1.3,0-2.7,0-3-1.7s0.7-2.5,2.1-2.7c9.8-1.4,10.5-8.6,10.4-16.4c-0.1-11.6-0.2-23.3,0.1-34.9
			c0.2-8-1.4-14.6-10.2-17.1c-1.6-0.5-3.3-1.4-2.8-3.4c0.5-2.1,2.4-1.9,4-1.9c7,0,14,0.2,21-0.1c4.1-0.2,5.9,2.3,8,4.9
			c10.6,13.2,21.3,26.4,32,39.6c1.6,2,2.8,4.5,5.4,5.7c2-6.8,2-30.6,0.4-36.9c-1.2-5-4.7-6.9-9.1-8.1c-1.5-0.4-3.4-1.1-3.2-3.1
			c0.2-2.2,2.2-2,3.8-2c9.7,0.1,19.5-0.4,29,0.3c0.4,3.6-1.4,4-3,4.3c-7.9,1.3-9.9,6.8-9.9,13.8c0,15.6,0,31.3-0.1,46.9
			c0,2,0.2,4-0.1,6c-0.4,2.4,1.6,5.9-2,6.8c-3.4,0.9-7.3,1.5-10-2.1c-1.2-1.6-2.5-3.1-3.8-4.7c-13.5-16.8-27.1-33.6-40.6-50.4
			C1191.4,491.7,1190.9,491.9,1190.3,492.1z"/>
		<path class="st1" d="M797.7,548.7c-9.5,0-17.3,0-25.1,0c-5,0-10,0-15-0.1c-1.2,0-2.8,0.2-3.1-1.7c-0.3-1.7,0.7-2.5,2.1-2.6
			c8.5-0.4,8.7-6.2,8.6-12.6c-0.2-14.6-0.2-29.3,0-43.9c0.1-6.1-0.2-11.4-7.9-12.5c-1.5-0.2-3.3-0.9-2.8-3.2c0.4-1.8,2-1.6,3.2-1.6
			c16,0,31.9,0.1,47.9,0.3c2,0,3.9,0.8,5.8,1.2c7.6,1.8,13.8,5.3,15.2,13.8c1.5,9.2-0.7,17.2-8.8,22.7c-6.2,4.2-13.3,6-20.7,6.2
			c-2.7,0.1-5.3,0.2-8,0.2c-2.9,0-4.3,1.3-4.2,4.2c0,3.3,0,6.7,0,10c0,11.4,0,11.4,10.3,15.7C795.6,545.1,795.9,545.9,797.7,548.7z
			 M784.9,491.9L784.9,491.9c0,4.7,0.1,9.3,0,14c0,3,1.4,4.1,4.3,4.1c10.1-0.1,16.6-6.8,16.6-17.2c0.1-11.2-4.7-16.5-14.9-17.1
			c-4.1-0.3-6.4,0.7-6.1,5.3C785.1,484.6,784.9,488.2,784.9,491.9z"/>
		<path class="st1" d="M448.9,548.7c-10.7,0-20.4,0-30.2,0c-1,0-1.9-0.5-2.1-1.7c-0.1-1,0-2.1,1.2-2.3c10.5-1.7,12.7-10.6,16-18.6
			c7-16.9,14-33.7,20.9-50.7c1.6-4.1,3.5-6.5,8.6-6.4c4.8,0.1,6.1,2.7,7.6,6.3c6.4,16,12.9,32,19.4,48c6.3,15.5,6.3,15.5,17.7,23.2
			c-5.8,2.6-31.5,3.1-42.9,0.7c2.2-5,8.1-2.6,10.7-5.9c0.1-0.6,0.4-1.3,0.2-1.8c-2.6-5.6-2.6-14.3-8.3-16.2
			c-6.8-2.4-15.1-0.7-22.7-0.8c-1.8,0-3.1,1-3.8,2.6c-0.9,2.2-1.7,4.3-2.4,6.5c-3.1,9.2-3.1,9.2,6.4,12.4
			C446.4,544.6,447.7,544.9,448.9,548.7z M444.7,516.4c7.6,0,14.3,0,21.6,0c-3.3-9.1-6.3-17.4-11.1-26.7
			C451.4,499.4,448.2,507.5,444.7,516.4z"/>
		<path class="st3" d="M182.4,485.2c0,3,0.1,6,0,9c0,1.9,0.6,4.2-2.4,4.5c-2.6,0.3-3.1-1.8-3.9-3.6c-1.8-3.9-3.6-7.9-5.8-11.5
			c-2.7-4.3-6.4-7.6-11.5-9c-9.3-2.4-17.8,0.8-21.6,9.7c-6.8,15.6-7.2,31.8,0.1,47.4c5.8,12.4,21.8,15.2,33.4,6.6
			c3.5-2.6,6.2-6,8.7-9.5c1-1.5,2.3-2.4,4.1-1c1.6,1.2,1.7,2.6,0.7,4.3c-5.5,9.9-13.8,16.4-24.9,18.1c-16,2.3-30.9-0.8-41-14.7
			c-10.1-13.8-10.5-29.2-3.5-44.4c8.3-18.1,29.5-26.7,49.8-21.1c4.2,1.2,8.2,4.4,13.1,1c2.3-1.6,4.4,0.3,4.4,3.3c0,3.7,0,7.3,0,11
			C182.1,485.2,182.3,485.2,182.4,485.2z"/>
		<path class="st3" d="M941.8,472.6c-0.2,0.5-0.3,1.4-0.8,1.6c-10.8,4.3-10.9,4.3-10.9,15.8c0,13.9,0,27.9,0,41.8
			c0,9.3,0.1,9.3,9,12.3c1.3,0.4,2.5,0.8,2.6,2.5c-0.3,0.5-0.5,1.4-0.9,1.5c-12.9,1.2-25.9,0.3-38.8,0.5c-1.2,0-2.8,0.2-3.2-1.4
			c-0.6-2.4,1.3-2.5,2.9-2.9c8.5-2.6,8.6-2.6,8.6-11.4c0.1-14.9-0.2-29.9,0.1-44.8c0.2-6.8-1-11.8-8.8-12.8
			c-1.5-0.2-3.3-0.8-2.8-3.1c0.4-1.8,2-1.5,3.2-1.5c12.6,0,25.2,0,37.8,0.1C940.9,470.7,941.8,471.3,941.8,472.6z"/>
		<path class="st4" d="M789.2,509.9c-2.9,0-4.3-1.1-4.3-4.1c0-4.6,0-9.2,0-13.9l0,0c0-3.7,0.2-7.3-0.1-11c-0.3-4.7,2-5.6,6.1-5.3"/>
	</g>
</g>
</svg>
