<?xml version="1.0" encoding="utf-8"?>
<!-- Generator: Adobe Illustrator 24.2.3, SVG Export Plug-In . SVG Version: 6.00 Build 0)  -->
<svg version="1.1" id="Layer_1" xmlns="http://www.w3.org/2000/svg" xmlns:xlink="http://www.w3.org/1999/xlink" x="0px" y="0px"
	 viewBox="0 0 1366 768" style="enable-background:new 0 0 1366 768;" xml:space="preserve">
<style type="text/css">
	.st0{fill:#021C43;}
</style>
<g>
	<path class="st0" d="M605.4,286.1c17.4-12.6,36-20.4,56.4-19.2c12.6,0.6,23.4,4.2,29.4,15.6c2.4,4.2,4.2,1.8,6,0
		c15.6-10.2,32.4-16.8,51-16.2c20.4,0.6,31.2,9.6,35.4,29.4c1.8,9.6,2.4,19.8,2.4,30c0,19.2,0,37.8,0,57c0,11.4,0,11.4,10.8,13.2
		c4.2,0.6,7.2,1.2,7.2,7.2c-0.6,12.6,1.2,10.2-10.2,10.2c-18,0-36,0-54,0c-4.8,0-6.6-0.6-6.6-6c0-7.2,0.6-12,9-12.6
		c3.6,0,4.2-2.4,4.2-5.4c0-25.2,0-49.8-0.6-75c-0.6-22.2-12-28.8-33-22.8h-0.6c-15,4.8-14.4,4.8-14.4,19.8c0.6,24.6,0.6,49.2,0,74.4
		c0,6.6,1.8,8.4,7.8,9c8.4,0.6,12,7.2,9,15.6c-0.6,2.4-2.4,2.4-4.2,2.4c-21,0-42,0-63,0c-3,0-4.2-1.2-4.2-4.2
		c-0.6-11.4-0.6-12,10.2-13.8c4.2-0.6,5.4-2.4,5.4-6.6c0-24,0-48,0-72c0-3.6-0.6-7.2-1.2-10.2c-2.4-11.4-8.4-16.2-19.8-16.2
		c-2.4,0-4.8,0-7.2,0.6c-19.8,4.2-21.6,6-21.6,25.8c0,23.4,0,46.2,0,69.6c0,5.4,1.2,7.8,7.2,8.4c11.4,1.2,11.4,1.8,10.2,13.8
		c0,3-1.2,4.2-4.2,4.2c-21,0-42.6,0-63.6,0c-3.6,0-4.2-1.2-4.2-4.2c-0.6-11.4-0.6-11.4,10.8-13.8c4.2-0.6,5.4-2.4,5.4-6
		c0-28.8,0-58.2,0-87c0-4.8-2.4-6-6-6.6c-3.6-1.2-9.6-0.6-10.8-4.2c-1.8-4.8-0.6-10.8-0.6-16.2c0-3.6,3.6-3,6-3
		c11.4-1.8,22.2-3,33.6-4.8c9.6-1.2,13.2,1.8,13.2,11.4C605.4,280.7,605.4,282.5,605.4,286.1z"/>
	<path class="st0" d="M257.4,309.5c0,23.4,2.4,42.6,10.2,60c11.4,24.6,28.8,33.6,54,27.6c7.2-1.8,12.6-5.4,15-12.6
		c1.8-6,4.8-11.4,7.2-17.4c1.2-4.2,3.6-4.8,7.8-4.8c16.8,1.2,16.8,0.6,15.6,17.4c-0.6,7.2-1.2,14.4-1.8,21.6c0,2.4,0,4.8-3.6,6
		c-20.4,3.6-40.8,9.6-61.8,9.6c-48-0.6-82.2-31.2-87.6-79.2c-3.6-31.8,1.2-61.2,22.2-85.8c23.4-27,54.6-35.4,89.4-32.4
		c13.2,1.2,26.4,4.2,39,6.6c3.6,0.6,4.2,1.8,4.2,5.4c-0.6,13.2-1.8,27-1.8,40.2c0,4.8-2.4,6-7.2,6c-19.8,0-19.8,0-24-18
		c-4.8-21-13.8-27-36-22.8c-15.6,3-25.8,12.6-32.4,26.4C258.6,279.5,257.4,296.9,257.4,309.5z"/>
	<path class="st0" d="M870,314.3c0.6,21,3,41.4,12.6,60c11.4,21,28.2,28.8,51.6,22.8c7.2-1.8,12.6-5.4,15-12.6
		c0.6-3,2.4-5.4,3.6-8.4c6-14.4,9.6-16.2,25.2-13.2c3,0.6,3,1.8,3,4.2c-0.6,12-1.8,24-2.4,36c0,1.8-0.6,3.6-3,4.2
		c-19.2,3.6-38.4,9.6-58.2,9.6c-54-0.6-88.2-31.8-91.8-85.8c-1.8-28.2,3-54.6,21.6-76.8c24-28.8,55.2-37.8,91.2-34.8
		c13.2,1.2,26.4,4.2,39,6.6c3,0.6,4.2,1.2,4.2,4.8c-1.2,13.8-1.8,28.2-2.4,42c0,3.6-1.2,4.8-5.4,5.4c-21,0.6-21,0.6-25.8-19.8
		c-4.2-19.2-14.4-25.2-35.4-21c-16.2,3-26.4,13.2-33,27.6C871.8,280.7,870.6,297.5,870,314.3z"/>
	<path class="st0" d="M1146.6,340.1c0,10.8-1.2,21-4.2,30.6c-10.8,31.8-40.8,49.8-76.2,46.2c-36.6-4.2-57-26.4-59.4-64.8
		c-1.2-18,0.6-36,10.2-52.2c15.6-26.4,47.4-39,79.8-31.2c28.2,6.6,46.2,28.2,49.2,59.4C1146,331.7,1146,336.5,1146.6,340.1z
		 M1048.8,339.5c0.6,15.6,0.6,31.8,7.2,46.2c4.2,8.4,10.2,13.8,20.4,13.8c9.6,0,16.8-4.8,20.4-13.2c1.8-3.6,3-7.2,3.6-10.8
		c3.6-16.2,3.6-32.4,1.8-49.2c-0.6-10.2-1.8-20.4-6.6-29.4c-5.4-10.8-16.2-15.6-27.6-11.4c-7.2,2.4-11.4,8.4-14.4,15
		C1049.4,313.1,1049.4,326.3,1048.8,339.5z"/>
	<path class="st0" d="M478.2,398.3c-12.6,12.6-27,18.6-44.4,18.6c-19.8-0.6-34.8-10.8-39.6-27c-5.4-20.4,1.2-38.4,18.6-49.2
		c16.2-9.6,33.6-13.2,52.2-13.8c10.8-0.6,10.8-0.6,10.2-11.4c-1.2-13.8-7.2-20.4-21-21c-16.2-1.2-31.8,3-46.8,9
		c-4.2,1.8-6,0.6-7.8-3c-6-13.2-6-13.2,7.2-19.8c22.2-10.8,45-16.2,69.6-12c23.4,3.6,34.8,17.4,36,42c0.6,26.4,0.6,52.2,0,78.6
		c0,6.6,1.2,9.6,8.4,9c2.4-0.6,7.8-2.4,7.8,3.6c-0.6,4.8,3.6,12-6,13.2s-19.8,3-30,3c-11.4,0-13.8-2.4-14.4-13.8
		C478.2,401.3,478.2,400.1,478.2,398.3z M475.8,363.5c0-6,0-11.4,0-17.4c0-3-1.2-4.8-4.2-4.2c-9,0.6-17.4,1.8-25.2,6
		c-13.2,7.2-17.4,24-9.6,36c4.8,7.2,13.8,9.6,24.6,6.6c13.2-3.6,14.4-5.4,14.4-16.8C475.8,370.7,475.8,367.1,475.8,363.5z"/>
</g>
<g>
	<path class="st0" d="M262.6,511.4c-0.4,4.9-2.5,22.7-20.8,22.7c-20.6,0-21.9-23.3-21.9-41.5c0-22.2,5.6-40.2,22.9-40.2
		c18.5,0,19.3,18,19.5,22.2h-6.9c-0.1-2.7-0.7-15.9-12.8-15.9c-13.9,0-15.7,19.3-15.7,33.8c0,17.4,2,35.6,15,35.6
		c11.5,0,13.3-12.2,13.7-16.6H262.6z"/>
	<path class="st0" d="M317.4,492.5c0,26.3-6,41.5-22.8,41.5c-16.1,0-22.3-14.5-22.3-41.3c0-26.6,7.4-40.5,22.7-40.5
		C311,452.3,317.4,465.7,317.4,492.5z M279.2,492.5c0,24.1,5.1,35.6,15.6,35.6c10.8,0,15.6-11.3,15.6-35.3
		c0-24.9-5.3-34.4-15.7-34.4C284.6,458.4,279.2,469.4,279.2,492.5z"/>
	<path class="st0" d="M377.8,497.6c0-15.3,0.2-30.1,0.5-38.1h-0.1c-3,13.2-11.2,48.7-18,73.6h-6.8c-5-21.1-13.8-59.3-16.8-73.7h-0.2
		c0.5,9.2,0.8,27,0.8,40.6V533h-6.4v-79.6h9.9c7.3,26.1,14.4,59.4,16.5,69.4h0.1c1.4-7.8,10.2-44.2,17.3-69.4h9.9V533h-6.7V497.6z"
		/>
	<path class="st0" d="M448.3,497.6c0-15.3,0.2-30.1,0.5-38.1h-0.1c-3,13.2-11.2,48.7-18,73.6h-6.8c-5-21.1-13.8-59.3-16.8-73.7h-0.2
		c0.5,9.2,0.8,27,0.8,40.6V533h-6.4v-79.6h9.9c7.3,26.1,14.4,59.4,16.5,69.4h0.1c1.4-7.8,10.2-44.2,17.3-69.4h9.9V533h-6.7V497.6z"
		/>
	<path class="st0" d="M505,493.8h-26.9v33.1h29.8L507,533h-35.6v-79.6h35v6.1h-28.3v28.2H505V493.8z"/>
	<path class="st0" d="M524.8,495.3V533H518v-79.6h19.5c12.9,0,19.4,7.6,19.4,20.1c0,12.1-5.6,17.1-10.8,18.7
		c7.8,2.6,9.9,9.6,9.9,20.5v3.2c0,6.8,0.1,12.8,1.2,17.1h-6.9c-1.1-3.6-1.1-11-1.1-17.3v-2.6c0-11.6-2.2-17.8-13.7-17.8H524.8z
		 M524.8,489.5h11.3c10.2,0,13.9-6.2,13.9-15.8c0-8.4-3.9-14.4-13.2-14.4h-12.1V489.5z"/>
	<path class="st0" d="M610.7,511.4c-0.4,4.9-2.5,22.7-20.8,22.7c-20.6,0-21.9-23.3-21.9-41.5c0-22.2,5.6-40.2,22.9-40.2
		c18.5,0,19.3,18,19.5,22.2h-6.9c-0.1-2.7-0.7-15.9-12.8-15.9c-13.9,0-15.7,19.3-15.7,33.8c0,17.4,2,35.6,15,35.6
		c11.5,0,13.3-12.2,13.7-16.6H610.7z"/>
	<path class="st0" d="M629.1,453.4V533h-6.8v-79.6H629.1z"/>
	<path class="st0" d="M651.8,505.9l-6.4,27.1h-6.7l19.4-79.6h8.8l20.2,79.6h-7.3l-6.6-27.1H651.8z M671.9,499.8
		c-5.3-21.2-8.4-34-9.5-39.9h-0.2c-1.1,6.8-4.6,21.9-8.9,39.9H671.9z"/>
	<path class="st0" d="M696.7,453.4h6.8v73.5h28.8l-1.2,6.1h-34.4V453.4z"/>
	<path class="st0" d="M769,505.9l-6.4,27.1h-6.7l19.4-79.6h8.8l20.2,79.6H797l-6.6-27.1H769z M789,499.8c-5.3-21.2-8.4-34-9.5-39.9
		h-0.2c-1.1,6.8-4.6,21.9-8.9,39.9H789z"/>
	<path class="st0" d="M813.8,453.4h16.6c17.6,0,26,12.6,26,37.6c0,27-7.5,42-27.3,42h-15.3V453.4z M820.6,527h8.1
		c15.8,0,20.7-12.6,20.7-35.7c0-22.2-6.2-31.9-20.6-31.9h-8.2V527z"/>
	<path class="st0" d="M882.1,533l-19.7-79.6h7.1l9.4,39.2c2.8,11.3,6.1,26,7.1,33.3h0.2c1.1-6.4,5.3-21.9,8.1-33.3l9.8-39.2h6.9
		L890.4,533H882.1z"/>
	<path class="st0" d="M927.1,453.4V533h-6.8v-79.6H927.1z"/>
	<path class="st0" d="M945.3,512.6c0.6,8.7,5,15.6,14.3,15.6c8.8,0,13.6-4.7,13.6-15c0-9.1-3.4-13.8-14.5-19.2
		c-12.1-5.7-17.7-11.2-17.7-22.6c0-10.3,6.6-19.1,19.1-19.1c14.4,0,18.5,10.6,18.7,19.7h-6.7c-0.4-3.6-1.5-13.8-12.4-13.8
		c-8.4,0-11.9,5.8-11.9,12.6c0,8.3,3.7,12.2,13.9,17.1c13.8,6.7,18.4,13.3,18.4,24.7c0,12.6-6.8,21.4-20.7,21.4
		c-15.1,0-20.1-10.1-20.8-21.4H945.3z"/>
	<path class="st0" d="M1034.3,492.5c0,26.3-6,41.5-22.8,41.5c-16.1,0-22.3-14.5-22.3-41.3c0-26.6,7.4-40.5,22.7-40.5
		C1028,452.3,1034.3,465.7,1034.3,492.5z M996.2,492.5c0,24.1,5.1,35.6,15.6,35.6c10.8,0,15.6-11.3,15.6-35.3
		c0-24.9-5.3-34.4-15.7-34.4C1001.6,458.4,996.2,469.4,996.2,492.5z"/>
	<path class="st0" d="M1054.3,495.3V533h-6.8v-79.6h19.5c12.9,0,19.4,7.6,19.4,20.1c0,12.1-5.6,17.1-10.8,18.7
		c7.8,2.6,9.9,9.6,9.9,20.5v3.2c0,6.8,0.1,12.8,1.2,17.1h-6.9c-1.1-3.6-1.1-11-1.1-17.3v-2.6c0-11.6-2.2-17.8-13.7-17.8H1054.3z
		 M1054.3,489.5h11.3c10.2,0,13.9-6.2,13.9-15.8c0-8.4-3.9-14.4-13.2-14.4h-12.1V489.5z"/>
	<path class="st0" d="M1103.1,512.6c0.6,8.7,5,15.6,14.3,15.6c8.8,0,13.6-4.7,13.6-15c0-9.1-3.4-13.8-14.5-19.2
		c-12.1-5.7-17.7-11.2-17.7-22.6c0-10.3,6.6-19.1,19.1-19.1c14.4,0,18.5,10.6,18.7,19.7h-6.7c-0.4-3.6-1.5-13.8-12.4-13.8
		c-8.4,0-11.9,5.8-11.9,12.6c0,8.3,3.7,12.2,13.9,17.1c13.8,6.7,18.4,13.3,18.4,24.7c0,12.6-6.8,21.4-20.7,21.4
		c-15.1,0-20.1-10.1-20.8-21.4H1103.1z"/>
</g>
</svg>
