<?xml version="1.0" encoding="utf-8"?>
<!-- Generator: Adobe Illustrator 24.2.3, SVG Export Plug-In . SVG Version: 6.00 Build 0)  -->
<svg version="1.1" id="Layer_1" xmlns="http://www.w3.org/2000/svg" xmlns:xlink="http://www.w3.org/1999/xlink" x="0px" y="0px"
	 viewBox="0 0 1366 768" style="enable-background:new 0 0 1366 768;" xml:space="preserve">
<style type="text/css">
	.st0{fill:#021C43;}
	.st1{fill:#6B7576;}
	.st2{fill:#687273;}
	.st3{fill:#6D7778;}
	.st4{fill:#666F70;}
	.st5{fill:#757E7F;}
	.st6{fill:#778080;}
	.st7{fill:#788181;}
	.st8{fill:#777E7E;}
	.st9{fill:#838B8C;}
	.st10{fill:#7A8383;}
	.st11{fill:#848C8C;}
</style>
<g>
	<path class="st0" d="M1162.2,369c0-3,0-6,0-9"/>
	<path class="st0" d="M1162.2,360c0-1.2,0-3,0-4.2"/>
	<path class="st0" d="M1162.2,373.8c0-1.2,0-3,0-4.2"/>
	<path class="st0" d="M789.6,370.8c0,10.2,0,21,0,31.2c0,12,1.8,15,13.2,16.8c5.4,1.2,5.4,3.6,5.4,7.8c0,5.4-4.2,3-6.6,3
		c-21.6,0-43.2,0-64.2,0c-3,0-6,0.6-6-4.2c0-3.6,0-6.6,4.8-6.6c7.8,0,10.8-4.8,10.8-12c0-22.2,0-44.4,0-66.6
		c0-13.2-5.4-21.6-14.4-23.4c-10.8-2.4-25.8,5.4-30.6,15c-1.2,2.4-0.6,4.2-0.6,6.6c0,21.6,0,43.2,0,64.2c0,8.4,3,15,12,16.2
		c5.4,1.2,3.6,4.8,3.6,7.8c0.6,4.8-3,3.6-5.4,3.6c-21,0-41.4,0-62.4,0c-3,0-6,0.6-6-4.2c0-3.6,0.6-6.6,4.8-6.6
		c7.8,0,10.8-4.2,10.8-11.4c0-23.4,0-46.8-0.6-70.2c-0.6-13.2-6-19.8-15-21c-10.8-1.2-25.8,6.6-29.4,15.6c-0.6,1.8-0.6,3.6-0.6,6
		c0,21,0,42.6,0,63.6c0,9,2.4,15.6,12,17.4c5.4,1.2,4.2,4.8,3.6,8.4c0,4.2-3.6,3-5.4,3c-22.2,0-43.8,0-66,0c-3,0-6,0-6-4.2
		c0-3.6,0.6-6,4.8-6.6c12.6-1.8,14.4-4.8,14.4-17.4c0-23.4,0-46.2,0-69.6c0-12.6-4.2-18.6-16.8-21.6c-4.8-1.2-4.2-3.6-4.2-6.6
		c0-4.2,3-3.6,5.4-4.2c16.8-1.2,34.2-1.8,51-3c6-0.6,7.8,1.2,7.2,7.2c0,4.2-1.2,9,0.6,13.2c3-2.4,6.6-5.4,9.6-7.8
		c16.8-14.4,39.6-18,57.6-9c6.6,3.6,12,8.4,15,15c2.4,5.4,4.8,4.2,7.8,1.2c9.6-10.2,20.4-17.4,34.2-19.8c30-4.8,49.8,11.4,50.4,42
		C790.2,348.6,789.6,360,789.6,370.8z"/>
	<path class="st0" d="M300,237c3.6,0,7.2,0,10.2,0c14.4,1.8,28.2,4.8,40.8,11.4c2.4,1.2,3.6,0.6,5.4-1.2c1.2-1.2,2.4-2.4,4.2-3.6
		c3.6-3,7.8-2.4,11.4-1.2c3,1.2,1.2,4.8,1.2,7.2c0.6,18,0.6,35.4,1.2,53.4c0,2.4,3,7.2-3,7.2c-4.8,0-8.4,0.6-10.2-6
		c-3-11.4-7.8-22.2-14.4-31.8c-10.2-15.6-24-24.6-43.2-23.4c-18.6,1.2-30.6,12-37.2,28.2c-13.8,36-14.4,72.6,0,108.6
		c14.4,35.4,58.2,36,80.4,18.6c8.4-6.6,15.6-15,21-24c1.8-3.6,3.6-4.8,7.2-1.8c3,2.4,7.2,3,4.2,9c-15,27.6-37.2,44.4-69.6,46.8
		c-33,2.4-63-6.6-84-33.6c-24.6-31.8-27-68.4-12.6-105c13.8-34.8,40.8-53.4,77.4-58.2C294,237.6,297,237.6,300,237z"/>
	<path class="st0" d="M916.2,237c4.2,0,7.8,0,12,0c13.8,1.8,27.6,4.8,40.2,10.8c3,1.8,4.8,0,6.6-1.8c2.4-1.8,3.6-4.2,6.6-4.2
		c6-0.6,9.6-0.6,9.6,7.8c-0.6,18,0,36.6,0.6,54.6c0,2.4,1.8,6-3,6c-3.6,0-7.8,1.8-9.6-4.2c-3.6-12-8.4-22.8-15-33
		c-8.4-13.2-19.8-22.2-36-23.4c-19.8-1.8-35.4,7.8-43.8,28.2c-13.8,35.4-13.8,71.4-0.6,106.8c14.4,38.4,60,38.4,81.6,20.4
		c7.8-6.6,14.4-13.8,19.8-22.2c1.8-3,2.4-7.2,8.4-3.6c4.8,3,6.6,5.4,3.6,10.8c-13.8,24-33.6,40.2-61.8,43.8
		c-34.2,4.8-66-2.4-88.8-30c-27-31.8-29.4-69-15-106.8c13.2-35.4,40.8-54.6,78-59.4C911.4,237.6,913.8,237.6,916.2,237z"/>
	<path class="st0" d="M518.4,369.6c0,10.8,0,22.2,0,33c0,12,3.6,15.6,15.6,16.2c2.4,0,6.6-1.8,6.6,3c0,4.2,0,7.2-4.8,8.4
		c-12.6,4.2-25.2,6-38.4,3.6c-7.8-1.8-14.4-5.4-18-13.2c-1.8-4.8-3.6-4.2-6.6-1.2c-13.2,13.2-30,17.4-48,14.4
		c-15.6-2.4-25.8-12.6-28.2-27c-2.4-16.2,4.2-30.6,18-37.8c11.4-6,23.4-8.4,35.4-12.6c3-1.2,6.6-1.8,9.6-3c6-2.4,15.6-1.8,16.8-8.4
		c1.8-10.8,2.4-22.8-4.2-33.6c-5.4-9-22.2-7.2-27.6-2.4c-1.2,1.2-1.8,2.4-1.2,4.2c0.6,1.8,0.6,3.6,1.2,4.8c3,8.4,4.2,16.8-4.2,23.4
		s-18,6.6-27.6,2.4c-11.4-5.4-14.4-18.6-6.6-28.2c10.8-13.2,25.8-17.4,42-19.2c16.2-2.4,31.8-1.8,47.4,4.2
		c14.4,5.4,22.2,16.2,23.4,31.2C519.6,343.8,519,357,518.4,369.6C519,369.6,519,369.6,518.4,369.6z M476.4,381.6
		C477,381.6,477,381.6,476.4,381.6c0-2.4,0-4.8,0-7.2c0-14.4,0-14.4-13.8-9.6c-15.6,6-22.8,15.6-22.2,31.8c0,11.4,6,17.4,16.2,17.4
		c12,0,19.2-6.6,19.2-17.4C477,391.2,476.4,386.4,476.4,381.6z"/>
	<path class="st0" d="M1162.2,369c0,1.2,0,3,0,4.2c-6.6,45.6-43.2,63.6-82.8,61.2c-22.2-1.2-41.4-9.6-54.6-28.2
		c-31.8-45.6-4.2-105.6,51.6-110.4c25.2-2.4,48.6,1.8,67.2,20.4c10.8,10.8,16.2,24.6,18.6,39c0,1.2,0,3,0,4.2
		C1162.2,363,1162.2,366,1162.2,369z M1059.6,365.4c0,13.8,0,28.2,5.4,41.4c3.6,9.6,9,17.4,20.4,18c12,0.6,19.8-4.8,24.6-17.4
		c6.6-18,6.6-37.2,5.4-56.4c-0.6-10.2-1.8-21-6-30.6c-4.2-8.4-9.6-14.4-19.8-14.4c-13.2,0-21.6,7.2-25.8,22.2
		C1060.2,340.2,1059.6,352.8,1059.6,365.4z"/>
	<path class="st1" d="M1053,501c3-7.2,0.6-15,1.2-22.8c0-1.8-0.6-4.8,1.8-4.8c3.6,0,2.4,3,2.4,5.4c0,7.8,0,16.2,0,24
		c0,1.8,1.2,4.8-1.8,6c-3,0.6-4.2-1.8-5.4-4.2C1051.2,502.8,1051.8,501.6,1053,501z"/>
	<path class="st2" d="M1035.6,480c-3,7.2-0.6,15-1.2,22.2c0,1.8,1.2,5.4-2.4,5.4c-3,0-1.8-3.6-1.8-5.4c0-7.2,0-15,0-22.2
		c0-2.4-1.2-5.4,1.8-6.6c3.6-1.2,4.8,2.4,6,4.8C1037.4,478.8,1036.8,479.4,1035.6,480z"/>
	<path class="st3" d="M1081.2,505.2c2.4,0,4.8,0,7.2,0c1.2,0,2.4,0.6,3,1.8c-3,1.8-6,1.8-9,1.2c-1.2-1.8-3-1.2-4.8-1.2
		c-0.6,0-1.2,0-1.2-0.6c-0.6-0.6-1.2-0.6-1.2-1.2c-8.4-7.8-9.6-19.2-1.8-28.8c0.6-0.6,1.2-1.2,1.8-1.2l0,0c0.6,0,1.2,0,1.8,0
		s1.2,0,1.2,0c0,0.6,0,1.2,0,1.2l0,0c-0.6,0.6-1.2,0.6-1.8,1.2l0,0c-0.6,0.6-0.6,1.2-1.2,1.2c-3.6,8.4-4.2,16.8,3,24
		C1078.8,505.2,1080,505.8,1081.2,505.2z"/>
	<path class="st4" d="M1018.8,490.2c0,4.8,0,9.6,0,14.4c0,1.2,0,3-2.4,3c-1.8,0-1.8-1.8-1.8-3c0-9.6,0-19.2,0-28.8c0-1.2,0-3,1.8-3
		c2.4,0,1.8,1.8,1.8,3C1018.8,481.2,1018.8,485.4,1018.8,490.2z"/>
	<path class="st5" d="M1035.6,480c0.6-0.6,1.2-1.8,2.4-2.4c4.8,7.8,10.2,15,15,22.8c-1.2,0.6-1.8,1.8-1.8,3
		C1045.8,496.2,1041,488.4,1035.6,480z"/>
	<path class="st6" d="M1078.2,475.8c-0.6,0-1.2,0-1.8,0c0-0.6,0-0.6,0-1.2s0.6-0.6,1.2-0.6c0.6-0.6,1.2-0.6,1.8-1.2
		c6-1.2,12-1.8,16.8,3.6c0.6,0.6,1.2,1.2,1.2,1.8l0,0c0.6,0.6,0.6,1.2,1.2,1.8c0,0.6,0,1.2,0,1.8c-1.2-0.6-3-1.2-4.2-1.2l0,0
		c-0.6-0.6-0.6-1.2-1.2-1.8c-3.6-3.6-8.4-3-13.2-3C1079.4,475.8,1078.8,475.8,1078.2,475.8z"/>
	<path class="st7" d="M1092,507c-0.6-1.2-1.8-1.2-3-1.8c3-1.8,6-4.2,7.2-8.4c0.6-1.8,1.2-3,3-2.4s1.2,2.4,0.6,3.6
		C1098,502.2,1096.2,505.8,1092,507z"/>
	<path class="st8" d="M1114.8,505.8c0,1.8-1.2,3-3,2.4c-1.8,0-2.4-1.2-2.4-3s1.2-2.4,2.4-2.4C1114.2,502.8,1114.8,504,1114.8,505.8z
		"/>
	<path class="st9" d="M1094.4,480c1.2,0.6,3,1.2,4.2,1.2C1096.8,484.2,1095.6,483,1094.4,480z"/>
	<path class="st10" d="M1078.2,507c1.8,0,3.6-0.6,4.8,1.2C1081.2,508.8,1079.4,508.2,1078.2,507z"/>
	<path class="st10" d="M1081.2,505.2c-1.2,0-2.4,0-3-1.2C1079.4,504.6,1080.6,504.6,1081.2,505.2z"/>
	<path class="st9" d="M1098.6,480c-0.6-0.6-0.6-1.2-1.2-1.8C1098,478.8,1098.6,479.4,1098.6,480z"/>
	<path class="st10" d="M1075.2,505.2c0.6,0.6,1.2,0.6,1.2,1.2C1076.4,506.4,1075.8,505.8,1075.2,505.2z"/>
	<path class="st9" d="M1093.8,478.8c0.6,0.6,0.6,1.2,1.2,1.8C1094.4,479.4,1093.8,478.8,1093.8,478.8z"/>
	<path class="st11" d="M1075.2,480c0.6-0.6,0.6-1.2,1.2-1.2C1075.8,478.8,1075.8,479.4,1075.2,480z"/>
	<path class="st9" d="M1098,478.2c-0.6-0.6-1.2-1.2-1.2-1.8C1096.8,477,1097.4,477.6,1098,478.2z"/>
	<path class="st11" d="M1076.4,478.2c0.6-0.6,1.2-0.6,1.8-1.2C1077.6,477.6,1077,477.6,1076.4,478.2z"/>
	<path class="st11" d="M1078.2,475.8c0.6,0,1.2,0,1.8,0c-0.6,0.6-1.2,0.6-1.8,1.2C1078.2,476.4,1078.2,475.8,1078.2,475.8z"/>
	<path class="st11" d="M1079.4,472.8c-0.6,0.6-1.2,0.6-1.8,1.2C1078.2,473.4,1078.8,473.4,1079.4,472.8z"/>
	<path class="st11" d="M1077,474c0,0.6,0,0.6,0,1.2c-0.6,0-1.2,0-1.8,0C1075.8,475.2,1076.4,474.6,1077,474z"/>
	<path class="st11" d="M1075.2,475.2c-0.6,0.6-1.2,1.2-1.8,1.2C1074,476.4,1074.6,475.8,1075.2,475.2z"/>
</g>
<g>
	<path class="st0" d="M386.7,525.8c-1,1.5-2.2,2.9-3.7,4.3c-1.4,1.3-3.1,2.5-5,3.6c-1.9,1-3.9,1.8-6.2,2.4c-2.3,0.6-4.7,0.9-7.4,0.9
		c-4.5,0-8.6-0.8-12.4-2.4c-3.8-1.6-7.1-3.7-9.8-6.5c-2.7-2.8-4.9-6.1-6.4-9.9c-1.5-3.8-2.3-8-2.3-12.5s0.8-8.7,2.4-12.5
		c1.6-3.8,3.7-7.1,6.5-9.9c2.8-2.8,6-4.9,9.8-6.5c3.8-1.6,7.9-2.4,12.3-2.4c2.2,0,4.3,0.2,6.4,0.7c2.1,0.5,4.1,1.1,5.9,1.9
		c1.8,0.8,3.5,1.8,5,3c1.5,1.2,2.8,2.5,3.8,3.9l-5,3.7c-0.6-1-1.4-1.9-2.5-2.9c-1-1-2.3-1.8-3.7-2.5c-1.4-0.7-2.9-1.3-4.6-1.8
		c-1.7-0.4-3.4-0.7-5.3-0.7c-3.9,0-7.3,0.7-10.4,2.1c-3.1,1.4-5.6,3.3-7.8,5.7c-2.1,2.4-3.8,5.1-4.9,8.2c-1.1,3.1-1.7,6.4-1.7,9.9
		c0,3.5,0.6,6.8,1.7,9.9c1.1,3.1,2.8,5.9,4.9,8.2c2.1,2.4,4.7,4.3,7.8,5.7c3.1,1.4,6.5,2.1,10.3,2.1c3.4,0,6.7-0.7,9.7-2.1
		c3.1-1.4,5.7-3.6,7.7-6.7L386.7,525.8z"/>
	<path class="st0" d="M464.5,505.8c0,4.5-0.8,8.7-2.4,12.5c-1.6,3.8-3.7,7.1-6.5,9.9c-2.8,2.8-6,4.9-9.8,6.5
		c-3.8,1.6-7.9,2.4-12.3,2.4c-4.4,0-8.5-0.8-12.3-2.4c-3.8-1.6-7.1-3.7-9.8-6.5c-2.8-2.8-4.9-6.1-6.5-9.9c-1.6-3.8-2.4-8-2.4-12.5
		s0.8-8.7,2.4-12.5c1.6-3.8,3.7-7.1,6.5-9.9c2.8-2.8,6-4.9,9.8-6.5c3.8-1.6,7.9-2.4,12.3-2.4c4.4,0,8.5,0.8,12.3,2.4
		c3.8,1.6,7.1,3.7,9.8,6.5c2.8,2.8,4.9,6.1,6.5,9.9C463.7,497,464.5,501.2,464.5,505.8z M458.1,505.8c0-3.5-0.6-6.8-1.7-9.9
		c-1.1-3.1-2.7-5.9-4.9-8.3c-2.1-2.4-4.7-4.3-7.8-5.7c-3.1-1.4-6.5-2.1-10.3-2.1c-3.8,0-7.2,0.7-10.3,2.1c-3.1,1.4-5.6,3.3-7.8,5.7
		c-2.1,2.4-3.8,5.1-4.9,8.3c-1.1,3.1-1.7,6.4-1.7,9.9c0,3.5,0.6,6.8,1.7,9.9c1.1,3.1,2.7,5.9,4.9,8.2c2.1,2.3,4.7,4.2,7.8,5.6
		c3.1,1.4,6.5,2.1,10.3,2.1c3.8,0,7.2-0.7,10.3-2.1c3.1-1.4,5.6-3.3,7.8-5.6c2.1-2.3,3.8-5.1,4.9-8.2
		C457.6,512.6,458.1,509.3,458.1,505.8z"/>
	<path class="st0" d="M516.1,525.2L516.1,525.2l20-49.2h9.2v59.5h-6v-51.7h-0.2l-21.5,51.7h-3.2l-21.5-51.7h-0.2v51.7h-6V476h9.2
		L516.1,525.2z"/>
	<path class="st0" d="M600.1,525.2L600.1,525.2l20-49.2h9.2v59.5h-6v-51.7h-0.2l-21.5,51.7h-3.2l-21.5-51.7h-0.2v51.7h-6V476h9.2
		L600.1,525.2z"/>
	<path class="st0" d="M660.7,530.1h31.8v5.4h-37.9V476h36.9v5.4h-30.8v20.4h28.8v5.4h-28.8V530.1z"/>
	<path class="st0" d="M720,535.5h-6V476h17.5c2.9,0,5.6,0.3,8.1,0.8c2.5,0.6,4.6,1.5,6.5,2.7c1.8,1.3,3.2,2.9,4.2,4.9
		c1,2,1.5,4.5,1.5,7.4c0,2.2-0.4,4.2-1.2,6c-0.8,1.8-1.8,3.3-3.2,4.7c-1.3,1.3-2.9,2.4-4.8,3.1c-1.8,0.8-3.9,1.3-6,1.5l17.4,28.3
		h-7.4l-16.5-27.8H720V535.5z M720,502.5h10.5c4.9,0,8.6-0.9,11.3-2.6c2.6-1.8,3.9-4.4,3.9-7.9c0-2-0.4-3.6-1.1-5
		c-0.7-1.3-1.7-2.4-3-3.3c-1.3-0.8-2.9-1.5-4.7-1.8c-1.8-0.4-3.9-0.6-6.1-0.6H720V502.5z"/>
	<path class="st0" d="M823.9,525.8c-1,1.5-2.2,2.9-3.7,4.3c-1.4,1.3-3.1,2.5-5,3.6c-1.9,1-3.9,1.8-6.2,2.4c-2.3,0.6-4.7,0.9-7.4,0.9
		c-4.5,0-8.6-0.8-12.4-2.4c-3.8-1.6-7.1-3.7-9.8-6.5c-2.7-2.8-4.9-6.1-6.4-9.9c-1.5-3.8-2.3-8-2.3-12.5s0.8-8.7,2.4-12.5
		c1.6-3.8,3.7-7.1,6.5-9.9c2.8-2.8,6-4.9,9.8-6.5c3.8-1.6,7.9-2.4,12.3-2.4c2.2,0,4.3,0.2,6.4,0.7c2.1,0.5,4.1,1.1,5.9,1.9
		c1.8,0.8,3.5,1.8,5,3c1.5,1.2,2.8,2.5,3.8,3.9l-5,3.7c-0.6-1-1.4-1.9-2.5-2.9c-1-1-2.3-1.8-3.7-2.5c-1.4-0.7-2.9-1.3-4.6-1.8
		c-1.7-0.4-3.4-0.7-5.3-0.7c-3.9,0-7.3,0.7-10.4,2.1c-3.1,1.4-5.6,3.3-7.8,5.7c-2.1,2.4-3.8,5.1-4.9,8.2s-1.7,6.4-1.7,9.9
		c0,3.5,0.6,6.8,1.7,9.9c1.1,3.1,2.8,5.9,4.9,8.2c2.1,2.4,4.7,4.3,7.8,5.7c3.1,1.4,6.5,2.1,10.3,2.1c3.4,0,6.7-0.7,9.7-2.1
		c3.1-1.4,5.7-3.6,7.7-6.7L823.9,525.8z"/>
	<path class="st0" d="M850,535.5h-6V476h6V535.5z"/>
	<path class="st0" d="M874.9,535.5h-6.6L894,476h5.9l25.5,59.5h-6.7l-6.6-15.6h-30.7L874.9,535.5z M883.7,514.3h26.2l-13.1-31.6
		L883.7,514.3z"/>
	<path class="st0" d="M949.8,530.1h27.7v5.4h-33.8V476h6V530.1z"/>
</g>
</svg>
