<svg id="Layer_1" data-name="Layer 1" xmlns="http://www.w3.org/2000/svg" viewBox="0 0 660.39 960.08"><defs><style>.cls-1{fill:#021c43;}</style></defs><path class="cls-1" d="M1013.88,865.5h-657c.06-3.25.15-6.5.15-9.74q0-469.09,0-938.18C357-94.71,355.44-93,367.87-93Q690.73-93,1013.6-93c.1,2.49.27,5,.27,7.48Q1013.89,390,1013.88,865.5Zm-650-616v327c0,1.75.12,3.51,0,5.25-.26,3.18,1,4.67,4.26,4.37,1.73-.16,3.49,0,5.24,0H997.41a24.55,24.55,0,0,1,3.74,0c4.85.77,6.27-1.57,5.64-6a21.44,21.44,0,0,1,0-3v-654c0-9,0-9-9.08-9H372.87c-1.75,0-3.5.13-5.24,0-2.95-.26-4,1-3.79,3.9.14,1.74,0,3.5,0,5.25ZM684.56,857q157.1,0,314.2,0c9.27,0,8,1,8-7.86q0-123.71,0-247.42c0-1.5-.12-3,0-4.5.24-2.69-1-3.56-3.52-3.37-1.49.11-3,0-4.48,0H371.88c-8,0-8,0-8,7.82q0,123.72,0,247.43c0,9-1.17,7.89,8,7.89Q528.22,857.06,684.56,857Z" transform="translate(-355.37 94.58)"/><path class="cls-1" d="M1013.6-93Q690.74-93,367.87-93C355.44-93,357-94.71,357-82.42q0,469.1,0,938.18c0,3.24-.09,6.49-.15,9.74h-1.49c.08-3,.23-6,.23-9q0-470.65,0-941.31c0-3.23-.15-6.47-.23-9.71h658.51l0,1.5Z" transform="translate(-355.37 94.58)"/><path class="cls-1" d="M1013.88,865.5q0-475.53,0-951.06c0-2.49-.17-5-.27-7.48l.29,0h1.48q0,475.88-.09,951.75C1015.28,861,1017,863.84,1013.88,865.5Z" transform="translate(-355.37 94.58)"/><path class="cls-1" d="M1015.37-93h-1.48c0-.5,0-1,0-1.5C1015.16-94.79,1015.66-94.29,1015.37-93Z" transform="translate(-355.37 94.58)"/><path class="cls-1" d="M702.67-36.06c25.76,5.28,50.46,13.33,72.65,27.94,8.31,5.47,8.53,5.47,15.83-1.27,4.79-4.42,8.71-9.58,12.58-14.78a27.28,27.28,0,0,1,2.76-3.52,5.46,5.46,0,0,1,5.64-.93c2.24.72,1.43,2.88,1.44,4.47q.06,27.75,0,55.49c0,17.74.08,35.49-.1,53.23,0,2.44,2.06,6.33-3,7-4.81.58-5-3.11-5.86-6.1C792.34,45,769,12.9,733.22-10c-47.06-30.18-113-28.81-157.8,8.38-21.06,17.48-36.55,39.28-47.84,64.13-18.52,40.78-24.73,83.58-19.56,127.9,4.73,40.53,18.85,77.22,46.37,108.18,42.88,48.26,115,61.14,171.86,30.62,33.3-17.86,57.5-44,72.25-78.77,2.52-5.94,4.15-12.28,6-18.5.85-2.93,1.07-6.18,5.35-5.64s2.93,4.06,2.91,6.46q-.53,53.2-1.28,106.39c0,1.86.78,4.29-2.06,4.89-2.59.55-4.89,0-6.55-2.38a104.88,104.88,0,0,0-14.31-17.22c-5.51-5.17-5.71-5.23-12.06-1.26-27.12,16.94-56.83,26.07-88.43,29.6-32.48,3.62-64.85,2.61-96.6-5-54.49-13-99.11-40.58-127.31-90.87-14.67-26.16-22-54.4-23.66-84.27-2.6-46.45,9.25-89,34.91-127.53,22.38-33.63,53.15-56.67,90.75-71.1,39.43-15.13,80.12-16.73,121.46-12.8C692.2-35.61,697.39-35.62,702.67-36.06Z" transform="translate(-355.37 94.58)"/><path class="cls-1" d="M933.65,201.86c0,18.24,0,36.48,0,54.72,0,4.82-1.91,6.74-5.24,5.74-2.44-.73-2.37-2.93-2.93-4.78a179.61,179.61,0,0,0-27.64-55.15c-23-31.17-52.8-53.2-91.07-60.53-45.3-8.68-86,2.43-120,34.65-26.39,25-42.51,56.13-52.17,90.93a246.46,246.46,0,0,0-8.34,52.38c-.48,8.53-.62,8.48-8.7,5.78a126.13,126.13,0,0,1-48.12-29.12c-4.06-3.91-5.16-7.6-3.88-13.16a197.19,197.19,0,0,1,45.72-88.76c27-30.2,61.11-48,99.78-57.94,30.57-7.87,61.75-8.9,92.77-5.36,33.35,3.81,65.26,13.42,93.45,32.72,4.43,3,7.58,2.83,11.53-.82a125.71,125.71,0,0,0,15.87-17.8c1.89-2.56,3.57-5.1,7.1-3.93s1.8,4.26,1.82,6.47C933.7,165.89,933.65,183.88,933.65,201.86Z" transform="translate(-355.37 94.58)"/><path class="cls-1" d="M562.85,354.89c10.8,3.28,21.71,6.57,33,8.63,8.36,1.53,16.75,2.54,25.15,3.49,5.12.58,7.54,2.16,8.51,7.88,5,29.4,14.9,57,32.83,81.11,35.88,48.19,84.16,68.61,143.15,59.14,40.62-6.52,72.27-29.57,96.29-62.92a145.79,145.79,0,0,0,23.52-50.5c.68-2.75,1.33-4.55,4.68-4.4,4.26.19,3,3.26,3,5.44q-.53,53.94-1.23,107.9c0,1.74,1.14,4.38-1.75,5s-5.4.35-7.23-2.49c-3.66-5.67-8.35-10.52-13-15.39-6.51-6.85-7.2-6.88-14.95-2-24,15.2-50.52,23.22-78.21,27.72-30,4.89-60.17,4.12-90.07-1-43.09-7.36-82.17-23.49-113.76-54.91-25.13-25-40.78-55.08-47.74-89.77-1.27-6.35-3-12.65-3.3-19.17A4.2,4.2,0,0,1,562.85,354.89Z" transform="translate(-355.37 94.58)"/><path class="cls-1" d="M702.67-36.06c-5.28.44-10.47.45-15.09-2.74C692.83-39.09,697.79-37.81,702.67-36.06Z" transform="translate(-355.37 94.58)"/><path class="cls-1" d="M430.63,693c0-9.5-.15-19,.07-28.49.09-3.93-.31-6.85-5-7.46-1.84-.24-4.48-.73-4.27-3.26.24-2.95,3-1.89,4.79-1.92,6.73-.12,13.47-.1,20.2,0,1.57,0,3.86-.64,4.13,1.91.19,1.82-1.63,2.65-3,2.82-5.32.68-5.88,4-5.65,8.49.33,6.49.2,13,0,19.49-.08,3,.56,4.57,4.05,4.5q13.83-.29,27.67,0c3.68.07,4.69-1.36,4.57-4.84-.22-6.49-.21-13,0-19.49.12-4.07-.1-7.43-5.23-8.1-1.55-.2-3.71-1-3.15-3.31.44-1.85,2.34-1.48,3.76-1.49,7.23,0,14.46,0,21.69,0,1.41,0,3.21-.24,3.51,1.82s-1.46,2.8-2.75,2.9c-6.69.51-6.59,4.89-6.53,10q.31,27.74,0,55.48c-.06,4.51.37,7.81,5.7,8.34,1.73.17,3.78.85,3.62,3-.2,2.61-2.61,1.74-4.14,1.76-7.23.1-14.46.07-21.69,0-1.41,0-3.29.28-3.36-1.86a2.62,2.62,0,0,1,2.35-2.56c6.74-.67,6.35-5.4,6.22-10.29-.19-6.74-.14-13.5,0-20.24.06-2.91-.37-4.71-3.94-4.65-9.48.17-19,.13-28.43,0-2.83,0-4,.86-3.9,3.84.16,8.5.31,17,0,25.49-.19,4.41,2.79,4.58,5.51,5.55,1.64.59,3.67,1.13,3.05,3.43-.5,1.86-2.46,1.25-3.82,1.26-7.48.07-15,.05-22.44,0-1.16,0-2.64.18-2.88-1.54a2.27,2.27,0,0,1,2-2.67c7.77-.66,7.5-6,7.33-11.73C430.44,710.5,430.63,701.75,430.63,693Z" transform="translate(-355.37 94.58)"/><path class="cls-1" d="M598.87,693.67a60.7,60.7,0,0,1-3,18.43c-5.48,15.82-17.54,24.6-33.74,24.58-16.41,0-28.37-8.51-33.68-24.5-4.67-14-4.47-28.12,1.75-41.66,6.11-13.3,16.76-20,31.44-20.15s25.32,6.28,32,19.34C597.5,677.22,598.68,685.34,598.87,693.67Zm-12.72-3.57c-.08-6.11-1.23-15.25-6.6-23.23-9.33-13.84-28.46-14-35.72.36-8.55,16.95-8.5,34.74.3,51.8,4.08,7.92,11.34,11.81,20.41,11.22,8.71-.56,13.88-6.1,17.31-13.53S586.22,701.42,586.15,690.1Z" transform="translate(-355.37 94.58)"/><path class="cls-1" d="M760.1,681.31a122.29,122.29,0,0,1-.15,23.27c-2.76.54-3.36-.88-4.22-2.13-1.48-2.16-1.4-6-4.68-6.22a117.07,117.07,0,0,0-15.67.06c-1.89.11-1.55,2.25-1.56,3.68,0,8.25.1,16.5-.07,24.74-.07,3.31,1.19,4.52,4.37,4.25a29.87,29.87,0,0,1,6,0c10.3,1.22,19.45.65,21.34-12.53.14-1,1.29-1.43,3.22-1.67,1.93,5.8,1.73,12,1.68,18,0,3.19-2.68,2.36-4.46,2.37-11.47.07-22.94,0-34.41,0-5,0-10,0-15,0-1.41,0-3.29.24-3.38-1.87a2.55,2.55,0,0,1,2.36-2.54c7.59-.46,7.1-5.63,7-11.12q-.28-27,0-54c0-4.59.06-8.52-5.92-9.08-1.48-.14-3.76-.78-3.25-3.19.41-1.89,2.32-1.55,3.72-1.55,15.7,0,31.41,0,47.12,0,2.8,0,4.18,1,3.88,4-.39,4-.57,8-.87,12-.09,1.25-.22,2.58-1.85,2.76a2.27,2.27,0,0,1-2.57-2.15c-1.31-10.62-8.58-10.54-16.81-10.2-12.15.49-12.16.13-12.16,12.17,0,5,.12,10,0,15-.11,3.15,1,4.69,4.26,4.42a26.88,26.88,0,0,1,5.23,0c5.91.68,10.91-.1,12.81-6.9C756.43,681.55,757.55,680.9,760.1,681.31Z" transform="translate(-355.37 94.58)"/><path class="cls-1" d="M884.82,708.08c3.72,5.43,3.85,10.06,5.32,14.21.74,2.07.92,4.33,2.94,5.88,5.64,4.3,18.28,2.17,23.18-4,5.07-6.42,4-14.12-3-19.71-3.9-3.15-8.43-5.27-12.9-7.48-5.39-2.67-10.47-5.8-14.32-10.56-5.49-6.79-6.65-14.46-3.73-22.54s9.42-12,17.63-13.06a61.39,61.39,0,0,1,23,1.66c3.61.9,4.93,2.74,4.29,6.39-.77,4.42-1.25,8.89-2,13.33-.18,1.2-.58,2.55-2.16,2.56s-1.93-1.3-2.3-2.5a50.5,50.5,0,0,1-2.08-7.18c-.76-5.19-3.21-7.94-8.75-8.08-6.63-.16-13.34-.69-16.85,6.52a12.59,12.59,0,0,0,2,14.65c3.35,3.83,7.76,6.22,12.16,8.56a98.22,98.22,0,0,1,12.88,7.53c8.21,6.11,11.68,14.16,9.54,24.23-2.11,9.91-8.87,15.46-18.41,17.39a45.8,45.8,0,0,1-25.72-1.93c-4-1.5-5.51-3.68-4.61-7.83C882.15,720.65,881.74,714.85,884.82,708.08Z" transform="translate(-355.37 94.58)"/><path class="cls-1" d="M663.11,693.72c0,9.75.19,19.5-.09,29.24-.13,4.13.69,6.74,5.23,7.19a12.52,12.52,0,0,1,4.21,1.36,1.82,1.82,0,0,1,1,2.5,2.33,2.33,0,0,1-1.69,1.06c-9.47.07-19,.06-28.42,0-1,0-2-.34-2.11-1.57a2.46,2.46,0,0,1,1.51-2.33,1.38,1.38,0,0,1,.68-.3c9.94-.13,8.42-7.25,8.4-13.62-.07-17.75-.19-35.5.09-53.24.07-4.67-1.27-6.51-5.85-5.79a4.7,4.7,0,0,1-.75,0c-11.06-.14-11.06-.14-15,10.38-.26.71-.49,1.42-.8,2.1-.69,1.52-.76,4-2.92,3.8-2.84-.26-1.95-3-2.12-4.81-.44-4.48-.53-9-.89-13.47-.25-3.15.91-4.51,4.2-4.5,19.7.08,39.4.05,59.1,0,2.45,0,4.5.19,4.26,3.55-.38,5.48-.55,11-.86,16.47-.07,1.22-.22,2.67-1.77,2.84s-2.16-1-2.6-2.22c-.51-1.41-.94-2.85-1.55-4.22-1.38-3.15-1.24-7.89-4.23-9.22-4.48-2-9.8-.7-14.76-.6-3.2.07-2.16,2.82-2.18,4.57C663.07,673.22,663.11,683.47,663.11,693.72Z" transform="translate(-355.37 94.58)"/><path class="cls-1" d="M854,709.89c1.86,7.47,1.46,15.33,1.41,23.15,0,2.08-1.65,2.15-3.17,2.16q-25.8,0-51.59,0c-1.15,0-2.7.31-3.08-1.3a2.54,2.54,0,0,1,2.34-3.2c7.25-.62,6.52-5.67,6.49-10.76-.14-18.24-.17-36.48,0-54.71,0-4.45-.23-7.85-5.66-8.47-1.53-.18-3.66-1-3.14-3.36.43-1.88,2.31-1.54,3.73-1.54,8,0,15.95,0,23.92,0,1.5,0,3.18,0,3.28,2a2.37,2.37,0,0,1-2.45,2.34c-9,.38-8.48,6.52-8.41,13q.33,27,0,54c-.06,4.6,1.18,6.57,5.83,5.78a10.56,10.56,0,0,1,1.49,0c6,0,12.68,1.59,17.75-.59,5.44-2.35,4.63-10.36,7.26-15.58C850.62,711.48,850.9,709.8,854,709.89Z" transform="translate(-355.37 94.58)"/><path class="cls-1" d="M470.33,787.06a1,1,0,0,1,.32-1c2.21,1.51,1.09,3.83,1.4,5.81-5.92,1.06-11.85.33-17.85.42,2.49-9.26,2.24-18.22.23-27.86,2.05-1,4.91-.17,8.17-.27-4.68,8.07-2.59,16.42-1.94,24.3.26,3.21,5.55,2.12,8.7.6A1.53,1.53,0,0,0,470.33,787.06Z" transform="translate(-355.37 94.58)"/><path class="cls-1" d="M904.55,787.7c-2.12-1.54-2.58-4.16-4-6.17a2.27,2.27,0,0,0-2.46-1.16c-1.3.24-1.49,1.3-1.45,2.23.12,3-1.3,6.57,2.68,8.81-3,1.49-5.8.85-8.77.61,3.26-4.4,1.8-9.26,1.8-13.82,0-4.35,1.6-9.07-2.6-13.52,4.63.24,8.41-1.45,12.32.08l-2,1.51c-3.32-.06-4.06,2-3.62,4.7s-1.88,6.69,3.23,7.32c2.55-.37,3.13,2.25,4.81,3.2a4.39,4.39,0,0,1,1.85,2.88C904.85,785,904.63,786.29,904.55,787.7Z" transform="translate(-355.37 94.58)"/><path class="cls-1" d="M840.26,766.49c-1.71,13-1,21,2.26,24.88-2.81,1.46-5.66.69-8.34.68,3.06-8.37,1-16.93,1.5-25.33a8.74,8.74,0,0,0,.18-1.43l4.3,0A9.24,9.24,0,0,0,840.26,766.49Z" transform="translate(-355.37 94.58)"/><path class="cls-1" d="M939,791.66c-5.46,1.19-10.95.67-16.43.29,0-.5,0-1,0-1.5l0,0c2.51-1.41,1.6-3.84,1.64-5.89.12-6.07.08-12.15.1-18.23l2.53-.05a4,4,0,0,0,.6.48c0,1.49,0,3,0,4.46.12,6.57.24,6.64,7.47,4.31l.49.08.49-.09a4.8,4.8,0,0,1,.25,4.45l-1.61.07,0,0a1.59,1.59,0,0,0-2-1.31l-3.34,0c-1.16-.16-1.84.29-1.94,1.51,0,.48.11,1,.12,1.45.17,8.45.17,8.45,8.38,8.63a1.66,1.66,0,0,0,1.65-1.66l-.06.07A3,3,0,0,1,939,791.66Z" transform="translate(-355.37 94.58)"/><path class="cls-1" d="M487.25,766.88c.71,3.38-1.32,7.12,1.32,10.25l.06,1.55c-.4.63-1.06,1.22-1.16,1.9-1.36,9-.75,9.72,8.26,9.77,1.06,0,1.66-.43,1.68-1.53l0,0c1.24.53,1.4,1.67,1.59,2.79-5.66,1.22-11.34.32-17,.55,2.6-8.7,2.16-17.21.66-25.74,1.07-1.86,2.79-1.16,4.35-1.12Z" transform="translate(-355.37 94.58)"/><path class="cls-1" d="M705.78,766.33c7.11,6.92,7.47,14.07,1.21,23.92a6.58,6.58,0,0,1-1.47,0l-1.79-1.51c3.35-6.82,3.7-13.64.07-20.49a5.37,5.37,0,0,1,.56-.7l.65-.09.07-.64A3.35,3.35,0,0,1,705.78,766.33Z" transform="translate(-355.37 94.58)"/><path class="cls-1" d="M426.89,766.63a1.12,1.12,0,0,1-1-.44c1.7-1.56,3.7-.89,5.62-.77a7.45,7.45,0,0,1,.19,1c-.89,1.59-.37,3.34-.62,5-.82,5.36,1.81,6.36,6.29,5.16,2.17.9,2.2,2,.37,3.35-6.59-1.44-6.61-1.44-6.63,4.79,0,1.92-.25,3.9.73,5.7h-3.19c0-6.22.1-12.44.06-18.65C428.68,769.92,429.37,767.69,426.89,766.63Z" transform="translate(-355.37 94.58)"/><path class="cls-1" d="M859.17,766.71a4.43,4.43,0,0,1-.72-.17c-.71-.25-1.56-1.19-1.12-1.44a7.5,7.5,0,0,1,7.94,0c.36.22-.4,1.2-1.18,1.37a29.92,29.92,0,0,0,.1,21v0a1.46,1.46,0,0,0,1.39,1.53l.07.05a1.72,1.72,0,0,0,2.06,1.11,11.25,11.25,0,0,0,6.94-1.33.65.65,0,0,0,.21.8l.38.48a.79.79,0,0,0,.87.31c-3.68,3.27-7.72,2.87-11.89,1.19a1.43,1.43,0,0,0-1.62-1.09l0,0a1.85,1.85,0,0,0-1.51-1.56l0,0-.06-3c0-5.1.08-10.19.08-15.28C861.18,769.15,861.4,767.31,859.17,766.71Z" transform="translate(-355.37 94.58)"/><path class="cls-1" d="M786.65,766.67c-.13,6.7-.19,13.4-.45,20.09-.07,1.8,1,4-1.27,5.35,1.83-5-4.52-6.44-4.51-10.63,1.52.78,2.74,1.18,2.67-1.37-.11-4.43-.08-8.86-.12-13.29Z" transform="translate(-355.37 94.58)"/><path class="cls-1" d="M582.78,772.64c-1.85-.73-2.49-.14-2.48,1.87,0,4.81-.19,9.61-.31,14.41l-3.45,1.4c1.36-7.92.8-15.87.33-23.82C579.43,768,582.93,768.54,582.78,772.64Z" transform="translate(-355.37 94.58)"/><path class="cls-1" d="M597.92,768c.94,7.09.26,14.2.38,21.3.06,3.47-1.1,4.83-3.75,1.34,2.9-2.43,2.58-4-1.23-4.68l-.51-2.71a5.46,5.46,0,0,1,.77-.47c3.08-5.24,1.37-10.79,1.09-16.25Z" transform="translate(-355.37 94.58)"/><path class="cls-1" d="M879.56,766.78c0,5.12-.11,10.24-.14,15.36,0,3.22-.2,6.36-3.3,8.34a.79.79,0,0,1-.87-.31l.21-.5-.59,0a.65.65,0,0,1-.21-.8c3.08-7.27,1.24-14.84,1.36-22.29Z" transform="translate(-355.37 94.58)"/><path class="cls-1" d="M765.46,789,765,766.75c2.36.74,4.29,1.9,4.62,4.65-2.74,6.17-1.16,12.53-.82,18.83Z" transform="translate(-355.37 94.58)"/><path class="cls-1" d="M560.15,790.41c-1.26-7.45-1.26-7.45-11.17-7.19l-1.57-.12-.65-.16c.11-.47.21-1,.32-1.43a2.4,2.4,0,0,0,1.3-3.07v0c.48,0,1,.07,1.43.12l.24-.07c2.28,4,4.92,4,7.47,0,1.12-.36,1.28-1.21,1.14-2.22a2.49,2.49,0,0,0,.46-1.07,43.63,43.63,0,0,1,4.54,12.21C562,787.8,562,790.15,560.15,790.41Z" transform="translate(-355.37 94.58)"/><path class="cls-1" d="M647.54,780.14a25.51,25.51,0,0,1-.09,8.76l-1.73,1.57-2.08-.28q.06-11.75.14-23.49l4,.08.07,9.87C645.86,777.65,645.22,778.76,647.54,780.14Z" transform="translate(-355.37 94.58)"/><path class="cls-1" d="M904.56,781.49c-1.68-1-2.26-3.57-4.81-3.2,5-1.71,6-5.34,4.63-10a3.42,3.42,0,0,1,.51-.69l.65-.09.07-.64a2.45,2.45,0,0,1,.74-.53c4.44,3.46,3.81,7.32.74,11.2C906.09,778.77,904.19,779.38,904.56,781.49Z" transform="translate(-355.37 94.58)"/><path class="cls-1" d="M814.88,776.94c1,3,1.93,6,2.9,9.07-2.11.75-.74,3.84-3,4.47-1.33-7.74-1.33-7.74-11.45-7.09-.23-1.21-.45-2.42-.68-3.63l0,0,1.64.21c6.24,2.47,7,2.15,7.46-3l2.14-.22A3.41,3.41,0,0,0,814.88,776.94Z" transform="translate(-355.37 94.58)"/><path class="cls-1" d="M769.66,771.4c-.33-2.75-2.26-3.91-4.62-4.65-2-.73-2.37-2-.14-2.45,4.86-1,6.62,2.69,8.22,6.3a1.68,1.68,0,0,0,1.28,1.91h0c0,1,.09,2,.13,2.93l-.18.21-1.71.07,0,0a1.51,1.51,0,0,0-1.2-1.79Z" transform="translate(-355.37 94.58)"/><path class="cls-1" d="M511.21,784.51c-.11-.32-.26-.64-.34-1A1.33,1.33,0,0,1,511,783l1.58-1.52h1.5l.32.34-.15.45c-.21,1.49-.3,2.93,1.47,3.62l-.08-.12a1.88,1.88,0,0,0,1.27,1.75l.05.06a1.87,1.87,0,0,0,1.52,1.41v0a2.06,2.06,0,0,0,2,1.27l6.67.05,1.71.22c0,.38,0,.77,0,1.16-4.71,1.78-9.24,1.8-13.44-1.38A1.82,1.82,0,0,0,514,789l0,0a1.79,1.79,0,0,0-1.28-1.53.57.57,0,0,1-.43-.85A2.08,2.08,0,0,0,511.21,784.51Z" transform="translate(-355.37 94.58)"/><path class="cls-1" d="M689,787.69c-4.35-5.25-3.93-10.92-1.45-16.77,2.54,1.52,1.14,4,1.45,6,.38,2.55-1.07,5.52,1.7,7.52a1.07,1.07,0,0,1,.25,1.29,2.5,2.5,0,0,0-.63.48.83.83,0,0,0-.85.85A2.22,2.22,0,0,0,689,787.69Z" transform="translate(-355.37 94.58)"/><path class="cls-1" d="M487,765.34c-1.56,0-3.28-.74-4.35,1.12-2.1-.74-2.34-2.25-.15-2.46a71.08,71.08,0,0,1,14.14,0c4.32.46,2.47,3.61,2.31,6.13-2.48-.23-2.64-1.77-3-3.2a.79.79,0,0,1,.13-.83l1.11-.16-1-.52Z" transform="translate(-355.37 94.58)"/><path class="cls-1" d="M722,766.5c-1.5-.71-1.85-2.22-.19-2.35a145.67,145.67,0,0,1,14.78-.11c1.77,0,2.49,1.37,2.33,3.1-.1,1.16,0,2.81-1.67,2.56-1.31-.19-1.53-1.78-1.86-3a.78.78,0,0,1,.16-.76c.64.16.91,0,.69-.4-.07-.13-.41-.11-.62-.16l-7.81.09c-1.72-.06-3.55-1.1-5.08.56A4.11,4.11,0,0,1,722,766.5Z" transform="translate(-355.37 94.58)"/><path class="cls-1" d="M618.82,791.8c-4.68-.92-7.27-3.8-7.86-8.52a6.59,6.59,0,0,0,.79-.7l1.07-1.09h1.47a16.83,16.83,0,0,0,6.25,8.83Z" transform="translate(-355.37 94.58)"/><path class="cls-1" d="M922.59,766.49c-1.51-.48-2.07-2.16-.63-2.29a112.61,112.61,0,0,1,15.37-.12c2.31.11,2,2.32,1.92,4-.07,1-.4,2-1.65,1.7-1.41-.4-1.45-1.81-1.65-3a.86.86,0,0,1,.17-.8c.66.23,1,.07.74-.41-.06-.14-.42-.14-.65-.2l-9.3,0-2.66,0A1.53,1.53,0,0,0,922.59,766.49Z" transform="translate(-355.37 94.58)"/><path class="cls-1" d="M726.67,789a1.52,1.52,0,0,1,.48,1.24l-3.54.31q.07-12,.14-24.09l1.49.21c.48,3.38-1.81,7.21,1.66,10.09l0-.07-.36,1.84L725,780.12C725.69,783.05,723.66,786.48,726.67,789Z" transform="translate(-355.37 94.58)"/><path class="cls-1" d="M582.78,772.64c.15-4.1-3.35-4.67-5.91-6.14-1.44-.72-1.92-1.85,0-2.16,6.08-1,7.43,3.89,9.36,8l-2,2A1.87,1.87,0,0,1,582.78,772.64Z" transform="translate(-355.37 94.58)"/><path class="cls-1" d="M647.54,780.14c-2.32-1.38-1.68-2.49.31-3.49,1.7.05,3.71.72,5,0,5.28-2.72,4,1,4.16,4.33C653.68,780,650.67,777.56,647.54,780.14Z" transform="translate(-355.37 94.58)"/><path class="cls-1" d="M780.42,781.48c0,4.19,6.34,5.66,4.51,10.63-4.17-.52-4.56-4.35-6.19-7.1a2.15,2.15,0,0,0-1.33-2h0c0-1.36.29-2.59,1.72-3.2l-.07-.07a2,2,0,0,0,1.24,1.81Z" transform="translate(-355.37 94.58)"/><path class="cls-1" d="M514.08,781.5h-1.5c-.66-2.48,1.19-5.51-1.64-7.52a7.94,7.94,0,0,1,4.51-7.54,3.61,3.61,0,0,0,.5.61c0,.46.2.68.67.65a6.13,6.13,0,0,0,.68.56C514.59,772.27,514.09,776.82,514.08,781.5Z" transform="translate(-355.37 94.58)"/><path class="cls-1" d="M922.59,766.49a1.53,1.53,0,0,1,1.66-1.16,1.32,1.32,0,0,0,0,1c0,6.08,0,12.16-.1,18.23,0,2,.87,4.48-1.64,5.89A90.47,90.47,0,0,0,922.59,766.49Z" transform="translate(-355.37 94.58)"/><path class="cls-1" d="M723.75,766.44q-.07,12-.14,24.09l-1.58,0a115.28,115.28,0,0,0,0-24,4.11,4.11,0,0,0,.73-.43A6.8,6.8,0,0,0,723.75,766.44Z" transform="translate(-355.37 94.58)"/><path class="cls-1" d="M690.65,784.48c-2.77-2-1.32-5-1.7-7.52-.31-2.06,1.09-4.52-1.45-6,0-2.23,1.3-3.49,3.09-4.44.19.16.37.33.55.51l.12.62.61.13.65.65C689.82,773.51,690.46,779,690.65,784.48Z" transform="translate(-355.37 94.58)"/><path class="cls-1" d="M426.89,766.63c2.48,1.06,1.79,3.29,1.8,5.17,0,6.21,0,12.43-.06,18.65l-1.87-.21Q426.82,778.44,426.89,766.63Z" transform="translate(-355.37 94.58)"/><path class="cls-1" d="M904.55,787.7c.08-1.41.3-2.74,1.86-3.33,1.89,2.23,3.79,4.45,6.17,7.24C908.06,793.07,905.94,791.17,904.55,787.7Z" transform="translate(-355.37 94.58)"/><path class="cls-1" d="M840.16,765.32l-4.3,0H829.7l-2.52.09-.74-.7c7.57-1.42,15.13-2.42,22.62.43-.5,0-1,.11-1.49.18l-2.72.06Z" transform="translate(-355.37 94.58)"/><path class="cls-1" d="M643.64,790.19l2.08.28,3.1,0c2.86-.71,6.21,1.19,8.67-1.63,1.66.45,1.66,1.77,1.64,3.1-5.46.05-11,.75-16.34-.13C640,791.34,643.24,790.77,643.64,790.19Z" transform="translate(-355.37 94.58)"/><path class="cls-1" d="M864.19,787.51a29.92,29.92,0,0,1-.1-21A94.37,94.37,0,0,0,864.19,787.51Z" transform="translate(-355.37 94.58)"/><path class="cls-1" d="M859.17,766.71c2.23.6,2,2.44,2,4.11,0,5.09,0,10.18-.07,15.28a6.09,6.09,0,0,0-1.28-.11C858.63,779.6,859.74,773.13,859.17,766.71Z" transform="translate(-355.37 94.58)"/><path class="cls-1" d="M431.49,765.42c-1.92-.12-3.92-.79-5.62.77-1.85-.54-1.63-2.1-.24-2.06,5.42.19,11-1.71,16.27,1l-2.53.33Z" transform="translate(-355.37 94.58)"/><path class="cls-1" d="M642.81,766.29c-1.71-.52-1.83-2.15-.34-2.13,5.44.07,11.06-1.84,16.34,1l-2.46.29-7.82.06C646.56,765.29,644.51,764.56,642.81,766.29Z" transform="translate(-355.37 94.58)"/><path class="cls-1" d="M426.76,790.24l1.87.21h3.19c2.92-.65,6.23,1,8.84-1.46,1.45.5,1.61,1.66,1.48,3-5.21.08-10.46.57-15.63.09C423.17,791.72,425.23,790.7,426.76,790.24Z" transform="translate(-355.37 94.58)"/><path class="cls-1" d="M699.53,763.76a3.48,3.48,0,0,1,3.42,1l-1.86,1.63c-3.09-.37-6.08-.29-8.57,2l-.65-.65c0-.51-.22-.75-.73-.75-.18-.18-.36-.35-.55-.51a7.69,7.69,0,0,1,6.08-2.67C697.65,765.16,698.6,765.16,699.53,763.76Z" transform="translate(-355.37 94.58)"/><path class="cls-1" d="M553,765.07c3.07-1.83,2.79.7,3.13,2.42-.34,1.33-.24,2.89-1.84,3.56-1-.12-1.34.66-1.76,1.32a3.62,3.62,0,0,0-1.31.1c0-1,0-2,.08-3a2.37,2.37,0,0,0,.4-1.14C553,767.56,553.09,766.35,553,765.07Z" transform="translate(-355.37 94.58)"/><path class="cls-1" d="M560.15,790.41c1.81-.26,1.82-2.61,3.5-3l3.82,4.51c-3.2.3-6,1.16-8.73-.46-.06,0,0-.47.08-.51A10.19,10.19,0,0,1,560.15,790.41Z" transform="translate(-355.37 94.58)"/><path class="cls-1" d="M528.72,788.88l-.26-7.22.47.1.43-.21h2.1l.53.2.54-.16c-1.26,3,1.52,6.75-1.92,9.25a1.38,1.38,0,0,0-.33-.86,1,1,0,0,0-.79-.78A1.48,1.48,0,0,0,528.72,788.88Z" transform="translate(-355.37 94.58)"/><path class="cls-1" d="M554.33,771.05c1.6-.67,1.5-2.23,1.84-3.56a15,15,0,0,1,2.94,7.69,2.49,2.49,0,0,1-.46,1.07c-1-.3-1.22.57-1.62,1.13C555.52,775.53,555,773.25,554.33,771.05Z" transform="translate(-355.37 94.58)"/><path class="cls-1" d="M518.23,764.85c3.65-2.08,7.31-2.25,11,0-.44.48-1.43.51-1.23,1.52a3.84,3.84,0,0,1-.8.36l-5.77-.44C520.69,765,519.37,765.13,518.23,764.85Z" transform="translate(-355.37 94.58)"/><path class="cls-1" d="M813.83,776.84l-2.14.22-2.81-6.12.09-1.5,1.57-1.85,1.4,1.86a2.59,2.59,0,0,0,1.24,3.2,3.39,3.39,0,0,0,.39,1.24Z" transform="translate(-355.37 94.58)"/><path class="cls-1" d="M814.77,790.48c2.27-.63.9-3.72,3-4.47,1.42,1.82,1.6,4.49,5.45,5.31a16.68,16.68,0,0,1-9.24.55c-.11,0-.25-.55-.16-.66A5.74,5.74,0,0,1,814.77,790.48Z" transform="translate(-355.37 94.58)"/><path class="cls-1" d="M627.25,766.8l-5.6-.56c-.7-1.31-2.09-1.13-3.24-1.48a10.9,10.9,0,0,1,11.06-.1,2.4,2.4,0,0,1-.44.72c-.61,0-1.25,0-1,.94A3.15,3.15,0,0,1,627.25,766.8Z" transform="translate(-355.37 94.58)"/><path class="cls-1" d="M726.51,778.51l.36-1.84a16.08,16.08,0,0,0,7,0,1.22,1.22,0,0,0,.17.77v2.22a1.23,1.23,0,0,0-.17.77,14.05,14.05,0,0,0-6.85,0q-.4-.27-.78-.57A2.13,2.13,0,0,0,726.51,778.51Z" transform="translate(-355.37 94.58)"/><path class="cls-1" d="M528.46,781.66a3.6,3.6,0,0,1-3.18-2.29c2.6-1.75,5.69-1.35,8.07-.55s.38,2-.82,2.76l-.54.16-.53-.2a1,1,0,0,0-1.07-1.36c-.8,0-1.27.47-1,1.37l-.43.21Z" transform="translate(-355.37 94.58)"/><path class="cls-1" d="M597.92,768l-3.25-1.47c-1.1-.41-1.76-1.56-.66-2a7.21,7.21,0,0,1,6.26.21C600.87,767,598.24,766.65,597.92,768Z" transform="translate(-355.37 94.58)"/><path class="cls-1" d="M779.13,779.8c-1.43.61-1.7,1.84-1.72,3.2a8.8,8.8,0,0,1-3-4.46l0-2.88.18-.21,1.74-.12A8,8,0,0,1,779.13,779.8Z" transform="translate(-355.37 94.58)"/><path class="cls-1" d="M584.18,774.33l2-2a7.05,7.05,0,0,1,2.9,4.57,3.08,3.08,0,0,0-1.91,1.93A7.11,7.11,0,0,1,584.18,774.33Z" transform="translate(-355.37 94.58)"/><path class="cls-1" d="M627.48,790.31c.58-1.58.86-3.32,2.39-4.38,2,3.31,2,3.31-.67,6Z" transform="translate(-355.37 94.58)"/><path class="cls-1" d="M879.56,766.78,876,766.6c-.7-.21-1.59-1-1.26-1.31,2-1.83,4.29-1.63,6.38-.21.51.35-.22,1.19-.9,1.48C880,766.65,879.78,766.71,879.56,766.78Z" transform="translate(-355.37 94.58)"/><path class="cls-1" d="M544.17,789.06c.57-2.17.88-4.44,2.59-6.12l.65.16a1.14,1.14,0,0,0,.88,1.37c.36,2.08-1.73,3.73-1,5.87Z" transform="translate(-355.37 94.58)"/><path class="cls-1" d="M437.72,780c1.83-1.33,1.8-2.45-.37-3.35.64-1.94,1.84-3.47,3.12-.83.71,1.45,1.14,4-.67,5.45C438.84,782,438.07,781,437.72,780Z" transform="translate(-355.37 94.58)"/><path class="cls-1" d="M510.94,774c2.83,2,1,5,1.64,7.52L511,783A13.07,13.07,0,0,1,510.94,774Z" transform="translate(-355.37 94.58)"/><path class="cls-1" d="M802.83,784.49q-.54,2.89-1.06,5.77l-3.68.1c1.69-2.19,1.13-5.36,3.19-7.41l.6.29C801.76,784,802.24,784.28,802.83,784.49Z" transform="translate(-355.37 94.58)"/><path class="cls-1" d="M611,783.28a12.57,12.57,0,0,1,.23-10.86l.68.5a30.39,30.39,0,0,0-.12,9.66A6.59,6.59,0,0,1,611,783.28Z" transform="translate(-355.37 94.58)"/><path class="cls-1" d="M629.47,764.66c3.45,1.57,1.16,4.05,1.47,6.2-3.41.1-2.85-2.53-3.69-4.06a3.15,3.15,0,0,0,.81-.48c.58,0,1-.27,1-.94A2.4,2.4,0,0,0,629.47,764.66Z" transform="translate(-355.37 94.58)"/><path class="cls-1" d="M576.54,790.32l3.45-1.4c.77.64,2,1.18,2.18,2,.31,1.29-1.07,1.45-2,1.32-1.55-.22-3.48,1-4.58-1,0-.1.11-.4.25-.51A3.21,3.21,0,0,1,576.54,790.32Z" transform="translate(-355.37 94.58)"/><path class="cls-1" d="M544.17,789.06l3.1,1.28c.72.31,2.53.68,1.24,1.45-2,1.19-4.55.64-6.91.13C541.91,790,543.62,790.12,544.17,789.06Z" transform="translate(-355.37 94.58)"/><path class="cls-1" d="M726.9,776.74c-3.47-2.88-1.18-6.71-1.66-10.09l1.71.16C726.93,770.12,726.92,773.43,726.9,776.74Z" transform="translate(-355.37 94.58)"/><path class="cls-1" d="M786.65,766.67l-3.68.15-1.79-1.22c2.29-2,4.69-2.07,6.91-.07C788.48,765.88,787.29,766.43,786.65,766.67Z" transform="translate(-355.37 94.58)"/><path class="cls-1" d="M587.2,778.82a3.08,3.08,0,0,1,1.91-1.93c.9.1,1.15.75,1.29,1.51,0,1.12-.09,2.23-.14,3.35,0,.54,0,1.08-.08,1.63A6.71,6.71,0,0,1,587.2,778.82Z" transform="translate(-355.37 94.58)"/><path class="cls-1" d="M765.46,789l3.38,1.21c.59.22,1.67.78,1.24,1.09-2.2,1.59-4.59,1.4-6.88,0-.05,0,0-.39.11-.49a2.44,2.44,0,0,1,.62-.33c1,0,1.56-.41,1.53-1.46Z" transform="translate(-355.37 94.58)"/><path class="cls-1" d="M472.05,791.84c-.31-2,.81-4.3-1.4-5.81.42-1.62,1.74-2,2.17-.53C473.42,787.51,474.67,790,472.05,791.84Z" transform="translate(-355.37 94.58)"/><path class="cls-1" d="M487,765.34l9.24,0-.12.68a.79.79,0,0,0-.13.83,22.35,22.35,0,0,0-8.7,0Z" transform="translate(-355.37 94.58)"/><path class="cls-1" d="M733.91,776.65c.6-.95,1.68-1.58,2.38-.73a3.89,3.89,0,0,1-.06,5.3c-.79.88-1.77.14-2.33-.81a1.23,1.23,0,0,1,.17-.77c1.95-.73,2-1.47,0-2.22A1.22,1.22,0,0,1,733.91,776.65Z" transform="translate(-355.37 94.58)"/><path class="cls-1" d="M499,791.65c-.19-1.12-.35-2.26-1.59-2.79,0-1.15.25-3.07,1.55-2.24C500.72,787.76,501.07,790,499,791.65Z" transform="translate(-355.37 94.58)"/><path class="cls-1" d="M442.14,792c.13-1.3,0-2.46-1.48-3-.06-1.61,1-3.52,2.14-2.54C444.31,787.79,445.3,790.47,442.14,792Z" transform="translate(-355.37 94.58)"/><path class="cls-1" d="M809,769.44l-.09,1.5c-1.71.36-1.46,2.34-2.61,3.17l-1.86-.11a2.28,2.28,0,0,1,.11-1.39,1.65,1.65,0,0,0,.94-1.87c.41-1.07.36-2.41,1.7-3Z" transform="translate(-355.37 94.58)"/><path class="cls-1" d="M593.32,786c3.81.66,4.13,2.25,1.23,4.68l-1.17-1.8c0-1,0-1.94,0-2.91Z" transform="translate(-355.37 94.58)"/><path class="cls-1" d="M926.91,765.38l9.3,0-.09.61a.86.86,0,0,0-.17.8,26.78,26.78,0,0,0-8.57,0,4,4,0,0,1-.6-.48A1.09,1.09,0,0,0,926.91,765.38Z" transform="translate(-355.37 94.58)"/><path class="cls-1" d="M626.34,792.28c-1.57,1.3-3.11,1.12-4.63-.09l0-1.57,4.54.09Z" transform="translate(-355.37 94.58)"/><path class="cls-1" d="M494.42,776.43c2.31-.4,2.37-.4,2.23,1.68-.07,1.07.45,2.83-1.27,2.76-.94,0-1.83-1.34-2.74-2.07A3.3,3.3,0,0,0,494.42,776.43Z" transform="translate(-355.37 94.58)"/><path class="cls-1" d="M659.13,791.92c0-1.33,0-2.65-1.64-3.1-.07-1.59.76-3.47,2.14-2.39C661.35,787.79,662.2,790.36,659.13,791.92Z" transform="translate(-355.37 94.58)"/><path class="cls-1" d="M701.1,792.06c-1.48,1.16-3,1.51-4.57.17l0-1.55,4.53-.09Q701.09,791.33,701.1,792.06Z" transform="translate(-355.37 94.58)"/><path class="cls-1" d="M551.26,772.47a3.62,3.62,0,0,1,1.31-.1c-.57,2.16-.84,4.44-2.53,6.14l-.24.07c-.39-.52-.77-1-1.16-1.55a2.11,2.11,0,0,1,.1-1.29,3.21,3.21,0,0,0,1.19-3.24h0l.66-.08Z" transform="translate(-355.37 94.58)"/><path class="cls-1" d="M726.67,789c-3-2.5-1-5.93-1.63-8.86a5.14,5.14,0,0,0,1.23-.3q.38.3.78.57Q726.87,784.68,726.67,789Z" transform="translate(-355.37 94.58)"/><path class="cls-1" d="M809,769.44l-1.81-1.65c.33-1.25.14-3.1,2.05-2.93,1.3.12,1.37,1.57,1.33,2.73Z" transform="translate(-355.37 94.58)"/><path class="cls-1" d="M828.73,769.92c-.47,1.7-1.49,2.91-2.62.77-1-1.8-1.38-4.11.33-6l.74.7c0,1.31-.6,2.77.81,3.78C828.23,769.41,828.48,769.67,828.73,769.92Z" transform="translate(-355.37 94.58)"/><path class="cls-1" d="M939,791.66a3,3,0,0,0-1.72-2.88c0-1,.7-2.66,1-2.45C940.34,787.72,940.72,789.62,939,791.66Z" transform="translate(-355.37 94.58)"/><path class="cls-1" d="M431.49,765.42h7.88a5.23,5.23,0,0,0-.17,1.05l-7.52,0A7.45,7.45,0,0,0,431.49,765.42Z" transform="translate(-355.37 94.58)"/><path class="cls-1" d="M659.23,766.52c.48,1.32.94,3-.89,3.21-1.61.18-1.71-1.82-2.22-3a.76.76,0,0,1,.17-.72Z" transform="translate(-355.37 94.58)"/><path class="cls-1" d="M727.85,765.51l7.81-.09-.07.56a.78.78,0,0,0-.16.76l-7.43-.42Z" transform="translate(-355.37 94.58)"/><path class="cls-1" d="M648.53,765.47l7.82-.06-.06.56a.76.76,0,0,0-.17.72l-7.43-.3C648.64,766.08,648.59,765.77,648.53,765.47Z" transform="translate(-355.37 94.58)"/><path class="cls-1" d="M530.66,768.1c.58,1.24.61,2.66-.65,3.16-1,.39-1.37-1-1.73-1.85s-.74-1.81-1.11-2.72a3.84,3.84,0,0,0,.8-.36Z" transform="translate(-355.37 94.58)"/><path class="cls-1" d="M798.09,790.36l3.68-.1,1.73.87c-2.14,1.72-4.28,1.79-6.38-.06a1.11,1.11,0,0,1,.32-.43A3.44,3.44,0,0,1,798.09,790.36Z" transform="translate(-355.37 94.58)"/><path class="cls-1" d="M614.29,781.5h-1.47c0-2.65-.71-5.4.93-7.87l.72.53Z" transform="translate(-355.37 94.58)"/><path class="cls-1" d="M692.06,790.64a3.47,3.47,0,0,1-3.11-2.95,2.22,2.22,0,0,1,.47-.59c.58,0,.86-.25.85-.85a2.5,2.5,0,0,1,.63-.48l2.45,3.29Z" transform="translate(-355.37 94.58)"/><path class="cls-1" d="M804.41,774l1.86.11c-.47,1.52-.2,3.34-1.81,4.39h-1.59C802.61,776.74,803.61,775.41,804.41,774Z" transform="translate(-355.37 94.58)"/><path class="cls-1" d="M518.23,764.85c1.14.28,2.46.13,3.17,1.4l-4.1,2a6.13,6.13,0,0,1-.68-.56l-.1-.55L516,767a3.61,3.61,0,0,1-.5-.61A3,3,0,0,1,518.23,764.85Z" transform="translate(-355.37 94.58)"/><path class="cls-1" d="M900.14,766.27l2-1.51c1.66-.14,3.23,0,4.26,1.55a2.45,2.45,0,0,0-.74.53.73.73,0,0,0-.72.73,3.42,3.42,0,0,0-.51.69Z" transform="translate(-355.37 94.58)"/><path class="cls-1" d="M618.41,764.76c1.15.35,2.54.17,3.24,1.48l-4.29,1.91-1.71-1.72C616.1,765.09,617.24,764.9,618.41,764.76Z" transform="translate(-355.37 94.58)"/><path class="cls-1" d="M692.06,790.64l1.29-1.58,3.22,1.62,0,1.55C694.81,792.33,693.12,792.37,692.06,790.64Z" transform="translate(-355.37 94.58)"/><path class="cls-1" d="M648.53,765.47c.06.3.11.61.16.92l-.37.39h-.54l-4-.08a.79.79,0,0,1-1-.41C644.51,764.56,646.56,765.29,648.53,765.47Z" transform="translate(-355.37 94.58)"/><path class="cls-1" d="M722,790.5l1.58,0,3.54-.31a.61.61,0,0,1,.87.4c0,.4,0,.81,0,1.22a9.86,9.86,0,0,1-6-.06c0-.39,0-.78,0-1.17Z" transform="translate(-355.37 94.58)"/><path class="cls-1" d="M590.26,781.75l.14-3.35c1.78,1,2.56,2.63,3.18,4.42a5.46,5.46,0,0,0-.77.47C592,782.72,591.53,781.57,590.26,781.75Z" transform="translate(-355.37 94.58)"/><path class="cls-1" d="M829.7,765.28h6.16a8.74,8.74,0,0,1-.18,1.43c-1.94-.19-3.88-.47-5.79.22a.61.61,0,0,0-.08-.82C829.78,765.84,829.75,765.56,829.7,765.28Z" transform="translate(-355.37 94.58)"/><path class="cls-1" d="M849.1,769.44c.35,1,.14,2.27-1,2.07-1.74-.3-2-2-1.81-3.52Z" transform="translate(-355.37 94.58)"/><path class="cls-1" d="M727.85,765.51l.15.81a1.24,1.24,0,0,1-1,.49l-1.71-.16-1.49-.21a6.8,6.8,0,0,1-1-.37C724.3,764.41,726.13,765.45,727.85,765.51Z" transform="translate(-355.37 94.58)"/><path class="cls-1" d="M590.26,781.75c1.27-.18,1.73,1,2.55,1.54l.51,2.71v0l-1.63.14,0,0a1.27,1.27,0,0,0-1.15-1.68.71.71,0,0,1-.39-1.07Z" transform="translate(-355.37 94.58)"/><path class="cls-1" d="M701.09,766.42l1.86-1.63a3.05,3.05,0,0,1,2.83,1.54,3.35,3.35,0,0,0-.7.54.68.68,0,0,0-.72.73,5.37,5.37,0,0,0-.56.7Z" transform="translate(-355.37 94.58)"/><path class="cls-1" d="M494.42,776.43a3.27,3.27,0,0,1-1.78,2.36l-4-.11-.06-1.55Z" transform="translate(-355.37 94.58)"/><path class="cls-1" d="M849.1,769.44,846.31,768a1.8,1.8,0,0,1-.42-1.26l1.68-1.45c.5-.07,1-.13,1.49-.18A7,7,0,0,1,849.1,769.44Z" transform="translate(-355.37 94.58)"/><path class="cls-1" d="M615.93,769.93a6.74,6.74,0,0,1-1.46,4.22l-.72-.53c.19-1.38.37-2.77.56-4.15l0,0,1.34-.78A1,1,0,0,1,615.93,769.93Z" transform="translate(-355.37 94.58)"/><path class="cls-1" d="M703.73,788.79l1.79,1.51c-.49.56-1,1.12-1.48,1.69a6.09,6.09,0,0,1-1.47-.23l-.12-1.62C702.47,789.3,703.05,789,703.73,788.79Z" transform="translate(-355.37 94.58)"/><path class="cls-1" d="M840.16,765.32l4.69,0c0,.32,0,.65-.07,1l-4.52.17A9.24,9.24,0,0,1,840.16,765.32Z" transform="translate(-355.37 94.58)"/><path class="cls-1" d="M615.65,766.43l1.71,1.72-1.43,1.78a1,1,0,0,0-.33-1.19,1.57,1.57,0,0,0-.61-.59.8.8,0,0,0-1-.25A2,2,0,0,1,615.65,766.43Z" transform="translate(-355.37 94.58)"/><path class="cls-1" d="M439.2,766.47a5.23,5.23,0,0,1,.17-1.05l2.53-.33c1,.88.7,1.9.33,2.93h-1.6v0c.1-1.11-.46-1.55-1.5-1.52Z" transform="translate(-355.37 94.58)"/><path class="cls-1" d="M530.66,768.1,528,766.33c-.2-1,.79-1,1.23-1.52C531.13,765.27,531.2,766.55,530.66,768.1Z" transform="translate(-355.37 94.58)"/><path class="cls-1" d="M549.93,772.5a3.21,3.21,0,0,1-1.19,3.24A2.62,2.62,0,0,1,549.93,772.5Z" transform="translate(-355.37 94.58)"/><path class="cls-1" d="M648.82,790.45l-3.1,0,1.73-1.57Z" transform="translate(-355.37 94.58)"/><path class="cls-1" d="M859.83,786a6.09,6.09,0,0,1,1.28.11c0,1,0,2,0,3A2.54,2.54,0,0,1,859.83,786Z" transform="translate(-355.37 94.58)"/><path class="cls-1" d="M699.53,763.76c-.93,1.4-1.88,1.4-2.86,0Z" transform="translate(-355.37 94.58)"/><path class="cls-1" d="M813.18,772.65a2.59,2.59,0,0,1-1.24-3.2A2.45,2.45,0,0,1,813.18,772.65Z" transform="translate(-355.37 94.58)"/><path class="cls-1" d="M802.64,779.76c.23,1.21.45,2.42.68,3.63h0a3.15,3.15,0,0,0-1.43-.16l-.6-.29C801.32,781.71,801.42,780.49,802.64,779.76Z" transform="translate(-355.37 94.58)"/><path class="cls-1" d="M611.19,772.42a3.12,3.12,0,0,1,1.45-3.07l.62.59-1.39,3Z" transform="translate(-355.37 94.58)"/><path class="cls-1" d="M551.26,772.47l-.67-.05-.66.08a2.6,2.6,0,0,1,1.41-3C551.31,770.47,551.29,771.47,551.26,772.47Z" transform="translate(-355.37 94.58)"/><path class="cls-1" d="M774.36,775.66l0,2.88a3.15,3.15,0,0,1-1.75-2.81Z" transform="translate(-355.37 94.58)"/><path class="cls-1" d="M440.63,768h1.6c.48.76.27,1.68-.41,1.81C440.48,770.08,440.43,769,440.63,768Z" transform="translate(-355.37 94.58)"/><path class="cls-1" d="M776.28,775.33l-1.74.12c0-1-.09-2-.13-2.93A3.25,3.25,0,0,1,776.28,775.33Z" transform="translate(-355.37 94.58)"/><path class="cls-1" d="M829.89,766.94a4,4,0,0,1-1.16,3c-.25-.25-.5-.51-.74-.77a3.56,3.56,0,0,1,1.82-3A.61.61,0,0,1,829.89,766.94Z" transform="translate(-355.37 94.58)"/><path class="cls-1" d="M515.72,785.91c-1.77-.69-1.68-2.13-1.47-3.62A5.28,5.28,0,0,1,515.72,785.91Z" transform="translate(-355.37 94.58)"/><path class="cls-1" d="M813.83,776.84l-.26-3a2.43,2.43,0,0,1,1.31,3.05A3.41,3.41,0,0,1,813.83,776.84Z" transform="translate(-355.37 94.58)"/><path class="cls-1" d="M548.38,778.44a2.4,2.4,0,0,1-1.3,3.07A3.18,3.18,0,0,1,548.38,778.44Z" transform="translate(-355.37 94.58)"/><path class="cls-1" d="M621.74,790.62l0,1.57-2.89-.39,1.72-1.47A1.23,1.23,0,0,1,621.74,790.62Z" transform="translate(-355.37 94.58)"/><path class="cls-1" d="M626.34,792.28l-.06-1.57a1.7,1.7,0,0,1,1.2-.4l1.72,1.59Z" transform="translate(-355.37 94.58)"/><path class="cls-1" d="M844.78,766.32c0-.33.05-.66.07-1l2.72-.06-1.68,1.45A1.32,1.32,0,0,1,844.78,766.32Z" transform="translate(-355.37 94.58)"/><path class="cls-1" d="M591.7,786.11l1.63-.14c0,1,0,1.94,0,2.91A2.73,2.73,0,0,1,591.7,786.11Z" transform="translate(-355.37 94.58)"/><path class="cls-1" d="M656.29,766l.06-.56,2.46-.29.42,1.4Z" transform="translate(-355.37 94.58)"/><path class="cls-1" d="M704,792c.49-.57,1-1.13,1.48-1.69a6.58,6.58,0,0,0,1.47,0C706.59,791.83,705.39,792,704,792Z" transform="translate(-355.37 94.58)"/><path class="cls-1" d="M553,765.07c.05,1.28-.07,2.49-1.3,3.26C551.31,766.89,551.58,765.74,553,765.07Z" transform="translate(-355.37 94.58)"/><path class="cls-1" d="M590.57,784.45a1.27,1.27,0,0,1,1.15,1.68A1.31,1.31,0,0,1,590.57,784.45Z" transform="translate(-355.37 94.58)"/><path class="cls-1" d="M516.91,787.54a1.88,1.88,0,0,1-1.27-1.75A2,2,0,0,1,516.91,787.54Z" transform="translate(-355.37 94.58)"/><path class="cls-1" d="M511.21,784.51a2.08,2.08,0,0,1,1.07,2.15A2.08,2.08,0,0,1,511.21,784.51Z" transform="translate(-355.37 94.58)"/><path class="cls-1" d="M801.88,783.24a3.15,3.15,0,0,1,1.43.16,1.16,1.16,0,0,1-.48,1.09C802.24,784.28,801.76,784,801.88,783.24Z" transform="translate(-355.37 94.58)"/><path class="cls-1" d="M777.41,783a2.15,2.15,0,0,1,1.33,2A2.24,2.24,0,0,1,777.41,783Z" transform="translate(-355.37 94.58)"/><path class="cls-1" d="M548.29,784.47a1.14,1.14,0,0,1-.88-1.37l1.57.12A2.36,2.36,0,0,1,548.29,784.47Z" transform="translate(-355.37 94.58)"/><path class="cls-1" d="M934.46,780.07l1.61-.07c-.12.41-.15,1.09-.38,1.16C934.82,781.44,934.59,780.77,934.46,780.07Z" transform="translate(-355.37 94.58)"/><path class="cls-1" d="M780.3,781.54a2,2,0,0,1-1.24-1.81A1.81,1.81,0,0,1,780.3,781.54Z" transform="translate(-355.37 94.58)"/><path class="cls-1" d="M932.49,778.8a1.59,1.59,0,0,1,2,1.31Z" transform="translate(-355.37 94.58)"/><path class="cls-1" d="M927.21,780.29c.1-1.22.78-1.67,1.94-1.51Z" transform="translate(-355.37 94.58)"/><path class="cls-1" d="M470.33,787.06a1.53,1.53,0,0,1-1,2A1.93,1.93,0,0,1,470.33,787.06Z" transform="translate(-355.37 94.58)"/><path class="cls-1" d="M512.71,787.51A1.79,1.79,0,0,1,514,789,1.44,1.44,0,0,1,512.71,787.51Z" transform="translate(-355.37 94.58)"/><path class="cls-1" d="M518.48,789A1.87,1.87,0,0,1,517,787.6Z" transform="translate(-355.37 94.58)"/><path class="cls-1" d="M802.87,778.5h1.59c-.07.51-.15,1-.23,1.52l-1.64-.21A1.14,1.14,0,0,1,802.87,778.5Z" transform="translate(-355.37 94.58)"/><path class="cls-1" d="M865.59,789.06a1.46,1.46,0,0,1-1.39-1.53Z" transform="translate(-355.37 94.58)"/><path class="cls-1" d="M497.41,788.82c0,1.1-.62,1.57-1.68,1.53Z" transform="translate(-355.37 94.58)"/><path class="cls-1" d="M548.64,777c.39.51.77,1,1.16,1.55-.47-.05-.95-.09-1.43-.12Z" transform="translate(-355.37 94.58)"/><path class="cls-1" d="M514,789a1.82,1.82,0,0,1,1.52,1.33A1.51,1.51,0,0,1,514,789Z" transform="translate(-355.37 94.58)"/><path class="cls-1" d="M520.52,790.3a2.06,2.06,0,0,1-2-1.27C519.17,789.45,519.85,789.87,520.52,790.3Z" transform="translate(-355.37 94.58)"/><path class="cls-1" d="M528.9,790.57l-1.71-.22,1.53-1.47a1.48,1.48,0,0,1,.77.31,1.52,1.52,0,0,0-.23,1Z" transform="translate(-355.37 94.58)"/><path class="cls-1" d="M935.82,775.55l-.49.09-.49-.08c.18-.35.38-1,.54-1C936,774.6,936.09,775,935.82,775.55Z" transform="translate(-355.37 94.58)"/><path class="cls-1" d="M771.48,774a1.51,1.51,0,0,1,1.2,1.79A1.61,1.61,0,0,1,771.48,774Z" transform="translate(-355.37 94.58)"/><path class="cls-1" d="M805.46,770.74a1.65,1.65,0,0,1-.94,1.87A1.65,1.65,0,0,1,805.46,770.74Z" transform="translate(-355.37 94.58)"/><path class="cls-1" d="M774.4,772.51a1.68,1.68,0,0,1-1.28-1.91A1.8,1.8,0,0,1,774.4,772.51Z" transform="translate(-355.37 94.58)"/><path class="cls-1" d="M612.64,769.35A1.35,1.35,0,0,1,614,767.9a.8.8,0,0,1,1,.25l-.73,1.37,0,0a2.38,2.38,0,0,0-1,.47Z" transform="translate(-355.37 94.58)"/><path class="cls-1" d="M765.46,789c0,1.05-.57,1.45-1.53,1.46Z" transform="translate(-355.37 94.58)"/><path class="cls-1" d="M861.14,789.05a1.85,1.85,0,0,1,1.51,1.56A1.48,1.48,0,0,1,861.14,789.05Z" transform="translate(-355.37 94.58)"/><path class="cls-1" d="M867.72,790.22a1.72,1.72,0,0,1-2.06-1.11Z" transform="translate(-355.37 94.58)"/><path class="cls-1" d="M937.36,788.71a1.66,1.66,0,0,1-1.65,1.66Z" transform="translate(-355.37 94.58)"/><path class="cls-1" d="M528.93,791.73c0-.39,0-.78,0-1.16l.36-.36a1.17,1.17,0,0,0,1-.24,1.38,1.38,0,0,1,.33.86A1.24,1.24,0,0,1,528.93,791.73Z" transform="translate(-355.37 94.58)"/><path class="cls-1" d="M439.14,766.53c1,0,1.6.41,1.5,1.52Z" transform="translate(-355.37 94.58)"/><path class="cls-1" d="M702.45,790.14l.12,1.62-1.47.3q0-.73,0-1.47A1.34,1.34,0,0,1,702.45,790.14Z" transform="translate(-355.37 94.58)"/><path class="cls-1" d="M722.09,790.61c0,.39,0,.78,0,1.17-.4-.09-1.13-.13-1.16-.28C720.75,790.58,721.53,790.71,722.09,790.61Z" transform="translate(-355.37 94.58)"/><path class="cls-1" d="M728,791.84c0-.41,0-.82,0-1.22.61,0,1.4,0,1.2.93C729.19,791.72,728.44,791.74,728,791.84Z" transform="translate(-355.37 94.58)"/><path class="cls-1" d="M862.61,790.58a1.43,1.43,0,0,1,1.62,1.09A1.32,1.32,0,0,1,862.61,790.58Z" transform="translate(-355.37 94.58)"/><path class="cls-1" d="M922.55,790.45c0,.5,0,1,0,1.5l-1.59-.63Z" transform="translate(-355.37 94.58)"/><path class="cls-1" d="M926.91,765.38a1.09,1.09,0,0,1-.13.93l-2.53.05a1.32,1.32,0,0,1,0-1Z" transform="translate(-355.37 94.58)"/><path class="cls-1" d="M704.36,767.6a.68.68,0,0,1,.72-.73l-.07.64Z" transform="translate(-355.37 94.58)"/><polygon class="cls-1" points="519.5 884.27 520.09 884.25 519.88 884.75 519.5 884.27"/><path class="cls-1" d="M557.51,778.47a1.63,1.63,0,0,1-.48-1.09c.4-.56.61-1.43,1.62-1.13C558.79,777.26,558.63,778.11,557.51,778.47Z" transform="translate(-355.37 94.58)"/><path class="cls-1" d="M904.89,767.57a.73.73,0,0,1,.72-.73l-.07.64Z" transform="translate(-355.37 94.58)"/><path class="cls-1" d="M690.27,786.25c0,.6-.27.88-.85.85A.83.83,0,0,1,690.27,786.25Z" transform="translate(-355.37 94.58)"/><path class="cls-1" d="M496.08,766.05l.12-.68,1,.52Z" transform="translate(-355.37 94.58)"/><path class="cls-1" d="M735.59,766l.07-.56c.21.05.55,0,.62.16C736.5,766,736.23,766.14,735.59,766Z" transform="translate(-355.37 94.58)"/><path class="cls-1" d="M613.26,769.94a2.38,2.38,0,0,1,1-.47c-.19,1.38-.37,2.77-.56,4.15-1.64,2.47-.88,5.22-.93,7.87l-1.07,1.09a30.39,30.39,0,0,1,.12-9.66Z" transform="translate(-355.37 94.58)"/><path class="cls-1" d="M936.12,766l.09-.61c.23.06.59.06.65.2C937.07,766.09,936.78,766.25,936.12,766Z" transform="translate(-355.37 94.58)"/><path class="cls-1" d="M726.27,779.82a5.14,5.14,0,0,1-1.23.3l1.47-1.61A2.13,2.13,0,0,1,726.27,779.82Z" transform="translate(-355.37 94.58)"/><path class="cls-1" d="M516,767l.57.1.1.55C516.15,767.72,515.92,767.5,516,767Z" transform="translate(-355.37 94.58)"/><path class="cls-1" d="M691.14,767c.51,0,.76.24.73.75l-.61-.13Z" transform="translate(-355.37 94.58)"/><path class="cls-1" d="M829.81,766.12a3.56,3.56,0,0,0-1.82,3c-1.41-1-.77-2.47-.81-3.78l2.52-.09C829.75,765.56,829.78,765.84,829.81,766.12Z" transform="translate(-355.37 94.58)"/><path class="cls-1" d="M529.36,781.55c-.24-.9.23-1.37,1-1.37a1,1,0,0,1,1.07,1.36Z" transform="translate(-355.37 94.58)"/><path class="cls-1" d="M530.28,790a1.17,1.17,0,0,1-1,.24,1.52,1.52,0,0,1,.23-1A1,1,0,0,1,530.28,790Z" transform="translate(-355.37 94.58)"/><path class="cls-1" d="M629,765.38c0,.67-.39.9-1,.94C627.78,765.39,628.42,765.4,629,765.38Z" transform="translate(-355.37 94.58)"/><path class="cls-1" d="M734.08,777.42c2,.75,1.94,1.49,0,2.22Z" transform="translate(-355.37 94.58)"/><path class="cls-1" d="M614.26,769.52l.73-1.37a1.57,1.57,0,0,1,.61.59Z" transform="translate(-355.37 94.58)"/></svg>