<?xml version="1.0" encoding="utf-8"?>
<!-- Generator: Adobe Illustrator 24.2.3, SVG Export Plug-In . SVG Version: 6.00 Build 0)  -->
<svg version="1.1" id="Layer_1" xmlns="http://www.w3.org/2000/svg" xmlns:xlink="http://www.w3.org/1999/xlink" x="0px" y="0px"
	 viewBox="0 0 1366 768" style="enable-background:new 0 0 1366 768;" xml:space="preserve">
<style type="text/css">
	.st0{fill:#021C43;}
	.st1{fill:none;}
	.st2{font-family:'Zapfino';}
	.st3{font-size:66px;}
	.st4{letter-spacing:2;}
</style>
<g>
	<path class="st0" d="M1162.2,369c0-3,0-6,0-9"/>
	<path class="st0" d="M1162.2,360c0-1.2,0-3,0-4.2"/>
	<path class="st0" d="M1162.2,373.8c0-1.2,0-3,0-4.2"/>
	<path class="st0" d="M789.6,370.8c0,10.2,0,21,0,31.2c0,12,1.8,15,13.2,16.8c5.4,1.2,5.4,3.6,5.4,7.8c0,5.4-4.2,3-6.6,3
		c-21.6,0-43.2,0-64.2,0c-3,0-6,0.6-6-4.2c0-3.6,0-6.6,4.8-6.6c7.8,0,10.8-4.8,10.8-12c0-22.2,0-44.4,0-66.6
		c0-13.2-5.4-21.6-14.4-23.4c-10.8-2.4-25.8,5.4-30.6,15c-1.2,2.4-0.6,4.2-0.6,6.6c0,21.6,0,43.2,0,64.2c0,8.4,3,15,12,16.2
		c5.4,1.2,3.6,4.8,3.6,7.8c0.6,4.8-3,3.6-5.4,3.6c-21,0-41.4,0-62.4,0c-3,0-6,0.6-6-4.2c0-3.6,0.6-6.6,4.8-6.6
		c7.8,0,10.8-4.2,10.8-11.4c0-23.4,0-46.8-0.6-70.2c-0.6-13.2-6-19.8-15-21c-10.8-1.2-25.8,6.6-29.4,15.6c-0.6,1.8-0.6,3.6-0.6,6
		c0,21,0,42.6,0,63.6c0,9,2.4,15.6,12,17.4c5.4,1.2,4.2,4.8,3.6,8.4c0,4.2-3.6,3-5.4,3c-22.2,0-43.8,0-66,0c-3,0-6,0-6-4.2
		c0-3.6,0.6-6,4.8-6.6c12.6-1.8,14.4-4.8,14.4-17.4c0-23.4,0-46.2,0-69.6c0-12.6-4.2-18.6-16.8-21.6c-4.8-1.2-4.2-3.6-4.2-6.6
		c0-4.2,3-3.6,5.4-4.2c16.8-1.2,34.2-1.8,51-3c6-0.6,7.8,1.2,7.2,7.2c0,4.2-1.2,9,0.6,13.2c3-2.4,6.6-5.4,9.6-7.8
		c16.8-14.4,39.6-18,57.6-9c6.6,3.6,12,8.4,15,15c2.4,5.4,4.8,4.2,7.8,1.2c9.6-10.2,20.4-17.4,34.2-19.8c30-4.8,49.8,11.4,50.4,42
		C790.2,348.6,789.6,360,789.6,370.8z"/>
	<path class="st0" d="M300,237c3.6,0,7.2,0,10.2,0c14.4,1.8,28.2,4.8,40.8,11.4c2.4,1.2,3.6,0.6,5.4-1.2c1.2-1.2,2.4-2.4,4.2-3.6
		c3.6-3,7.8-2.4,11.4-1.2c3,1.2,1.2,4.8,1.2,7.2c0.6,18,0.6,35.4,1.2,53.4c0,2.4,3,7.2-3,7.2c-4.8,0-8.4,0.6-10.2-6
		c-3-11.4-7.8-22.2-14.4-31.8c-10.2-15.6-24-24.6-43.2-23.4c-18.6,1.2-30.6,12-37.2,28.2c-13.8,36-14.4,72.6,0,108.6
		c14.4,35.4,58.2,36,80.4,18.6c8.4-6.6,15.6-15,21-24c1.8-3.6,3.6-4.8,7.2-1.8c3,2.4,7.2,3,4.2,9c-15,27.6-37.2,44.4-69.6,46.8
		c-33,2.4-63-6.6-84-33.6c-24.6-31.8-27-68.4-12.6-105c13.8-34.8,40.8-53.4,77.4-58.2C294,237.6,297,237.6,300,237z"/>
	<path class="st0" d="M916.2,237c4.2,0,7.8,0,12,0c13.8,1.8,27.6,4.8,40.2,10.8c3,1.8,4.8,0,6.6-1.8c2.4-1.8,3.6-4.2,6.6-4.2
		c6-0.6,9.6-0.6,9.6,7.8c-0.6,18,0,36.6,0.6,54.6c0,2.4,1.8,6-3,6c-3.6,0-7.8,1.8-9.6-4.2c-3.6-12-8.4-22.8-15-33
		c-8.4-13.2-19.8-22.2-36-23.4c-19.8-1.8-35.4,7.8-43.8,28.2c-13.8,35.4-13.8,71.4-0.6,106.8c14.4,38.4,60,38.4,81.6,20.4
		c7.8-6.6,14.4-13.8,19.8-22.2c1.8-3,2.4-7.2,8.4-3.6c4.8,3,6.6,5.4,3.6,10.8c-13.8,24-33.6,40.2-61.8,43.8
		c-34.2,4.8-66-2.4-88.8-30c-27-31.8-29.4-69-15-106.8c13.2-35.4,40.8-54.6,78-59.4C911.4,237.6,913.8,237.6,916.2,237z"/>
	<path class="st0" d="M518.4,369.6c0,10.8,0,22.2,0,33c0,12,3.6,15.6,15.6,16.2c2.4,0,6.6-1.8,6.6,3c0,4.2,0,7.2-4.8,8.4
		c-12.6,4.2-25.2,6-38.4,3.6c-7.8-1.8-14.4-5.4-18-13.2c-1.8-4.8-3.6-4.2-6.6-1.2c-13.2,13.2-30,17.4-48,14.4
		c-15.6-2.4-25.8-12.6-28.2-27c-2.4-16.2,4.2-30.6,18-37.8c11.4-6,23.4-8.4,35.4-12.6c3-1.2,6.6-1.8,9.6-3c6-2.4,15.6-1.8,16.8-8.4
		c1.8-10.8,2.4-22.8-4.2-33.6c-5.4-9-22.2-7.2-27.6-2.4c-1.2,1.2-1.8,2.4-1.2,4.2c0.6,1.8,0.6,3.6,1.2,4.8c3,8.4,4.2,16.8-4.2,23.4
		s-18,6.6-27.6,2.4c-11.4-5.4-14.4-18.6-6.6-28.2c10.8-13.2,25.8-17.4,42-19.2c16.2-2.4,31.8-1.8,47.4,4.2
		c14.4,5.4,22.2,16.2,23.4,31.2C519.6,343.8,519,357,518.4,369.6C519,369.6,519,369.6,518.4,369.6z M476.4,381.6
		C477,381.6,477,381.6,476.4,381.6c0-2.4,0-4.8,0-7.2c0-14.4,0-14.4-13.8-9.6c-15.6,6-22.8,15.6-22.2,31.8c0,11.4,6,17.4,16.2,17.4
		c12,0,19.2-6.6,19.2-17.4C477,391.2,476.4,386.4,476.4,381.6z"/>
	<path class="st0" d="M1162.2,369c0,1.2,0,3,0,4.2c-6.6,45.6-43.2,63.6-82.8,61.2c-22.2-1.2-41.4-9.6-54.6-28.2
		c-31.8-45.6-4.2-105.6,51.6-110.4c25.2-2.4,48.6,1.8,67.2,20.4c10.8,10.8,16.2,24.6,18.6,39c0,1.2,0,3,0,4.2
		C1162.2,363,1162.2,366,1162.2,369z M1059.6,365.4c0,13.8,0,28.2,5.4,41.4c3.6,9.6,9,17.4,20.4,18c12,0.6,19.8-4.8,24.6-17.4
		c6.6-18,6.6-37.2,5.4-56.4c-0.6-10.2-1.8-21-6-30.6c-4.2-8.4-9.6-14.4-19.8-14.4c-13.2,0-21.6,7.2-25.8,22.2
		C1060.2,340.2,1059.6,352.8,1059.6,365.4z"/>
</g>
<rect x="196.7" y="431.6" class="st1" width="965.5" height="132.9"/>
<text transform="matrix(1 0 0 1 667.8489 534.4553)" class="st0 st2 st3 st4">Restaraunts</text>
</svg>
