<?xml version="1.0" encoding="utf-8"?>
<!-- Generator: Adobe Illustrator 24.2.3, SVG Export Plug-In . SVG Version: 6.00 Build 0)  -->
<svg version="1.1" id="Layer_1" xmlns="http://www.w3.org/2000/svg" xmlns:xlink="http://www.w3.org/1999/xlink" x="0px" y="0px"
	 viewBox="0 0 1366 768" style="enable-background:new 0 0 1366 768;" xml:space="preserve">
<style type="text/css">
	.st0{fill:#021C43;}
</style>
<g>
	<path class="st0" d="M608.5,283.3c11.4-9,22.8-13.8,35.4-16.8c10.2-2.4,21-3,31.2-0.6c9.6,2.4,16.8,7.2,21,17.4
		c9.6-7.2,19.2-12,30-15s21.6-4.8,32.4-3c16.8,2.4,24.6,10.2,28.2,26.4c1.8,9.6,3,18.6,3,28.2c0,21.6,0,43.2,0,65.4
		c0,5.4,1.2,7.8,6.6,7.8c1.8,0,3.6,0.6,5.4,0.6c4.8,0,6.6,1.8,6,7.2c-0.6,12.6,1.2,10.8-10.8,10.8c-18,0-36,0-54,0
		c-4.8,0-6.6-1.2-6-6c0-1.2,0-3,0-4.2c-0.6-4.8,1.2-7.8,6-7.8c5.4,0,7.2-3,7.2-8.4c-0.6-24-0.6-47.4-0.6-71.4c0-3-0.6-6.6-1.2-9.6
		c-2.4-12.6-9.6-18-22.8-16.8c-7.8,0.6-15.6,3.6-22.8,7.2c-2.4,1.2-3,2.4-3,5.4c2.4,27.6,0.6,55.2,1.2,83.4c0,9,0,9,9,10.8
		c3,0.6,7.2-0.6,7.8,3c0.6,4.2,0.6,9,0,13.2c0,1.8-2.4,1.8-3.6,1.8c-21,0-42.6,0-63.6,0c-2.4,0-3.6-1.2-3.6-3.6c0-1.2,0-2.4,0-3.6
		c0-9,0-9.6,9-10.8c4.2-0.6,6-2.4,6-7.2c-0.6-23.4,0-46.8-0.6-70.2c0-3-0.6-6.6-1.2-9.6c-2.4-13.8-9-19.2-23.4-18
		c-2.4,0-4.2,0.6-6.6,1.2c-18,4.2-19.2,6-19.2,24c0,24,0,47.4,0,71.4c0,5.4,1.2,7.8,7.2,9c12,1.8,11.4,1.8,10.8,14.4
		c0,3-1.2,4.2-4.2,4.2c-21.6,0-43.2,0-64.2,0c-3,0-4.2-1.2-4.2-4.2c0-1.2,0-3,0-4.2c0-8.4-1.8-8.4,8.4-9.6c6-0.6,7.8-3,7.8-9
		c-0.6-28.2,0-55.8,0-84c0-4.2-0.6-6.6-5.4-7.8c-3.6-0.6-9-0.6-10.8-4.2c-2.4-4.8-0.6-10.2-0.6-15.6c0-3,1.8-3,4.2-3.6
		c12.6-1.8,25.8-3.6,38.4-5.4c5.4-0.6,10.2,3.6,10.2,9C608.5,276.1,608.5,278.5,608.5,283.3z"/>
	<path class="st0" d="M260.5,311.5c0,15.6,1.8,31.2,6.6,45.6c1.8,6,4.2,12,7.8,16.8c11.4,18.6,26.4,26.4,52.8,19.2
		c5.4-1.8,9.6-4.8,11.4-10.8c2.4-6.6,5.4-12.6,7.8-18.6c1.2-3.6,3.6-4.8,7.2-4.8c17.4,0.6,17.4,0.6,16.2,18
		c-0.6,7.2-1.2,14.4-1.2,21.6c0,2.4-0.6,4.8-3.6,5.4c-10.8,2.4-21,4.8-31.2,7.2c-14.4,3-29.4,3.6-43.8,1.2
		c-35.4-5.4-59.4-25.2-69.6-59.4c-6-20.4-7.2-40.8-3-61.2c8.4-39.6,39.6-68.4,79.8-74.4c24.6-3.6,48,1.2,71.4,6c2.4,0.6,3,1.8,3,4.2
		c-0.6,13.8-1.8,28.2-2.4,42c0,4.2-1.8,5.4-6,4.8c-6.6-0.6-15,2.4-19.8-1.2c-5.4-3.6-3.6-12.6-6-18.6c0-1.2-0.6-1.8-0.6-3
		c-1.8-13.8-4.8-16.2-20.4-18c-21-2.4-36.6,6.6-46.2,25.8C261.7,276.7,259.9,294.1,260.5,311.5z"/>
	<path class="st0" d="M982.9,247.9c-0.6,7.2-1.2,14.4-1.2,21.6c0,3.6-1.2,5.4-5.4,5.4c-5.4-0.6-10.8,0-16.2,0c-3.6,0-5.4-1.2-6-4.8
		c-1.8-7.8-4.2-15.6-5.4-23.4c-1.2-5.4-4.2-8.4-9-10.2c-18-7.2-40.2-0.6-51.6,15c-7.8,10.8-11.4,23.4-13.2,36
		c-3,23.4-1.8,46.8,5.4,69.6c3,9,7.2,17.4,13.2,24.6c12,13.8,33.6,18,50.4,9.6c3.6-1.8,6.6-4.2,7.8-8.4c2.4-6.6,5.4-13.2,8.4-20.4
		c0.6-1.8,1.2-4.2,3-4.2c6.6,0,13.2,0.6,19.2,1.2c1.8,0,1.8,2.4,1.8,3.6c-0.6,12-1.8,24-2.4,36c0,2.4-0.6,3.6-3,4.2
		c-20.4,4.8-40.8,10.2-61.8,9.6c-46.2-0.6-79.8-29.4-87-75c-2.4-16.2-3-33,1.2-49.2c9-39.6,41.4-67.8,81-72.6
		c23.4-3,46.2,1.8,69,6.6c3,0.6,3.6,2.4,3,4.8C983.5,234.7,982.9,241.3,982.9,247.9L982.9,247.9z"/>
	<path class="st0" d="M481.9,394.9c-15.6,16.2-33,22.2-53.4,18c-14.4-2.4-25.2-10.8-30-25.2c-4.8-15-3-29.4,7.8-42
		c6-6.6,13.8-10.8,21.6-14.4c14.4-6,29.4-8.4,44.4-8.4c6,0,7.2-2.4,6.6-7.8c-0.6-3-0.6-6-1.2-9c-1.8-9-7.2-14.4-15.6-15.6
		c-12-2.4-23.4,0-34.8,3c-6,1.2-12,3-18,6c-3,1.2-4.2,0.6-5.4-2.4c-6.6-16.2-10.2-12.6,7.2-21c22.2-10.8,45.6-15.6,70.8-10.8
		c21,3.6,31.2,15,33.6,36c1.2,8.4,1.2,16.2,1.2,24.6c0,20.4,0,40.8,0,61.2c0,4.2,0.6,6.6,5.4,6c10.2,0,12,3,10.2,13.2
		c-0.6,3-2.4,3-4.2,3.6c-12,3-23.4,4.2-35.4,3.6c-7.2-0.6-9.6-3-10.2-10.2C481.9,401.5,481.9,399.1,481.9,394.9z M479.5,361.3
		c0-6,0-11.4,0-17.4c0-4.2-1.8-5.4-5.4-4.8c-7.8,0.6-15.6,1.8-23.4,5.4c-13.2,6.6-18.6,23.4-11.4,36c3,6,8.4,8.4,15,9
		s12.6-1.8,18.6-4.2c4.8-1.8,7.2-4.8,6.6-10.2C478.9,370.3,479.5,365.5,479.5,361.3z"/>
	<path class="st0" d="M1149.7,336.7c-0.6,10.2-1.2,21-4.2,30.6c-9,27.6-32.4,45-61.8,46.2c-4.2,0-9,0-13.2,0
		c-30-1.8-50.4-19.8-57.6-49.2c-3.6-15.6-4.2-31.2-0.6-46.8c7.8-35.4,36-56.4,73.2-54.6c19.8,1.2,37.8,6.6,50.4,23.4
		c8.4,10.8,12,23.4,13.8,36.6C1149.1,327.7,1149.1,332.5,1149.7,336.7z M1051.9,337.9c0,5.4,0.6,12,1.2,19.2
		c1.2,10.2,2.4,20.4,8.4,29.4c9.6,15,29.4,13.8,38.4-1.2c2.4-3.6,3.6-7.8,4.2-12c3.6-16.8,3.6-34.2,1.8-51.6
		c-0.6-10.2-2.4-20.4-7.2-29.4c-9-15.6-29.4-15.6-39,0c-1.8,3-3,6-4.2,9.6C1052.5,312.7,1052.5,324.7,1051.9,337.9z"/>
	<path class="st0" d="M543.7,481.9c10.2-1.2,17.4-1.8,24,7.2c11.4,15,24,28.8,37.2,42.6c0-14.4,1.2-28.2,0-42c0-2.4-2.4-3.6-4.2-4.8
		c-1.8-0.6-4.8,0.6-6-3c9,0,16.8,0,25.2,0c0,0.6,0,1.2,0,1.2c-7.8,1.8-9,7.2-9,14.4c0.6,15,0,30.6,0,45.6c0,2.4,1.8,5.4-1.8,6.6
		c-3,1.2-4.2-1.8-6-3.6c-13.2-15.6-25.8-31.2-38.4-46.8c-0.6-0.6-1.2-1.8-1.2-2.4c-0.6,0-0.6,0.6-1.2,0.6c0,13.8,0,27.6,0,41.4
		c0,4.2,0.6,4.2,9.6,9c-8.4,1.2-16.8,1.2-25.2,0.6c0-1.2,0-1.8,0-1.8c8.4-1.8,9.6-7.8,9.6-15c0-11.4,0-22.8,0-34.2
		c0-9-1.2-10.2-9.6-13.2C545.5,484.3,545.5,483.7,543.7,481.9z"/>
	<path class="st0" d="M813.7,548.5c-10.8,0-19.8,0-30,0c10.2-6.6,10.2-6.6,10.2-19.2c0-9.6,0-19.2,0-29.4c0-7.2,3-16.8-10.2-16.8
		c1.8-3,3.6-2.4,5.4-2.4c9,0,18,0,27,0c10.2,0.6,16.8,4.8,18.6,12c2.4,8.4,0,15-9,21c-3.6,2.4-3,4.2-1.2,6.6
		c6.6,9,10.8,19.8,21,25.8c0.6,0.6,1.2,1.2,1.2,2.4c-0.6,1.2-1.2,1.2-2.4,1.2c-6.6-0.6-12.6-1.8-16.8-7.8
		c-3.6-5.4-6.6-10.2-10.2-15.6c-1.2-1.8-1.8-3.6-3.6-4.8c-2.4-2.4-6-3-9-1.8c-2.4,0.6-1.2,3.6-1.2,6c0,1.2,0,3,0,4.2
		C803.5,542.5,803.5,542.5,813.7,548.5z M803.5,501.1c0,3.6,0,7.2,0,11.4c0,1.8,0,3.6,2.4,3.6c6,0,12,0,16.2-5.4
		c4.2-4.8,4.2-10.8,2.4-16.8s-6.6-8.4-12.6-8.4c-6.6-0.6-8.4,0.6-8.4,7.8C803.5,495.7,803.5,498.1,803.5,501.1z"/>
	<path class="st0" d="M774.7,481.9c-8.4,6-8.4,6-9,17.4c-0.6,10.2,0.6,20.4-1.2,30.6c-2.4,13.8-10.8,20.4-25.2,20.4
		c-15.6,0-24.6-6.6-27-20.4c-1.8-9.6,0-19.2-0.6-29.4c-0.6-7.2,4.2-16.8-10.8-17.4c0.6-0.6,1.8-1.2,2.4-1.8c9,0,18,0,26.4,0
		c0,0.6,0,1.8-0.6,1.8c-7.2,1.2-9,6-8.4,12.6c0.6,9.6-0.6,19.2,0.6,28.2c1.2,14.4,9,21,21.6,20.4c9-0.6,14.4-4.8,16.2-13.8
		c2.4-13.2,1.8-27,0.6-40.2c0-3-2.4-4.8-5.4-5.4c-1.8-0.6-4.2,0.6-4.8-3C758.5,481.9,766.9,481.9,774.7,481.9z"/>
	<path class="st0" d="M490.3,543.1c0-16.8,0-33.6,0.6-50.4c0-6.6-4.8-7.8-9-9.6c0.6-2.4,1.8-1.8,3-1.8c13.2,0,26.4,0,39.6,0
		c3.6,0,5.4,0.6,4.8,4.2c0,0.6,0,1.2,0,1.2c-0.6,3.6,3,8.4-1.2,10.2c-3,1.2-3-4.8-4.8-7.8c-2.4-3-5.4-3.6-8.4-3.6
		c-15-1.2-15-1.2-15,13.8c0,13.2,0,12.6,12.6,12c3.6,0,6.6-1.2,7.8-5.4c0-1.2,0.6-3,2.4-3c1.8,5.4,1.8,13.8,0.6,21.6
		c-0.6,0-1.2,0-1.2,0c-2.4-10.2-10.8-8.4-18-8.4c-3,0-4.2,1.2-4.2,4.2c0,7.2-0.6,15,0.6,22.2c-0.6,2.4,2.4,2.4,3,4.8
		c-3.6,0-7.2,0-10.8,0C489.1,547.9,489.7,545.5,490.3,543.1z"/>
	<path class="st0" d="M864.1,543.1c0-16.8,0-34.2,0.6-51c0-6.6-4.2-7.8-9-7.8c0.6-3,1.8-3,3-3c13.2,0,26.4,0,39.6,0
		c3.6,0,5.4,0.6,4.8,4.2c0,0.6,0,1.2,0,1.2c-0.6,3.6,3,8.4-1.2,10.2c-3,1.2-3-4.8-4.8-7.2c-2.4-3-4.8-3.6-8.4-3.6
		c-15-1.2-15-1.2-15,13.8c0,13.2,0,12.6,12.6,12c3.6,0,6.6-1.2,7.8-5.4c0-1.2,0.6-3,2.4-3c1.8,5.4,1.8,13.8,0.6,21.6
		c-0.6,0-1.2,0-1.2,0c-3-9.6-10.8-8.4-18-8.4c-3,0-4.2,1.2-4.2,4.2c0,7.2-0.6,15,0.6,22.2c-0.6,2.4,2.4,2.4,3,4.8
		c-3.6,0-7.2,0-10.8,0C862.9,547.9,863.5,545.5,864.1,543.1z"/>
	<path class="st0" d="M440.5,534.1c5.4-13.2,10.2-25.8,15.6-39c3-7.8,3-7.8-4.8-10.8c-0.6,0-0.6-1.2-1.8-2.4c8.4,0,16.2,0,24,0
		c0.6,0.6,0.6,0.6,1.2,1.2c-13.2,3-13.8,15-18,24.6c-6,12.6-10.2,25.2-15.6,37.8c-0.6,1.8-0.6,4.8-3.6,4.8s-3-3-3.6-4.8
		c-6-16.2-12-32.4-18.6-49.2c-2.4-6-4.2-12-13.2-12.6c0.6-0.6,1.2-1.2,1.2-1.8c8.4,0,16.8,0,25.2,0c0,0.6,0,1.2,0,1.2
		c-7.2,3.6-7.2,4.2-4.2,11.4c4.8,13.2,9.6,25.8,14.4,39C439.3,534.1,439.9,534.1,440.5,534.1z"/>
	<path class="st0" d="M631.9,498.1c-1.2-6.6,0-12.6,1.2-19.2c9,4.2,18.6,2.4,28.2,2.4c9.6,0,19.2,2.4,28.8-2.4
		c1.8,5.4,1.2,11.4,1.8,16.8c0,0.6-0.6,1.2-1.2,1.8c-1.2,0.6-1.8,0-2.4-1.2c-0.6-0.6-0.6-1.2-0.6-1.2c-4.8-9.6-7.2-10.8-18-9.6
		c-3,0.6-3,1.2-3,3.6c0,16.2,0,33,0,49.2c0,4.2,1.8,6.6,6,7.2c1.8,0,3.6-0.6,4.8,2.4c-10.2,0-20.4,0-30,0c0-0.6,0-1.2,0-1.2
		c10.2-1.2,10.2-9,10.2-16.8c-0.6-13.2,0-25.8,0-39c0-4.8-1.2-6-6-6c-7.8-0.6-13.8,1.8-15.6,10.2
		C634.3,496.3,634.3,497.5,631.9,498.1z"/>
	<path class="st0" d="M937.3,484.3c-8.4,6.6-8.4,15,0,21c5.4,3.6,11.4,6.6,16.8,10.2c6.6,4.2,10.2,10.2,9,18.6
		c-1.2,7.8-6,13.2-14.4,15.6c-4.8-0.6-0.6-2.4-0.6-3.6c9.6-7.8,6.6-19.2-3-24.6c-4.2-2.4-7.8-4.2-11.4-6.6
		c-6.6-4.2-11.4-9.6-10.2-18c0.6-7.8,5.4-13.2,13.2-15.6C936.1,482.5,936.7,483.7,937.3,484.3z"/>
	<path class="st0" d="M947.5,546.1c0,1.2-4.2,3,0.6,3.6c-7.8,3-15,1.8-22.2-0.6c-3-1.2-6.6-14.4-4.8-16.8c0.6-1.2,1.8-0.6,2.4,0
		c0.6,0.6,1.2,1.8,1.2,2.4C931.3,546.1,935.5,547.9,947.5,546.1z"/>
	<path class="st0" d="M490.3,543.1c-0.6,2.4-1.2,4.8,3,4.8c3.6-0.6,7.2,0,10.8,0c-0.6-1.8-3.6-1.8-3-4.8c7.8,3.6,15.6,1.8,24,1.2
		c0,1.8-3,1.2-3,3.6c3.6,0,7.2,0.6,10.2-1.2c0.6,3-1.2,3.6-3.6,3.6c-15.6,0-31.2,0-46.8,0c-0.6,0-0.6-0.6-1.2-1.2
		C483.1,544.9,487.9,546.7,490.3,543.1z"/>
	<path class="st0" d="M864.1,543.1c-0.6,2.4-1.2,4.8,3,4.2c3.6-0.6,7.2,0,10.8,0c-0.6-1.8-3.6-1.8-3-4.8c7.8,3.6,15.6,1.8,24,1.2
		c0,1.8-3,1.2-3,3.6c3.6,0,6.6,0,10.2,0c0,2.4-1.8,1.8-3.6,1.8c-15.6,0-30.6,0-46.2,0c-0.6,0-1.2-0.6-2.4-1.2
		C856.3,544.9,861.7,546.7,864.1,543.1z"/>
	<path class="st0" d="M937.3,484.3c-0.6-1.2-1.2-1.8-1.8-3l0,0c6.6,0,12.6,0,19.2,0c6-0.6,4.2,4.8,4.8,7.2c0.6,2.4,2.4,7.2-0.6,7.8
		c-3.6,1.2-3-3.6-4.2-5.4C950.5,484.9,946.9,483.1,937.3,484.3z"/>
	<path class="st0" d="M905.5,547.3c-3.6,0-6.6,0-10.2,0c0-2.4,3-1.2,3-3.6c2.4-2.4,4.8-4.8,6-8.4c0.6-1.8,1.8-2.4,3.6-1.8
		c3,1.2,0,2.4,0,3C906.7,540.7,906.1,544.3,905.5,547.3z"/>
	<path class="st0" d="M532.3,546.1c-3,2.4-6.6,1.2-10.2,1.2c0-1.8,3-1.2,3-3.6c2.4-2.4,4.8-4.8,6-8.4c0.6-1.8,1.8-2.4,3.6-1.8
		c3,1.2,0,2.4,0,3C534.7,540.1,532.3,543.1,532.3,546.1z"/>
	<path class="st0" d="M954.7,481.3c-6.6,0-12.6,0-19.2,0C942.1,478.9,948.1,478.9,954.7,481.3z"/>
</g>
</svg>
