<?xml version="1.0" encoding="utf-8"?>
<!-- Generator: Adobe Illustrator 24.2.3, SVG Export Plug-In . SVG Version: 6.00 Build 0)  -->
<svg version="1.1" id="Layer_1" xmlns="http://www.w3.org/2000/svg" xmlns:xlink="http://www.w3.org/1999/xlink" x="0px" y="0px"
	 viewBox="0 0 1366 768" style="enable-background:new 0 0 1366 768;" xml:space="preserve">
<style type="text/css">
	.st0{fill:#021C43;}
</style>
<g>
	<path class="st0" d="M945.2,432.9c-14.7,5-25.1,12.5-33.5,22.7c-1.8,2.2-2.8,5.6-6.5,3.6c-3.5-2-1.8-4.8-0.5-7.4
		c3.4-6.8,6.5-13.7,6.9-23.5c-15.2,6.3-25.8,16.4-36.3,26.7c-2.3,2.3-3.2,8.5-8.3,4.4c-4.3-3.5,1.2-5.8,2.4-8.7
		c0.7-1.7,2.4-3.1,1-5.9c-12.3,8.3-25.5,14.9-40.2,17.7c-2.8,0.5-5.7,1.1-8.5,0.9c-7.9-0.4-10.7-4.6-8.3-12.1
		c0.8-2.4,1.8-4.7,2.9-7.1c0.9-2,2-3.9,4.2-8.1c-14.8,4.8-25,12.5-33.7,22.5c-1.9,2.2-2.6,6.7-7,3.7c-4.2-2.8-0.5-5.5,0.5-8.2
		c1.6-4.5,3.5-8.8,5-13.4c0.7-2.3,2.8-5.3,0.5-7.1c-2.7-2.2-5.4,0.6-7.7,2c-10.9,6.7-20.9,14.6-29,24.6c-2,2.4-3.5,5.1-6.7,2.9
		c-3.5-2.5-0.7-5,0.8-7.3c1.6-2.6,4.3-4.8,3.3-8.6c-13.3,7.8-27.2,12.3-42.3,15.8c-16.1,3.7-32.9,5.4-48,15.8
		c-21.4,14.7-45.7,25.2-71.4,31.6c-21.4,5.4-37.5-6.3-39.1-28.3c-1-13.7,3.1-26.4,8.7-38.6c16-35,42.8-59.7,76.6-77.1
		c5.7-2.9,6.5-4.8,2.6-10.1c-9.1-12.2-17.5-24.9-27.8-39.8c0,15.5-0.2,28.4,0.1,41.2c0.1,4.8-1.1,6.5-6.3,6.6
		C579,365,579,365.2,579,345.1c0-26.7,0.2-53.4-0.1-80.1c-0.1-6,1.3-8.1,7.8-8c18.9,0.2,18.9-0.1,18.9,18.7c0,9.5,0.2,19,0.3,28.4
		c0,0.2,0.5,0.4,1.4,1c8.8-13.5,17.8-26.9,26.1-40.6c3.3-5.5,7-8.1,13.7-7.5c6.6,0.6,13.3,0.1,21.3,0.1c-10.9,17-21,33-31.6,48.8
		c-3,4.5-3.8,7.7-0.1,12.4c7.4,9.6,14.5,19.4,20.6,29.8c4.3,7.2,9.4,4,14.8,3.4c6.5-0.7,4-5.6,4-8.8c0.2-26.1,0.3-52.2,0-78.2
		c-0.1-5.8,1.3-7.6,7.4-7.6c20.7-0.1,20.7-0.4,20.7,19.7c0,23.2,0,46.4,0,69.6c0,7.2-0.1,14.2,3.1,21.3c3.4,7.6,1.1,16.1-3.4,22.8
		c-21.7,31.9-51.8,52-89.2,61.2c-5.9,1.5-12.4,1.1-16.5-4.7c-4-5.7-2.1-11.8,0.9-17.1c8-14.1,19.4-24.3,35.6-28.2
		c3.2-0.8,7.1-1.4,7.7,2.7c0.5,3.7-3.7,2.5-5.8,3c-15.3,3.7-26.1,13.1-33.4,26.5c-4.5,8.2-1.1,12.8,8.2,12.3
		c2.2-0.1,4.4-0.6,6.6-1.2c30.1-9.2,55.6-25.2,75.5-49.7c5.3-6.5,9.3-13.7,9.1-22.5c-0.2-6-2.3-9.6-9.2-8.8
		c-3.8,0.4-7.7,0.1-11.5,0.1c-2.5,0-4.8,0.3-5.8-3.3c-1.9-7-6.3-1.3-9.6-1.4c2.1,9.1-5.3,4.5-7.9,4.6c-6.6,0.1-12.5,1.4-18.4,4.3
		c-38.6,18.8-69.1,45.4-84.2,86.8c-3.2,8.7-5.5,17.6-4.9,27c1.1,17.8,13.4,27.1,30.8,22.8c8.6-2.1,17.1-5.2,25.4-8.4
		c21.2-8.2,41-19.1,60.3-30.9c3.7-2.2,6.4-3.9,4.8-9.5c-1.5-5.3,2.4-10.1,5.5-14.7c6.3-9,17.3-9.3,25.9-13.7
		c6.4-3.2,9.2,3.7,9.3,9.6c0.1,6-2.2,11.7-5.7,18.3c14.5-3.1,26.6-8.3,36.6-17.1c7.9-7,7.6-7.4,11.8,3.9c7-5.2,13.5-10.8,21.4-14.1
		c4.4-1.8,9.2-4,13.7-0.7c4.5,3.3,3.9,8,0.4,13c6.4,0.4,8.8-3.7,12.3-5.3c4.1-1.9,8-3.9,12.5-4.7c3.9-0.7,8-0.9,10.5,2.6
		c2.2,3.1,0.9,6.6-0.6,10c-1.8,4.1-7.9,8.7-4.5,12.2c3.4,3.6,9.7-0.4,14.4-1.9c13.8-4.3,27.1-9.5,35.8-22c2.6-3.7,4.6-2.6,6.5,0.3
		c1.3,2.1,2.1,4.5,3,6.6c6.3-4.2,12.1-8.7,18.5-12.1c13.6-7.3,19.1-4.2,19.9,11.2c6.4-3.1,11.8-8,18.6-9.6c4.6-1.1,9.8-2.7,13.4,1.6
		c3.6,4.3,0.4,8.4-1.7,12.3c-0.7,1.4-1.6,2.7-2.4,4.1c-1.1,1.9-2.9,4-1.3,6c1.6,2,4.3,0.8,6.3,0.3c15.8-3.5,30.4-9.6,42.8-20.2
		c2.3-1.9,4.2-4.6,7.2-2.1c2.6,2.2,0.1,4.5-0.6,6.8c-1.2,3.8-3.8,8.4,0.4,11.4c3.7,2.7,7.3-0.7,10.4-2.7c3.4-2.2,6.5-5.1,9.6-7.8
		c1.7-1.5,3.1-3.5,5.7-1.7c2.2,1.5,2.1,3.3,1.3,5.8c-1.1,3.1-4.1,6.7-0.7,9.6c3.5,3,7.9,1.3,11.9,0.1c13.3-3.9,22.4-14.2,33-22.1
		c2-1.5,1-6.6,5.3-5.3c3,0.9,3.3,4.4,4.1,7.1c0.4,1.2,0.9,2.3,1.4,3.7c4.4-2.7,8.4-5.2,12.4-7.7c4.1-2.5,8.5-3.2,12.7-0.8
		c4.7,2.6,3.2,7.1,2.7,11.1c-0.2,1.9-0.7,3.7-1,5.6c-1.1,6.9,1.7,8.6,8.1,6.2c10.6-3.9,20.2-9.3,29.3-15.9c3.1-2.2,6.4-4.1,9.6-6.1
		c1.8-1.1,3.6-1.2,5.2,0.4c1.9,2,1.5,3.8-0.1,5.8c-3.2,4.2-8.6,9.6-4.7,13.8c3.7,4,10.2-0.7,15-2.7c20.9-8.4,34.4-21.4,47.3-45.8
		c-11.6,0.8-22.6,1.6-33.7,2.4c-2.8,0.2-6.4,1.4-6.6-2.8c-0.2-3.3,3.2-3.3,5.7-3.5c11.5-0.9,22.9-1.9,34.4-2.4
		c5.4-0.2,9.5-1.9,13.5-5.6c6-5.7,12.5-10.8,19.3-15.6c3.9-2.8,9.1-7.2,13.6-2.2c4,4.4-0.4,8.9-3,12.7c-1.9,2.9-4.3,5.5-7.5,9.5
		c8.1,0.5,15.2,1,22.2,1.5c2.8,0.2,6.6,0.2,6.2,4.1c-0.4,3.6-4.1,2.4-6.3,2c-19.7-3.5-35.9,1.5-48.9,17.5c-4.1,5-10.2,8.6-16,12
		c-6.2,3.6-8.6,9.1-7.1,15.2c1.6,6.6,8.4,5.1,13,4.4c20-3.2,39.3-8.5,55.2-22.1c2.7-2.3,5.8-6.8,9.7-3.4c4.5,3.9,0.2,7.1-2.4,10.3
		c-2.2,2.7-4.8,6.3-2.4,9.3c2.1,2.7,6,0.8,9-0.2c8-2.7,15.9-4.8,17.9-15.5c1.3-7.2,8.4-11.1,16-11.5c3.4-0.2,7.1,0.6,8.8,4.4
		c1.7,3.8,0.1,6.7-2.3,9.5c-4,4.7-9.8,7-15.5,10.8c5.6,5.5,11.7,7.2,19,5.8c24.2-4.4,41.9-19.3,58.6-35.8c1.7-1.7,2.6-5.2,5.6-4.4
		c3.3,0.9,2.9,4.5,3,7.2c0.2,10.8,1.3,21.6-1.7,32.3c-1.7,6.1-4.5,11.7-11.5,12.6c-7.6,1.1-13.4-3.3-18.8-7.9c-1.5-1.3-2-3.2-0.3-5
		c1.8-1.8,3.5-0.8,5.2,0.1c4.5,2.4,8,8.9,14.1,5c6-3.9,5.8-11,6.4-17.3c0.4-4,0.1-8.1,0.1-15.2c-9.7,11.1-18.8,18.6-29.5,24.2
		c-10.8,5.7-21.8,10.5-34.3,11.1c-6.3,0.3-12.9-0.4-17-4.9c-5.2-5.6-9.5-4.1-14.9-1.3c-3.4,1.7-7.1,2.8-10.9,3.6
		c-10.2,2.4-13.6,0.3-16.9-10.1c-16.2,6.8-32.4,13.5-50.1,15.3c-13.4,1.3-19.1-2.4-22.6-14.8c-10.3,5.9-20.4,12-32,14.6
		c-11.3,2.6-14.9,0.3-17-11.6c-9,4.9-17.5,10.5-27.4,13.1c-13.5,3.6-19.5-1.6-17.4-15.5c0.4-2.8,0.9-5.5,1.6-9.8
		c-11.6,4-19.5,11-26.8,18.6c-2.5,2.6-4.1,8.4-8.3,5.7c-5-3.2-0.3-7.1,1.9-10.3c0.8-1.2,0.9-2.3-0.3-4.1
		c-8.4,5.9-16.4,12.8-26.2,16.2c-9.1,3.2-18.5,6.4-25.2-5c-2.5-4.3-4.9,0.5-6.8,1.4c-11.5,5.3-16.7,3.2-21-9.1
		c-11.5,5.3-22.6,11.8-35.3,14.2c-3.1,0.6-6.3,1.2-9.5,1.2c-9,0-12.2-4.5-9.1-13C940.3,442.8,942.5,438.9,945.2,432.9z M690.1,442
		c-3.8,4.1-6.8,6.8-9.2,10c-2.1,2.8-0.6,5.2,1.8,7.3c2.9,2.6,6.1,1.5,8.9,0.4c4.2-1.7,0.3-3.9,0-5.9
		C691.1,450.4,690.8,447,690.1,442z M706,432.6c-7.4,6.2-9.8,12.3-7.3,21.7C703.7,447.5,706.6,441.6,706,432.6z M1255.7,380.3
		c-6.6,1.3-11,5.5-15.7,10.8C1249.9,393.1,1251.4,384.8,1255.7,380.3z M1226.4,405.7c6.6-0.2,6.6-0.2,11.2-6.6
		C1231.4,397.1,1229.5,402.2,1226.4,405.7z"/>
	<path class="st0" d="M129.3,286.4c3.4-0.4,4-2.7,3.7-5.5c-1.3-12-11.9-22.2-21.8-21c-12.7,1.5-19.2,10.9-17.7,25.4
		c0.1,0.6-0.2,1.1-0.3,1.7c-8.3,0.4-16.8-0.1-24.9,1.5c-10.3,2-8.5,12.3-10.3,19.4c-0.8,3.4-1.4,4.9-4.4,6.7
		c-19.3,11.7-18.4,39.2,1.4,50.3c5.1,2.9,10,4,7,13c-2.4,7-2.5,16.3,1.9,24c0.9,1.6,2.8,3.4,1.4,5.2c-7.3,9.9-7.6,22.9-15.2,32.6
		c-1.8,2.3-3.3,4.5-6.6,4.7c-8.7,0.7-15.6,4.7-20.8,11.4c-2.6-0.7-1.9-2.5-1.9-3.9c0-63.2,0-126.4,0-189.6c0-1.6,0.4-3.1,0.6-4.7
		c42.2,0,84.3,0,126.5,0c13.6,0,13.6,0,13.6,13.1c0,76.9,0,153.8,0,230.7c0,2.5,0,5.1-0.1,7.6c-0.1,2.6-1.5,4.3-4.1,4.2
		c-17.1-0.7-34.3,2.1-51.3-1.4c7.4-5.7,2.4-9.7-2.7-11.6c-6.7-2.6-7.2-6.2-7.4-12.8c-0.6-15.2,8.5-27,12.1-40.6
		c1.2-4.7,7.2-4.1,9.9-8.2c4.3-6.7,5.6-12.2,0.3-18.9c-5.5-7.1-9-15.6-11.2-24c-1.8-7,3.2-13.8,6.7-19.9c4.5-7.9,3.6-18,10.6-25.2
		c4.9,4.5,2.8,11.3,6.7,15.7c2.3,2.6,4.3,6.3,8.2,5.4c3-0.7,2.9-4.4,3.9-7c3.1-8.2,1.9-15.5-2.6-22.7c-1.3-2-3.5-4.5,0.5-6
		c9.5-3.6,7.6-11.1,6.7-18.4c-1.1-8.6-7.2-11.3-14.6-12.5C134.7,298.2,133.9,291.9,129.3,286.4z"/>
	<path class="st0" d="M252.4,257.7c-11.2,16.2-22.3,32.4-33.6,48.5c-3.1,4.5-8,6.1-13.1,6.7c-3.9,0.4-7.7,1-10.9,3.1
		c-1.8,1.2-4.8,3.8-4.6,4.3c3.2,6.5,0,15.5,2.4,19.5c8.1,13.5,19.6,24.6,35.4,30.2c8.8,3.1,13.5,14.2,9.5,22.4
		c-8,16.5-16.2,32.8-24.9,48.9c-7.1,13-9.9,27.3-13.1,41.4c-1.7,7.6-5.2,13.7-12.1,16.9c-5.7,2.7-6.1,6.5-4.8,11.6
		c-7.9,3.9-5.6-2.7-5.6-5.8c-0.1-79.7,0-159.5-0.2-239.2c0-6.3,1.4-9,8.4-8.9C207.7,257.9,230.1,257.7,252.4,257.7z"/>
	<path class="st0" d="M316.4,474.4c-3.8-7.6-7.6-15.1-11.4-22.7c-2.2-4.3-5-8.5-9.2-10.8c-8.4-4.5-8.9-11-7.6-19.3
		c1.5-9.4,1.9-18.9,2.5-28.4c0.3-5.1-1.2-9.9-3.8-14.5c-6.9-12.4-13.3-25-12.5-39.8c0.5-8.1-3.1-14.8-7.3-21.2
		c-6.6-10.3-6.5-12.1,2.4-19.6c-3.8-3.2-7.3-6.4-8.2-11.9c-1-6.4-7.1-6.4-13.5-6.6c6.2-8,11.9-15.4,17.7-22.8
		c1.4-1.8,3.5-1.1,5.3-1.1c13.7-0.1,27.5,0.2,41.2-0.2c5.4-0.1,6.3,2,6.3,6.7c-0.1,70.5-0.1,140.9-0.1,211.4
		C317.7,474,317.1,474.2,316.4,474.4z"/>
	<path class="st0" d="M1190.1,366.7c-33.2,0.1-59.8-24.4-60-55.2c-0.2-31.4,26.4-56.9,59.5-57.1c33.1-0.2,60,25.2,60,56.5
		C1249.4,342.1,1223.3,366.6,1190.1,366.7z M1190.2,342.3c16.9-0.2,31.9-15.4,31.7-31.9c-0.3-16.7-15.7-31.5-32.5-31.2
		c-17,0.3-31.9,15.3-31.6,32C1158.1,328.1,1173.2,342.5,1190.2,342.3z"/>
	<path class="st0" d="M876.9,301.1c16.8,0,30.6,0.1,44.3-0.1c4.3-0.1,6.3,0.7,6.2,5.6c-0.3,14.9-0.2,29.9-0.1,44.8
		c0,3.1-0.4,5.5-3.7,6.8c-19.4,7.6-39.3,12-59.9,6.8c-30.9-7.8-48.7-36.2-42.3-65.9c6.3-29.2,38.2-48.8,70.3-43.1
		c4.7,0.8,9.4,2,13.9,3.6c19.8,7.1,20.7,13.3,4.7,27.1c-3.4,3-5,0.8-7.2-0.6c-7.5-4.8-15.8-6.6-24.7-6.1
		c-16.3,0.9-28.8,12.4-30.2,27.8c-1.5,16.7,8,29.7,24.5,33.7c5.3,1.3,10.6,1.9,16.1,1c10.3-1.7,13.2-5.8,10.8-15.6
		c-0.3-1.2-0.3-3-1.8-2.9C881.3,325.3,885.5,309.5,876.9,301.1z"/>
	<path class="st0" d="M811.2,363.8c-23.7-18-46.5-35.2-70.9-53.8c0,13.8,0,26.2,0,38.6c0,15.6,0,15.6-15.4,15.6
		c-12.8,0-12.8,0-12.8-12.3c0-31.4,0-62.9,0-96.2c24.3,17.1,47.5,33.5,72.2,50.8c0-15.6,0.1-29.4-0.1-43.2c-0.1-4.4,0.9-5.9,5.7-6.1
		c22-0.9,22-1.1,22,20.4c0,27.7,0,55.3,0,83C811.9,361.2,811.7,361.8,811.2,363.8z"/>
	<path class="st0" d="M470.8,255.6c13.4,9.4,25.1,17.6,36.7,25.9c11.4,8,22.7,16,35.5,25c0-15.2,0.2-28.7-0.1-42.2
		c-0.1-5,0.8-7.1,6.6-7.1c21.1-0.2,21.1-0.5,21.1,20.4c0,28.2,0,56.4,0,86.7c-24.3-18.4-47.2-35.8-71.6-54.3
		c0,16.1-0.4,30.8,0.2,45.4c0.3,7.1-1.6,9.1-8.9,9c-19.5-0.4-19.5-0.1-19.5-19.2C470.8,316,470.8,286.8,470.8,255.6z"/>
	<path class="st0" d="M1344.4,364.3c-10.7,0-19.5-0.3-28.4,0.1c-4.7,0.2-5.8-3-7.5-6c-7.1-13-14.2-26-23.1-38.9
		c0,12.4-0.3,24.9,0.1,37.3c0.2,5.8-1.4,7.5-7.4,7.5c-20.7,0-20.7,0.3-20.7-20c0-26.4,0.2-52.8-0.1-79.2c-0.1-6.1,1.3-8.4,7.9-8
		c14.6,0.9,29.4-1.4,43.9,2.3c12.2,3.1,21.8,9.4,24.3,22.7c2.6,13.6-0.6,25.4-13,33.2c-4.1,2.6-2.9,4.3-1.1,7.3
		C1327.5,335.9,1335.4,349.2,1344.4,364.3z M1285.4,294.8c0,3.5,0,7,0,10.4c0,2.3-0.2,4.5,3.3,4.3c5.5-0.3,11-1,14.6-5.7
		c4.3-5.6,4.8-11.9,0.9-17.7c-3.7-5.6-10.6-7.1-16.2-5.5c-5.6,1.6-1.4,8.1-2.6,12.3C1285.3,293.5,1285.4,294.2,1285.4,294.8z"/>
	<path class="st0" d="M196.2,511.5c7.1-0.7,11.3-4.1,11.9-11.7c0.3-3.3,2.3-6.5,3.6-9.8c4.4-11,12.8-20,14.2-32.7
		c0.7-6.1,7.1-11,11.8-15.6c8.4-8.2,17.1-16.1,25.9-24.4c-0.7-0.3,0.3,0,0.3,0.2c-2.2,25.1,16.4,38.3,31.2,53.3
		c8.3,8.4,15.8,17.1,21.8,27.3c-0.4,15.2-0.4,15.2-16.2,15.2c-31.5,0-63,0-94.5-0.1C202.8,513.2,199.1,514.5,196.2,511.5z"/>
	<path class="st0" d="M1042.2,311c0-15.2,0.2-30.5-0.1-45.7c-0.1-5.9,1-8.5,7.7-8.1c15.2,1,30.6-1.4,45.8,1.8
		c16.3,3.5,24,11.7,26.1,27.4c2,14.9-4.8,27.5-18.7,34.3c-7.9,3.9-16.3,5.7-25,5c-6.5-0.5-8.1,1.9-7.7,7.9
		c0.5,8.2-0.1,16.5,0.2,24.8c0.2,4.5-1.3,5.8-5.9,6.1c-22.3,1.1-22.3,1.3-22.3-21.1C1042.2,332.6,1042.2,321.8,1042.2,311z
		 M1077.1,280.1c-6-1.5-8.3,2.2-6.6,7.7c1.5,5.1-6,14.4,6,15.1c11.1,0.6,17.5-4,17.4-11.7C1093.7,283.9,1088.4,280.3,1077.1,280.1z"
		/>
	<path class="st0" d="M995.4,366.7c-5.5,0-10.9-0.6-16.1-2.3c-6.7-2.2-16.7-4.6-16.9-10.4c-0.3-5.7,7.4-11.8,11.7-17.8
		c2.3-3.2,3.6-0.3,5.1,0.9c6.2,4.8,13.2,6.4,20.8,4.3c3.8-1,7.2-2.9,7.7-7.4c0.6-4.6-2.2-7.2-5.8-8.9c-4.9-2.3-10-4.2-15-6.2
		c-19.5-7.7-26.5-18.8-23.5-37.2c2.5-15,17.2-26.7,34.9-27.2c10.5-0.3,20,3,28.9,8.6c4.2,2.7,5.2,5.1,1.4,8.8
		c-0.9,0.9-1.6,2-2.3,3.1c-4.2,6.5-8.1,13.3-16.9,4.6c-2.3-2.3-6.6-2.6-10.1-2c-4.2,0.7-8.4,2-9.4,6.8c-1.1,5,2.2,7.7,6.2,9.4
		c5,2.2,10.1,4,15.1,5.9c18.9,7.2,25.8,18.9,22.7,38.7c-2.4,15.6-15.4,26.7-32.9,28.1C999.3,366.6,997.3,366.6,995.4,366.7z"/>
	<path class="st0" d="M1443.7,334.2c6.9,6.2,14.6,9.7,23.8,7.4c4.2-1,7.9-2.9,8.3-8c0.4-4.6-2.6-7-6.2-8.7c-4.9-2.2-10-4.1-15.1-6.1
		c-19.5-7.7-27-20.2-22.9-38.4c3.5-15.8,20.9-27.5,38.9-25.8c4.4,0.4,8.8,1.5,13,2.9c17.7,6,18.9,13.1,5,25.5
		c-3,2.7-4.4,0.7-6.3-0.7c-4.8-3.5-10-5.7-16.1-4.5c-3.9,0.8-7.4,2.4-8.3,6.8c-0.9,4.6,2.1,7.2,5.7,8.9c5.2,2.4,10.7,4.2,16,6.3
		c18.2,7,24,16.5,22.4,37.1c-1,14-11.1,25.4-26.6,28.6c-14.9,3.2-29.2,0.8-42.2-7.7c-3.7-2.4-4.6-4.4-1.4-8.1
		C1436.1,344.9,1439.7,339.6,1443.7,334.2z"/>
	<path class="st0" d="M-122.2,429c7.9,2.5,15.8,4.6,23.4,8.2c10.3,4.9,12.6,3.8,21.3-7.1c1.8-2.3,2.4-8.2,6.7-5.6
		c4.2,2.5,3.9,7.1,0.9,11.6c-8.5,12.6-4.9,27-5.3,40.7c-0.1,2.7,0.7,5.1-1.1,8.1c-7.8,13.1-5,20,9.3,24.6c1.5,0.5,2.8,1.4,4.2,2.2
		c-1.9,2.3-4.6,1.7-7.1,1.7c-17.2,0-34.3-0.3-51.5,0.2c-6.8,0.2-8.6-2.3-8.5-8.7c0.2-24-0.1-48-0.2-72c0.2-1.1,0.4-2.1,0.7-3.2
		C-127,429.3-124.6,429.1-122.2,429z"/>
	<path class="st0" d="M1338.1,257.3c24.4,0,48.3,0.1,72.1-0.1c5.2,0,5.1,3.5,6.1,6.8c5.2,17.8,5.2,18.2-12.6,17.7
		c-7.4-0.2-9.6,1.7-9.4,9.2c0.6,21.9-0.1,43.8,0.4,65.7c0.1,6.5-2,7.8-8.1,7.8c-20.2-0.1-20.2,0.1-20.2-20.3c0-18.4,0-36.8,0-55.2
		c0-3.1,1.5-7.1-4.6-7.1c-5.6,0-13.1,2.8-16.4-1.4C1340.6,274.4,1340.1,265.8,1338.1,257.3z"/>
	<path class="st0" d="M426.9,339.7c-2.3,7.6-4.5,14.1-6.2,20.8c-1,4-3.6,3.8-6.5,3.8c-17.9,0-35.7-0.1-53.6,0.1
		c-4.3,0.1-5.4-1.3-5.4-5.4c0.1-32.1,0.1-64.1,0-96.2c0-3.8,0.6-5.4,5.1-5.7c21.9-1.3,21.8-1.5,21.8,20.5c0,18.4,0.2,36.8-0.1,55.2
		c-0.1,5.3,1.3,7.1,6.8,7C401.3,339.4,413.6,339.7,426.9,339.7z"/>
	<path class="st0" d="M21.5,513.3c-0.2-11.1-0.3-22.1-0.7-33.2c-0.1-3.3,1.1-6,4.1-6.7c8.4-1.9,15.4-8.4,24.9-6.5
		c4.6,0.9,9.2-0.5,11.5-4.9c5.6-10.1,14.6-16.5,23.5-23.2c1.3-0.9,2.3-2.2,3.5-3.2c2.4-2.1,3.7-8.4,6.8-6.2
		c4.5,3.2-0.7,7.2-2.5,10.4c-3.2,5.9-5,12-6.3,18.7c-2.6,13.5-4.1,27.4-11.1,39.8c-2.7,4.8-2.1,9.3,2.1,13.1c-2.6,2.8-5.9,1.7-9,1.8
		C52.6,513.3,37.1,513.2,21.5,513.3z"/>
	<path class="st0" d="M462.5,310.1c0,15.9-0.2,31.7,0.1,47.6c0.1,5-1.4,6.4-6.4,6.5c-21.8,0.6-21.8,0.8-21.8-20.8
		c0-26.3,0.2-52.7-0.1-79c-0.1-6,1.7-7.4,7.5-7.4c20.7-0.1,20.7-0.3,20.7,19.7C462.5,287.9,462.5,299,462.5,310.1z"/>
	<path class="st0" d="M476.3,464c4.3-1.1,8.6-2.2,12.9-3.4c2.1-0.6,4.7-1.9,5.6,1.1c0.9,3-2,3.4-4,4.2c-8.2,3-16.7,4.3-25.4,3.6
		c-4.4-0.3-7.7,0.6-11.5,3.1c-10.4,6.7-21.9,10.5-34.4,9.7c-7.2-0.5-13.9-2.8-16.9-10.4c-2.9-7.3,0.1-14,5.2-18.1
		c15.9-12.4,29.1-26.3,36.6-45.4c1.7-4.2,6-7.4,10.3-9.7c4.7-2.6,9.4-2.5,13.3,1.2c4.2,3.8,2.3,8.3-0.1,12.2
		c-5.4,8.9-13.1,15.9-22.3,20.5c-9.3,4.6-8.4,10.4-4.2,17.6c0.6,1.1,1.3,2.2,2.1,3.2c8.9,11.3,15.6,11.1,23.2-0.9
		c3.1-4.9,5.4-10.1,5.6-16c0.1-2,0.4-4.4,2.6-4.4c2.7,0.1,3.2,2.6,2.9,5c-1.2,9.4-5.1,17.6-11.4,24.7c-2.2,1.4-2.2,3.1,0.3,3.6
		C470,465.9,473.4,466.3,476.3,464z M433.2,440.8c-9.1,5.1-16.7,10.2-22.2,17.7c-6.6,9-3.3,16.9,7.8,18.1c12.1,1.3,22.7-3,33.5-10
		C441.6,460.8,434.6,453.5,433.2,440.8z M438.5,431c10.2-7.1,18.1-12.4,23.6-20.4c1.5-2.1,4.5-4.8,1.6-7.4c-2.4-2.1-5.5-0.6-7.9,1.2
		C447.6,410.5,443.5,419.2,438.5,431z"/>
	<path class="st0" d="M-130.1,432.6c0.1,24,0.4,48,0.2,72c-0.1,6.5,1.7,8.9,8.5,8.7c17.1-0.4,34.3-0.1,51.5-0.2
		c2.5,0,5.2,0.5,7.1-1.7c5.8,0.6,11.6,2.6,17.4,0.2c15.7,3.6,31.7,0.5,47.4,1.6c6.4,0.5,8.1-2.1,8.1-8.2
		c-0.2-79.7-0.2-159.5,0-239.2c0-6.9-2.4-8.5-8.9-8.4c-40.5,0.2-81.1,0.3-121.6-0.1c-7.8-0.1-9.6,2.4-9.6,9.8
		c0.3,47.6,0.1,95.3,0.1,142.9c-1.8-0.6-1.6-2.4-2.2-3.7c0.1-46.7,0.6-93.5,0.2-140.2c-0.1-9.1,2.7-10.8,11.1-10.7
		c41.2,0.4,82.5,0.4,123.7,0c7.1-0.1,9,1.6,9,8.9c-0.3,80.8-0.3,161.5,0,242.3c0,6.4-1.1,8.7-8.2,8.6c-42.5-0.4-85-0.3-127.5,0
		c-6.3,0-8.1-1.6-7.9-7.9c0.4-22.6,0.1-45.2,0.2-67.7C-131.5,437.3-132.7,434.5-130.1,432.6z"/>
	<path class="st0" d="M21.5,513.3c15.6,0,31.2,0,46.7-0.1c3.1,0,6.4,1,9-1.8c2.6,1.2,5,0,7.5-0.5c3.7,3.5,7.6,3.1,11.6,0.6
		c3.2,0,6.5,0.1,9.7,0.1c17,3.5,34.2,0.7,51.3,1.4c2.7,0.1,4.1-1.5,4.1-4.2c0.1-2.5,0.1-5.1,0.1-7.6c0-76.9,0-153.8,0-230.7
		c0-13.1,0-13.1-13.6-13.1c-42.2,0-84.3,0-126.5,0c1.8-3.5,5.1-1.7,7.6-1.7c41.9-0.1,83.7,0.1,125.6-0.3c7.1-0.1,9,1.6,9,8.8
		c-0.3,80.7-0.2,161.5-0.1,242.2c0,5,0.7,8.8-7,8.7c-43.1-0.4-86.3-0.2-129.4-0.3C25.2,515.1,22.5,516.4,21.5,513.3z"/>
	<path class="st0" d="M196.2,511.5c2.9,2.9,6.6,1.7,10,1.7c31.5,0.1,63,0.1,94.5,0.1c15.8,0,15.8,0,16.2-15.2
		c3.3,4.3,1.1,9.2,1.5,13.7c0.3,4-3,3.3-5.4,3.3c-44.1,0-88.1-0.1-132.2,0.1c-8,0-5.6-5.2-5.6-9c-0.1-76.5-0.1-153.1-0.1-229.6
		c0-21,0-21,21.4-20.9c18.5,0,37,0.1,55.5,0.2c0.3,0,0.8,0.3,0.8,0.5c0,0.5-0.3,0.9-0.4,1.4c-22.3,0-44.7,0.2-67-0.3
		c-7-0.1-8.5,2.5-8.4,8.9c0.2,79.7,0.1,159.5,0.2,239.2c0,3-2.3,9.7,5.6,5.8C187.2,511.4,191.7,511.5,196.2,511.5z"/>
	<path class="st0" d="M223.3,351.8c-5.1-2.8-8.6-4.9-12.2-6.7c-4.9-2.4-5.2-6.9-4.9-11.3c0.1-1.9,2.9-4,4-3.2
		c3.5,2.7,9.7,2.1,10.5,8.3C221.3,342.6,222.2,346.2,223.3,351.8z"/>
	<path class="st0" d="M1172.5,407.1c-1.9,4.4-3.2,10.3-9.7,11.6c-1.8,0.4-3.4-1.5-3.7-3.6c-0.2-1.6,9-13.9,10.1-13.5
		C1171.4,402.3,1173.1,403.6,1172.5,407.1z"/>
	<path class="st0" d="M1294.8,400.6c-2.2,5.1-3.4,11.1-9.8,13c-2,0.6-4.3-1.8-3.6-3.3c2.2-5,4.3-10.5,9-13.7
		C1291.6,395.7,1294.5,397.8,1294.8,400.6z"/>
	<path class="st0" d="M61.8,336.8c-2.4-2.6-9.1,6-9.1-0.1c0-6.7,9.5-5,14.8-7.1c2.7-1,2.8,1,2.9,3.2
		C70.5,338.8,66.9,338.3,61.8,336.8z"/>
	<path class="st0" d="M-122.2,429c-2.4,0.2-4.8,0.3-7.2,0.5c-3.2,1.1-4.5,0-4.3-3.4c0.2-4.6,0-9.2,0-13.9c2.5,1.2,4.3,3.2,3.7,5.8
		C-131.4,424.7-127.5,427.2-122.2,429z"/>
	<path class="st0" d="M129.3,286.4c4.6,5.5,5.3,11.9,3.9,18.7C126,300,125.8,293.6,129.3,286.4z"/>
	<path class="st0" d="M225,305.3c2.6-2.9,5.2-5.9,8.8-9.8c0.5,4,0.8,6.8,1.1,9.6C231.7,308.2,228.4,308.6,225,305.3z"/>
	<path class="st0" d="M225,305.3c3.4,3.3,6.7,2.9,9.9-0.3c0.6,0.2,1.7,0.5,1.6,0.7c-0.1,3.1-0.2,3.1-7,3.1
		C225.4,308.9,225.4,308.9,225,305.3z"/>
	<path class="st0" d="M96.4,511.6c-4,2.5-7.9,2.9-11.6-0.6C88.8,507.6,92.5,511,96.4,511.6z"/>
	<path class="st0" d="M476.3,464c-2.9,2.3-6.4,1.9-9.5,1.3c-2.5-0.5-2.4-2.2-0.3-3.6C469,465.8,473.3,462.4,476.3,464z"/>
	<path class="st0" d="M-129.8,410.1c0-47.6,0.2-95.3-0.1-142.9c0-7.3,1.8-9.8,9.6-9.8c40.5,0.4,81.1,0.3,121.6,0.1
		c6.4,0,8.9,1.5,8.9,8.4c-0.2,79.7-0.2,159.5,0,239.2c0,6.1-1.6,8.7-8.1,8.2c-15.8-1.2-31.7,1.9-47.4-1.6c5.7-5.5,2.2-8.7-2.9-11.6
		c-14-8-17-15.6-12.6-31.1c3.4-11.9,6.4-23.9,10-35.7c3.2-10.6,1.2-20.7-2.3-30.7c-4-11.3-0.2-23,9-31.2c4.2-3.7,4.1-10.9,11.5-12.7
		c5-1.2,6.2-0.7,5.7,4.3c-0.7,7,1.1,13.3,6.9,17.9c7.4,5.9,18,4.6,23.9-2.8c6.7-8.4,5.9-21.9-2.8-28.3c-5.2-3.8-9.8-9.5-17.7-8.7
		c-4.3,0.4-4.5-1.9-2.8-5.4c4.5-9.1,9.5-18.1,6.2-29c-0.9-3.1,3.2-3.1,4.2-5.6c3.4-9,3-18.1,1.5-27.2c-1.2-7.3-16.7-14.4-23.7-10.5
		c-4.5,2.5-7.2,1.6-11.1-0.3c-7.1-3.5-13.2-4.5-18,4.8c-3.8,7.3-6.6,15.5-13.4,21.4c-3.7,3.2-0.5,9.7,4.2,14.3c1.7,1.6,4.1,5.6,2,9
		c-6.1,9.5-11.9,19.3-18.8,28.3c-9.5,12.5-12.9,25.4-8.3,40.8c3.2,10.5,5.3,21.5-0.2,32.2c-1.1,2.2-1.2,5.2-5.1,3.1
		c-6.3-3.3-13-2.5-19.7-1.4C-124.6,416.4-128.5,415.7-129.8,410.1z"/>
	<path class="st0" d="M-51.7,293.7c3.2-4.6,1.9-10.4,4.3-15.2c1.6-3.2,1.8-7.5,7.3-8c-1.7,7.2-5.4,14.6,2.5,21
		c-4.9,2-9.2,4.5-14.3,2.1L-51.7,293.7z"/>
	<path class="st0" d="M-51.9,293.5c-0.9,5-0.9,5-6.3,7.5c1.5-3.2,3.6-5.7,6.6-7.3C-51.7,293.7-51.9,293.5-51.9,293.5z"/>
</g>
</svg>
