<?xml version="1.0" encoding="utf-8"?>
<!-- Generator: Adobe Illustrator 24.2.3, SVG Export Plug-In . SVG Version: 6.00 Build 0)  -->
<svg version="1.1" id="Layer_2_xA0_Image_1_" xmlns="http://www.w3.org/2000/svg" xmlns:xlink="http://www.w3.org/1999/xlink"
	 x="0px" y="0px" viewBox="0 0 915 225" style="enable-background:new 0 0 915 225;" xml:space="preserve">
<style type="text/css">
	.st0{fill:#FFFFFF;}
</style>
<g>
	<path class="st0" d="M911.7,5c2.1,1.1,0.9,3,0.9,4.5c0.1,70.2,0.1,140.3,0.1,210.5c-303.2,0-606.5,0-909.7,0c0-71.3,0-142.7,0-214
		C304,6,604.9,6,905.9,6C907.8,6,910.1,7.1,911.7,5z M8.2,214.8c299.8,0,599.1,0,898.7,0c0-67.9,0-135.7,0-203.5
		c-299.6,0-599.1,0-898.7,0C8.2,79.2,8.2,146.8,8.2,214.8z"/>
	<path class="st0" d="M503.7,122.5c2.6-5.5,4.7-10.1,6.9-14.8c2.2-4.5,4.4-9,6.8-13.8c-8.5,2.3-17,4.3-24,10.6
		c0.4-3.2,3.9-7.3,7.7-9.5c5.6-3.2,11.4-5.9,17.9-7.1c4-0.7,5.6-4.4,7.7-7.3c10.9-14.3,25.5-22.6,43.5-27.3
		c-17.3-2.5-33.6-5.3-50.3-5.6c-9.1-0.2-18.3-1-27.5-0.6c-5.3,0.2-10.2,2.6-14.5,6.2c-8.8,7.4-3.9,16.7,2.9,20.6
		c2.9,1.7,6,2.9,9,4.3c-1.6,2.6-3.8,1.9-5.6,1.6c-10.1-1.6-16.8-9.3-17.4-19.7c-0.5-8.5,4.8-14.5,14.5-18.3
		c11.5-4.5,23.2-2.4,34.7-1.6c11.8,0.8,23.6,2.8,35.1,5.6c11.6,2.8,23.3,5.4,34.9,8.2c1.2,0.3,3.5,0.8,2.4,3.8
		c-12-4.3-18.5,3-24.3,12.1c-4.4,6.7-8.4,13.6-11.4,21.3c9.2,5.6,13.1,14.9,12.6,24.8c-0.6,12.4-9.3,18.9-21.1,21
		c1.3,9.5,5.9,17.2,11.3,24.6c-8-5.4-15.9-10.7-18.8-20.6c-0.8-2.9-1.9-4.5-5.5-4.2c-8.1,0.7-15.4-2.8-23.1-5.7
		c-6.8,9.9-14.9,18.8-26.6,23.4c-15.4,6-30.8,6.7-44.9-3.6c-6.1-4.5-12-18.2-8.7-28.2c2.2-6.8,13.2-16,22.7-16
		c15,0.1,29.1,2.8,42.2,10.2C496.3,118.9,500.2,119.5,503.7,122.5z M500.9,126.4c-9.1-4-17.4-8.6-26.8-10.9
		c-8.4-2.1-16.9-4.3-25.5-1.5c-6.9,2.3-13.2,6-14.6,14c-1.5,8.6,3.7,18.4,11.6,22.3c9.5,4.7,18.9,3.6,28.3,1
		C487,147.8,494,137.3,500.9,126.4z M535.9,130.9c-1-13.6,4.5-25.4,8.6-37.7c-3.1-1.4-6.6-2-10.2-2.2c-3.5-0.2-5.2,0.6-6.8,4.2
		c-4.7,10.3-10.3,20.1-15.7,30.6C519.3,129.2,527,131.4,535.9,130.9z M544.9,129.6c7.1-1.5,12.3-5.1,13.8-12.2
		c1.5-7.3-2.3-16.3-8.2-20.2C547.6,107.8,544.4,118.2,544.9,129.6z M560.2,62.6c-11.2,4.5-19.3,11-27.2,23.2c3.2,0,6.3,0.6,9,1.4
		c4.1,1.4,5-0.3,6.4-3.3C551.7,76.9,555.2,69.9,560.2,62.6z"/>
	<path class="st0" d="M646.2,109.3c5-2.3,10-3.7,14.1-7c1-0.7,2.4-1.2,3.6-1.2c1.2,0,2.9-1.8,3.7,0.5c0.5,1.4,0.3,2.8-0.9,4.1
		c-9.5,9.5-8.4,21.9-8.8,33.8c-0.1,3.3,4.6,3.7,8.2,0.6c4.3-3.7,6.9-8.7,9.7-13.4c0.9-1.5,1.5-3.2,2.4-4.8c2.5-4.3,3.4-8-2.4-10.5
		c-2.6-1.1-2.7-4-1.8-6.1c1.5-3.6,4.4-6.3,8.3-7.2c6.7-1.5,9,2.2,6.8,10.8c6.6,0.6,11.8-3.3,17.8-7c-2.4,8.8-9,10.1-14.9,11.9
		c-3.5,1.1-5.2,2.6-6.9,6c-4,8.6-8.7,16.9-16.1,23.4c-4.2,3.7-8.7,4.4-13.7,1.9c-5.1-2.5-6-7.4-6.6-12.2c-0.8-7.1,1.8-13.7,4.1-20.5
		c-5.6,0.9-5.3,1-6.2,5.8c-2.1,10.4-6.7,19.6-15.7,26c-4.4,3.1-9.2,4-14.2,1.4c-5-2.7-6.2-7.6-6.9-12.6c-0.3-2.5-0.1-5-0.1-8.6
		c-3.7,8.7-7.9,15.9-15.4,20.3c-9.6,5.7-18,0.9-20.6-9.6c-2.4-9.5,1-18.3,4.1-26.9c6-16.7,13-33,22.8-47.9
		c11.2-17,24.9-31.1,45.2-36.8c12.5-3.5,25.1-3.7,37,2.4c10.9,5.6,15.4,18.5,13.5,28.3c-2,10.6-12.3,17.6-23.9,17.7
		c-9.3,0.1-17.9-1.6-24.7-8.5c-2.7-2.8-4.3-6.3-5.4-10.9c4.3,3.3,7,7.3,11,9.6c9.4,5.4,19.3,5.9,28.3,0.5
		c11.3-6.9,12.1-16.4,3.2-27.7c-6.3-8-15.3-9.5-25.6-8.2c-23.7,3-37.6,18.5-49.7,36.8c-7,10.6-12.5,22-17,34.1
		c13.5-2.3,16.4,1,18.6,21.4c3.4-9.9,9.6-16.6,18.6-21c6.6-3.2,14.1,0.7,16,8.6C646,107.4,646,108.2,646.2,109.3z M581.7,131.9
		c0.3,3.7-0.7,8.1,4.2,9.5c3.2,0.9,6.5-0.6,8.4-3.3c5.9-8.5,8.1-18.3,8.5-28.4c0.1-2.6,0-6.8-3.9-7.5c-3.4-0.6-6.6,1.1-8.4,4
		C585.5,114.1,582.8,122.8,581.7,131.9z M629,103.9c-7.5,8.4-12.2,17.9-11.2,29.6c0.3,3.2-0.3,6.8,4.2,7.6c4,0.7,6.7-1.1,9-4.5
		c4-6.1,5.6-12.9,6.8-19.9C629.7,113.8,627.5,110.5,629,103.9z M638.4,109.8c-0.4-1.7-0.7-3.2-1.1-5.1c-1,1.7-4.2,0.4-3.5,3
		C634.4,109.5,636.2,110.2,638.4,109.8z M680.2,104c-3.1,2.6-3,2.9,1.4,4.8C682.4,106.7,680.9,105.5,680.2,104z"/>
	<path class="st0" d="M203.9,99.1c-10.9-18.4-5-49.7,25.8-58.9c15.7-4.7,31.7-6.2,48-3.3c3.3,0.6,6.9,0.7,10.3-0.6
		c1.4-0.5,3.4-0.6,4.6,1c1.1,1.5-0.2,2.3-1.5,3.2c5.3,1.6,9.8,4.4,13.3,8.4c3.7,4.3,5.1,9.5,4.5,15c-1.6,14-9.7,24.6-27.9,27.5
		c5,14.1,8.4,28.9,17,41.5c0.7,1.1,1.5,2.2,2.4,3c4.2,3.7,7.2,2.9,10.1-2.8c3.3,3.6,0.4,6.5-1.3,9c-2.6,4-6.6,3.6-10.5,2
		c-9.3-3.8-12.3-12.6-15.6-20.7c-4.2-10.4-6.5-21.3-8-32.4c-0.3-2.3-1.9-2.4-3.2-3c-3.2-1.6-5.9-3.4-5.9-8.2c3.2,3,6.5,4.9,10,6
		c14,4.3,21.1-5.4,23.8-16.3c1.3-5.3,2.1-10.9,0.1-16.5c-2-5.4-12.4-13.2-17.6-11.9c-5.7,1.4-10.6,4.9-14.3,9.6
		c-6.9,8.8-9.9,19.5-13,29.9c-4.3,14.4-6.9,29.2-12.9,43.1c-6.3,14.5-15.9,23.6-32.3,25.3c-10.1,1-19.5,1.1-28.5-4.1
		c-10.8-6.3-18.5-26.5-8.1-38.4c4.5-5.2,10.2-8.8,17.4-8.7C194.9,98.1,199.2,97.3,203.9,99.1z M274.9,38.9
		c-8.8,0.5-16.1,0.1-23.5,0.9c-15.2,1.8-28.6,6.7-38.4,18.9c-7.1,8.8-11.7,18.6-8.4,30.5c2.1,7.4,11.5,15.6,22.9,14.9
		c8.3-0.5,15.4-6.3,18.4-15.8c3.8-11.7,7.3-23.5,13.9-34.1C263.6,48.4,268.5,43.9,274.9,38.9z M222,118.4c-1.2-1.1-1.8-1.4-2.1-2
		c-6.8-10.8-17.4-12.7-28.7-11.2c-6.9,0.9-13,5.2-14.8,12c-2,7.4-0.3,15.1,5.7,20.8c5.8,5.5,13.1,7.9,21,6.6
		c10.6-1.8,18.4-7.9,24.5-16.6c4.9-7,8.4-14.6,12.1-23.4c-7.1,4-13.4,6.4-20.6,4.5C220.3,112,221.8,114.5,222,118.4z"/>
	<path class="st0" d="M370.1,134.9c5.4-4,8.4-8.9,10-15.1c2.4-9.2,8.6-15.9,16.9-20.4c5.3-2.9,10.4-2,12.8,1.7
		c2.6,4,0.9,11.4-3.2,14.5c-4.9,3.7-9.9,7.3-14.9,11c-4.1,3-4.9,9.7-1.6,14.1c2.4,3.1,7.9,2.9,12.2-0.7c5.2-4.4,8.5-10.3,11.6-16.2
		c0.5-1,0.4-3.6,2.7-2.6c2,0.9,1.3,2.5,0.5,4.1c-2.6,5.6-5.3,11.2-9.7,15.6c-9.9,9.9-22.6,7.1-27.5-5.9c-0.2-0.6-0.2-1.3-0.4-2.8
		c-10.5,10.1-21.6,17.9-36.7,13.5c-2.7-0.8-5-3.2-5.2-6.9c-2.5,1.8-4.4,4.1-6.8,5.8c-7.2,5.2-16.4-0.1-17-8.4
		c-0.5-7.5,0.1-14.8,4.5-21.1c4-5.9,4.8-11.9,1.5-18.3c4-0.7,11.6,3.4,12.8,6.5c0.6,1.4-0.5,2.3-1,3.1c-4.5,8.7-7.1,18-9.7,27.3
		c-0.3,1.1,0,2.3-0.1,3.5c-0.3,2.3,0.2,4.5,2.4,5.5c2.3,1,4-0.8,5.6-2.1c4.5-3.8,7.2-8.8,10.2-14c-1.3-0.6-3.3,1.2-4-1
		c-0.4-1.2-0.3-2.2,0.7-3.2c6.8-7,11.6-15.6,17.2-23.6c2.4-3.4,4.8-6.9,9.9-5.9c0.7,0.2,1.8-0.2,1.9,1c0.1,0.8,0,1.3-0.8,2
		c-7.2,6.9-7.3,11.2-0.9,18.7c2.6,3.1,4.9,6.3,6.4,10.3C371.9,128.5,369.3,131.4,370.1,134.9z M359.3,129.8
		c-8.5-1.7-11.8-0.7-13.8,4.1c-2.1,5,0,9.3,4.3,9.1c8.4-0.3,13.4-8.2,11.4-16.5c-1.6-6.5-6.7-11.9-5.7-19.3
		c-2.8,6.7-11.2,10.1-10.5,18.9C351.4,123.9,355.3,124.9,359.3,129.8z M390.3,123.1c5.7-6,12-9.1,15.2-15.3c0.9-1.6,2.1-3.2-0.2-5
		c-2.3-1.8-4.3-0.5-5.2,0.7C396.1,109,392.7,114.9,390.3,123.1z"/>
	<path class="st0" d="M737.9,120c-0.1,8.1-4,13.2-7.8,18.1c-1.8,2.4-4.2,4.5-6.9,6.2c-11.3,7.2-20.9-2-23.3-10.7
		c-4.4-15.8,8.1-30.3,19.5-34.8c4.3-1.7,8.4-1.4,10.9,2.5c2.6,4.2,2.2,9.1-1.7,12.4c-4.8,4.1-10.1,7.6-15.3,11.3
		c-5.4,3.9-5.8,8.2-3.4,14.3c1.4,3.6,4.3,4.4,7.9,3.2c6.1-2.1,9.8-6.8,12.8-12.1C732.6,127.1,733.8,123.5,737.9,120z M710.6,122.1
		c6.3-3.6,10.3-8.7,14.8-13.3c1.3-1.4,2.9-4.1,0.4-6.1c-2.1-1.7-3.9-0.4-5.5,1.3C715.8,109.1,713.2,115.2,710.6,122.1z"/>
	<path class="st0" d="M294.1,193.1c-5.8-5.6-11.7-11.6-18.1-17.8c0,5.9,0,10.3,0,15.4c0,1.5-0.1,2.5-2.1,2.4
		c-1.6-0.1-1.9-0.7-1.9-2.1c0-7.6,0-15.8,0-22.9c6,5.7,12,11.5,19,18.2c0-6-0.1-10.3,0-15.1c0-1.1-0.9-2.9,1.2-3.1
		c2.7-0.2,1.7,1.9,1.7,3.2C294,178.3,294.1,186.3,294.1,193.1z"/>
	<path class="st0" d="M413.9,168c3.6,0,6.8,0.1,9.9,0c4.4-0.2,7,1.8,7.4,6.1c0.3,4.5-2.5,6.6-6.7,7c-0.6,0.1-1.3,0.1-2.3,0.2
		c3.3,3.9,6.4,7.5,10.1,11.9c-8.4-0.7-9.3-9.2-15.4-11.9c0,3.2,0,6.3,0,9.4c0,1.1,0.4,2.5-1.6,2.4c-1.9-0.1-1.4-1.5-1.4-2.5
		C413.9,183.2,413.9,175.9,413.9,168z M417,178.1c3.7-0.7,7.6,1.5,10.4-2.2c0.8-1.1,0.7-2.2-0.2-3.1c-3-3.4-6.7-1.2-10.2-1.7
		C417,173.4,417,175.4,417,178.1z"/>
	<path class="st0" d="M513.8,181c0,4.3,0,7.9,0,11.8c-1.5-0.2-3.4,1.4-3.4-1.8c0.1-7.6,0-15.1,0-23.1c3.6,0,6.7,0,9.8,0
		c4.1,0.1,7.5,0.9,7.7,6.1c0.2,5.3-3,6.7-7.4,6.9c-0.4,0-0.8,0.2-1.9,0.4c3.8,3.4,6.8,7,10.1,12C520.9,191.8,519.5,184.3,513.8,181z
		 M514,178.1c3.7-0.7,7.5,1.5,10.3-2.1c0.8-1,0.7-2.1-0.1-3.1c-3-3.4-6.7-1.3-10.2-1.8C514,173.4,514,175.4,514,178.1z"/>
	<path class="st0" d="M244,168.3c-4.5,4.6-9.5,1.5-13.8,3.1c0,2,0,4,0,6.5c4.2,0,8.3,0,13.5,0c-4.1,5.4-9.2,1.7-13.4,3.6
		c0,2.4,0,5.1,0,8.4c4,0,8.2,0,12.5,0c0.1,0.6,0.1,1.2,0.2,1.9c-5.1,3-11.1,0.2-16.7,1.6c0-8.8,0-16.8,0-25
		C231.8,168.3,237.3,168.3,244,168.3z"/>
	<path class="st0" d="M371.1,190c3.7,0,7.1,0,10.6,0c1.2,0,2.4,0,2.2,1.7c-0.2,1.5-1.3,1.2-2.2,1.2c-3.8,0-7.7-0.1-11.5,0.1
		c-2.4,0.1-2.8-1.3-2.8-3.1c0-7.1,0-14.2,0-21.9c4.9,0,9.6,0,14.4,0c1,0,2-0.1,2.1,1.4c0,1.9-1.3,1.6-2.4,1.6c-3.3,0-6.6,0-10.2,0
		c0,2.2,0,4.3,0,7c3,0,6.3-0.1,9.6,0c1.1,0,3-0.9,3.1,1.3c0.1,2.6-2.1,1.6-3.3,1.6c-3.1,0.1-6.2,0-9.5,0
		C371.1,184.1,371.1,186.7,371.1,190z"/>
	<path class="st0" d="M461.9,168c4.3,0,8-0.2,11.6,0.1c3.6,0.2,6.3,1.7,6.4,5.9c0.1,4.4-2.5,6.4-6.4,7c-2.3,0.3-4.6,0.1-7.1,0.1
		c-1.1,3.1-0.3,6.2-0.5,9.3c-0.1,1.6,0,2.9-2.3,2.8c-2.2-0.1-1.7-1.6-1.7-2.8C461.9,183,461.9,175.7,461.9,168z M466,178.7
		c3.5-2,7.3,1.4,9.9-2.6c1-1.5,0.6-2.9-0.4-3.8c-3-2.6-6.3-1-9.5-1C466,173.7,466,175.6,466,178.7z"/>
	<path class="st0" d="M638,193c0-8.6,0-16.5,0-25c4.5,0,8.9,0,13.4,0c1,0,2.5-0.5,2.5,1.4c0.1,1.9-1.3,1.5-2.4,1.5
		c-3.3,0-6.6,0-10,0c-1.2,2.1-0.3,4.3-0.7,7c3.7,0,7.3,0,10.9,0c0.9,0,2-0.2,2.2,1.3c0.1,1.8-1.1,1.7-2.3,1.7c-3.4,0-6.9,0-10.5,0
		c0,3.1,0,5.9,0,9c3.4,0,6.7-0.1,10,0c1.1,0,2.9-0.7,2.8,1.6c-0.1,1.9-1.6,1.3-2.6,1.3C646.9,193,642.6,193,638,193z"/>
	<path class="st0" d="M592.4,186.1c1.1,1,2,2.2,3.2,3c2.2,1.4,5,1.8,6.6-0.3c1.5-1.9,1.1-4.4-1.2-6.1c-1.8-1.3-3.8-2.5-5.6-3.8
		c-2.4-1.7-4.1-4-3.5-7c0.5-2.5,2.3-4.4,4.9-4.8c3-0.5,5.8,0.1,8.1,2.5c1,1.1,1.2,1.9,0,2.9c-1,0.8-1.3,0.4-2.2-0.5
		c-1.8-2-4.5-3.3-6.6-0.6c-2.2,2.8,0.9,4.3,2.5,5.8c1.5,1.4,3.6,2.1,5.2,3.4c2.5,2,3.8,4.7,2.8,7.8c-1.2,3.4-4.5,5.2-7.6,5.1
		c-2.8,0-6.2-0.9-7.9-4.1C590.4,187.9,591.1,187,592.4,186.1z"/>
	<path class="st0" d="M679.7,188.1c2.4-1.1,3.5-2.6,4.8,0c1.3,2.6,4.1,2.5,6.1,1.8c2.6-0.9,4.9-2.8,1.8-5.8c-2.2-2.1-4.7-4-7.1-6
		c-3-2.6-4.1-5.6-1.2-8.9c2.9-3.3,6.2-3,9.6-0.7c1,0.7,2,1.6,3.3,2.6c-1.4,1-2.4,2.6-4.2,0.5c-1.9-2.2-4.7-2.7-6.4-0.5
		c-2.1,2.7,0,4.5,2.6,6.1c2.9,1.7,6.3,3.4,7.5,6.8c1,2.9,0.9,6.5-2.6,8.2c-3.1,1.5-6.6,1.8-9.7-0.2
		C682.9,191,681.8,189.8,679.7,188.1z"/>
	<path class="st0" d="M335.7,85.8c1.3,2,3.6,3.7,1.7,6.1c-1.3,1.7-3,1.4-4.8,0.3c-3.2-1.9-6.1-3.7-5.7-8.2c0.2-2.4,1.5-2.6,3.5-3.2
		c4.1-1.1,8.2-0.8,12.3-0.9c1.1,0,2.4-0.3,2.3,1.6c-0.1,1.4-1.1,1.4-2.1,1.4C340.2,82.8,338,83.5,335.7,85.8z"/>
	<path class="st0" d="M328.9,171.7c-2.2-1.7-5.7,1-5.8-2.2c0-3.1,3.4-1.3,5.1-1.4c3.4-0.3,6.9-0.1,10.5-0.1
		c-0.3,4.3-3.8,2.4-5.9,3.4c0,5.4,0.2,10.8-0.1,16.3c-0.1,1.8,2.2,5.3-2,5.2c-3.6-0.1-1.7-3.3-1.8-5
		C328.8,182.5,328.9,177,328.9,171.7z"/>
	<path class="st0" d="M561.9,180.8c0,3.3,0,6.6,0,9.9c0,1.2,0.1,2.4-1.7,2.3c-1.5-0.1-1.3-1.2-1.3-2.1c0-6.9,0-13.9,0-20.8
		c0-1,0-2,1.4-2c1.9-0.1,1.5,1.3,1.5,2.4C561.9,173.9,561.9,177.3,561.9,180.8z"/>
</g>
</svg>
